<svg width="250" height="142" viewBox="0 0 250 142" fill="none" xmlns="http://www.w3.org/2000/svg">
<path d="M214.246 70.6638C209.833 65.0497 207.273 60.982 207.273 56.7462C207.273 52.5104 209.833 48.0729 214.246 42.4924L248.639 1.58002C249.144 0.974905 248.706 0 247.898 0H230.482C230.213 0 229.943 0.13447 229.741 0.336174L198.211 37.349C195.146 41.0469 192.855 44.7448 191.609 48.4427C191.474 48.8125 191.137 49.0814 190.733 49.0814H175.844C175.305 49.0814 174.901 48.6444 174.901 48.1401V0.941288C174.901 0.403409 174.463 0 173.957 0H158.496C157.957 0 157.552 0.437026 157.552 0.941288V43.4337C157.552 44.5095 156.037 44.812 155.666 43.8035C153.005 36.4749 146.84 26.1544 133.299 26.1544C125.012 26.1544 117.635 30.0876 113.626 38.1558C113.256 38.929 112.211 38.929 111.841 38.1558C102.476 17.2457 81.3214 3.29451 56.2254 4.30303C24.2238 5.54687 -1.10796 33.214 0.0373602 65.1506C1.18268 97.0871 26.3123 121.93 58.7181 121.93C69.3966 121.93 79.2665 119.174 87.7554 114.366C88.5301 113.929 89.406 114.635 89.1365 115.442L81.254 140.756C81.0519 141.361 81.5235 142 82.1635 142H97.6927C98.1306 142 98.5011 141.731 98.6022 141.328L106.518 115.005C106.653 114.602 107.024 114.333 107.428 114.333L159.102 114.165C159.54 114.165 159.91 114.434 160.012 114.837L167.928 141.328C168.062 141.731 168.433 142 168.837 142H184.535C185.175 142 185.646 141.361 185.444 140.756C178.438 118.232 174.867 94.7675 174.867 71.1345V65.9574C174.867 65.4195 175.305 65.0161 175.81 65.0161H190.699C191.104 65.0161 191.44 65.2514 191.575 65.6548C192.822 69.3527 195.112 73.2187 198.178 76.9167L229.371 113.425C229.539 113.627 229.809 113.761 230.112 113.761H249.043C249.852 113.761 250.29 112.82 249.784 112.181L214.212 70.6302L214.246 70.6638ZM58.7181 105.458C35.9128 105.458 17.8909 86.7666 17.8909 62.831C17.8909 38.8954 36.1149 20.7083 58.7181 20.7083C81.3214 20.7083 99.2086 39.2315 99.2086 62.831C99.2086 86.4304 81.1529 105.458 58.7181 105.458ZM112.818 98.5327C112.178 98.5327 111.706 97.9276 111.908 97.2888L127.033 47.0644C128.044 43.5009 130.098 41.7865 133.501 41.7865C136.903 41.7865 138.789 43.5009 139.968 47.0644L154.925 97.2888C155.093 97.8939 154.655 98.499 154.015 98.499H112.851L112.818 98.5327Z" fill="#B26300"/>
</svg>
