<svg width="589" height="149" viewBox="0 0 589 149" fill="none" xmlns="http://www.w3.org/2000/svg">
<path d="M141.775 115.503C141.775 108.692 143.026 103.063 145.528 98.6152C148.169 94.1674 152.13 90.6231 157.412 87.9823C162.833 85.3414 169.643 83.326 177.844 81.9361C186.045 80.4072 195.774 79.2257 207.032 78.3918V71.5117C207.032 67.3419 205.295 64.284 201.82 62.3382C198.345 60.3923 193.342 59.4193 186.809 59.4193C183.89 59.4193 180.554 59.5583 176.802 59.8363C173.049 60.1143 169.157 60.6007 165.126 61.2957C161.234 61.9907 157.204 62.9636 153.034 64.2145L147.613 37.528C153.868 35.5821 160.748 34.0532 168.253 32.9412C175.759 31.6903 182.709 31.0648 189.102 31.0648C201.334 31.0648 211.202 32.5937 218.708 35.6516C226.352 38.5704 231.912 43.0182 235.387 48.9949C239.001 54.9715 240.808 62.3381 240.808 71.0947V110.708C240.808 114.182 241.294 116.476 242.267 117.588C243.379 118.7 244.63 119.256 246.02 119.256C246.715 119.256 247.479 119.256 248.313 119.256C249.286 119.117 250.12 118.908 250.815 118.63L253.525 143.023C250.746 144.691 247.618 146.012 244.143 146.985C240.808 148.097 237.055 148.653 232.885 148.653C227.047 148.653 222.252 147.61 218.499 145.525C214.885 143.301 212.175 139.966 210.368 135.518C206.754 138.159 203.071 140.521 199.318 142.606C195.705 144.552 191.743 146.012 187.434 146.985C183.265 148.097 178.539 148.653 173.257 148.653C168.531 148.653 164.223 147.888 160.331 146.359C156.578 144.83 153.242 142.676 150.323 139.896C147.544 136.977 145.389 133.502 143.86 129.472C142.47 125.441 141.775 120.785 141.775 115.503ZM176.176 113.418C176.176 117.866 177.149 121.132 179.095 123.217C181.041 125.302 183.612 126.344 186.809 126.344C189.033 126.344 191.326 125.997 193.689 125.302C196.191 124.607 198.623 123.634 200.986 122.383C203.349 120.993 205.364 119.464 207.032 117.796V96.5303C201.89 96.9473 197.372 97.5033 193.481 98.1982C189.728 98.7542 186.531 99.6577 183.89 100.909C181.249 102.16 179.303 103.827 178.052 105.912C176.802 107.858 176.176 110.36 176.176 113.418Z" fill="#B26300"/>
<path d="M0 146.568L46.2845 0H88.8163L135.726 146.568H96.9473L89.2332 119.464H44.6166L36.9025 146.568H0ZM51.0798 90.4842H82.7701L66.9249 27.312L51.0798 90.4842Z" fill="#B26300"/>
<path d="M547.053 135.093C547.053 132.577 547.515 130.498 548.439 128.855C549.415 127.212 550.878 125.902 552.829 124.927C554.831 123.951 557.347 123.207 560.376 122.693C563.405 122.129 566.999 121.692 571.158 121.384V118.843C571.158 117.302 570.516 116.173 569.233 115.454C567.949 114.735 566.101 114.376 563.688 114.376C562.61 114.376 561.377 114.427 559.991 114.53C558.605 114.633 557.167 114.812 555.678 115.069C554.241 115.326 552.752 115.685 551.211 116.147L549.209 106.29C551.52 105.571 554.061 105.006 556.833 104.595C559.606 104.133 562.173 103.902 564.535 103.902C569.053 103.902 572.698 104.467 575.471 105.596C578.295 106.675 580.348 108.318 581.632 110.525C582.967 112.733 583.634 115.454 583.634 118.689V133.321C583.634 134.605 583.814 135.452 584.173 135.863C584.584 136.274 585.046 136.479 585.56 136.479C585.816 136.479 586.099 136.479 586.407 136.479C586.766 136.428 587.074 136.351 587.331 136.248L588.332 145.258C587.305 145.875 586.15 146.362 584.866 146.722C583.634 147.132 582.248 147.338 580.708 147.338C578.551 147.338 576.78 146.953 575.394 146.183C574.059 145.361 573.058 144.129 572.39 142.486C571.055 143.461 569.695 144.334 568.309 145.104C566.974 145.823 565.51 146.362 563.919 146.722C562.378 147.132 560.633 147.338 558.682 147.338C556.936 147.338 555.345 147.055 553.907 146.491C552.521 145.926 551.288 145.13 550.21 144.103C549.183 143.025 548.388 141.742 547.823 140.253C547.309 138.764 547.053 137.044 547.053 135.093ZM559.76 134.323C559.76 135.965 560.119 137.172 560.838 137.942C561.557 138.712 562.507 139.097 563.688 139.097C564.509 139.097 565.356 138.969 566.229 138.712C567.153 138.456 568.052 138.096 568.925 137.634C569.797 137.121 570.542 136.556 571.158 135.94V128.084C569.258 128.238 567.59 128.444 566.152 128.701C564.766 128.906 563.585 129.24 562.61 129.702C561.634 130.164 560.915 130.78 560.453 131.55C559.991 132.269 559.76 133.193 559.76 134.323Z" fill="#252424"/>
<path d="M482.87 146.568V104.672H494.268V108.292C495.808 107.265 497.297 106.444 498.735 105.827C500.173 105.211 501.584 104.749 502.971 104.441C504.408 104.133 505.846 103.979 507.283 103.979C508.926 103.979 510.338 104.159 511.519 104.518C512.7 104.878 513.727 105.417 514.6 106.135C515.473 106.803 516.191 107.65 516.756 108.677C518.502 107.599 520.119 106.726 521.608 106.058C523.148 105.34 524.663 104.801 526.152 104.441C527.692 104.082 529.309 103.902 531.004 103.902C532.544 103.902 533.905 104.107 535.085 104.518C536.318 104.878 537.37 105.417 538.243 106.135C539.167 106.854 539.937 107.701 540.553 108.677C541.17 109.652 541.606 110.756 541.863 111.989C542.171 113.221 542.325 114.53 542.325 115.916V146.568H529.694V120.075C529.694 119.305 529.617 118.586 529.463 117.919C529.309 117.2 529.053 116.609 528.693 116.147C528.385 115.634 527.923 115.249 527.307 114.992C526.742 114.735 526.023 114.607 525.151 114.607C524.38 114.607 523.61 114.71 522.84 114.915C522.121 115.069 521.403 115.3 520.684 115.608C520.016 115.865 519.349 116.173 518.682 116.532C518.784 116.943 518.836 117.379 518.836 117.842C518.887 118.252 518.913 118.663 518.913 119.074V146.568H506.282V120.075C506.282 119.356 506.205 118.663 506.051 117.996C505.897 117.277 505.641 116.686 505.281 116.224C504.922 115.711 504.434 115.326 503.818 115.069C503.253 114.761 502.534 114.607 501.661 114.607C500.994 114.607 500.301 114.71 499.582 114.915C498.915 115.069 498.247 115.3 497.58 115.608C496.912 115.865 496.219 116.173 495.5 116.532V146.568H482.87Z" fill="#252424"/>
<path d="M437.775 135.093C437.775 132.577 438.237 130.498 439.162 128.855C440.137 127.212 441.6 125.902 443.551 124.927C445.554 123.951 448.07 123.207 451.099 122.693C454.128 122.129 457.722 121.692 461.881 121.384V118.843C461.881 117.302 461.239 116.173 459.955 115.454C458.672 114.735 456.823 114.376 454.41 114.376C453.332 114.376 452.1 114.427 450.714 114.53C449.327 114.633 447.89 114.812 446.401 115.069C444.963 115.326 443.474 115.685 441.934 116.147L439.932 106.29C442.242 105.571 444.784 105.006 447.556 104.595C450.329 104.133 452.896 103.902 455.257 103.902C459.776 103.902 463.421 104.467 466.193 105.596C469.017 106.675 471.071 108.318 472.355 110.525C473.689 112.733 474.357 115.454 474.357 118.689V133.321C474.357 134.605 474.537 135.452 474.896 135.863C475.307 136.274 475.769 136.479 476.282 136.479C476.539 136.479 476.821 136.479 477.129 136.479C477.489 136.428 477.797 136.351 478.054 136.248L479.055 145.258C478.028 145.875 476.873 146.362 475.589 146.722C474.357 147.132 472.971 147.338 471.43 147.338C469.274 147.338 467.503 146.953 466.116 146.183C464.782 145.361 463.78 144.129 463.113 142.486C461.778 143.461 460.417 144.334 459.031 145.104C457.696 145.823 456.233 146.362 454.641 146.722C453.101 147.132 451.355 147.338 449.404 147.338C447.659 147.338 446.067 147.055 444.63 146.491C443.243 145.926 442.011 145.13 440.933 144.103C439.906 143.025 439.11 141.742 438.546 140.253C438.032 138.764 437.775 137.044 437.775 135.093ZM450.483 134.323C450.483 135.965 450.842 137.172 451.561 137.942C452.28 138.712 453.229 139.097 454.41 139.097C455.232 139.097 456.079 138.969 456.952 138.712C457.876 138.456 458.774 138.096 459.647 137.634C460.52 137.121 461.265 136.556 461.881 135.94V128.084C459.981 128.238 458.312 128.444 456.875 128.701C455.489 128.906 454.308 129.24 453.332 129.702C452.357 130.164 451.638 130.78 451.176 131.55C450.714 132.269 450.483 133.193 450.483 134.323Z" fill="#252424"/>
<path d="M420.865 104.672V109.524C422.302 108.189 423.612 107.111 424.793 106.29C425.973 105.468 427.18 104.878 428.412 104.518C429.644 104.107 431.005 103.902 432.494 103.902C433.315 103.902 434.188 103.979 435.112 104.133C436.037 104.236 436.961 104.441 437.885 104.749L435.883 116.147C434.958 115.942 434.034 115.788 433.11 115.685C432.186 115.531 431.339 115.454 430.569 115.454C429.234 115.454 427.873 115.685 426.487 116.147C425.101 116.558 423.612 117.328 422.02 118.458V146.568H409.467V104.672H420.865Z" fill="#252424"/>
<path d="M363.253 125.543C363.253 122.154 363.587 119.125 364.254 116.455C364.922 113.786 366.025 111.526 367.566 109.678C369.106 107.778 371.185 106.341 373.804 105.365C376.422 104.39 379.683 103.902 383.585 103.902C387.487 103.902 390.747 104.39 393.365 105.365C395.984 106.341 398.063 107.778 399.603 109.678C401.144 111.526 402.248 113.786 402.915 116.455C403.582 119.125 403.916 122.154 403.916 125.543C403.916 128.983 403.557 132.063 402.838 134.785C402.119 137.506 400.964 139.79 399.372 141.639C397.781 143.487 395.676 144.899 393.057 145.875C390.49 146.85 387.333 147.338 383.585 147.338C379.837 147.338 376.653 146.85 374.035 145.875C371.468 144.899 369.388 143.487 367.797 141.639C366.205 139.79 365.05 137.506 364.331 134.785C363.612 132.063 363.253 128.983 363.253 125.543ZM376.268 125.543C376.268 128.624 376.499 131.062 376.961 132.859C377.475 134.656 378.271 135.94 379.349 136.71C380.427 137.429 381.839 137.788 383.585 137.788C385.382 137.788 386.793 137.429 387.82 136.71C388.898 135.94 389.694 134.656 390.208 132.859C390.721 131.062 390.978 128.624 390.978 125.543C390.978 122.462 390.747 120.049 390.285 118.304C389.823 116.558 389.053 115.326 387.974 114.607C386.896 113.837 385.433 113.452 383.585 113.452C381.736 113.452 380.273 113.837 379.195 114.607C378.168 115.326 377.423 116.558 376.961 118.304C376.499 120.049 376.268 122.462 376.268 125.543Z" fill="#252424"/>
<path d="M341.022 147.338C337.736 147.338 334.835 146.953 332.319 146.183C329.803 145.361 327.647 144.129 325.85 142.486C324.104 140.792 322.769 138.635 321.845 136.017C320.921 133.347 320.459 130.189 320.459 126.544C320.459 122.385 320.972 118.868 321.999 115.993C323.077 113.118 324.541 110.782 326.389 108.985C328.289 107.188 330.522 105.904 333.089 105.134C335.656 104.313 338.455 103.902 341.484 103.902C347.645 103.902 352.163 105.417 355.038 108.446C357.965 111.475 359.428 116.404 359.428 123.233C359.428 123.746 359.402 124.413 359.351 125.235C359.351 126.005 359.325 126.775 359.274 127.545C357.99 127.648 356.424 127.776 354.576 127.93C352.728 128.084 350.674 128.238 348.415 128.392C346.156 128.546 343.768 128.675 341.253 128.778C338.737 128.88 336.17 128.957 333.551 129.009C333.5 129.163 333.474 129.317 333.474 129.471C333.474 129.625 333.474 129.804 333.474 130.01C333.474 131.704 333.808 133.116 334.475 134.246C335.194 135.324 336.272 136.145 337.71 136.71C339.148 137.223 341.022 137.48 343.332 137.48C344.77 137.48 346.284 137.403 347.876 137.249C349.467 137.095 351.085 136.89 352.728 136.633C354.371 136.325 356.014 135.991 357.657 135.632L359.12 144.719C357.323 145.284 355.475 145.772 353.575 146.183C351.675 146.593 349.699 146.876 347.645 147.03C345.591 147.235 343.383 147.338 341.022 147.338ZM333.628 121.538C334.963 121.538 336.298 121.513 337.633 121.461C338.968 121.41 340.226 121.359 341.407 121.307C342.588 121.205 343.64 121.128 344.564 121.076C345.488 121.025 346.259 120.999 346.875 120.999C346.823 118.945 346.567 117.328 346.105 116.147C345.642 114.915 344.975 114.042 344.102 113.529C343.229 113.015 342.126 112.759 340.791 112.759C339.866 112.759 339.019 112.887 338.249 113.144C337.479 113.4 336.76 113.863 336.093 114.53C335.477 115.146 334.938 116.045 334.475 117.225C334.065 118.355 333.782 119.793 333.628 121.538Z" fill="#252424"/>
<path d="M269.851 120.383C269.851 113.914 270.8 108.6 272.7 104.441C274.6 100.231 277.475 97.0992 281.326 95.0455C285.176 92.9405 290.028 91.8879 295.881 91.8879C297.576 91.8879 299.167 91.9393 300.656 92.042C302.196 92.1447 303.685 92.2987 305.123 92.5041C306.56 92.7094 307.947 92.9661 309.282 93.2742C310.668 93.5822 312.003 93.9416 313.286 94.3524L310.899 104.672C308.537 104.107 306.15 103.671 303.737 103.363C301.324 103.004 299.064 102.824 296.959 102.824C293.776 102.824 291.158 103.466 289.104 104.749C287.05 105.981 285.536 107.907 284.56 110.525C283.585 113.092 283.097 116.43 283.097 120.537C283.097 124.542 283.533 127.751 284.406 130.164C285.33 132.577 286.691 134.348 288.488 135.478C290.336 136.556 292.595 137.095 295.265 137.095C296.908 137.095 298.423 137.018 299.809 136.864C301.247 136.659 302.504 136.376 303.583 136.017V126.313H294.341V116.224H315.289V143.256C312.311 144.642 309.025 145.669 305.431 146.337C301.888 147.004 297.986 147.338 293.725 147.338C288.385 147.338 283.944 146.362 280.401 144.411C276.859 142.46 274.215 139.508 272.469 135.555C270.723 131.55 269.851 126.493 269.851 120.383Z" fill="#252424"/>
</svg>
