<svg width="666" height="764" viewBox="0 0 666 764" fill="none" xmlns="http://www.w3.org/2000/svg">
<rect x="570.775" y="334.249" width="47.555" height="47.7501" fill="#E8D100"/>
<rect x="570.775" y="382" width="47.555" height="47.7501" fill="#E8D100"/>
<rect x="523.217" y="429.75" width="47.555" height="47.7501" fill="#E8D100"/>
<rect x="475.666" y="382" width="47.555" height="47.7501" fill="#E8D100"/>
<rect x="428.109" y="429.75" width="47.555" height="47.7501" fill="#E8D100"/>
<rect x="618.33" y="382" width="47.555" height="47.7501" fill="#E8D100"/>
<rect x="570.775" y="429.75" width="47.555" height="47.7501" fill="#E8D100"/>
<rect x="523.217" y="382" width="47.555" height="47.7501" fill="#E8D100"/>
<rect x="475.666" y="429.75" width="47.555" height="47.7501" fill="#E8D100"/>
<rect x="142.779" y="573" width="47.555" height="47.7501" fill="#E8D100"/>
<rect x="190.336" y="573" width="47.555" height="47.7501" fill="#E8D100"/>
<rect x="190.336" y="620.75" width="47.555" height="47.7501" fill="#E8D100"/>
<rect x="190.336" y="668.501" width="47.555" height="47.7501" fill="#E8D100"/>
<rect x="237.887" y="573" width="47.555" height="47.7501" fill="#E8D100"/>
<rect x="237.887" y="620.75" width="47.555" height="47.7501" fill="#E8D100"/>
<rect x="95.2266" y="95.4995" width="47.555" height="47.7501" fill="#E8D100"/>
<rect x="95.2266" y="143.25" width="47.555" height="47.7501" fill="#E8D100"/>
<rect x="142.783" y="143.25" width="47.555" height="47.7501" fill="#E8D100"/>
<rect x="190.334" y="143.25" width="47.555" height="47.7501" fill="#E8D100"/>
<rect x="237.893" y="143.25" width="47.555" height="47.7501" fill="#E8D100"/>
<rect x="95.2266" y="191" width="47.555" height="47.7501" fill="#E8D100"/>
<rect x="142.783" y="191" width="47.555" height="47.7501" fill="#E8D100"/>
<rect x="190.334" y="191" width="47.555" height="47.7501" fill="#E8D100"/>
<rect x="237.893" y="191" width="47.555" height="47.7501" fill="#E8D100"/>
<rect x="142.779" y="429.75" width="47.555" height="47.7501" fill="#CA262F"/>
<rect x="142.779" y="477.5" width="47.555" height="47.7501" fill="#CA262F"/>
<rect x="190.336" y="477.5" width="47.555" height="47.7501" fill="#CA262F"/>
<rect x="142.779" y="525.251" width="47.555" height="47.7501" fill="#CA262F"/>
<rect x="190.336" y="525.251" width="47.555" height="47.7501" fill="#CA262F"/>
<rect x="237.887" y="668.5" width="47.555" height="47.7501" fill="#F17028"/>
<rect x="285.443" y="668.5" width="47.555" height="47.7501" fill="#F17028"/>
<rect x="285.443" y="716.25" width="47.555" height="47.7501" fill="#F17028"/>
<rect x="332.996" y="668.5" width="47.555" height="47.7501" fill="#F17028"/>
<rect x="0.113281" y="429.75" width="47.555" height="47.7501" fill="#F17028"/>
<rect x="47.6699" y="382" width="47.555" height="47.7501" fill="#F17028"/>
<rect x="95.2207" y="334.249" width="47.555" height="47.7501" fill="#F17028"/>
<rect x="47.6699" y="334.249" width="47.555" height="47.7501" fill="#F17028"/>
<rect x="47.6699" y="429.75" width="47.555" height="47.7501" fill="#F17028"/>
<rect x="95.2207" y="382" width="47.555" height="47.7501" fill="#F17028"/>
<rect x="142.779" y="334.249" width="47.555" height="47.7501" fill="#F17028"/>
<rect x="95.2207" y="429.75" width="47.555" height="47.7501" fill="#F17028"/>
<rect x="142.779" y="382" width="47.555" height="47.7501" fill="#F17028"/>
<rect x="190.334" y="334.249" width="47.555" height="47.7501" fill="#F17028"/>
<rect x="523.221" y="573.001" width="47.555" height="47.7501" fill="#F17028"/>
<rect x="570.777" y="525.25" width="47.555" height="47.7501" fill="#F17028"/>
<rect x="523.221" y="525.25" width="47.555" height="47.7501" fill="#F17028"/>
<rect x="570.777" y="477.5" width="47.555" height="47.7501" fill="#F17028"/>
<rect x="285.447" y="190.993" width="47.7501" height="47.555" transform="rotate(-90 285.447 190.993)" fill="#B48CC7"/>
<rect x="333.004" y="190.993" width="47.7501" height="47.555" transform="rotate(-90 333.004 190.993)" fill="#B48CC7"/>
<rect x="333.004" y="238.743" width="47.7501" height="47.555" transform="rotate(-90 333.004 238.743)" fill="#B48CC7"/>
<rect x="380.555" y="238.743" width="47.7501" height="47.555" transform="rotate(-90 380.555 238.743)" fill="#B48CC7"/>
<rect x="428.113" y="238.743" width="47.7501" height="47.555" transform="rotate(-90 428.113 238.743)" fill="#B48CC7"/>
<rect x="428.113" y="286.493" width="47.7501" height="47.555" transform="rotate(-90 428.113 286.493)" fill="#B48CC7"/>
<rect x="380.555" y="716.25" width="47.7501" height="47.555" transform="rotate(-90 380.555 716.25)" fill="#B48CC7"/>
<rect x="428.111" y="668.501" width="47.7501" height="47.555" transform="rotate(-90 428.111 668.501)" fill="#B48CC7"/>
<rect x="428.111" y="716.25" width="47.7501" height="47.555" transform="rotate(-90 428.111 716.25)" fill="#B48CC7"/>
<rect x="475.662" y="668.501" width="47.7501" height="47.555" transform="rotate(-90 475.662 668.501)" fill="#B48CC7"/>
<rect x="475.662" y="620.75" width="47.7501" height="47.555" transform="rotate(-90 475.662 620.75)" fill="#B48CC7"/>
<rect x="0.113281" y="573.001" width="47.7501" height="47.555" transform="rotate(-90 0.113281 573.001)" fill="#B48CC7"/>
<rect x="0.113281" y="525.251" width="47.7501" height="47.555" transform="rotate(-90 0.113281 525.251)" fill="#B48CC7"/>
<rect x="47.6699" y="573.001" width="47.7501" height="47.555" transform="rotate(-90 47.6699 573.001)" fill="#B48CC7"/>
<rect x="47.6699" y="525.251" width="47.7501" height="47.555" transform="rotate(-90 47.6699 525.251)" fill="#B48CC7"/>
<rect x="95.2207" y="573.001" width="47.7501" height="47.555" transform="rotate(-90 95.2207 573.001)" fill="#B48CC7"/>
<rect x="95.2207" y="525.251" width="47.7501" height="47.555" transform="rotate(-90 95.2207 525.251)" fill="#B48CC7"/>
<rect x="190.334" y="382" width="47.555" height="47.7501" fill="#73B34A"/>
<rect x="237.891" y="382" width="47.555" height="47.7501" fill="#73B34A"/>
<rect x="285.441" y="382" width="47.555" height="47.7501" fill="#73B34A"/>
<rect x="333" y="382" width="47.555" height="47.7501" fill="#73B34A"/>
<rect x="380.555" y="382" width="47.555" height="47.7501" fill="#73B34A"/>
<rect x="190.334" y="429.75" width="47.555" height="47.7501" fill="#73B34A"/>
<rect x="237.891" y="429.75" width="47.555" height="47.7501" fill="#73B34A"/>
<rect x="285.441" y="429.75" width="47.555" height="47.7501" fill="#73B34A"/>
<rect x="333" y="429.75" width="47.555" height="47.7501" fill="#73B34A"/>
<rect x="428.111" y="477.5" width="47.555" height="47.7501" fill="#73B34A"/>
<rect x="380.555" y="525.25" width="47.555" height="47.7501" fill="#73B34A"/>
<rect x="380.555" y="573" width="47.555" height="47.7501" fill="#73B34A"/>
<rect x="380.555" y="620.75" width="47.555" height="47.7501" fill="#73B34A"/>
<rect x="475.662" y="477.5" width="47.555" height="47.7501" fill="#73B34A"/>
<rect x="428.111" y="525.25" width="47.555" height="47.7501" fill="#73B34A"/>
<rect x="428.111" y="573" width="47.555" height="47.7501" fill="#73B34A"/>
<rect x="523.221" y="477.5" width="47.555" height="47.7501" fill="#73B34A"/>
<rect x="475.662" y="525.25" width="47.555" height="47.7501" fill="#73B34A"/>
<rect x="47.668" y="190.993" width="47.555" height="47.7501" fill="#73B34A"/>
<rect x="47.668" y="238.743" width="47.555" height="47.7501" fill="#73B34A"/>
<rect x="95.2227" y="238.743" width="47.555" height="47.7501" fill="#73B34A"/>
<rect x="142.775" y="238.743" width="47.555" height="47.7501" fill="#73B34A"/>
<rect x="190.334" y="238.743" width="47.555" height="47.7501" fill="#73B34A"/>
<rect x="237.889" y="238.743" width="47.555" height="47.7501" fill="#73B34A"/>
<rect x="47.668" y="286.494" width="47.555" height="47.7501" fill="#73B34A"/>
<rect x="95.2227" y="286.494" width="47.555" height="47.7501" fill="#73B34A"/>
<rect x="142.775" y="286.494" width="47.555" height="47.7501" fill="#73B34A"/>
<rect x="190.334" y="286.494" width="47.555" height="47.7501" fill="#73B34A"/>
<rect x="333.004" y="573" width="47.555" height="47.7501" fill="#CA262F"/>
<rect x="333.004" y="620.75" width="47.555" height="47.7501" fill="#CA262F"/>
<rect x="285.447" y="620.75" width="47.555" height="47.7501" fill="#CA262F"/>
<rect x="47.668" y="573" width="47.555" height="47.7501" fill="#0079BB"/>
<rect x="95.2227" y="573" width="47.555" height="47.7501" fill="#0079BB"/>
<rect x="47.668" y="620.75" width="47.555" height="47.7501" fill="#0079BB"/>
<rect x="95.2227" y="620.75" width="47.555" height="47.7501" fill="#0079BB"/>
<rect x="142.775" y="620.75" width="47.555" height="47.7501" fill="#0079BB"/>
<rect x="285.443" y="573.001" width="47.555" height="47.7501" fill="#0079BB"/>
<rect x="237.887" y="525.251" width="47.555" height="47.7501" fill="#0079BB"/>
<rect x="237.887" y="477.5" width="47.555" height="47.7501" fill="#0079BB"/>
<rect x="285.443" y="525.251" width="47.555" height="47.7501" fill="#0079BB"/>
<rect x="285.443" y="477.5" width="47.555" height="47.7501" fill="#0079BB"/>
<rect x="428.107" y="429.75" width="47.7501" height="47.555" transform="rotate(90 428.107 429.75)" fill="#0079BB"/>
<rect x="332.996" y="525.251" width="47.555" height="47.7501" fill="#0079BB"/>
<rect x="332.996" y="477.5" width="47.555" height="47.7501" fill="#0079BB"/>
<rect x="428.107" y="477.5" width="47.7501" height="47.555" transform="rotate(90 428.107 477.5)" fill="#0079BB"/>
<rect x="285.443" y="190.993" width="47.555" height="47.7501" fill="#0079BB"/>
<rect x="285.443" y="238.743" width="47.555" height="47.7501" fill="#0079BB"/>
<rect x="332.996" y="238.743" width="47.555" height="47.7501" fill="#0079BB"/>
<rect x="380.553" y="238.743" width="47.555" height="47.7501" fill="#0079BB"/>
<rect x="285.443" y="286.494" width="47.555" height="47.7501" fill="#0079BB"/>
<rect x="380.553" y="286.494" width="47.555" height="47.7501" fill="#0079BB"/>
<rect x="332.996" y="286.494" width="47.555" height="47.7501" fill="#0079BB"/>
<rect x="428.107" y="286.494" width="47.555" height="47.7501" fill="#0079BB"/>
<rect x="237.887" y="286.494" width="47.555" height="47.7501" fill="#0079BB"/>
<rect x="285.443" y="334.244" width="47.555" height="47.7501" fill="#0079BB"/>
<rect x="332.996" y="334.244" width="47.555" height="47.7501" fill="#0079BB"/>
<rect x="237.887" y="334.244" width="47.555" height="47.7501" fill="#0079BB"/>
<rect x="475.662" y="238.743" width="47.555" height="47.7501" fill="#CA262F"/>
<rect x="475.662" y="286.494" width="47.555" height="47.7501" fill="#CA262F"/>
<rect x="523.221" y="286.494" width="47.555" height="47.7501" fill="#CA262F"/>
<rect x="475.662" y="334.244" width="47.555" height="47.7501" fill="#CA262F"/>
<rect x="380.555" y="334.244" width="47.555" height="47.7501" fill="#CA262F"/>
<rect x="523.221" y="334.244" width="47.555" height="47.7501" fill="#CA262F"/>
<rect x="428.111" y="334.244" width="47.555" height="47.7501" fill="#CA262F"/>
<rect x="428.111" y="381.994" width="47.555" height="47.7501" fill="#CA262F"/>
<rect x="95.2266" y="47.75" width="47.555" height="47.7501" fill="#CA262F"/>
<rect x="142.783" y="95.5005" width="47.555" height="47.7501" fill="#CA262F"/>
<rect x="142.783" y="47.75" width="47.555" height="47.7501" fill="#CA262F"/>
<rect x="190.334" y="95.5005" width="47.555" height="47.7501" fill="#CA262F"/>
<rect x="190.334" y="47.75" width="47.555" height="47.7501" fill="#CA262F"/>
<rect x="237.893" y="95.5005" width="47.555" height="47.7501" fill="#CA262F"/>
<rect x="190.334" width="47.555" height="47.7501" fill="#CA262F"/>
</svg>
