<?xml version="1.0" encoding="UTF-8"?>
<svg id="Capa_2" data-name="Capa 2" xmlns="http://www.w3.org/2000/svg" viewBox="0 0 42.28 49.26">
  <defs>
    <style>
      .cls-1 {
        fill: #071013;
      }
    </style>
  </defs>
  <g id="Capa_1-2" data-name="Capa 1">
    <path class="cls-1" d="M0,37.57c0-3,.77-5.53,2.3-7.59,1.53-2.06,3.57-3.76,6.1-5.1,2.53-1.4,5.4-2.46,8.6-3.2,3.27-.73,6.6-1.23,10-1.5v-2.2c0-1.6-.1-3.2-.3-4.8-.2-1.6-.67-3.06-1.4-4.4-.8-1.33-1.9-2.16-3.3-2.5-1.33-.4-2.67-.6-4-.6-1.8,0-3.2.07-4.2.2-1,.07-1.77.23-2.3.5-.47.27-.77.67-.9,1.2-.07.47-.1,1.13-.1,2,0,.93.1,1.53.3,1.8.27.2.4.47.4.8,0,.53-.23,1.1-.7,1.7-.4.53-.93,1.03-1.6,1.5-.6.4-1.3.73-2.1,1-.73.27-1.43.4-2.1.4-1.53,0-2.47-.43-2.8-1.3-.33-.93-.5-1.73-.5-2.4,0-1.6.77-3.16,2.3-4.7,1.6-1.53,3.5-2.93,5.7-4.2,2.27-1.27,4.6-2.26,7-3,2.4-.8,4.43-1.2,6.1-1.2,2.8,0,5.06.43,6.8,1.3,1.8.87,3.17,2,4.1,3.4.93,1.4,1.57,3,1.9,4.8.33,1.73.5,3.5.5,5.3v28.57c.73,0,1.5-.13,2.3-.4.8-.33,1.6-.5,2.4-.5.73,0,1.2.13,1.4.4.27.27.4.63.4,1.1,0,.27-.27.7-.8,1.3-.53.53-1.3,1.1-2.3,1.7-.93.6-2.03,1.13-3.3,1.6-1.27.47-2.67.7-4.2.7-1.27,0-2.37-.27-3.3-.8-.93-.53-1.4-1.43-1.4-2.7v-3.8c-1.73,2.13-3.63,3.9-5.7,5.3-2.07,1.33-4.56,2-7.5,2-2.47,0-4.6-.37-6.4-1.1-1.73-.73-3.17-1.67-4.3-2.8-1.07-1.2-1.87-2.46-2.4-3.8-.47-1.4-.7-2.73-.7-4ZM9.4,34.27c0,2.66.67,4.9,2,6.69,1.33,1.8,3.8,2.7,7.4,2.7,1.33,0,2.73-.5,4.2-1.5,1.53-1,2.87-2.3,4-3.9v-13.49c-1.87.07-3.83.27-5.9.6-2.07.27-3.97.73-5.7,1.4-1.73.67-3.17,1.6-4.3,2.8-1.13,1.2-1.7,2.76-1.7,4.7Z"/>
  </g>
</svg>