<?xml version="1.0" encoding="UTF-8"?>
<svg id="Capa_2" data-name="Capa 2" xmlns="http://www.w3.org/2000/svg" viewBox="0 0 52.3 53.42">
  <defs>
    <style>
      .cls-1 {
        fill: #071013;
      }
    </style>
  </defs>
  <g id="Capa_1-2" data-name="Capa 1">
    <g>
      <path class="cls-1" d="M31.5,34.66c0-2.91-2.36-5.27-5.28-5.27H2.64c-1.68,0-2.95,1.56-2.58,3.2,2.68,11.93,13.34,20.84,26.09,20.84,1.01,0,2.01-.06,3-.17,1.34-.15,2.35-1.28,2.35-2.62v-15.98h0Z"/>
      <path class="cls-1" d="M20.8,18.76c0,2.91,2.36,5.27,5.28,5.27h23.57c1.68,0,2.95-1.56,2.58-3.2C49.56,8.91,38.9,0,26.15,0c-1.01,0-2.01.06-3,.17-1.34.15-2.35,1.28-2.35,2.62v15.98h0Z"/>
      <path class="cls-1" d="M49.66,29.38h-7.53c-2.92,0-5.28,2.36-5.28,5.27v12.11c0,2.09,2.34,3.37,4.08,2.21,5.64-3.74,9.77-9.56,11.3-16.36.37-1.65-.88-3.23-2.57-3.23h0Z"/>
      <path class="cls-1" d="M15.46,18.76V6.66c0-2.09-2.34-3.37-4.08-2.21C5.74,8.19,1.61,14.01.07,20.81c-.37,1.65.88,3.23,2.57,3.23h7.53c2.92,0,5.28-2.36,5.28-5.27Z"/>
    </g>
  </g>
</svg>