<?xml version="1.0" encoding="UTF-8"?>
<svg id="Capa_2" data-name="Capa 2" xmlns="http://www.w3.org/2000/svg" viewBox="0 0 37.2 39">
  <defs>
    <style>
      .cls-1 {
        fill: #fffbff;
      }
    </style>
  </defs>
  <g id="Capa_1-2" data-name="Capa 1">
    <path class="cls-1" d="M0,27.3v-15.74C0,3.9,3.61,0,10.98,0h14.81c7.72,0,11.41,4.33,11.41,11.56,0,2.34-1.2,4.18-3.61,4.18-2.27,0-3.9,1.06-3.9,3.4s1.63,3.55,3.9,3.55c2.41,0,3.61,2.27,3.61,4.61,0,7.16-3.76,11.7-11.41,11.7h-14.81c-7.37,0-10.98-4.18-10.98-11.7ZM7.09,28.08c.07,2.34,1.56,3.83,3.9,3.83h14.81c2.34,0,3.83-1.49,3.9-3.83v-1.49c0-2.34-1.56-3.9-3.9-3.9h-14.81c-2.34,0-3.9,1.56-3.9,3.9v1.49ZM7.09,11.84c0,2.34,1.56,3.9,3.9,3.9h14.81c2.34,0,3.9-1.56,3.9-3.9v-.99c-.07-2.27-1.63-3.76-3.9-3.76h-14.81c-2.34,0-3.9,1.56-3.9,3.83v.92Z"/>
  </g>
</svg>