<svg width="41" height="25" viewBox="0 0 41 25" fill="none" xmlns="http://www.w3.org/2000/svg">
<path d="M15.7633 17.1024C15.7633 20.0324 13.7891 20.5 11.0149 20.5H5.91332V13.6944H11.2643C14.7762 13.6944 15.7633 15.1282 15.7633 17.092M5.94449 4.23922H11.3474C13.8099 4.23922 14.7346 5.538 14.7346 7.12771C14.7346 9.26811 13.1034 10.0162 11.3474 10.0162H5.94449V4.23922ZM16.6984 11.3046C16.6984 11.3046 20.0648 9.99542 20.0648 6.15103C20.0648 2.30664 17.727 0 12.6046 0H0.5V24.6872H12.7085C15.2542 24.6872 21.1974 23.7209 21.1974 17.6426C21.1974 12.1358 16.6984 11.2942 16.6984 11.2942" fill="#FFFBFF"/>
<path d="M27.5874 13.3515C27.5874 13.3515 27.7121 9.59019 31.6812 9.59019C35.3801 9.59019 35.5255 13.3515 35.5255 13.3515H27.5874ZM31.7851 5.87048C25.5821 5.87048 22.652 10.6604 22.652 15.6165C22.652 18.6193 24.1171 24.6872 31.8786 24.6872C39.1102 24.6872 40.17 18.7544 40.17 18.7544H35.8788C35.8788 18.7544 34.9333 21.061 31.837 21.061C28.7407 21.061 27.5978 18.9414 27.5978 16.5413H40.4921C40.4921 16.5413 41.0947 5.87048 31.7851 5.87048Z" fill="#FFFBFF"/>
<path d="M36.7412 1.2572H26.7146V4.01062H36.7412V1.2572Z" fill="#FFFBFF"/>
</svg>
