<?xml version="1.0" encoding="UTF-8"?>
<svg id="Capa_2" data-name="Capa 2" xmlns="http://www.w3.org/2000/svg" viewBox="0 0 33.29 39">
  <defs>
    <style>
      .cls-1 {
        fill: #071013;
      }
    </style>
  </defs>
  <g id="Capa_1-2" data-name="Capa 1">
    <path class="cls-1" d="M10.68,37.64c-2.21-.9-4.11-2.17-5.68-3.79-1.58-1.62-2.8-3.55-3.68-5.77-.88-2.23-1.32-4.65-1.32-7.26v-1.46c0-3.03.49-5.75,1.46-8.15.97-2.4,2.27-4.43,3.9-6.1,1.6-1.65,3.42-2.91,5.48-3.79,2.05-.88,4.15-1.32,6.31-1.32,2.71,0,5.08.47,7.11,1.41,2.03.94,3.71,2.23,5.06,3.88,1.34,1.67,2.35,3.63,3.01,5.87s.99,4.68.99,7.3v2.89H6.43v.24c.16,1.83.53,3.44,1.09,4.83.57,1.39,1.35,2.62,2.35,3.68,1.02,1.13,2.25,2.03,3.68,2.68,1.44.65,3.03.98,4.76.98,2.29,0,4.33-.46,6.12-1.39,1.79-.93,3.27-2.16,4.45-3.68l3.93,3.06c-1.25,1.9-3.12,3.59-5.62,5.06-2.49,1.47-5.57,2.21-9.23,2.21-2.64,0-5.07-.45-7.28-1.36h0ZM13.45,5.99c-1.16.47-2.2,1.17-3.13,2.07-.93.93-1.71,2.06-2.35,3.39-.64,1.33-1.08,2.87-1.34,4.61h20.23v-.31c0-1.16-.22-2.41-.66-3.74-.44-1.33-1.05-2.48-1.84-3.46-.79-.98-1.78-1.76-2.97-2.37-1.19-.6-2.61-.9-4.26-.9-1.3,0-2.52.24-3.68.71Z"/>
  </g>
</svg>