<?xml version="1.0" encoding="UTF-8"?>
<svg id="Capa_2" data-name="Capa 2" xmlns="http://www.w3.org/2000/svg" viewBox="0 0 48.16 48.12">
  <defs>
    <style>
      .cls-1 {
        fill: #071013;
      }
    </style>
  </defs>
  <g id="Capa_1-2" data-name="Capa 1">
    <path class="cls-1" d="M47.95,27.87c0,.32-.09.7-.27,1.14-.19.44-.4.78-.63,1.01-.23-.09-.42-.08-.55.08-.13.13-.3.25-.47.34-.27.04-.53.04-.76,0-.23-.04-.47-.09-.76-.13-.13,0-.28.04-.42.13-.13.09-.27.04-.42-.13-.55.23-1.02.34-1.4.3-.38-.04-.74,0-1.06.09-.23.09-.36.3-.42.63-.06.32.02.55.21.68,0,.46.1.76.28.89-.09.09-.11.23-.08.38.04.15.08.28.08.38-.13.36-.19.59-.17.68.02.09.04.19.04.28-.13.59-.17,1.1-.09,1.52.08.42.15.76.25,1.02,0,.42.06.66.17.76.11.1.19.19.25.29,0,.19.02.42.08.68.04.28-.06.46-.28.55.23.36.32.59.28.65-.06.08-.06.15,0,.25.09.36.23.66.42.89.19.23.23.59.13,1.1.36.51.47,1.01.34,1.52.1.19.17.44.25.76s-.04.53-.3.63c0,.32-.06.57-.13.72-.09.15-.19.36-.28.59-.27.04-.51.21-.72.47-.21.28-.74.34-1.61.21-.19-.19-.34-.32-.46-.46-.11-.11-.23-.21-.3-.3,0-.32-.06-.57-.17-.72-.11-.15-.28-.36-.51-.59-.04-.23-.08-.51-.1-.84-.02-.32,0-.59.04-.84.13-.42.15-.68.04-.84-.11-.13-.13-.25-.04-.34-.46.13-.72.25-.8.3-.08.08-.15.08-.25.04-.51.36-.82.65-.93.84s-.28.32-.51.42c-.19.51-.34.74-.47.72-.13-.02-.25,0-.34.09-.13.04-.27.17-.42.38-.15.21-.25.36-.34.46-.42.32-.66.47-.76.46-.09-.02-.11.04-.08.17-.28,0-.51.06-.68.17-.19.11-.4.28-.63.51-.23-.09-.46-.06-.65.1-.21.17-.47.19-.8.09-.42.28-.65.4-.72.34-.08-.04-.15-.08-.25-.08-.32.1-.55.21-.68.34h-.68c-.23,0-.46.04-.68.13-.09-.04-.21-.08-.34-.08s-.27-.02-.42-.08c-.32.09-.57.23-.76.42-.32-.09-.55-.11-.68-.08-.13.04-.32.09-.55.13-.13,0-.28-.02-.46-.08-.15-.04-.28-.02-.38.08-.46,0-.7-.02-.72-.08-.02-.04-.08-.08-.17-.08-.32-.04-.61-.02-.85.08-.25.09-.55.02-.85-.21-.32.04-.59.06-.8.04-.21-.02-.36-.09-.46-.25-.65-.04-1.01-.04-1.1,0-.65-.32-1.23-.55-1.78-.68-.28-.04-.53-.06-.8-.04-.25.02-.49-.06-.72-.25-.51-.13-.78-.23-.84-.28-.04-.04-.11-.08-.21-.08-.36-.04-.57-.09-.63-.13-.04-.04-.11-.09-.21-.13-.23-.09-.44-.13-.63-.09-.19.04-.4,0-.63-.04-.09-.04-.25-.15-.46-.3-.21-.15-.34-.3-.38-.46-.13,0-.25-.04-.34-.13-.09-.1-.23-.11-.42-.08-.04-.19-.13-.3-.25-.38-.11-.08-.23-.17-.3-.3-.23.04-.42,0-.59-.09-.17-.11-.3-.23-.42-.34s-.25-.21-.38-.3c-.13-.09-.32-.11-.55-.08-.09-.19-.21-.32-.34-.42-.13-.09-.25-.23-.34-.42-.42-.23-.63-.36-.63-.42s-.02-.11-.08-.21c-.46-.46-.8-.8-1.01-1.01s-.42-.42-.65-.65c-.32-.32-.47-.59-.47-.84-.09-.04-.19-.1-.3-.17-.11-.08-.23-.13-.3-.17-.09-.23-.23-.42-.38-.55-.15-.13-.28-.32-.38-.55-.55-.59-.91-1.14-1.06-1.61-.15-.47-.42-.85-.8-1.14-.06-.13-.09-.28-.13-.46-.04-.15-.11-.28-.21-.38.09-.28.04-.53-.13-.76-.19-.23-.32-.46-.42-.68.09-.23.09-.49.04-.8-.08-.3-.19-.53-.38-.72,0-.19-.04-.34-.09-.47-.08-.13-.15-.3-.25-.47-.19-.78-.23-1.35-.09-1.73.11-.36.04-.7-.25-1.03.09-.13.19-.46.27-.97.09-.51.04-.78-.13-.84.23-.65.32-1.31.27-1.99.19-.59.3-.95.34-1.06.04-.11.13-.34.27-.65.13-.23.21-.4.21-.47s.02-.19.08-.28c.19-.32.27-.57.27-.72s.04-.32.13-.51c-.09-.46.04-.87.42-1.23-.04-.23,0-.4.09-.47.11-.09.15-.25.09-.47.19-.74.38-1.25.59-1.58.21-.32.3-.7.3-1.18l.28-.68s.19-.17.3-.25c.11-.08.13-.19.04-.38.36-.13.59-.36.68-.65.09-.3.15-.61.21-.93.04-.19.15-.32.34-.46.19-.11.3-.28.34-.51.09-.04.17-.13.25-.25.08-.11.17-.17.3-.17.09-.23.21-.46.34-.68.13-.23.32-.4.55-.47.36-.42.63-.74.76-.97.13-.23.34-.4.63-.47.09-.19.21-.34.34-.46.13-.11.3-.25.47-.38,0-.23.08-.38.21-.46.13-.08.23-.21.27-.46.36-.28.55-.42.55-.46,0-.02.11-.08.34-.17.51-.84.97-1.35,1.4-1.56s.84-.42,1.2-.65c.09-.13.17-.25.25-.34.08-.09.15-.21.25-.34.09-.04.34-.15.76-.3.42-.15.59-.28.55-.38.27.04.49.02.65-.08.15-.09.36-.19.59-.28.04.04.23,0,.51-.13.3-.13.49-.21.59-.21.32-.23.65-.38.97-.46.32-.08.66-.17,1.03-.3l.55-.42,1.73-.47s.21.02.38.08c.15.04.28,0,.38-.13.27,0,.55.02.84.08.27.04.51-.02.68-.21.19,0,.4.04.65.13.25.09.42.04.51-.13.09.13.23.19.38.13.15-.04.34-.08.51-.08s.36.04.51.09c.15.08.32.08.51.04.42-.09.65-.11.72-.08.08.04.13.02.17-.08.36.28.57.44.63.47.04.04.11.09.21.13.68.23,1.21.46,1.58.68.36.23.76.4,1.18.47.23.32.46.51.68.55.23.04.44.19.63.42.27.09.59.3.93.65.34.34.61.49.8.46.09.28.23.53.42.76.19.23.32.47.42.76.23.09.4.25.47.47.09.23.23.4.42.47.09.42.23.66.42.76.13.65.4,1.1.76,1.39-.09.32-.09.51,0,.55.1.04.15.11.21.21.1.13.13.3.1.51-.02.21.06.36.25.46.13.36.28.53.46.51.17-.02.29-.09.38-.25.42-.04.76-.13,1.02-.28.28-.13.57-.32.89-.55.59.04,1.12.02,1.58-.08.27.19.44.28.51.28s.13.04.17.13c.23.23.36.34.42.34.04,0,.11.04.21.13.1.09.17.21.25.34.08.13.19.25.38.34-.1.19-.1.32,0,.42.09.09.15.21.21.34,0,.19-.04.34-.13.46-.1.11-.11.28-.08.51-.19.09-.34.19-.47.3-.13.11-.25.28-.34.51-.32,0-.59.08-.84.21-.23.13-.53.19-.89.13-.1.04-.19.09-.28.17-.1.08-.19.15-.27.25-.23-.09-.51-.09-.85,0-.34.09-.57.28-.65.55-.13-.09-.27-.11-.38-.08-.11.04-.25.04-.38,0-.27.09-.47.23-.63.42-.32.04-.57.09-.76.17-.19.08-.32.17-.42.3-.74,0-1.33.21-1.78.63-.19,0-.34.02-.46.08-.11.04-.25.09-.38.13-.28.13-.53.15-.76.08-.65.42-1.06.65-1.23.72-.17.08-.36.09-.51.09s-.34,0-.51-.04c-.19-.02-.46-.04-.82-.04-.09-.19-.19-.34-.3-.46s-.23-.21-.3-.3l-.28-.68c-.27-.36-.34-.68-.21-.97.13-.28.19-.59.13-.97.42-.19.63-.3.65-.34.02-.04.08-.09.17-.13.42,0,.8-.13,1.18-.42.13,0,.3,0,.47-.04.19-.02.32-.13.42-.3.42.04.74-.04.97-.25.23-.21.55-.28.97-.25.19-.42.19-.82,0-1.2-.19-.4-.21-.72-.08-1.01-.13-.28-.3-.55-.47-.84-.17-.28-.42-.51-.68-.68.04-.19,0-.3-.09-.38-.11-.08-.15-.19-.09-.38-.09-.19-.23-.32-.38-.42-.15-.09-.27-.25-.3-.47-.09-.13-.21-.25-.34-.3-.13-.08-.25-.19-.34-.38l-.42-.28c-.13-.09-.25-.21-.34-.34-.32-.13-.53-.28-.63-.42-.09-.13-.19-.15-.28-.08-.51-.28-.87-.46-1.1-.51-.23-.08-.44-.06-.63.04-.09-.19-.23-.32-.42-.42-.19-.09-.34-.21-.47-.34-.36-.09-.7-.15-1.01-.17-.3-.02-.63-.02-1.01,0-.36.02-.72.04-1.06.08-.34.02-.59,0-.72-.04-.28.09-.51.23-.68.42-.68.04-1.21.13-1.58.28-.36.13-.74.25-1.1.34l-.76.34s-.28.13-.55.25c-.28.11-.57.25-.85.38-.3.13-.59.25-.85.34-.28.09-.44.13-.47.13-.28.23-.57.46-.89.65-.32.21-.59.42-.84.65-.13.28-.25.42-.34.46-.09.02-.13.09-.13.25-.59.28-1.03.51-1.31.68-.28.17-.44.51-.47.97-.32.09-.47.28-.47.55-.28-.04-.46.04-.55.25-.09.21-.25.3-.47.3-.04.36-.19.63-.46.8-.25.15-.4.42-.46.8-.23.28-.4.46-.47.51-.09.08-.11.15-.08.25-.23.13-.4.3-.47.47-.08.17-.23.34-.42.47-.13.46-.25.68-.3.68s-.15.02-.25.08c-.04.55-.19.93-.42,1.14-.23.21-.3.42-.21.65-.19.42-.36.72-.51.93-.17.21-.19.47-.09.8-.09.09-.19.19-.28.28-.09.09-.19.15-.28.21.09.23.09.46,0,.65-.09.21-.15.42-.21.65-.19.09-.32.23-.42.38-.09.15-.19.3-.27.46-.09.51-.17.84-.21.97-.04.13-.11.25-.21.34-.13.36-.19.61-.17.72.02.11,0,.19-.04.25-.28.51-.4.93-.34,1.27.04.34-.02.7-.21,1.06-.04.55-.09.97-.17,1.23-.08.28-.09.51-.09.68.19.51.25.89.21,1.14-.04.25-.02.49.08.72.19.51.27.8.25.85-.02.06,0,.15.04.25.23.65.4,1.23.47,1.75.09.53.28.84.55.93.04.46.13.72.25.8.11.08.17.23.17.46.09.09.19.17.28.25.09.08.19.15.27.25,0,.23.04.4.13.51.09.11.15.28.21.51.36.13.61.36.72.65.11.3.32.49.65.59.13.36.42.66.84.89.32.46.63.74.89.84.04.09.09.19.17.28.08.09.15.19.25.28.27.04.51.15.68.34.19.19.42.3.68.34l.89.47c.13.13.21.23.25.29.02.04.15.09.38.13.46.29.76.49.89.65.13.15.32.28.55.38l.68.21c.13.09.28.13.42.09.13-.02.25.04.34.17.04,0,.17,0,.38.04.21.02.42.04.63.08.21.04.4.08.55.13.15.06.25.15.25.25.23,0,.46.04.68.13.23.09.46.13.68.13.46.19.76.27.93.25.15-.02.3-.04.44-.04.42.04.84.13,1.27.28.44.13.85.11,1.27-.08.42.23.74.3,1.01.25.25-.08.59-.13,1.01-.17.55-.04.93-.04,1.14.04.21.08.65-.06,1.35-.38.59.1,1.04.04,1.35-.13.3-.19.53-.25.72-.21.28-.19.55-.34.84-.47.28-.13.59-.21.97-.21.36-.36.55-.66.55-.89.23-.04.55-.25.97-.63.42-.36.66-.66.76-.89.32-.23.46-.36.42-.38-.06-.02-.02-.08.08-.17.23-.09.4-.23.47-.42.09-.19.23-.34.42-.47.04-.28.13-.51.25-.72.11-.21.27-.42.44-.65-.04-.36.02-.66.21-.89.19-.23.32-.51.42-.84.09-.23.13-.46.09-.68-.02-.23,0-.46.09-.68.09-.55.09-.97,0-1.23-.09-.27-.04-.55.13-.84-.09-.23-.13-.47-.13-.72s.02-.49.08-.72c-.32-.23-.57-.3-.76-.25-.19.08-.34,0-.47-.17-.23.13-.47.19-.72.13-.25-.04-.49-.08-.72-.08-.36,0-.72.06-1.03.17-.32.11-.66.17-1.03.17-.42-.04-.65-.04-.68,0-.06.04-.11.08-.21.08-.42-.04-.68-.06-.8-.04s-.25.04-.38.04c-.23,0-.46-.04-.65-.09-.21-.08-.46-.06-.72.04-.32.13-.55.17-.65.09-.11-.08-.23-.04-.3.09-.23-.13-.57-.15-1.03-.08-.46.09-.84.15-1.1.21-.74.19-1.29.28-1.65.28s-.72-.02-1.03-.08c-.13,0-.25-.08-.3-.21-.08-.13-.25-.19-.51-.13l-.47-.63c-.13-.32-.23-.49-.27-.51-.04-.02-.09-.08-.13-.17-.06-.09-.08-.36-.08-.8s.02-.7.08-.8c.23-.28.46-.44.65-.47.21-.04.4-.04.59,0,.55-.28,1.01-.34,1.35-.21.34.13.68.09,1.01-.13.23.09.42.11.55.08.13-.04.32-.09.55-.13.23-.09.46-.11.68-.08.23.04.44.04.63,0,.32-.09.59-.15.82-.21.23-.04.46.02.68.21.27-.13.53-.21.76-.21s.47,0,.76.04c.28.04.65.04,1.1.04.55-.19,1.03-.28,1.4-.3.38-.02.78-.09,1.14-.25.42.13.63.19.63.13s.04-.08.13-.08c.42-.04.74-.06,1.01-.04.25.02.53.04.84.08.3.02.57.04.84.04h.46c.13-.09.32-.13.59-.13s.42-.08.51-.21h1.35c.44,0,.87.02,1.35.08.55-.23.97-.32,1.27-.28.3.04.57.08.8.08.55.04.95.04,1.2-.04.25-.08.49,0,.72.25.42-.09.8-.04,1.18.17.36.21.57.3.63.3,0,.19.11.36.34.55.23.19.36.3.42.34l-.21.13Z"/>
  </g>
</svg>