<?xml version="1.0" encoding="UTF-8"?>
<svg id="Capa_2" data-name="Capa 2" xmlns="http://www.w3.org/2000/svg" viewBox="0 0 31.91 36.39">
  <defs>
    <style>
      .cls-1 {
        fill: #fffbff;
      }
    </style>
  </defs>
  <g id="Capa_1-2" data-name="Capa 1">
    <path class="cls-1" d="M3.99,32.06c0,.15.13.28.28.28h5.42c.15,0,.28-.13.28-.28v-11.59c0-.15.13-.28.28-.28h11.4c.15,0,.28.13.28.28v11.59c0,.15.13.28.28.28h5.42c.15,0,.28-.13.28-.28V14.25c0-.09-.04-.17-.11-.22l-11.68-8.9c-.1-.08-.24-.08-.34,0L4.1,14.02c-.07.05-.11.14-.11.22v17.81ZM.28,36.39c-.15,0-.28-.13-.28-.28V12.22c0-.09.04-.17.11-.22L15.78.06c.1-.08.24-.08.34,0l15.67,11.94c.07.05.11.14.11.22v23.89c0,.15-.13.28-.28.28h-13.4c-.15,0-.28-.13-.28-.28v-11.59c0-.15-.13-.28-.28-.28h-3.43c-.15,0-.28.13-.28.28v11.59c0,.15-.13.28-.28.28H.28Z"/>
  </g>
</svg>