<svg width="26" height="31" viewBox="0 0 26 31" fill="none" xmlns="http://www.w3.org/2000/svg">
<path d="M3.25 27.0836H8.125V16.7979H17.875V27.0836H22.75V11.6551L13 3.94078L3.25 11.6551V27.0836ZM3.25 30.5122C2.35625 30.5122 1.59142 30.1768 0.9555 29.5059C0.3185 28.8339 0 28.0265 0 27.0836V11.6551C0 11.1122 0.115375 10.5979 0.346125 10.1122C0.575791 9.62649 0.89375 9.22649 1.3 8.91221L11.05 1.19792C11.3479 0.96935 11.6594 0.797921 11.9844 0.683635C12.3094 0.56935 12.6479 0.512207 13 0.512207C13.3521 0.512207 13.6906 0.56935 14.0156 0.683635C14.3406 0.797921 14.6521 0.96935 14.95 1.19792L24.7 8.91221C25.1063 9.22649 25.4248 9.62649 25.6555 10.1122C25.8852 10.5979 26 11.1122 26 11.6551V27.0836C26 28.0265 25.682 28.8339 25.0461 29.5059C24.4091 30.1768 23.6438 30.5122 22.75 30.5122H14.625V20.2265H11.375V30.5122H3.25Z" fill="#FFFBFF"/>
</svg>
