<svg width="26" height="25" viewBox="0 0 26 25" fill="none" xmlns="http://www.w3.org/2000/svg">
<path d="M7.44444 0C3.61528 0 0.5 3.11528 0.5 6.94444V18.0556C0.5 21.8847 3.61528 25 7.44444 25H18.5556C22.3847 25 25.5 21.8847 25.5 18.0556V6.94444C25.5 3.11528 22.3847 0 18.5556 0H7.44444ZM7.44444 2.77778H18.5556C20.8528 2.77778 22.7222 4.64722 22.7222 6.94444V18.0556C22.7222 20.3528 20.8528 22.2222 18.5556 22.2222H7.44444C5.14722 22.2222 3.27778 20.3528 3.27778 18.0556V6.94444C3.27778 4.64722 5.14722 2.77778 7.44444 2.77778ZM19.9444 4.16667C19.5761 4.16667 19.2228 4.313 18.9623 4.57346C18.7019 4.83393 18.5556 5.1872 18.5556 5.55556C18.5556 5.92391 18.7019 6.27718 18.9623 6.53765C19.2228 6.79811 19.5761 6.94444 19.9444 6.94444C20.3128 6.94444 20.6661 6.79811 20.9265 6.53765C21.187 6.27718 21.3333 5.92391 21.3333 5.55556C21.3333 5.1872 21.187 4.83393 20.9265 4.57346C20.6661 4.313 20.3128 4.16667 19.9444 4.16667ZM13 5.55556C9.17083 5.55556 6.05556 8.67083 6.05556 12.5C6.05556 16.3292 9.17083 19.4444 13 19.4444C16.8292 19.4444 19.9444 16.3292 19.9444 12.5C19.9444 8.67083 16.8292 5.55556 13 5.55556ZM13 8.33333C15.2972 8.33333 17.1667 10.2028 17.1667 12.5C17.1667 14.7972 15.2972 16.6667 13 16.6667C10.7028 16.6667 8.83333 14.7972 8.83333 12.5C8.83333 10.2028 10.7028 8.33333 13 8.33333Z" fill="#FFFBFF"/>
</svg>
