<?xml version="1.0" encoding="UTF-8"?>
<svg id="Capa_2" data-name="Capa 2" xmlns="http://www.w3.org/2000/svg" viewBox="0 0 36 39">
  <defs>
    <style>
      .cls-1 {
        fill: #fffbff;
      }
    </style>
  </defs>
  <g id="Capa_1-2" data-name="Capa 1">
    <path class="cls-1" d="M4.1,15.6c-2.34,0-4.1-1.56-4.1-3.9V3.9C0,1.56,1.77,0,4.1,0s4.03,1.56,4.03,3.9v7.8c0,2.34,1.42,3.9,3.75,3.9q2.12,0,8.84-7.8Q26.75.71,31.7.71h.71q4.95,0-1.06,7.09-7.08,7.8-9.2,7.8c-2.34,0-3.89,1.56-3.89,3.9s1.56,3.9,3.89,3.9q2.12,0,8.85,7.8,6.37,7.09,1.42,7.09h-.71q-4.95,0-10.97-7.09c-6.72-7.66-6.86-7.8-8.84-7.8-2.34,0-3.75,1.56-3.75,3.9v7.8c0,2.34-1.7,3.9-4.03,3.9s-4.1-1.56-4.1-3.9v-7.8c0-2.34,1.77-3.9,4.1-3.9s4.03-1.56,4.03-3.9-1.7-3.9-4.03-3.9ZM11.89,23.4h-.14.14Z"/>
  </g>
</svg>