<?xml version="1.0" encoding="UTF-8"?>
<svg id="Capa_2" data-name="Capa 2" xmlns="http://www.w3.org/2000/svg" viewBox="0 0 47.99 49.21">
  <defs>
    <style>
      .cls-1 {
        fill: #071013;
      }
    </style>
  </defs>
  <g id="Capa_1-2" data-name="Capa 1">
    <g>
      <path class="cls-1" d="M40.96,13.28h-2.8v-2.8l2.3.56.5,2.24Z"/>
      <path class="cls-1" d="M22.45,29.69l5.28,10.74,10.03-4.2-1.24-2.96-7.24,3.03-2.18-4.44,13.71-3.36,3.1,11.71-22.43,5.16-4.9-21.9,14.62-1.1v-.03l16.8-1.6-2.46-13.99L27.1,0l.17,4.26L16.52.56.75,10.52l-.75,18.01,19.04,20.68,28.81-6.62-4.75-17.96-20.65,5.06h0ZM42.69,9.11l1.54,8.74-13.16,1.25-.57-14.45,12.19,4.46h0ZM27.86,19.38l-11.45.86,1.7-15.74,9.3,3.2.46,11.67ZM5.01,11.63l9.76-6.17-1.44,13.32-8.32-7.15h0ZM11.68,21.6l-8.35,3.96.45-10.75,7.9,6.79h0ZM4.44,28.59l9.03-4.29,4.12,18.42-13.15-14.13Z"/>
    </g>
  </g>
</svg>