<?xml version="1.0" encoding="UTF-8"?>
<svg id="Capa_2" data-name="Capa 2" xmlns="http://www.w3.org/2000/svg" viewBox="0 0 54.29 54.29">
  <defs>
    <style>
      .cls-1 {
        fill: #fffbff;
      }
    </style>
  </defs>
  <g id="Capa_1-2" data-name="Capa 1">
    <path class="cls-1" d="M23.27,31.02H3.88c-1.1,0-2.02-.37-2.76-1.11-.74-.74-1.11-1.66-1.11-2.76s.37-2.02,1.11-2.76c.74-.74,1.66-1.11,2.76-1.11h19.39V3.88c0-1.1.37-2.02,1.11-2.76.74-.74,1.66-1.11,2.76-1.11s2.02.37,2.76,1.11c.74.74,1.11,1.66,1.11,2.76v19.39h19.39c1.1,0,2.02.37,2.76,1.11.74.74,1.11,1.66,1.11,2.76s-.37,2.02-1.11,2.76c-.74.74-1.66,1.11-2.76,1.11h-19.39v19.39c0,1.1-.37,2.02-1.11,2.76-.74.74-1.66,1.11-2.76,1.11s-2.02-.37-2.76-1.11c-.74-.74-1.11-1.66-1.11-2.76v-19.39Z"/>
  </g>
</svg>