<?xml version="1.0" encoding="UTF-8"?>
<svg id="Capa_2" data-name="Capa 2" xmlns="http://www.w3.org/2000/svg" viewBox="0 0 39 26">
  <defs>
    <style>
      .cls-1 {
        fill: #fffbff;
      }
    </style>
  </defs>
  <g id="Capa_1-2" data-name="Capa 1">
    <path class="cls-1" d="M2.17,26c-.61,0-1.13-.21-1.54-.62-.42-.42-.62-.93-.62-1.54s.21-1.13.62-1.54c.42-.42.93-.62,1.54-.62h34.67c.61,0,1.13.21,1.54.62.42.42.62.93.62,1.54s-.21,1.13-.62,1.54c-.42.42-.93.62-1.54.62H2.17ZM2.17,15.17c-.61,0-1.13-.21-1.54-.62-.42-.42-.62-.93-.62-1.54s.21-1.13.62-1.54c.42-.42.93-.62,1.54-.62h34.67c.61,0,1.13.21,1.54.62.42.42.62.93.62,1.54s-.21,1.13-.62,1.54c-.42.42-.93.62-1.54.62H2.17ZM2.17,4.33c-.61,0-1.13-.21-1.54-.62-.42-.42-.62-.93-.62-1.54S.21,1.04.62.62c.42-.42.93-.62,1.54-.62h34.67c.61,0,1.13.21,1.54.62.42.42.62.93.62,1.54s-.21,1.13-.62,1.54c-.42.42-.93.62-1.54.62H2.17Z"/>
  </g>
</svg>