<?xml version="1.0" encoding="UTF-8"?>
<svg id="Capa_2" data-name="Capa 2" xmlns="http://www.w3.org/2000/svg" viewBox="0 0 67.65 38.44">
  <defs>
    <style>
      .cls-1 {
        fill: #fffbff;
      }
    </style>
  </defs>
  <g id="Capa_1-2" data-name="Capa 1">
    <path class="cls-1" d="M57.98,19.13c-1.19-1.52-1.89-2.62-1.89-3.77s.69-2.35,1.89-3.86L67.28.43c.14-.16.02-.43-.2-.43h-4.71c-.07,0-.15.04-.2.09l-8.53,10.02c-.83,1-1.45,2-1.79,3-.04.1-.13.17-.24.17h-4.03c-.15,0-.26-.12-.26-.25V.25c0-.15-.12-.25-.26-.25h-4.18c-.15,0-.26.12-.26.25v11.5c0,.29-.41.37-.51.1-.72-1.98-2.39-4.78-6.05-4.78-2.24,0-4.24,1.06-5.32,3.25-.1.21-.38.21-.48,0C27.73,4.67,22.01.89,15.22,1.16,6.56,1.5-.3,8.99.01,17.64c.31,8.65,7.11,15.37,15.88,15.37,2.89,0,5.56-.75,7.86-2.05.21-.12.45.07.37.29l-2.13,6.85c-.05.16.07.34.25.34h4.2c.12,0,.22-.07.25-.18l2.14-7.13c.04-.11.14-.18.25-.18l13.98-.05c.12,0,.22.07.25.18l2.14,7.17c.04.11.14.18.25.18h4.25c.17,0,.3-.17.25-.34-1.9-6.1-2.86-12.45-2.86-18.85v-1.4c0-.15.12-.25.26-.25h4.03c.11,0,.2.06.24.17.34,1,.96,2.05,1.79,3.05l8.44,9.88c.05.05.12.09.2.09h5.12c.22,0,.34-.25.2-.43l-9.63-11.25h0ZM15.89,28.55c-6.17,0-11.05-5.06-11.05-11.54S9.77,5.61,15.89,5.61s10.96,5.01,10.96,11.4-4.89,11.54-10.96,11.54ZM30.53,26.67c-.17,0-.3-.16-.25-.34l4.09-13.6c.27-.96.83-1.43,1.75-1.43s1.43.46,1.75,1.43l4.05,13.6c.05.16-.07.33-.25.33h-11.15Z"/>
  </g>
</svg>