<?xml version="1.0" encoding="UTF-8"?>
<svg id="Capa_2" data-name="Capa 2" xmlns="http://www.w3.org/2000/svg" viewBox="0 0 35.09 30.33">
  <defs>
    <style>
      .cls-1 {
        fill: #fffbff;
      }
    </style>
  </defs>
  <g id="Capa_1-2" data-name="Capa 1">
    <path class="cls-1" d="M9.84,29c2.11.63,4.62.94,7.53.94,6.04,0,10.45-1.29,13.23-3.86,2.78-2.58,4.18-6.22,4.18-10.93,0-3.62-.81-6.57-2.42-8.86l2.73-2.77L26.58,0l-1.4,1.4c-2.19-.68-4.79-1.01-7.81-1.01C11.38.39,6.99,1.69,4.2,4.29,1.4,6.9,0,10.51,0,15.15c0,3.7.86,6.73,2.58,9.09L0,26.81l8.51,3.51,1.33-1.33h0ZM9.25,15.15c0-2.29.64-3.99,1.91-5.11,1.28-1.12,3.34-1.68,6.2-1.68.42,0,.72.01.9.04l-8.82,8.9c-.13-.73-.2-1.44-.2-2.15h0ZM16.78,21.98l8.59-8.66c.1.52.16,1.13.16,1.83,0,2.34-.64,4.07-1.91,5.17-1.28,1.11-3.36,1.66-6.24,1.66h-.59Z"/>
  </g>
</svg>