<?xml version="1.0" encoding="UTF-8"?>
<svg id="Capa_2" data-name="Capa 2" xmlns="http://www.w3.org/2000/svg" viewBox="0 0 37.7 39.62">
  <defs>
    <style>
      .cls-1 {
        fill: #fffbff;
      }
    </style>
  </defs>
  <g id="Capa_1-2" data-name="Capa 1">
    <path class="cls-1" d="M0,39.62l11.22-19.85c.08-.15.2-.32.34-.54-2.47-.74-4.26-1.88-5.33-3.4-1.15-1.62-1.73-3.63-1.73-5.97,0-3,1.1-5.42,3.27-7.19C9.92.92,13.71.04,19.04.04h7.59V0h11.08s-.02,39.62-.02,39.62h-11.06v-19.51h-5.09c-1.49,2.52-10.95,19.51-10.95,19.51M26.63,8.36h-4.86c-2.21,0-3.9.07-5.03.19-1.33.15-1.9.4-2.14.58-.31.23-.46.55-.46,1s.16.79.49,1.03c.27.19.86.44,2.18.61,1.11.14,2.78.21,4.96.21h4.86v-3.63h0Z"/>
  </g>
</svg>