<svg width="130" height="130" viewBox="0 0 130 130" fill="none" xmlns="http://www.w3.org/2000/svg">
<path d="M55.7143 74.2857H9.28571C6.65476 74.2857 4.4494 73.3958 2.66964 71.6161C0.889881 69.8363 0 67.631 0 65C0 62.369 0.889881 60.1637 2.66964 58.3839C4.4494 56.6042 6.65476 55.7143 9.28571 55.7143H55.7143V9.28571C55.7143 6.65476 56.6042 4.4494 58.3839 2.66964C60.1637 0.889881 62.369 0 65 0C67.631 0 69.8363 0.889881 71.6161 2.66964C73.3958 4.4494 74.2857 6.65476 74.2857 9.28571V55.7143H120.714C123.345 55.7143 125.551 56.6042 127.33 58.3839C129.11 60.1637 130 62.369 130 65C130 67.631 129.11 69.8363 127.33 71.6161C125.551 73.3958 123.345 74.2857 120.714 74.2857H74.2857V120.714C74.2857 123.345 73.3958 125.551 71.6161 127.33C69.8363 129.11 67.631 130 65 130C62.369 130 60.1637 129.11 58.3839 127.33C56.6042 125.551 55.7143 123.345 55.7143 120.714V74.2857Z" fill="white"/>
</svg>
