<svg width="981" height="186" viewBox="0 0 981 186" fill="none" xmlns="http://www.w3.org/2000/svg">
<path d="M227.688 178.005C192.76 178.005 181.454 148.124 181.454 122.282C181.454 90.7859 199.221 67.9716 224.659 67.9716C244.647 67.9716 254.54 80.8929 254.54 94.42C254.54 106.736 248.685 112.187 242.83 113.196C243.436 111.581 243.638 109.966 243.638 108.351C243.638 104.111 241.417 98.256 236.168 98.256C229.101 98.256 224.861 107.947 224.861 117.638C224.861 133.386 231.726 143.077 242.023 143.077C252.925 143.077 262.01 130.761 262.01 109.36V71H305.418V175.986H267.865C262.414 175.986 262.01 174.573 262.01 171.948C262.01 165.084 278.162 155.191 278.162 130.963H273.317C273.317 145.5 259.991 178.005 227.688 178.005Z" fill="#9C61CF"/>
<path d="M0 175.986L57.5405 25.5734H118.715L178.88 175.986H134.867L125.782 153.778H52.4931L44.4172 175.986H0ZM63.7993 123.493H113.466L100.746 92.603C93.2762 74.4323 88.2288 69.7887 91.8629 47.782H83.7871C87.2193 69.7887 81.97 74.0286 75.1055 92.603L63.7993 123.493Z" fill="#9C61CF"/>
<path d="M473.566 175.47C467.57 175.47 464.91 171.817 464.91 165.504V155.339H473.248V163.002C473.248 167.171 474.003 168.958 476.107 168.958C478.251 168.958 479.323 167.489 479.323 163.836V155.339H487.701L487.622 155.498H487.662V166.854C487.662 183.014 478.013 185.119 473.725 185.119C469.238 185.119 465.347 183.292 463.6 181.228L467.332 176.344C468.563 177.297 470.429 178.647 473.725 178.647C480.276 178.647 482.301 172.413 482.54 165.623H481.587C481.348 170.864 478.847 175.47 473.566 175.47Z" fill="#191716"/>
<path d="M445.277 176.384C438.408 176.384 436.185 170.507 436.185 165.425C436.185 159.231 439.679 154.744 444.682 154.744C448.613 154.744 450.558 157.285 450.558 159.946C450.558 162.368 449.407 163.44 448.255 163.638C448.374 163.321 448.414 163.003 448.414 162.685C448.414 161.851 447.977 160.7 446.945 160.7C445.555 160.7 444.721 162.606 444.721 164.512C444.721 167.609 446.071 169.515 448.096 169.515C450.241 169.515 452.027 167.093 452.027 162.884V155.34H460.564V175.987H453.179C452.107 175.987 452.027 175.709 452.027 175.193C452.027 173.843 455.204 171.897 455.204 167.132H454.251C454.251 169.991 451.63 176.384 445.277 176.384Z" fill="#191716"/>
<path d="M433.036 146.206V175.986H424.5V146.206H433.036Z" fill="#191716"/>
<path d="M412.177 154.744C419.007 154.744 421.349 160.819 421.349 165.425C421.349 172.572 417.657 176.384 413.051 176.384C409.12 176.384 406.976 173.724 406.976 171.302C406.976 168.681 408.167 167.649 409.279 167.49C409.16 167.807 409.12 168.125 409.12 168.443C409.12 169.277 409.557 170.428 410.589 170.428C411.979 170.428 412.813 168.482 412.813 166.179C412.813 163.082 411.343 161.613 409.438 161.613C407.214 161.613 405.308 163.519 405.308 167.649V185.119H396.97V155.34H404.395C405.427 155.34 405.507 155.618 405.507 155.935C405.507 157.285 402.33 159.35 402.33 163.996H403.283C403.283 160.819 406.142 154.744 412.177 154.744Z" fill="#191716"/>
<path d="M382.04 161.097C382.04 163.4 393.635 163.082 393.635 169.793C393.635 174.081 389.823 176.384 384.026 176.384C379.658 176.384 375.251 174.597 372.749 172.89L375.965 168.085C380.095 170.666 385.376 171.5 385.376 169.952C385.376 167.291 374.099 167.728 374.099 161.613C374.099 157.325 377.911 154.744 383.271 154.744C389.227 154.744 393.039 157.484 393.039 157.484L390.935 162.765C387.996 160.581 382.04 159.31 382.04 161.097Z" fill="#191716"/>
<path d="M369.338 155.339V175.986H360.801V155.339H369.338ZM360.325 149.343C360.325 147.199 362.389 145.492 365.05 145.492C367.67 145.492 369.775 147.199 369.775 149.343C369.775 151.487 367.67 153.195 365.05 153.195C362.389 153.195 360.325 151.487 360.325 149.343Z" fill="#191716"/>
<path d="M339.686 146.603C351.916 146.603 357.713 153.076 357.713 161.295C357.713 169.514 351.916 175.986 339.686 175.986H327.695V146.603H339.686ZM336.43 169.157H339.607C345.404 169.157 348.779 166.814 348.779 161.295C348.779 155.537 345.404 153.433 339.607 153.433H336.43V169.157Z" fill="#191716"/>
<path d="M492.246 117.056C496.613 117.056 498.797 119.955 498.797 122.933C498.797 126.705 495.502 128.214 495.502 130.715C495.502 131.629 496.375 132.065 497.963 132.065C499.353 132.065 500.346 131.708 500.346 131.708V138.14C499.115 138.458 497.288 138.538 495.819 138.538C490.101 138.538 488.553 136.354 488.553 133.257C488.553 129.604 491.769 129.087 491.769 125.831C491.769 124.521 491.134 122.893 489.109 122.893C486.925 122.893 485.694 125.077 485.694 128.452V138.299H477.157V108.52H485.694V118.248C485.694 119.558 482.518 121.662 482.518 126.308H483.471C483.471 123.131 486.329 117.056 492.246 117.056Z" fill="#191716"/>
<path d="M461.956 123.409C461.956 125.712 473.551 125.394 473.551 132.105C473.551 136.393 469.739 138.696 463.942 138.696C459.574 138.696 455.167 136.909 452.665 135.202L455.881 130.397C460.011 132.978 465.292 133.812 465.292 132.263C465.292 129.603 454.015 130.04 454.015 123.925C454.015 119.637 457.827 117.056 463.187 117.056C469.143 117.056 472.955 119.796 472.955 119.796L470.851 125.077C467.912 122.893 461.956 121.622 461.956 123.409Z" fill="#191716"/>
<path d="M450.682 133.177C448.934 136.591 444.845 138.696 439.881 138.696C432.734 138.696 427.771 134.209 427.771 128.094C427.771 122.575 432.337 117.056 439.445 117.056C446.354 117.056 451.039 121.781 450.642 128.61H436.268C436.268 131.549 438.253 132.66 440.517 132.66C442.224 132.66 443.773 131.747 444.408 130.477L450.682 133.177ZM436.387 126.427H443.693C443.693 125.156 442.621 123.33 440.04 123.33C437.34 123.33 436.387 125.156 436.387 126.427Z" fill="#191716"/>
<path d="M413.372 138.299V122.813H409.203V117.651H413.372V112.648H421.909V117.651H426.078V122.813H421.909V138.299H413.372Z" fill="#191716"/>
<path d="M395.557 138.696C388.092 138.696 383.685 133.852 383.685 127.856C383.685 121.86 388.092 117.056 395.557 117.056C403.18 117.056 407.508 121.86 407.508 127.856C407.508 133.852 403.18 138.696 395.557 138.696ZM392.341 127.856C392.341 130.556 393.532 132.263 395.596 132.263C397.701 132.263 398.852 130.556 398.852 127.856C398.852 125.235 397.701 123.488 395.596 123.488C393.532 123.488 392.341 125.235 392.341 127.856Z" fill="#191716"/>
<path d="M381.219 125.514C381.219 125.514 379.274 124.799 376.772 124.799C373.199 124.799 371.888 126.387 371.888 130.04V138.299H363.352V117.652H370.578C371.61 117.652 371.809 117.93 371.809 118.248C371.809 119.558 368.593 121.901 368.593 127.102H369.546C369.546 123.409 372.166 117.255 377.924 117.255C379.075 117.255 380.584 117.334 381.219 117.453V125.514Z" fill="#191716"/>
<path d="M350.605 138.22C350.168 138.22 350.089 137.703 350.407 137.386C353.464 134.567 353.98 130.04 354.099 128.253H353.107C352.591 135.599 347.23 138.895 340.877 138.895C333.333 138.895 325.987 133.693 325.987 123.965C325.987 115.15 332.34 108.043 342.227 108.043C348.938 108.043 355.052 111.457 357.157 116.46L349.374 118.406C348.183 116.421 346.039 115.11 342.942 115.11C338.257 115.11 335.001 118.843 335.001 123.806C335.001 128.611 338.654 131.986 342.624 131.986C345.443 131.986 347.429 130.119 347.588 127.896H342.585V122.536H358.944V138.22H350.605Z" fill="#191716"/>
<path d="M443.243 79.9642V100.612H434.706V79.9642H443.243ZM434.23 73.9686C434.23 71.8244 436.295 70.1171 438.955 70.1171C441.576 70.1171 443.68 71.8244 443.68 73.9686C443.68 76.1127 441.576 77.8201 438.955 77.8201C436.295 77.8201 434.23 76.1127 434.23 73.9686Z" fill="#191716"/>
<path d="M414.412 101.009C407.543 101.009 405.319 95.1321 405.319 90.0497C405.319 83.8555 408.813 79.3687 413.816 79.3687C417.747 79.3687 419.693 81.9099 419.693 84.5702C419.693 86.9923 418.542 88.0643 417.39 88.2629C417.509 87.9452 417.549 87.6276 417.549 87.3099C417.549 86.4761 417.112 85.3246 416.08 85.3246C414.69 85.3246 413.856 87.2305 413.856 89.1364C413.856 92.2335 415.206 94.1394 417.231 94.1394C419.375 94.1394 421.162 91.7173 421.162 87.5084V79.9642H429.699V100.612H422.314C421.242 100.612 421.162 100.334 421.162 99.8174C421.162 98.4674 424.339 96.5218 424.339 91.757H423.386C423.386 94.6159 420.765 101.009 414.412 101.009Z" fill="#191716"/>
<path d="M390.999 100.611V85.126H386.83V79.9642H390.999V74.9612H399.536V79.9642H403.705V85.126H399.536V100.611H390.999Z" fill="#191716"/>
<path d="M385.035 95.4894C383.288 98.9042 379.198 101.009 374.235 101.009C367.088 101.009 362.125 96.5218 362.125 90.407C362.125 84.8878 366.691 79.3687 373.798 79.3687C380.707 79.3687 385.392 84.0937 384.995 90.9232H370.622C370.622 93.8615 372.607 94.9732 374.87 94.9732C376.578 94.9732 378.126 94.06 378.761 92.7894L385.035 95.4894ZM370.741 88.7393H378.047C378.047 87.4687 376.975 85.6423 374.394 85.6423C371.694 85.6423 370.741 87.4687 370.741 88.7393Z" fill="#191716"/>
<path d="M350.605 100.532C350.168 100.532 350.089 100.016 350.407 99.6981C353.464 96.8789 353.98 92.3524 354.099 90.5656H353.107C352.591 97.9113 347.23 101.207 340.877 101.207C333.333 101.207 325.987 96.0054 325.987 86.2773C325.987 77.4625 332.34 70.3551 342.227 70.3551C348.938 70.3551 355.052 73.7698 357.157 78.7728L349.374 80.7185C348.183 78.7331 346.039 77.4228 342.942 77.4228C338.257 77.4228 335.001 81.1552 335.001 86.1185C335.001 90.923 338.654 94.298 342.624 94.298C345.443 94.298 347.429 92.4318 347.588 90.2083H342.585V84.8479H358.944V100.532H350.605Z" fill="#191716"/>
<path d="M777.427 178.289C771.285 178.289 765.475 177.459 759.997 175.799C754.518 174.139 749.621 171.649 745.305 168.329C741.155 165.009 737.835 160.858 735.345 155.878C732.855 150.898 731.61 145.005 731.61 138.199C731.61 128.239 733.685 120.436 737.835 114.792C742.151 109.148 747.878 104.998 755.016 102.342C762.321 99.686 770.538 98.026 779.668 97.362C788.964 96.5319 798.592 96.1169 808.553 96.1169H814.529C814.529 92.9628 813.782 90.1408 812.288 87.6507C810.794 85.1607 808.636 83.1686 805.814 81.6746C803.158 80.1805 799.837 79.4335 795.853 79.4335C793.031 79.4335 790.292 79.8485 787.636 80.6786C784.98 81.5086 782.739 82.6706 780.913 84.1646C779.253 85.4927 778.257 87.1527 777.925 89.1447H734.1C735.096 81.0106 737.503 74.0384 741.321 68.2283C745.139 62.2521 749.953 57.438 755.763 53.7859C761.574 49.9678 768.048 47.1458 775.186 45.3197C782.49 43.4937 790.043 42.5807 797.845 42.5807C817.102 42.5807 831.627 47.9758 841.421 58.7661C851.382 69.3903 856.362 85.0777 856.362 105.828V176.297H815.774V159.115C811.458 165.59 806.561 170.155 801.082 172.811C795.77 175.467 790.873 177.044 786.391 177.542C782.075 178.04 779.087 178.289 777.427 178.289ZM789.379 144.673C793.529 144.673 797.513 143.677 801.331 141.685C805.316 139.527 808.553 136.871 811.043 133.717C813.699 130.563 815.027 127.409 815.027 124.255V123.259H790.375C788.383 123.259 786.474 123.508 784.648 124.006C782.822 124.338 781.162 124.919 779.668 125.749C778.34 126.579 777.261 127.658 776.431 128.986C775.601 130.314 775.186 131.974 775.186 133.966C775.186 136.29 775.767 138.282 776.929 139.942C778.257 141.436 780 142.598 782.158 143.428C784.316 144.258 786.723 144.673 789.379 144.673Z" fill="#9C61CF"/>
<path d="M539.063 176.296L609.781 0H655.598L725.568 176.296H677.012L668.297 151.395H596.334L587.37 176.296H539.063ZM610.528 110.808H654.104L632.689 50.2991L610.528 110.808Z" fill="#9C61CF"/>
<path d="M978.379 176.297C976.526 176.297 974.938 176.098 973.615 175.701C972.318 175.304 971.312 174.602 970.597 173.597C969.909 172.564 969.565 171.082 969.565 169.149V161.645H966.666V155.371H969.565V150.17H976.593V155.371H980.444V161.645H976.593V168.077C976.593 168.58 976.672 169.03 976.831 169.427C977.016 169.798 977.519 169.983 978.34 169.983H980.206V176.297H978.379Z" fill="#191716"/>
<path d="M956.785 176.614C955.753 176.614 954.707 176.495 953.648 176.257C952.589 176.018 951.597 175.621 950.67 175.065C949.77 174.51 949.003 173.755 948.367 172.802C947.732 171.823 947.308 170.605 947.097 169.149H954.204C954.31 169.493 954.495 169.798 954.76 170.062C955.051 170.327 955.395 170.539 955.792 170.698C956.216 170.83 956.666 170.896 957.142 170.896C957.46 170.896 957.738 170.87 957.976 170.817C958.241 170.764 958.466 170.685 958.651 170.579C958.837 170.446 958.969 170.301 959.048 170.142C959.154 169.983 959.207 169.811 959.207 169.626C959.207 169.255 959.062 168.99 958.77 168.832C958.479 168.646 958.082 168.514 957.579 168.434C957.076 168.329 956.507 168.209 955.872 168.077C954.892 167.865 953.834 167.601 952.695 167.283C951.583 166.939 950.644 166.515 949.876 166.012C949.479 165.748 949.135 165.457 948.844 165.139C948.579 164.795 948.354 164.424 948.169 164.027C948.01 163.63 947.891 163.22 947.811 162.796C947.732 162.373 947.692 161.923 947.692 161.446C947.692 160.229 947.957 159.209 948.486 158.389C949.042 157.542 949.744 156.867 950.591 156.364C951.464 155.861 952.417 155.503 953.45 155.292C954.509 155.053 955.541 154.934 956.547 154.934C958.029 154.934 959.406 155.173 960.676 155.649C961.973 156.126 963.045 156.893 963.892 157.952C964.766 159.011 965.309 160.414 965.52 162.161H958.731C958.678 161.684 958.413 161.314 957.937 161.049C957.486 160.784 956.931 160.652 956.269 160.652C956.004 160.652 955.753 160.679 955.514 160.731C955.303 160.784 955.104 160.851 954.919 160.93C954.76 161.009 954.628 161.115 954.522 161.248C954.442 161.38 954.403 161.526 954.403 161.684C954.403 161.79 954.429 161.909 954.482 162.042C954.561 162.174 954.694 162.306 954.879 162.439C955.064 162.545 955.316 162.651 955.634 162.756C956.507 162.968 957.328 163.154 958.095 163.312C958.889 163.471 959.684 163.63 960.478 163.789C961.351 163.948 962.212 164.226 963.059 164.623C963.906 164.993 964.607 165.562 965.163 166.33C965.745 167.098 966.037 168.17 966.037 169.546C966.037 170.896 965.759 172.035 965.203 172.961C964.647 173.861 963.906 174.576 962.979 175.105C962.079 175.635 961.087 176.018 960.001 176.257C958.916 176.495 957.844 176.614 956.785 176.614Z" fill="#191716"/>
<path d="M935.217 176.614C933.073 176.614 931.194 176.19 929.579 175.343C927.991 174.47 926.746 173.239 925.846 171.651C924.973 170.062 924.536 168.17 924.536 165.973C924.536 163.776 924.986 161.856 925.886 160.215C926.786 158.548 928.044 157.251 929.658 156.324C931.273 155.398 933.152 154.934 935.297 154.934C936.832 154.934 938.208 155.173 939.426 155.649C940.644 156.126 941.689 156.814 942.563 157.714C943.436 158.614 944.098 159.699 944.548 160.97C945.025 162.24 945.263 163.67 945.263 165.258C945.263 165.708 945.236 166.145 945.183 166.568C945.157 166.965 945.091 167.389 944.985 167.839H931.485C931.538 168.342 931.697 168.818 931.961 169.268C932.252 169.718 932.649 170.076 933.152 170.34C933.655 170.605 934.291 170.737 935.058 170.737C935.694 170.737 936.236 170.671 936.686 170.539C937.163 170.38 937.547 170.182 937.838 169.943C938.129 169.705 938.314 169.467 938.394 169.229H945.263C944.892 170.949 944.204 172.365 943.198 173.477C942.219 174.562 941.027 175.357 939.625 175.86C938.248 176.363 936.779 176.614 935.217 176.614ZM931.604 163.273H938.672C938.672 162.876 938.552 162.465 938.314 162.042C938.102 161.592 937.732 161.221 937.202 160.93C936.7 160.639 936.024 160.493 935.177 160.493C934.357 160.493 933.682 160.639 933.152 160.93C932.623 161.221 932.226 161.592 931.961 162.042C931.723 162.465 931.604 162.876 931.604 163.273Z" fill="#191716"/>
<path d="M900.941 176.296V155.371H907.414L907.811 157.277C908.472 156.589 909.174 156.086 909.915 155.768C910.683 155.424 911.424 155.199 912.139 155.093C912.853 154.987 913.462 154.934 913.965 154.934C915.924 154.934 917.459 155.384 918.571 156.284C919.709 157.184 920.517 158.376 920.993 159.858C921.47 161.34 921.708 162.968 921.708 164.742V176.296H914.68V165.337C914.68 164.914 914.627 164.477 914.521 164.027C914.442 163.551 914.283 163.114 914.044 162.717C913.833 162.32 913.528 162.002 913.131 161.764C912.734 161.499 912.218 161.367 911.583 161.367C910.762 161.367 910.074 161.552 909.518 161.923C908.989 162.293 908.591 162.796 908.327 163.431C908.089 164.04 907.969 164.729 907.969 165.496V176.296H900.941Z" fill="#191716"/>
<path d="M883.42 176.614C880.561 176.614 878.06 176.018 875.916 174.827C873.771 173.636 872.104 171.968 870.913 169.824C869.748 167.653 869.166 165.139 869.166 162.28C869.166 159.341 869.774 156.8 870.992 154.656C872.21 152.486 873.904 150.805 876.074 149.613C878.245 148.422 880.76 147.827 883.619 147.827C886.451 147.827 888.939 148.409 891.083 149.574C893.228 150.738 894.908 152.393 896.126 154.537C897.344 156.655 897.953 159.169 897.953 162.081C897.953 164.94 897.344 167.468 896.126 169.665C894.935 171.836 893.241 173.543 891.044 174.787C888.873 176.005 886.332 176.614 883.42 176.614ZM883.579 169.824C885.273 169.824 886.636 169.44 887.669 168.672C888.701 167.878 889.442 166.899 889.892 165.734C890.369 164.569 890.607 163.418 890.607 162.28C890.607 161.433 890.475 160.572 890.21 159.699C889.972 158.799 889.575 157.965 889.019 157.197C888.489 156.43 887.775 155.808 886.875 155.331C885.975 154.855 884.863 154.616 883.539 154.616C881.872 154.616 880.522 155 879.489 155.768C878.457 156.509 877.702 157.462 877.226 158.627C876.749 159.791 876.511 160.996 876.511 162.24C876.511 163.484 876.749 164.689 877.226 165.853C877.729 167.018 878.497 167.971 879.529 168.712C880.588 169.453 881.938 169.824 883.579 169.824Z" fill="#191716"/>
</svg>
