<svg width="2160" height="2160" viewBox="0 0 2160 2160" fill="none" xmlns="http://www.w3.org/2000/svg">
<g clip-path="url(#clip0_320_3636)">
<rect width="2160" height="2160" fill="#F5F5F5"/>
<path d="M249.85 2157.15V2.85H1908.15V2157.15H249.85Z" stroke="#9D9D9C" stroke-width="5.7" stroke-miterlimit="10"/>
<path d="M0 1608.72H2160" stroke="#9D9D9C" stroke-width="5.7" stroke-miterlimit="10"/>
<path d="M0 1275.77H2160" stroke="#9D9D9C" stroke-width="5.7" stroke-miterlimit="10"/>
<path d="M0 942.82H2160" stroke="#9D9D9C" stroke-width="5.7" stroke-miterlimit="10"/>
<path d="M0 609.88H2160" stroke="#9D9D9C" stroke-width="5.7" stroke-miterlimit="10"/>
<path d="M0 276.93H2160" stroke="#9D9D9C" stroke-width="5.7" stroke-miterlimit="10"/>
<path d="M0 1941.67H2160" stroke="#9D9D9C" stroke-width="5.7" stroke-miterlimit="10"/>
<path d="M1578.5 2.8501V2162.85" stroke="#9D9D9C" stroke-width="5.7" stroke-miterlimit="10"/>
<path d="M1245.55 2.8501V2162.85" stroke="#9D9D9C" stroke-width="5.7" stroke-miterlimit="10"/>
<path d="M912.602 2.8501V2162.85" stroke="#9D9D9C" stroke-width="5.7" stroke-miterlimit="10"/>
<path d="M579.648 2.8501V2162.85" stroke="#9D9D9C" stroke-width="5.7" stroke-miterlimit="10"/>
<g opacity="0.6">
<path d="M1079.08 276.93C1760.11 276.93 1911.45 413.14 1911.45 1094.17V1790.33C1911.45 1890.21 1844.86 1941.67 1744.98 1941.67C1645.1 1941.67 1578.51 1890.21 1578.51 1790.33C1578.51 1690.45 1511.92 1638.99 1412.04 1638.99C1312.16 1638.99 1245.57 1690.45 1245.57 1790.33C1245.57 1890.21 1178.98 1941.67 1079.1 1941.67H731.021C479.801 1941.67 325.431 1847.84 267.921 1638.99C255.811 1581.48 246.731 1517.92 246.731 1442.25C246.731 1124.44 385.961 942.83 731.021 942.83H1079.1C1178.98 942.83 1245.57 994.29 1245.57 1094.17C1245.57 1194.05 1312.16 1245.51 1412.04 1245.51C1511.92 1245.51 1578.51 1194.05 1578.51 1094.17C1578.51 685.55 1487.71 579.61 1079.09 579.61H413.181C313.291 579.61 246.711 528.15 246.711 428.27C246.711 328.39 313.301 276.93 413.181 276.93H1079.08ZM730.991 1245.51C631.111 1245.51 564.521 1342.37 564.521 1442.25C564.521 1542.13 631.111 1638.99 730.991 1638.99H1079.07C1178.95 1638.99 1245.54 1542.13 1245.54 1442.25C1245.54 1342.37 1178.95 1245.51 1079.07 1245.51H730.991Z" fill="#DADADA" stroke="black" stroke-width="5" stroke-miterlimit="10"/>
</g>
<path d="M318.078 276.93H418.298" stroke="#C1272D" stroke-width="4.13" stroke-miterlimit="10"/>
<path d="M402.258 276.93L426.128 290.71V263.15L402.258 276.93Z" fill="#FF0000"/>
<path d="M318.068 267.186L308.324 276.93L318.068 286.674L327.812 276.93L318.068 267.186Z" fill="#FF0000"/>
<path d="M318.078 579.91H418.298" stroke="#C1272D" stroke-width="4.13" stroke-miterlimit="10"/>
<path d="M402.258 579.91L426.128 593.69V566.13L402.258 579.91Z" fill="#FF0000"/>
<path d="M318.068 570.175L308.324 579.919L318.068 589.663L327.812 579.919L318.068 570.175Z" fill="#FF0000"/>
<path d="M632.059 1245.51H732.279" stroke="#C1272D" stroke-width="4.13" stroke-miterlimit="10"/>
<path d="M716.25 1245.51L740.12 1259.29V1231.72L716.25 1245.51Z" fill="#FF0000"/>
<path d="M632.056 1235.75L622.312 1245.5L632.056 1255.24L641.8 1245.5L632.056 1235.75Z" fill="#FF0000"/>
<path d="M632.059 1638.99H732.279" stroke="#C1272D" stroke-width="4.13" stroke-miterlimit="10"/>
<path d="M716.25 1638.99L740.12 1652.77V1625.21L716.25 1638.99Z" fill="#FF0000"/>
<path d="M632.053 1629.24L622.309 1638.99L632.053 1648.73L641.796 1638.99L632.053 1629.24Z" fill="#FF0000"/>
<path d="M485.879 1941.67H732.279" stroke="#C1272D" stroke-width="4.13" stroke-miterlimit="10"/>
<path d="M716.25 1941.67L740.12 1955.45V1927.89L716.25 1941.67Z" fill="#FF0000"/>
<path d="M485.877 1931.93L476.133 1941.67L485.877 1951.41L495.621 1941.67L485.877 1931.93Z" fill="#FF0000"/>
<path d="M392.648 942.4H732.278" stroke="#C1272D" stroke-width="4.13" stroke-miterlimit="10"/>
<path d="M716.25 942.4L740.12 956.18V928.62L716.25 942.4Z" fill="#FF0000"/>
<path d="M392.654 932.658L382.91 942.402L392.654 952.146L402.398 942.402L392.654 932.658Z" fill="#FF0000"/>
<path d="M1182.23 1245.51H1082.01" stroke="#C1272D" stroke-width="4.13" stroke-miterlimit="10"/>
<path d="M1098.04 1245.51L1074.17 1231.72V1259.29L1098.04 1245.51Z" fill="#FF0000"/>
<path d="M1182.24 1255.26L1191.98 1245.51L1182.24 1235.77L1172.49 1245.51L1182.24 1255.26Z" fill="#FF0000"/>
<path d="M1182.23 942.85H1082.01" stroke="#C1272D" stroke-width="4.13" stroke-miterlimit="10"/>
<path d="M1098.04 942.85L1074.17 929.07V956.64L1098.04 942.85Z" fill="#FF0000"/>
<path d="M1182.23 952.601L1191.98 942.857L1182.23 933.114L1172.49 942.857L1182.23 952.601Z" fill="#FF0000"/>
<path d="M1182.23 1638.99H1082.01" stroke="#C1272D" stroke-width="4.13" stroke-miterlimit="10"/>
<path d="M1098.04 1638.99L1074.17 1625.21V1652.77L1098.04 1638.99Z" fill="#FF0000"/>
<path d="M1182.22 1648.74L1191.97 1638.99L1182.22 1629.25L1172.48 1638.99L1182.22 1648.74Z" fill="#FF0000"/>
<path d="M1182.23 1941.67H1082.01" stroke="#C1272D" stroke-width="4.13" stroke-miterlimit="10"/>
<path d="M1098.04 1941.67L1074.17 1927.89V1955.45L1098.04 1941.67Z" fill="#FF0000"/>
<path d="M1182.23 1951.41L1191.97 1941.67L1182.23 1931.92L1172.48 1941.67L1182.23 1951.41Z" fill="#FF0000"/>
<path d="M1911.45 1889.36V1789.13" stroke="#C1272D" stroke-width="4.13" stroke-miterlimit="10"/>
<path d="M1911.45 1805.17L1925.23 1781.3H1897.67L1911.45 1805.17Z" fill="#FF0000"/>
<path d="M1901.7 1889.36L1911.44 1899.1L1921.19 1889.36L1911.44 1879.61L1901.7 1889.36Z" fill="#FF0000"/>
<path d="M1490.79 579.91H1077.17" stroke="#C1272D" stroke-width="4.13" stroke-miterlimit="10"/>
<path d="M1093.2 579.91L1069.33 566.13V593.69L1093.2 579.91Z" fill="#FF0000"/>
<path d="M1490.8 589.663L1500.54 579.919L1490.8 570.176L1481.05 579.919L1490.8 589.663Z" fill="#FF0000"/>
<path d="M1764.5 276.93H1077.17" stroke="#C1272D" stroke-width="4.13" stroke-miterlimit="10"/>
<path d="M1093.2 276.93L1069.33 263.15V290.71L1093.2 276.93Z" fill="#FF0000"/>
<path d="M1764.51 286.665L1774.25 276.921L1764.51 267.177L1754.77 276.921L1764.51 286.665Z" fill="#FF0000"/>
<path d="M1911.45 416.08V1093.67" stroke="#C1272D" stroke-width="4.13" stroke-miterlimit="10"/>
<path d="M1911.45 1077.64L1897.67 1101.51H1925.23L1911.45 1077.64Z" fill="#FF0000"/>
<path d="M1921.19 416.082L1911.45 406.338L1901.7 416.082L1911.45 425.826L1921.19 416.082Z" fill="#FF0000"/>
<path d="M246.711 332.8V433.02" stroke="#C1272D" stroke-width="4.13" stroke-miterlimit="10"/>
<path d="M256.447 332.805L246.703 323.062L236.959 332.805L246.703 342.549L256.447 332.805Z" fill="#FF0000"/>
<path d="M246.711 531.9V431.68" stroke="#C1272D" stroke-width="4.13" stroke-miterlimit="10"/>
<path d="M236.955 531.9L246.699 541.644L256.443 531.9L246.699 522.156L236.955 531.9Z" fill="#FF0000"/>
<path d="M246.71 442.24C253.304 442.24 258.65 436.894 258.65 430.3C258.65 423.706 253.304 418.36 246.71 418.36C240.115 418.36 234.77 423.706 234.77 430.3C234.77 436.894 240.115 442.24 246.71 442.24Z" fill="#FF0000"/>
<path d="M1577.58 690.27V1101.51" stroke="#C1272D" stroke-width="4.13" stroke-miterlimit="10"/>
<path d="M1587.33 690.272L1577.58 680.528L1567.84 690.272L1577.58 700.016L1587.33 690.272Z" fill="#FF0000"/>
<path d="M1577.58 1200.39V1100.17" stroke="#C1272D" stroke-width="4.13" stroke-miterlimit="10"/>
<path d="M1567.83 1200.38L1577.57 1210.12L1587.32 1200.38L1577.57 1190.63L1567.83 1200.38Z" fill="#FF0000"/>
<path d="M1577.58 1110.73C1584.17 1110.73 1589.52 1105.38 1589.52 1098.79C1589.52 1092.2 1584.17 1086.85 1577.58 1086.85C1570.99 1086.85 1565.64 1092.2 1565.64 1098.79C1565.64 1105.38 1570.99 1110.73 1577.58 1110.73Z" fill="#FF0000"/>
<path d="M1514.62 1245.51H1414.4" stroke="#C1272D" stroke-width="4.13" stroke-miterlimit="10"/>
<path d="M1514.63 1255.25L1524.38 1245.51L1514.63 1235.76L1504.89 1245.51L1514.63 1255.25Z" fill="#FF0000"/>
<path d="M1315.52 1245.51H1415.74" stroke="#C1272D" stroke-width="4.13" stroke-miterlimit="10"/>
<path d="M1315.51 1235.75L1305.77 1245.5L1315.51 1255.24L1325.26 1245.5L1315.51 1235.75Z" fill="#FF0000"/>
<path d="M1417.12 1257.45C1423.71 1257.45 1429.06 1252.1 1429.06 1245.51C1429.06 1238.92 1423.71 1233.57 1417.12 1233.57C1410.53 1233.57 1405.18 1238.92 1405.18 1245.51C1405.18 1252.1 1410.53 1257.45 1417.12 1257.45Z" fill="#FF0000"/>
<path d="M1514.62 1638.99H1414.4" stroke="#C1272D" stroke-width="4.13" stroke-miterlimit="10"/>
<path d="M1514.62 1648.73L1524.36 1638.99L1514.62 1629.24L1504.88 1638.99L1514.62 1648.73Z" fill="#FF0000"/>
<path d="M1315.52 1638.99H1415.74" stroke="#C1272D" stroke-width="4.13" stroke-miterlimit="10"/>
<path d="M1315.53 1629.24L1305.78 1638.99L1315.53 1648.73L1325.27 1638.99L1315.53 1629.24Z" fill="#FF0000"/>
<path d="M1417.12 1650.93C1423.71 1650.93 1429.06 1645.58 1429.06 1638.99C1429.06 1632.4 1423.71 1627.05 1417.12 1627.05C1410.53 1627.05 1405.18 1632.4 1405.18 1638.99C1405.18 1645.58 1410.53 1650.93 1417.12 1650.93Z" fill="#FF0000"/>
<path d="M1835.8 1941.67H1735.58" stroke="#C1272D" stroke-width="4.13" stroke-miterlimit="10"/>
<path d="M1835.8 1951.41L1845.54 1941.67L1835.8 1931.92L1826.05 1941.67L1835.8 1951.41Z" fill="#FF0000"/>
<path d="M1636.7 1941.67H1736.92" stroke="#C1272D" stroke-width="4.13" stroke-miterlimit="10"/>
<path d="M1636.7 1931.92L1626.96 1941.67L1636.7 1951.41L1646.44 1941.67L1636.7 1931.92Z" fill="#FF0000"/>
<path d="M1738.3 1953.61C1744.89 1953.61 1750.24 1948.26 1750.24 1941.67C1750.24 1935.08 1744.89 1929.73 1738.3 1929.73C1731.71 1929.73 1726.36 1935.08 1726.36 1941.67C1726.36 1948.26 1731.71 1953.61 1738.3 1953.61Z" fill="#FF0000"/>
<path d="M1245.55 1342.7V1442.92" stroke="#C1272D" stroke-width="4.13" stroke-miterlimit="10"/>
<path d="M1255.29 1342.7L1245.54 1332.96L1235.8 1342.7L1245.54 1352.44L1255.29 1342.7Z" fill="#FF0000"/>
<path d="M1245.55 1541.8V1441.58" stroke="#C1272D" stroke-width="4.13" stroke-miterlimit="10"/>
<path d="M1235.81 1541.8L1245.55 1551.54L1255.29 1541.8L1245.55 1532.05L1235.81 1541.8Z" fill="#FF0000"/>
<path d="M1245.55 1452.14C1252.14 1452.14 1257.49 1446.79 1257.49 1440.2C1257.49 1433.61 1252.14 1428.26 1245.55 1428.26C1238.96 1428.26 1233.61 1433.61 1233.61 1440.2C1233.61 1446.79 1238.96 1452.14 1245.55 1452.14Z" fill="#FF0000"/>
<path d="M1245.55 1001.96V1102.18" stroke="#C1272D" stroke-width="4.13" stroke-miterlimit="10"/>
<path d="M1255.29 1001.96L1245.54 992.216L1235.8 1001.96L1245.54 1011.7L1255.29 1001.96Z" fill="#FF0000"/>
<path d="M1245.55 1201.06V1100.84" stroke="#C1272D" stroke-width="4.13" stroke-miterlimit="10"/>
<path d="M1235.81 1201.05L1245.55 1210.8L1255.29 1201.05L1245.55 1191.31L1235.81 1201.05Z" fill="#FF0000"/>
<path d="M1245.55 1111.4C1252.14 1111.4 1257.49 1106.05 1257.49 1099.46C1257.49 1092.87 1252.14 1087.52 1245.55 1087.52C1238.96 1087.52 1233.61 1092.87 1233.61 1099.46C1233.61 1106.05 1238.96 1111.4 1245.55 1111.4Z" fill="#FF0000"/>
<path d="M564.52 1342.7V1442.92" stroke="#C1272D" stroke-width="4.13" stroke-miterlimit="10"/>
<path d="M574.256 1342.7L564.512 1332.95L554.768 1342.7L564.512 1352.44L574.256 1342.7Z" fill="#FF0000"/>
<path d="M564.52 1541.8V1441.58" stroke="#C1272D" stroke-width="4.13" stroke-miterlimit="10"/>
<path d="M554.776 1541.8L564.52 1551.54L574.263 1541.8L564.519 1532.05L554.776 1541.8Z" fill="#FF0000"/>
<path d="M564.518 1452.14C571.112 1452.14 576.458 1446.79 576.458 1440.2C576.458 1433.61 571.112 1428.26 564.518 1428.26C557.924 1428.26 552.578 1433.61 552.578 1440.2C552.578 1446.79 557.924 1452.14 564.518 1452.14Z" fill="#FF0000"/>
<path d="M246.711 1127.81V1442.92" stroke="#C1272D" stroke-width="4.13" stroke-miterlimit="10"/>
<path d="M256.451 1127.81L246.707 1118.07L236.963 1127.81L246.707 1137.56L256.451 1127.81Z" fill="#FF0000"/>
<path d="M246.711 1520.31V1441.58" stroke="#C1272D" stroke-width="4.13" stroke-miterlimit="10"/>
<path d="M236.955 1520.31L246.699 1530.05L256.443 1520.31L246.699 1510.56L236.955 1520.31Z" fill="#FF0000"/>
<path d="M246.71 1452.14C253.304 1452.14 258.65 1446.79 258.65 1440.2C258.65 1433.61 253.304 1428.26 246.71 1428.26C240.115 1428.26 234.77 1433.61 234.77 1440.2C234.77 1446.79 240.115 1452.14 246.71 1452.14Z" fill="#FF0000"/>
<path d="M252.328 1585.32L267.828 1638.96" stroke="#C1272D" stroke-width="4.13" stroke-miterlimit="10"/>
<path d="M262.076 1585.31L252.332 1575.57L242.588 1585.31L252.332 1595.06L262.076 1585.31Z" fill="#FF0000"/>
<path d="M330.608 1849.5L267.828 1637.62" stroke="#C1272D" stroke-width="4.13" stroke-miterlimit="10"/>
<path d="M320.862 1849.5L330.605 1859.24L340.349 1849.5L330.605 1839.76L320.862 1849.5Z" fill="#FF0000"/>
<path d="M267.831 1648.18C274.425 1648.18 279.771 1642.83 279.771 1636.24C279.771 1629.65 274.425 1624.3 267.831 1624.3C261.236 1624.3 255.891 1629.65 255.891 1636.24C255.891 1642.83 261.236 1648.18 267.831 1648.18Z" fill="#FF0000"/>
<path d="M1577.06 1696.27V1796.5" stroke="#C1272D" stroke-width="4.13" stroke-miterlimit="10"/>
<path d="M1586.81 1696.27L1577.07 1686.53L1567.32 1696.27L1577.07 1706.02L1586.81 1696.27Z" fill="#FF0000"/>
<path d="M1577.06 1895.38V1795.15" stroke="#C1272D" stroke-width="4.13" stroke-miterlimit="10"/>
<path d="M1567.31 1895.38L1577.06 1905.12L1586.8 1895.38L1577.06 1885.64L1567.31 1895.38Z" fill="#FF0000"/>
<path d="M1577.06 1805.72C1583.66 1805.72 1589 1800.37 1589 1793.78C1589 1787.19 1583.66 1781.84 1577.06 1781.84C1570.47 1781.84 1565.12 1787.19 1565.12 1793.78C1565.12 1800.37 1570.47 1805.72 1577.06 1805.72Z" fill="#FF0000"/>
<path d="M1245.55 1694.23V1794.45" stroke="#C1272D" stroke-width="4.13" stroke-miterlimit="10"/>
<path d="M1255.29 1694.23L1245.55 1684.48L1235.8 1694.23L1245.55 1703.97L1255.29 1694.23Z" fill="#FF0000"/>
<path d="M1245.55 1893.33V1793.11" stroke="#C1272D" stroke-width="4.13" stroke-miterlimit="10"/>
<path d="M1235.81 1893.33L1245.55 1903.07L1255.29 1893.33L1245.55 1883.58L1235.81 1893.33Z" fill="#FF0000"/>
<path d="M1245.55 1803.67C1252.14 1803.67 1257.49 1798.32 1257.49 1791.73C1257.49 1785.14 1252.14 1779.79 1245.55 1779.79C1238.96 1779.79 1233.61 1785.14 1233.61 1791.73C1233.61 1798.32 1238.96 1803.67 1245.55 1803.67Z" fill="#FF0000"/>
<path d="M2.85 2157.15V2.85H2157.15V2157.15H2.85Z" stroke="#9D9D9C" stroke-width="5.7" stroke-miterlimit="10"/>
</g>
<defs>
<clipPath id="clip0_320_3636">
<rect width="2160" height="2160" fill="white"/>
</clipPath>
</defs>
</svg>
