<svg width="1099" height="161" viewBox="0 0 1099 161" fill="none" xmlns="http://www.w3.org/2000/svg">
<path d="M940.652 133.441L982.715 31.9099C997.22 -2.084e-06 997.22 0 1010.56 0H1021.59C1034.93 0 1034.93 -2.084e-06 1049.44 31.9099L1091.5 133.441C1101.65 159.55 1101.65 159.55 1085.7 159.55H1082.8C1066.84 159.55 1066.84 159.55 1055.24 131.991L1045.08 104.432C1032.03 71.0721 1032.03 71.0721 1032.03 53.6667C1032.03 44.0937 1025.65 37.7117 1016.08 37.7117C1006.5 37.7117 1000.12 44.0937 1000.12 53.6667C1000.12 71.0721 1000.12 71.0721 987.067 104.432L976.913 131.991C965.31 159.55 965.31 159.55 949.355 159.55H946.454C930.499 159.55 930.499 159.55 940.652 133.441Z" fill="#071013"/>
<path d="M776.828 63.8198C767.255 63.8198 760.003 57.4378 760.003 47.8649V15.9549C760.003 6.38199 767.255 0 776.828 0C786.401 0 793.363 6.38199 793.363 15.9549V47.8649C793.363 57.4378 799.165 63.8198 808.738 63.8198C817.441 63.8198 817.441 63.8198 844.999 31.9099C869.657 2.9009 869.657 2.9009 889.963 2.9009H892.864C913.171 2.9009 913.17 2.9009 888.513 31.9099C859.504 63.8198 859.504 63.8198 850.801 63.8198C841.228 63.8198 834.846 70.2018 834.846 79.7748C834.846 89.3478 841.228 95.7297 850.801 95.7297C859.504 95.7297 859.504 95.7297 887.062 127.64C913.171 156.649 913.171 156.649 892.864 156.649H889.963C869.657 156.649 869.657 156.649 844.999 127.64C817.441 96.3099 816.861 95.7297 808.738 95.7297C799.165 95.7297 793.363 102.112 793.363 111.685V143.595C793.363 153.168 786.401 159.55 776.828 159.55C767.255 159.55 760.003 153.168 760.003 143.595V111.685C760.003 102.112 767.255 95.7297 776.828 95.7297C786.401 95.7297 793.363 89.3478 793.363 79.7748C793.363 70.2018 786.401 63.8198 776.828 63.8198ZM808.738 95.7297C808.448 95.7297 808.448 95.7297 808.158 95.7297H808.738Z" fill="#071013"/>
<path d="M586.136 0C606.442 0 606.442 0 619.497 18.8559C635.161 42.0631 635.161 42.0631 635.161 50.7658C635.161 60.3387 641.543 66.7207 651.116 66.7207C660.689 66.7207 667.071 60.3387 667.071 50.7658C667.071 42.0631 667.071 42.0631 682.736 18.8559C695.79 0 695.79 0 716.097 0C736.403 0 736.403 0 710.295 34.8108L685.927 69.6216C667.071 98.6306 667.071 98.6306 667.071 124.739V143.595C667.071 153.168 660.689 159.55 651.116 159.55C641.543 159.55 635.161 153.168 635.161 143.595V124.739C635.161 98.6306 635.161 98.6306 616.306 69.6216L591.938 34.8108C565.83 0 565.83 0 586.136 0Z" fill="#071013"/>
<path d="M390.092 111.685V47.2847C390.092 15.9549 404.886 0 435.056 0H495.685C527.304 0 542.389 17.6955 542.389 47.2847C542.389 56.8577 537.458 64.4 527.595 64.4C518.312 64.4 511.64 68.7514 511.64 78.3243C511.64 87.8973 518.312 92.8288 527.595 92.8288C537.458 92.8288 542.389 102.112 542.389 111.685C542.389 140.984 527.014 159.55 495.685 159.55H435.056C404.886 159.55 390.092 142.434 390.092 111.685ZM419.101 114.876C419.391 124.449 425.483 130.541 435.056 130.541H495.685C505.258 130.541 511.349 124.449 511.64 114.876V108.784C511.64 99.2108 505.258 92.8288 495.685 92.8288H435.056C425.483 92.8288 419.101 99.2108 419.101 108.784V114.876ZM419.101 48.445C419.101 58.018 425.483 64.4 435.056 64.4H495.685C505.258 64.4 511.64 58.018 511.64 48.445V44.3838C511.349 35.1009 504.968 29.009 495.685 29.009H435.056C425.483 29.009 419.101 35.391 419.101 44.6739V48.445Z" fill="#071013"/>
<path d="M263.913 161C195.452 161 184.139 141.854 184.139 79.7748V15.9549C184.139 6.38199 189.65 0 199.223 0C208.796 0 216.049 6.38199 216.049 15.9549V79.7748C216.049 118.937 224.751 130.541 263.913 130.541C302.205 130.541 311.778 118.067 311.778 79.7748V15.9549C311.778 6.38199 318.74 0 328.313 0C337.886 0 343.688 6.38199 343.688 15.9549V79.7748C343.688 140.404 330.634 161 263.913 161Z" fill="#071013"/>
<path d="M79.7748 159.55C17.4054 159.55 0 147.656 0 79.7748C0 11.8937 17.4054 0 79.7748 0H127.64C137.213 0 143.595 4.93152 143.595 14.5045C143.595 24.0775 137.213 29.009 127.64 29.009H79.7748C40.6126 29.009 30.4595 40.6126 30.4595 79.7748C30.4595 118.937 40.6126 130.541 79.7748 130.541H127.64C137.213 130.541 143.595 135.472 143.595 145.045C143.595 154.618 137.213 159.55 127.64 159.55H79.7748Z" fill="#071013"/>
</svg>
