<svg width="504" height="155" viewBox="0 0 504 155" fill="none" xmlns="http://www.w3.org/2000/svg">
<path d="M457.736 139.929V100.708C457.736 91.0809 463.798 86 472.89 86H473.246C495.977 86 502.662 98.4793 502.662 120.318C502.662 142.157 495.977 154.636 473.246 154.636H472.89C463.798 154.636 457.736 149.555 457.736 139.929ZM473.246 95.8052H472.89C469.948 95.8052 467.987 97.7662 467.987 100.708V139.929C467.987 142.87 469.948 144.831 472.89 144.831H473.246C487.687 144.831 492.411 138.413 492.411 120.318C492.411 102.223 487.687 95.8052 473.246 95.8052Z" fill="#F23D3D"/>
<path d="M408.554 110.067V105.61C408.554 90.2786 414.08 86 428.164 86H442.783C445.724 86 447.685 87.5153 447.685 90.4569C447.685 93.3985 445.724 94.9138 442.783 94.9138H428.164C420.587 94.9138 418.359 98.0336 418.359 105.61V110.067C418.359 113.009 420.32 114.97 423.262 114.97H442.337C445.279 114.97 447.24 116.485 447.24 119.427C447.24 122.368 445.279 123.884 442.337 123.884H423.262C420.32 123.884 418.359 125.845 418.359 128.786V135.026C418.359 142.603 420.587 145.723 428.164 145.723H443.228C446.17 145.723 448.131 147.238 448.131 150.179C448.131 153.121 446.17 154.636 443.228 154.636H428.164C414.08 154.636 408.554 150.358 408.554 135.026V128.786C408.554 125.845 410.515 123.884 413.456 123.884C416.398 123.884 418.359 122.368 418.359 119.427C418.359 116.485 416.398 114.97 413.456 114.97C410.515 114.97 408.554 113.009 408.554 110.067Z" fill="#F23D3D"/>
<path d="M356.893 109.622C348.425 96.5183 354.576 86 372.581 86H390.142C393.083 86 395.044 87.961 395.044 90.9026C395.044 93.8441 393.083 95.8052 390.142 95.8052H372.581C360.993 95.8052 361.35 99.6381 372.136 110.959L384.169 123.884C386.576 126.29 388.537 128.697 390.052 131.015C398.431 144.118 392.37 154.636 374.364 154.636H356.804C353.862 154.636 351.901 152.675 351.901 149.734C351.901 146.792 353.862 144.831 356.804 144.831H374.364C385.952 144.831 385.596 140.998 374.81 129.678L362.776 116.753C360.369 114.346 358.408 111.939 356.893 109.622Z" fill="#F23D3D"/>
<path d="M290.473 86C292.612 86 294.128 86 295.375 86.3566C298.317 87.0697 299.922 89.4764 305.181 97.5879L313.292 112.028L319.354 123.438C323.632 131.55 325.682 135.65 326.752 135.65C327.822 135.65 327.822 131.55 327.822 123.438V90.9026C327.822 87.961 329.783 86 332.724 86C335.666 86 337.627 87.961 337.627 90.9026V149.734C337.627 152.675 335.666 154.636 332.724 154.636C330.585 154.636 329.07 154.636 327.822 154.28C324.88 153.567 323.276 151.16 318.017 143.048L309.905 128.608L303.844 117.198C299.654 108.998 297.515 104.986 296.445 104.986C295.376 104.986 295.375 108.998 295.375 117.198V149.734C295.375 152.675 293.414 154.636 290.473 154.636C287.531 154.636 285.57 152.675 285.57 149.734V90.9026C285.57 87.961 287.531 86 290.473 86Z" fill="#F23D3D"/>
<path d="M235.675 110.067V105.61C235.675 90.2786 241.201 86 255.285 86H269.904C272.845 86 274.806 87.5153 274.806 90.4569C274.806 93.3985 272.845 94.9138 269.904 94.9138H255.285C247.708 94.9138 245.48 98.0336 245.48 105.61V110.067C245.48 113.009 247.441 114.97 250.383 114.97H269.458C272.4 114.97 274.361 116.485 274.361 119.427C274.361 122.368 272.4 123.884 269.458 123.884H250.383C247.441 123.884 245.48 125.845 245.48 128.786V135.026C245.48 142.603 247.708 145.723 255.285 145.723H270.35C273.291 145.723 275.252 147.238 275.252 150.179C275.252 153.121 273.291 154.636 270.35 154.636H255.285C241.201 154.636 235.675 150.358 235.675 135.026V128.786C235.675 125.845 237.636 123.884 240.577 123.884C243.519 123.884 245.48 122.368 245.48 119.427C245.48 116.485 243.519 114.97 240.577 114.97C237.636 114.97 235.675 113.009 235.675 110.067Z" fill="#F23D3D"/>
<path d="M181.095 139.929V100.708C181.095 91.0809 187.156 86 196.248 86H196.605C219.335 86 226.02 98.4793 226.02 120.318C226.02 142.157 219.335 154.636 196.605 154.636H196.248C187.156 154.636 181.095 149.555 181.095 139.929ZM196.605 95.8052H196.248C193.307 95.8052 191.346 97.7662 191.346 100.708V139.929C191.346 142.87 193.307 144.831 196.248 144.831H196.605C211.045 144.831 215.769 138.413 215.769 120.318C215.769 102.223 211.045 95.8052 196.605 95.8052Z" fill="#F23D3D"/>
<path d="M120.379 86C122.518 86 124.034 86 125.282 86.3566C128.223 87.0697 129.828 89.4764 135.087 97.5879L143.199 112.028L149.26 123.438C153.539 131.55 155.589 135.65 156.658 135.65C157.728 135.65 157.728 131.55 157.728 123.438V90.9026C157.728 87.961 159.689 86 162.631 86C165.572 86 167.533 87.961 167.533 90.9026V149.734C167.533 152.675 165.572 154.636 162.631 154.636C160.491 154.636 158.976 154.636 157.728 154.28C154.786 153.567 153.182 151.16 147.923 143.048L139.811 128.608L133.75 117.198C129.56 108.998 127.421 104.986 126.351 104.986C125.282 104.986 125.282 108.998 125.282 117.198V149.734C125.282 152.675 123.321 154.636 120.379 154.636C117.438 154.636 115.477 152.675 115.477 149.734V90.9026C115.477 87.961 117.438 86 120.379 86Z" fill="#F23D3D"/>
<path d="M50.5752 115.416C50.5752 93.3093 53.2493 85.8217 76.9601 85.8217C100.493 85.8217 103.345 93.131 103.345 115.416V125.221C103.345 147.416 100.582 154.815 76.9601 154.815C54.943 154.815 50.7535 149.021 50.5752 126.736C50.5752 126.201 50.5752 125.756 50.5752 125.221V115.416ZM76.9601 95.6269C61.2718 95.6269 60.8261 99.3707 60.8261 115.416V125.221C60.8261 141.266 61.2718 145.009 76.9601 145.009C92.6484 145.009 93.0941 141.266 93.0941 125.221V115.416C93.0941 99.3707 92.6484 95.6269 76.9601 95.6269Z" fill="#F23D3D"/>
<path d="M2.85242 144.831C0.713105 140.374 0 134.045 0 125.221V115.416C0 106.591 0.713105 100.262 2.85242 95.8052C7.4876 86.0891 20.0561 86 29.4156 86H37.438C40.3795 86 42.3406 87.961 42.3406 90.9026C42.3406 93.8441 40.3795 95.8052 37.438 95.8052H29.4156C13.3707 95.8052 10.2509 99.3707 10.2509 115.416V125.221C10.2509 141.266 13.3707 144.831 29.4156 144.831H37.438C40.3795 144.831 42.3406 146.792 42.3406 149.734C42.3406 152.675 40.3795 154.636 37.438 154.636H29.4156C20.0561 154.636 7.39846 154.547 2.85242 144.831Z" fill="#F23D3D"/>
<path d="M444.849 24.9587V13.8164C444.849 4.01121 450.643 0 459.556 0H484.069C499.401 0 503.68 5.52656 503.68 19.6104C503.68 33.7833 499.312 38.7751 484.069 38.7751H485.406C477.384 38.7751 477.384 38.7751 485.406 49.0259L493.875 58.8311C502.788 68.6363 502.788 68.6363 496.103 68.6363H495.657C488.972 68.6363 488.972 68.6363 480.504 58.8311C464.905 38.7751 464.905 38.7751 461.339 38.7751H459.556C456.615 38.7751 454.654 40.7361 454.654 43.6777V63.7337C454.654 66.6753 452.693 68.6363 449.751 68.6363C446.81 68.6363 444.849 66.6753 444.849 63.7337V43.6777C444.849 40.7361 446.81 38.7751 449.751 38.7751C452.693 38.7751 454.654 37.2597 454.654 34.3182C454.654 31.3766 452.693 29.8612 449.751 29.8612C446.81 29.8612 444.849 27.9002 444.849 24.9587ZM454.654 13.8164V24.9587C454.654 27.9002 456.615 29.8612 459.556 29.8612H484.069C491.646 29.8612 493.875 27.1871 493.875 19.6104C493.875 12.0336 491.646 8.91381 484.069 8.91381H459.556C456.615 8.91381 454.654 10.8748 454.654 13.8164Z" fill="#071013"/>
<path d="M371.228 68.6363C365.434 68.6363 365.434 68.6363 367.663 62.3966L389.858 9.80519C393.869 0 393.869 0 397.97 0C402.07 0 402.07 0 406.081 9.80519L428.277 62.3966C430.505 68.6363 430.505 68.6363 424.711 68.6363C419.808 68.6363 419.808 68.6363 417.134 62.3966L406.438 36.5466L402.872 27.6328V23.1759C402.872 20.2343 400.911 18.2733 397.97 18.2733C395.028 18.2733 393.067 20.2343 393.067 23.1759C393.067 27.6328 393.067 27.6328 389.502 36.5466L378.805 62.3966C376.131 68.6363 376.131 68.6363 371.228 68.6363Z" fill="#071013"/>
<path d="M303.844 4.90259C303.844 1.96104 305.805 0 308.746 0C311.688 0 313.649 1.96104 313.649 4.90259V44.1233C313.649 56.157 316.323 58.8311 328.357 58.8311H348.858C351.8 58.8311 353.761 60.7922 353.761 63.7337C353.761 66.6753 351.8 68.6363 348.858 68.6363H328.357C307.409 68.6363 303.844 63.288 303.844 44.1233V4.90259Z" fill="#071013"/>
<path d="M252.116 69.082C226.801 69.082 222.7 61.951 222.7 39.2207V4.90259C222.7 1.96104 224.661 0 227.603 0C230.544 0 232.951 1.96104 232.951 4.90259V39.2207C232.951 55.2656 236.071 59.2768 252.116 59.2768C268.161 59.2768 271.28 55.2656 271.28 39.2207V4.90259C271.28 1.96104 273.687 0 276.629 0C279.57 0 281.531 1.96104 281.531 4.90259V39.2207C281.531 61.951 277.431 69.082 252.116 69.082Z" fill="#071013"/>
<path d="M181.227 68.6363H174.542C149.761 68.6363 145.126 62.5749 145.126 39.2207V29.4156C145.126 6.23966 149.672 0 174.542 0L195.489 0.178279C198.431 0.178279 200.392 2.13931 200.392 5.08087C200.392 8.02243 198.431 9.98346 195.489 9.98346L174.542 9.80519C158.497 9.80519 155.377 13.3707 155.377 29.4156V39.2207C155.377 55.2656 158.497 59.7225 174.542 59.7225H181.227C188.804 59.7225 191.032 56.6027 191.032 49.0259V44.1233C191.032 41.1818 189.071 39.2207 186.129 39.2207H175.879C172.937 39.2207 170.976 37.2597 170.976 34.3182C170.976 31.3766 172.937 29.4156 175.879 29.4156H186.129C195.489 29.4156 201.283 34.7638 201.283 44.1233V49.0259C201.283 63.288 196.469 68.6363 181.227 68.6363Z" fill="#071013"/>
<path d="M78.2344 24.0673V19.6104C78.2344 4.27862 83.7609 0 97.8447 0H122.358C125.299 0 127.26 1.51535 127.26 4.4569C127.26 7.39846 125.299 8.91381 122.358 8.91381H97.8447C90.268 8.91381 88.0396 12.0336 88.0396 19.6104V24.0673C88.0396 27.0088 90.0006 28.9699 92.9422 28.9699H121.912C124.854 28.9699 126.815 30.4852 126.815 33.4268C126.815 36.3683 124.854 37.8837 121.912 37.8837H92.9422C90.0006 37.8837 88.0396 39.8447 88.0396 42.7863V49.0259C88.0396 56.6027 90.268 59.7225 97.8447 59.7225H122.803C125.745 59.7225 127.706 61.2378 127.706 64.1794C127.706 67.121 125.745 68.6363 122.803 68.6363H97.8447C83.7609 68.6363 78.2344 64.3577 78.2344 49.0259V42.7863C78.2344 39.8447 80.1954 37.8837 83.137 37.8837C86.0785 37.8837 88.0396 36.3683 88.0396 33.4268C88.0396 30.4852 86.0785 28.9699 83.137 28.9699C80.1954 28.9699 78.2344 27.0088 78.2344 24.0673Z" fill="#071013"/>
<path d="M0.245117 24.9587V13.8164C0.245117 4.01121 6.03909 0 14.9529 0H39.4659C54.7976 0 59.0762 5.52656 59.0762 19.6104C59.0762 33.7833 54.7085 38.7751 39.4659 38.7751H40.8029C32.7805 38.7751 32.7805 38.7751 40.8029 49.0259L49.271 58.8311C58.1849 68.6363 58.1848 68.6363 51.4995 68.6363H51.0538C44.3685 68.6363 44.3685 68.6363 35.9003 58.8311C20.3012 38.7751 20.3012 38.7751 16.7357 38.7751H14.9529C12.0113 38.7751 10.0503 40.7361 10.0503 43.6777V63.7337C10.0503 66.6753 8.08927 68.6363 5.14771 68.6363C2.20615 68.6363 0.245117 66.6753 0.245117 63.7337V43.6777C0.245117 40.7361 2.20615 38.7751 5.14771 38.7751C8.08927 38.7751 10.0503 37.2597 10.0503 34.3182C10.0503 31.3766 8.08927 29.8612 5.14771 29.8612C2.20615 29.8612 0.245117 27.9002 0.245117 24.9587ZM10.0503 13.8164V24.9587C10.0503 27.9002 12.0113 29.8612 14.9529 29.8612H39.4659C47.0426 29.8612 49.271 27.1871 49.271 19.6104C49.271 12.0336 47.0426 8.91381 39.4659 8.91381H14.9529C12.0113 8.91381 10.0503 10.8748 10.0503 13.8164Z" fill="#071013"/>
</svg>
