<svg width="1242" height="477" viewBox="0 0 1242 477" fill="none" xmlns="http://www.w3.org/2000/svg">
<path d="M1177.79 93.25C1178.19 92.5 1178.99 91.7 1180.69 90L1192.19 79C1195.44 75.75 1195.44 75.75 1192.19 75.75H1180.19C1178.54 75.75 1177.44 74.9 1177.44 73.25C1177.44 71.6 1178.54 70.75 1180.19 70.75H1200.19C1201.84 70.75 1202.94 71.6 1202.94 73.25C1202.94 74.45 1202.94 75.05 1202.59 75.75C1202.19 76.5 1201.39 77.3 1199.69 79L1188.19 90C1184.94 93.25 1184.94 93.25 1188.19 93.25H1200.19C1201.84 93.25 1202.94 94.1 1202.94 95.75C1202.94 97.4 1201.84 98.25 1200.19 98.25H1180.19C1178.54 98.25 1177.44 97.4 1177.44 95.75C1177.44 94.55 1177.44 93.95 1177.79 93.25Z" fill="#FFFBFF"/>
<path d="M1139.7 95.75V93.25C1139.7 90 1139.7 90 1144.7 85.25L1160.45 69.5C1165.2 64.75 1165.2 64.75 1156.95 64.75H1142.45C1140.8 64.75 1139.7 63.9 1139.7 62.25C1139.7 60.6 1140.8 59.75 1142.45 59.75H1167.45C1169.1 59.75 1170.2 60.6 1170.2 62.25V64.75C1170.2 68 1170.2 68 1164.95 72.75L1148.95 89C1144.7 93.25 1144.7 93.25 1152.95 93.25H1167.45C1169.1 93.25 1170.2 94.1 1170.2 95.75C1170.2 97.4 1169.1 98.25 1167.45 98.25H1142.45C1140.8 98.25 1139.7 97.4 1139.7 95.75Z" fill="#FFFBFF"/>
<path d="M1072.19 70.75H1072.69C1075.44 70.75 1075.44 70.75 1077.44 75.5L1079.19 80.25C1081.44 86 1081.44 86 1081.44 89C1081.44 90.65 1082.54 91.75 1084.19 91.75C1085.84 91.75 1086.94 90.65 1086.94 89C1086.94 86 1086.94 86 1089.19 80.25L1090.94 75.5C1092.94 70.75 1092.94 70.75 1095.69 70.75H1096.19C1098.94 70.75 1098.94 70.75 1097.19 75.25L1089.94 92.75L1087.44 98.25L1085.44 103.75C1083.19 109.25 1083.19 109.25 1080.44 109.25H1079.94C1077.19 109.25 1077.19 109.25 1079.44 103C1080.94 98.25 1080.94 98.25 1078.44 92.75L1071.19 75.25C1069.44 70.75 1069.44 70.75 1072.19 70.75Z" fill="#FFFBFF"/>
<path d="M1035.86 59.75C1039.86 59.75 1039.86 59.75 1043.61 64.75C1048.86 71.25 1048.86 71.25 1048.86 73C1048.86 74.65 1049.96 75.75 1051.61 75.75C1053.26 75.75 1054.36 74.65 1054.36 73C1054.36 71.25 1054.36 71.25 1059.61 64.75C1063.36 59.75 1063.36 59.75 1067.36 59.75C1070.86 59.75 1070.86 59.75 1066.36 65.25L1057.61 76.75C1054.61 81.25 1054.61 81.25 1054.61 87.25V95.5C1054.61 97.15 1053.26 98.25 1051.61 98.25C1049.96 98.25 1048.61 97.15 1048.61 95.5V87.25C1048.61 81.25 1048.61 81.25 1045.61 76.75L1036.86 65.25C1032.36 59.75 1032.36 59.75 1035.86 59.75Z" fill="#FFFBFF"/>
<path d="M968.497 92.75L972.997 87.25C975.247 84.5 975.247 84.5 972.997 81.75L968.497 76.25C964.247 70.75 964.247 70.75 967.747 70.75H968.247C971.497 70.75 971.497 70.75 973.747 73.25C976.747 77.25 976.747 77.25 976.747 79C976.747 80.65 977.847 81.75 979.497 81.75C981.147 81.75 982.247 80.65 982.247 79C982.247 77.25 982.247 77.25 985.247 73.25C987.497 70.75 987.497 70.75 990.747 70.75H991.247C994.747 70.75 994.747 70.75 990.497 76.25L985.997 81.75C983.747 84.5 983.747 84.5 985.997 87.25L990.497 92.75C994.747 98.25 994.747 98.25 991.247 98.25H990.747C987.497 98.25 987.497 98.25 985.247 95.75C982.247 91.75 982.247 91.75 982.247 90C982.247 88.35 981.147 87.25 979.497 87.25C977.847 87.25 976.747 88.35 976.747 90C976.747 91.75 976.747 91.75 973.747 95.75C971.497 98.25 971.497 98.25 968.247 98.25H967.747C964.247 98.25 964.247 98.25 968.497 92.75Z" fill="#FFFBFF"/>
<path d="M930.126 92.75L938.376 81.75C940.376 79 940.376 79 938.376 76.25L930.126 65.25C925.626 59.75 925.626 59.75 929.126 59.75C933.126 59.75 933.126 59.75 937.376 65.25C942.126 71.25 942.126 71.25 942.126 73.5C942.126 75.15 943.226 76.25 944.876 76.25C946.526 76.25 947.626 75.15 947.626 73.5C947.626 71.25 947.626 71.25 952.376 65.25C956.626 59.75 956.626 59.75 960.626 59.75C964.126 59.75 964.126 59.75 959.626 65.25L951.376 76.25C949.376 79 949.376 79 951.376 81.75L959.626 92.75C964.126 98.25 964.126 98.25 960.626 98.25C956.626 98.25 956.626 98.25 952.376 92.75C947.626 86.75 947.626 86.75 947.626 84.5C947.626 82.85 946.526 81.75 944.876 81.75C943.226 81.75 942.126 82.85 942.126 84.5C942.126 86.75 942.126 86.75 937.376 92.75C933.126 98.25 933.126 98.25 929.126 98.25C925.626 98.25 925.626 98.25 930.126 92.75Z" fill="#FFFBFF"/>
<path d="M862.811 70.75H863.311C866.061 70.75 866.061 70.75 868.061 75.5L869.811 80.25C872.061 86 872.061 86 872.061 89C872.061 90.65 873.161 91.75 874.811 91.75C876.461 91.75 877.561 90.65 877.561 89C877.561 86 877.561 86 879.811 80.25L881.561 75.5C883.561 70.75 883.561 70.75 886.311 70.75H886.811C889.561 70.75 889.561 70.75 887.811 75.25L880.561 92.75C878.061 98.25 878.061 98.25 875.761 98.25H873.861C871.561 98.25 871.561 98.25 869.061 92.75L861.811 75.25C860.061 70.75 860.061 70.75 862.811 70.75Z" fill="#FFFBFF"/>
<path d="M827.765 59.75C830.515 59.75 830.515 59.75 832.015 63.25L838.015 77.75C840.015 82.75 840.015 82.75 840.015 85.25C840.015 86.9 841.115 88 842.765 88C844.415 88 845.515 86.9 845.515 85.25C845.515 82.75 845.515 82.75 847.515 77.75L853.515 63.25C855.015 59.75 855.015 59.75 857.765 59.75C861.015 59.75 861.015 59.75 859.765 63.25L847.315 92.75C845.065 98.25 845.065 98.25 842.765 98.25C840.465 98.25 840.465 98.25 838.215 92.75L825.765 63.25C824.515 59.75 824.515 59.75 827.765 59.75Z" fill="#FFFBFF"/>
<path d="M769.191 98.5C757.441 98.5 755.441 95.1 755.441 84.5V73.5C755.441 71.85 756.541 70.75 758.191 70.75C759.841 70.75 761.191 71.85 761.191 73.5V84.5C761.191 91.25 762.441 93 769.191 93C775.791 93 777.191 91.1 777.191 84.5V73.5C777.191 71.85 778.541 70.75 780.191 70.75C781.841 70.75 782.941 71.85 782.941 73.5V84.5C782.941 94.95 780.691 98.5 769.191 98.5Z" fill="#FFFBFF"/>
<path d="M730.426 98.5C716.226 98.5 713.926 94.5 713.926 81.75V62.5C713.926 60.85 715.026 59.75 716.676 59.75C718.326 59.75 719.676 60.85 719.676 62.5V81.75C719.676 90.75 721.426 93 730.426 93C739.426 93 741.176 90.75 741.176 81.75V62.5C741.176 60.85 742.526 59.75 744.176 59.75C745.826 59.75 746.926 60.85 746.926 62.5V81.75C746.926 94.5 744.626 98.5 730.426 98.5Z" fill="#FFFBFF"/>
<path d="M657.906 98.25C652.606 98.25 649.656 95.7 649.656 90.5V78.25C649.656 76.6 650.506 75.75 652.156 75.75C653.806 75.75 654.656 75.15 654.656 73.5C654.656 71.85 653.806 71.25 652.156 71.25C650.506 71.25 649.656 70.4 649.656 68.75V60.75C649.656 59.1 650.756 58 652.406 58C654.056 58 655.156 59.1 655.156 60.75V68.25C655.156 69.9 656.256 71 657.906 71H665.156C666.806 71 667.906 71.85 667.906 73.5C667.906 75.15 666.806 76 665.156 76H657.906C656.256 76 655.156 77.1 655.156 78.75V90.5C655.156 92.15 656.256 93 657.906 93H660.656C662.306 93 663.406 92.15 663.406 90.5C663.406 88.85 664.506 87.75 666.156 87.75C667.806 87.75 668.906 88.85 668.906 90.5C668.906 92.15 667.806 93 666.156 93C664.506 93 663.406 94.1 663.406 95.75C663.406 97.4 662.306 98.25 660.656 98.25H657.906Z" fill="#FFFBFF"/>
<path d="M614.383 59.75H622.133C623.783 59.75 624.883 60.85 624.883 62.5C624.883 64.15 625.983 65.25 627.633 65.25H628.133C629.783 65.25 630.883 64.15 630.883 62.5C630.883 60.85 631.983 59.75 633.633 59.75H641.383C643.033 59.75 644.133 61.1 644.133 62.75C644.133 64.4 643.033 65.75 641.383 65.75H633.633C631.983 65.75 630.883 66.85 630.883 68.5V95.5C630.883 97.15 629.783 98.25 628.133 98.25H627.633C625.983 98.25 624.883 97.15 624.883 95.5V68.5C624.883 66.85 623.783 65.75 622.133 65.75H614.383C612.733 65.75 611.633 64.4 611.633 62.75C611.633 61.1 612.733 59.75 614.383 59.75Z" fill="#FFFBFF"/>
<path d="M565.875 75.75H550.875C547.125 75.75 547.625 78.5 550.125 79.4L563.125 84.4C571.125 86.9 570.475 98.25 560.375 98.25H545.375C543.725 98.25 542.625 97.4 542.625 95.75C542.625 94.1 543.725 93.25 545.375 93.25H560.375C564.125 93.25 563.625 90.5 561.125 89.6L548.125 84.6C540.125 82.1 540.775 70.75 550.875 70.75H565.875C567.525 70.75 568.625 71.6 568.625 73.25C568.625 74.9 567.525 75.75 565.875 75.75Z" fill="#FFFBFF"/>
<path d="M505.292 73.6C501.542 68.1 505.392 59.75 514.992 59.75H531.242C532.892 59.75 533.992 60.85 533.992 62.5C533.992 64.15 532.892 65.25 531.242 65.25H514.992C509.492 65.25 506.242 69.25 514.992 73.25L528.642 81.05C530.442 81.9 531.792 83.05 532.692 84.4C536.442 89.9 532.592 98.25 522.992 98.25H506.742C505.092 98.25 503.992 97.15 503.992 95.5C503.992 93.85 505.092 92.75 506.742 92.75H522.992C528.492 92.75 531.742 88.75 522.992 84.75L509.342 76.95C507.542 76.1 506.192 74.95 505.292 73.6Z" fill="#FFFBFF"/>
<path d="M455.084 75.75H440.084C436.334 75.75 436.834 78.5 439.334 79.4L452.334 84.4C460.334 86.9 459.684 98.25 449.584 98.25H434.584C432.934 98.25 431.834 97.4 431.834 95.75C431.834 94.1 432.934 93.25 434.584 93.25H449.584C453.334 93.25 452.834 90.5 450.334 89.6L437.334 84.6C429.334 82.1 429.984 70.75 440.084 70.75H455.084C456.734 70.75 457.834 71.6 457.834 73.25C457.834 74.9 456.734 75.75 455.084 75.75Z" fill="#FFFBFF"/>
<path d="M393.088 73.75V67.5C393.088 62 396.338 59.75 401.338 59.75H415.088C423.688 59.75 426.088 62.85 426.088 70.75C426.088 78.7 423.638 81.5 415.088 81.5H415.838C411.338 81.5 411.338 81.5 415.838 87.25L420.588 92.75C425.588 98.25 425.588 98.25 421.838 98.25H421.588C417.838 98.25 417.838 98.25 413.088 92.75C404.338 81.5 404.338 81.5 402.338 81.5H401.338C399.688 81.5 398.588 82.6 398.588 84.25V95.5C398.588 97.15 397.488 98.25 395.838 98.25C394.188 98.25 393.088 97.15 393.088 95.5V84.25C393.088 82.6 394.188 81.5 395.838 81.5C397.488 81.5 398.588 80.65 398.588 79C398.588 77.35 397.488 76.5 395.838 76.5C394.188 76.5 393.088 75.4 393.088 73.75ZM398.588 67.5V73.75C398.588 75.4 399.688 76.5 401.338 76.5H415.088C419.338 76.5 420.588 75 420.588 70.75C420.588 66.5 419.338 64.75 415.088 64.75H401.338C399.688 64.75 398.588 65.85 398.588 67.5Z" fill="#FFFBFF"/>
<path d="M320.064 106.5V100.75C320.064 99.95 320.364 99.25 320.814 98.75C321.314 98.3 322.014 98 322.814 98C323.664 98 324.364 97.7 324.864 97.2C325.314 96.7 325.564 96.05 325.564 95.25C325.564 93.6 324.464 92.5 322.814 92.5C321.164 92.5 320.064 91.35 320.064 89.75V84.5C320.064 72.8 323.014 70.5 333.814 70.5C344.814 70.5 347.564 73.5 347.564 84.5C347.564 95.75 345.064 98.5 333.814 98.5H328.314C326.664 98.5 325.564 99.6 325.564 101.25V106.5C325.564 108.15 324.464 109.25 322.814 109.25C321.164 109.25 320.064 108.15 320.064 106.5ZM333.814 75.55C326.264 75.55 325.414 77.95 325.414 84.5C325.414 91.05 326.264 93.45 333.814 93.45C340.914 93.45 342.214 91.6 342.214 84.5C342.214 77.55 340.764 75.55 333.814 75.55Z" fill="#FFFBFF"/>
<path d="M284.803 81.5C286.453 81.5 287.553 80.65 287.553 79C287.553 77.35 286.453 76.5 284.803 76.5C283.153 76.5 282.053 75.4 282.053 73.75V67.5C282.053 62 285.303 59.75 290.303 59.75H304.053C312.653 59.75 315.053 62.85 315.053 70.75C315.053 78.7 312.603 81.5 304.053 81.5H290.303C288.653 81.5 287.553 82.6 287.553 84.25V95.5C287.553 97.15 286.453 98.25 284.803 98.25C283.153 98.25 282.053 97.15 282.053 95.5V84.25C282.053 82.6 283.153 81.5 284.803 81.5ZM304.053 64.75H290.303C288.653 64.75 287.553 65.85 287.553 67.5V73.75C287.553 75.4 288.653 76.5 290.303 76.5H304.053C308.303 76.5 309.553 75 309.553 70.75C309.553 66.5 308.303 64.75 304.053 64.75Z" fill="#FFFBFF"/>
<path d="M209.031 84.5C209.031 73.25 211.531 70.5 222.781 70.5C234.031 70.5 236.531 73.25 236.531 84.5C236.531 95.5 233.781 98.55 222.781 98.55C211.531 98.55 209.031 95.75 209.031 84.5ZM214.381 84.5C214.381 91.6 215.681 93.5 222.781 93.5C229.731 93.5 231.181 91.45 231.181 84.5C231.181 77.4 229.881 75.55 222.781 75.55C215.681 75.55 214.381 77.4 214.381 84.5Z" fill="#FFFBFF"/>
<path d="M166.437 65.65C168.937 59.7 176.037 59.65 181.537 59.65H185.537C190.337 59.65 193.787 60.05 196.287 61.15C201.987 63.75 202.037 70.85 202.037 76.25V81.75C202.037 86.45 201.687 89.85 200.637 92.35C198.137 98.3 191.037 98.35 185.537 98.35H181.537C176.737 98.35 173.287 97.95 170.787 96.85C165.087 94.25 165.037 87.15 165.037 81.75V76.25C165.037 71.55 165.387 68.15 166.437 65.65ZM170.787 81.75C170.787 90.75 172.537 92.85 181.537 92.85H185.537C194.537 92.85 196.287 90.75 196.287 81.75V76.25C196.287 67.25 194.537 65.15 185.537 65.15H181.537C172.537 65.15 170.787 67.25 170.787 76.25V81.75Z" fill="#FFFBFF"/>
<path d="M94.8754 70.75C96.5254 70.75 97.7254 71.6 97.7254 73.25C97.7254 74.9 98.6254 75.75 100.275 75.75C101.925 75.75 103.025 74.9 103.025 73.25C103.025 71.6 104.125 70.75 105.775 70.75C109.225 70.75 111.825 70.95 113.825 71.5C119.525 73.3 119.525 78.95 119.525 84V95.5C119.525 97.15 118.325 98.25 116.675 98.25C115.025 98.25 113.825 97.15 113.825 95.5V84C113.825 77.25 112.525 75.75 105.775 75.75C104.125 75.75 103.025 76.85 103.025 78.5C103.025 80.15 101.925 81.25 100.275 81.25C98.6254 81.25 97.7254 82.35 97.7254 84V95.5C97.7254 97.15 96.5254 98.25 94.8754 98.25C93.2254 98.25 92.0254 97.15 92.0254 95.5V73.25C92.0254 71.6 93.2254 70.75 94.8754 70.75Z" fill="#FFFBFF"/>
<path d="M48.291 59.75C49.541 59.75 50.341 59.75 51.041 60C52.391 60.45 53.441 61.7 56.541 65.25L70.291 82.75C72.941 86.05 74.491 87.95 75.341 87.95C76.541 87.95 76.541 84.45 76.541 76.25V62.5C76.541 60.85 77.641 59.75 79.291 59.75C80.941 59.75 82.041 60.85 82.041 62.5V95.5C82.041 97.15 80.941 98.25 79.291 98.25C78.041 98.25 77.241 98.25 76.541 98C75.191 97.55 74.141 96.3 71.041 92.75L57.291 75.25C54.641 71.95 53.091 70.05 52.241 70.05C51.041 70.05 51.041 73.55 51.041 81.75V95.5C51.041 97.15 49.941 98.25 48.291 98.25C46.641 98.25 45.541 97.15 45.541 95.5V62.5C45.541 60.85 46.641 59.75 48.291 59.75Z" fill="#FFFBFF"/>
<path d="M1201.24 13.75C1202.89 13.75 1204.04 14.6 1204.04 16.25C1204.04 17.9 1205.04 18.75 1206.69 18.75C1208.34 18.75 1209.44 17.9 1209.44 16.25C1209.44 14.6 1210.54 13.75 1212.19 13.75H1214.79C1216.44 13.75 1217.54 14.6 1217.54 16.25C1217.54 17.9 1218.79 18.75 1220.44 18.75C1222.09 18.75 1223.39 17.9 1223.39 16.25C1223.39 14.6 1224.29 13.75 1225.94 13.75H1227.94C1238.99 13.75 1241.69 15.6 1241.69 27V38.5C1241.69 40.15 1240.49 41.25 1238.84 41.25C1237.19 41.25 1235.99 40.15 1235.99 38.5V27C1235.99 20.25 1234.69 18.75 1227.94 18.75H1225.94C1224.29 18.75 1223.39 19.85 1223.39 21.5V38.5C1223.39 40.15 1222.09 41.25 1220.44 41.25C1218.79 41.25 1217.54 40.15 1217.54 38.5V21.5C1217.54 19.85 1216.44 18.75 1214.79 18.75H1212.19C1210.54 18.75 1209.44 19.85 1209.44 21.5C1209.44 23.15 1208.34 24.25 1206.69 24.25C1205.04 24.25 1204.04 25.35 1204.04 27V38.5C1204.04 40.15 1202.89 41.25 1201.24 41.25C1199.59 41.25 1198.69 40.15 1198.69 38.5V16.25C1198.69 14.6 1199.59 13.75 1201.24 13.75Z" fill="#FFFBFF"/>
<path d="M1151.21 38.5V5.5C1151.21 3.85 1152.31 2.75 1153.96 2.75H1157.71C1160.46 2.75 1160.46 2.75 1166.21 12.75C1167.71 15.25 1167.71 15.25 1167.71 17C1167.71 18.65 1168.81 19.75 1170.46 19.75C1172.11 19.75 1173.21 18.65 1173.21 17C1173.21 15.25 1173.21 15.25 1174.71 12.75C1180.46 2.75 1180.46 2.75 1183.21 2.75H1186.96C1188.61 2.75 1189.71 3.85 1189.71 5.5V38.5C1189.71 40.15 1188.61 41.25 1186.96 41.25C1185.31 41.25 1184.21 40.15 1184.21 38.5V15.75C1184.21 11.2 1184.21 9.1 1183.66 9.1C1183.21 9.1 1182.36 10.7 1180.71 13.75C1173.21 25.75 1173.21 25.75 1173.21 27.5C1173.21 29.15 1172.11 30.25 1170.46 30.25C1168.81 30.25 1167.71 29.15 1167.71 27.5C1167.71 25.75 1167.71 25.75 1160.21 13.75C1158.56 10.7 1157.71 9.1 1157.26 9.1C1156.71 9.1 1156.71 11.2 1156.71 15.75V38.5C1156.71 40.15 1155.61 41.25 1153.96 41.25C1152.31 41.25 1151.21 40.15 1151.21 38.5Z" fill="#FFFBFF"/>
<path d="M1112.18 4.5C1110.53 4.5 1109.43 3.9 1109.43 2.25C1109.43 0.600001 1110.53 0 1112.18 0H1117.68C1119.33 0 1120.43 0.600001 1120.43 2.25V34.25C1120.43 35.9 1121.53 36.75 1123.18 36.75C1124.83 36.75 1125.93 37.35 1125.93 39C1125.93 40.65 1124.83 41.25 1123.18 41.25H1112.18C1110.53 41.25 1109.43 40.65 1109.43 39C1109.43 37.35 1110.53 36.75 1112.18 36.75C1113.83 36.75 1114.93 35.9 1114.93 34.25V7L1114.83 6.15C1114.58 5.35 1113.98 4.85 1113.18 4.6L1112.18 4.5Z" fill="#FFFBFF"/>
<path d="M1077.93 5.5C1077.93 3.85 1079.03 2.75 1080.68 2.75C1082.33 2.75 1083.43 3.85 1083.43 5.5V27.5C1083.43 34.25 1084.93 35.75 1091.68 35.75H1103.18C1104.83 35.75 1105.93 36.85 1105.93 38.5C1105.93 40.15 1104.83 41.25 1103.18 41.25H1091.68C1079.93 41.25 1077.93 38.25 1077.93 27.5V5.5Z" fill="#FFFBFF"/>
<path d="M1009.69 38.5V33C1009.69 31.35 1010.89 30.25 1012.54 30.25C1014.19 30.25 1015.39 29.15 1015.39 27.5C1015.39 25.85 1014.19 24.75 1012.54 24.75C1010.89 24.75 1009.69 23.65 1009.69 22V2.75C1009.69 1.1 1010.89 0 1012.54 0C1014.19 0 1015.39 1.1 1015.39 2.75V22C1015.39 23.65 1016.29 24.75 1017.94 24.75C1019.44 24.75 1019.44 24.75 1024.19 19.25C1028.94 13.75 1028.94 13.75 1032.44 13.75H1033.44C1036.94 13.75 1036.94 13.75 1032.19 19.25C1027.19 24.75 1027.19 24.75 1025.69 24.75C1024.04 24.75 1022.94 25.85 1022.94 27.5C1022.94 29.15 1024.04 30.25 1025.69 30.25C1027.19 30.25 1027.19 30.25 1031.94 35.75C1036.94 41.25 1036.94 41.25 1033.44 41.25H1032.44C1028.94 41.25 1028.94 41.25 1024.19 35.75C1019.44 30.35 1019.34 30.25 1017.94 30.25C1016.29 30.25 1015.39 31.35 1015.39 33V38.5C1015.39 40.15 1014.19 41.25 1012.54 41.25C1010.89 41.25 1009.69 40.15 1009.69 38.5Z" fill="#FFFBFF"/>
<path d="M975.94 24.75C977.59 24.75 978.69 23.65 978.69 22C978.69 20.35 977.59 19.25 975.94 19.25C974.29 19.25 973.19 18.15 973.19 16.5V5.5C973.19 3.85 974.29 2.75 975.94 2.75C977.59 2.75 978.69 3.85 978.69 5.5V16C978.69 17.65 979.79 18.75 981.44 18.75C984.19 18.75 984.19 18.75 993.19 8.25C997.94 2.75 997.94 2.75 1001.44 2.75H1001.69C1005.19 2.75 1005.19 2.75 1000.19 8.25L995.44 13.75C991.19 19.25 991.19 19.25 989.19 19.25C987.54 19.25 986.44 20.35 986.44 22C986.44 23.65 987.54 24.75 989.19 24.75C991.19 24.75 991.19 24.75 995.44 30.25L1000.19 35.75C1005.19 41.25 1005.19 41.25 1001.69 41.25H1001.44C997.94 41.25 997.94 41.25 993.19 35.75C984.19 25.25 984.19 25.25 981.44 25.25C979.79 25.25 978.69 26.35 978.69 28V38.5C978.69 40.15 977.59 41.25 975.94 41.25C974.29 41.25 973.19 40.15 973.19 38.5V27.5C973.19 25.85 974.29 24.75 975.94 24.75Z" fill="#FFFBFF"/>
<path d="M912.669 16C912.669 14.35 913.769 13.75 915.419 13.75H920.419C922.069 13.75 923.169 14.35 923.169 16V34.25C923.169 35.9 924.269 36.75 925.919 36.75C927.569 36.75 928.669 37.35 928.669 39C928.669 40.65 927.569 41.25 925.919 41.25H915.419C913.769 41.25 912.669 40.65 912.669 39C912.669 37.35 913.769 36.75 915.419 36.75C917.069 36.75 918.169 35.9 918.169 34.25V20.75C918.169 19.1 917.069 18.25 915.419 18.25C913.769 18.25 912.669 17.65 912.669 16ZM920.419 7.35C918.069 7.35 917.219 6.5 917.219 4.15C917.219 1.85 918.069 0.949997 920.419 0.949997C922.719 0.949997 923.619 1.85 923.619 4.15C923.619 6.5 922.719 7.35 920.419 7.35Z" fill="#FFFBFF"/>
<path d="M877.155 2.75H883.905C885.555 2.75 886.655 3.85 886.655 5.5C886.655 7.15 887.755 8.25 889.405 8.25H889.905C891.555 8.25 892.655 7.15 892.655 5.5C892.655 3.85 893.755 2.75 895.405 2.75H902.155C903.805 2.75 904.905 4.1 904.905 5.75C904.905 7.4 903.805 8.75 902.155 8.75H895.405C893.755 8.75 892.655 9.85 892.655 11.5V32.5C892.655 34.15 893.755 35.25 895.405 35.25H902.155C903.805 35.25 904.905 36.6 904.905 38.25C904.905 39.9 903.805 41.25 902.155 41.25H895.405C893.755 41.25 892.655 40.15 892.655 38.5C892.655 36.85 891.555 35.75 889.905 35.75H889.405C887.755 35.75 886.655 36.85 886.655 38.5C886.655 40.15 885.555 41.25 883.905 41.25H877.155C875.505 41.25 874.405 39.9 874.405 38.25C874.405 36.6 875.505 35.25 877.155 35.25H883.905C885.555 35.25 886.655 34.15 886.655 32.5V11.5C886.655 9.85 885.555 8.75 883.905 8.75H877.155C875.505 8.75 874.405 7.4 874.405 5.75C874.405 4.1 875.505 2.75 877.155 2.75Z" fill="#FFFBFF"/>
<path d="M803.505 41.25C801.855 41.25 800.655 40.15 800.655 38.5V2.75C800.655 1.1 801.855 0 803.505 0C805.155 0 806.355 1.1 806.355 2.75V16.25C806.355 17.9 807.255 19 808.905 19C810.555 19 811.655 17.9 811.655 16.25C811.655 14.6 812.755 13.75 814.405 13.75C817.905 13.75 820.555 13.95 822.555 14.6C828.155 16.4 828.155 22.35 828.155 27.25V38.5C828.155 40.15 827.005 41.25 825.355 41.25C823.705 41.25 822.555 40.15 822.555 38.5V27.25C822.555 20.5 821.155 19 814.405 19C812.755 19 811.655 20.1 811.655 21.75C811.655 23.4 810.555 24.5 808.905 24.5C807.255 24.5 806.355 25.6 806.355 27.25V38.5C806.355 40.15 805.155 41.25 803.505 41.25Z" fill="#FFFBFF"/>
<path d="M759.653 38.5V27.25C759.653 25.6 760.753 24.5 762.403 24.5C764.053 24.5 765.153 23.4 765.153 21.75V21.25C765.153 19.6 764.053 18.5 762.403 18.5C760.753 18.5 759.653 17.4 759.653 15.75V5.5C759.653 3.85 761.003 2.75 762.653 2.75C764.303 2.75 765.653 3.85 765.653 5.5V15.75C765.653 17.4 766.753 18.5 768.403 18.5H782.403C784.053 18.5 785.153 17.4 785.153 15.75V5.5C785.153 3.85 786.503 2.75 788.153 2.75C789.803 2.75 791.153 3.85 791.153 5.5V15.75C791.153 17.4 790.053 18.5 788.403 18.5C786.753 18.5 785.653 19.6 785.653 21.25V21.75C785.653 23.4 786.753 24.5 788.403 24.5C790.053 24.5 791.153 25.6 791.153 27.25V38.5C791.153 40.15 789.803 41.25 788.153 41.25C786.503 41.25 785.153 40.15 785.153 38.5V27.25C785.153 25.6 784.053 24.5 782.403 24.5H768.403C766.753 24.5 765.653 25.6 765.653 27.25V38.5C765.653 40.15 764.303 41.25 762.653 41.25C761.003 41.25 759.653 40.15 759.653 38.5Z" fill="#FFFBFF"/>
<path d="M688.382 40.25C687.382 38.9 687.132 37.15 687.132 35.5C687.132 33.85 688.232 33.25 689.882 33.25C691.532 33.25 692.632 32.4 692.632 30.75C692.632 29.1 691.532 28.25 689.882 28.25C688.232 28.25 687.132 27.15 687.132 25.5V21.75C687.132 16.6 690.032 13.75 695.382 13.75C697.782 13.75 697.832 13.75 699.832 12.15C703.082 9.39999 703.082 9.39999 705.832 9.39999H707.082C709.582 9.39999 709.582 9.39999 706.332 12.15C704.332 13.75 704.332 13.75 706.382 13.75C711.732 13.75 714.632 16.6 714.632 21.75V25.25C714.632 30.7 711.432 33.25 706.382 33.25H695.382C693.732 33.25 692.632 33.85 692.632 35.5C692.632 37.15 693.232 38 694.882 38H706.882C712.132 38 714.632 39.8 714.632 45C714.632 50.25 712.132 52.25 706.882 52.25H694.882C689.532 52.25 687.132 50.15 687.132 45C687.132 42.9 687.532 41.35 688.382 40.25ZM692.632 25.5C692.632 27.15 693.732 28.25 695.382 28.25H706.382C708.032 28.25 709.132 26.9 709.132 25.25V21.75C709.132 20.1 708.032 18.75 706.382 18.75H695.382C693.732 18.75 692.632 20.1 692.632 21.75V25.5ZM694.882 47.75H706.882C708.532 47.75 709.632 46.65 709.632 45C709.632 43.35 708.532 42.5 706.882 42.5H694.882C693.232 42.5 692.132 43.35 692.132 45C692.132 46.65 693.232 47.75 694.882 47.75Z" fill="#FFFBFF"/>
<path d="M668.368 41.25H664.618C650.718 41.25 648.118 37.85 648.118 24.75V19.25C648.118 6.25 650.668 2.75 664.618 2.75L676.368 2.85C678.018 2.85 679.118 3.95 679.118 5.6C679.118 7.25 678.018 8.35 676.368 8.35L664.618 8.25C655.618 8.25 653.868 10.25 653.868 19.25V24.75C653.868 33.75 655.618 36.25 664.618 36.25H668.368C672.618 36.25 673.868 34.5 673.868 30.25V27.5C673.868 25.85 672.768 24.75 671.118 24.75H665.368C663.718 24.75 662.618 23.65 662.618 22C662.618 20.35 663.718 19.25 665.368 19.25H671.118C676.368 19.25 679.618 22.25 679.618 27.5V30.25C679.618 38.25 676.918 41.25 668.368 41.25Z" fill="#FFFBFF"/>
<path d="M577.601 39C577.601 37.35 578.701 36.75 580.351 36.75C582.001 36.75 583.101 35.9 583.101 34.25V21.5C583.101 19.85 584.201 18.75 585.851 18.75C587.501 18.75 588.601 17.9 588.601 16.25C588.601 14.6 587.501 13.75 585.851 13.75C584.201 13.75 583.101 12.65 583.101 11V8.25C583.101 3 586.101 0 591.351 0H602.351C604.001 0 605.101 0.850001 605.101 2.5C605.101 4.15 604.001 5 602.351 5H591.351C589.701 5 588.601 6.1 588.601 8.25V11C588.601 12.65 589.701 13.75 591.351 13.75H600.351C602.001 13.75 603.101 14.6 603.101 16.25C603.101 17.9 602.001 18.75 600.351 18.75H591.351C589.701 18.75 588.601 19.85 588.601 21.5V34.25C588.601 35.9 589.701 36.75 591.351 36.75C593.001 36.75 594.101 37.35 594.101 39C594.101 40.65 593.001 41.25 591.351 41.25H580.351C578.701 41.25 577.601 40.65 577.601 39Z" fill="#FFFBFF"/>
<path d="M549.329 24H549.579C551.229 24 552.329 23.15 552.329 21.5C552.329 19.85 551.229 19 549.579 19H549.329C547.679 19 546.579 17.9 546.579 16.25C546.579 11.4 546.579 5.45 552.079 3.65C554.529 2.85 557.779 2.75 560.329 2.75H571.579C573.229 2.75 574.329 3.6 574.329 5.25C574.329 6.9 573.229 7.75 571.579 7.75H560.329C553.579 7.75 552.329 9.5 552.329 16.25C552.329 17.9 553.429 19 555.079 19H564.829C566.479 19 567.579 19.85 567.579 21.5C567.579 23.15 566.479 24 564.829 24H555.079C553.429 24 552.329 25.1 552.329 26.75V38.5C552.329 40.15 551.229 41.25 549.579 41.25H549.329C547.679 41.25 546.579 40.15 546.579 38.5V26.75C546.579 25.1 547.679 24 549.329 24Z" fill="#FFFBFF"/>
<path d="M474.095 22C474.095 16.9 476.945 13.75 482.345 13.75H493.345C498.995 13.75 501.595 16.7 501.595 22C501.595 27.75 498.595 30 493.345 30H482.345C480.695 30 479.595 31.35 479.595 33C479.595 34.65 480.695 36.25 482.345 36.25H498.845C500.495 36.25 501.595 37.1 501.595 38.75C501.595 40.4 500.495 41.25 498.845 41.25H482.345C476.945 41.25 474.095 38.1 474.095 33C474.095 31.35 475.195 30 476.845 30C478.495 30 479.595 29.15 479.595 27.5C479.595 25.85 478.495 25 476.845 25C475.195 25 474.095 23.65 474.095 22ZM493.345 18.75H482.345C480.695 18.75 479.595 20.35 479.595 22C479.595 23.65 480.695 25 482.345 25H493.345C494.995 25 496.095 23.65 496.095 22C496.095 20.35 494.995 18.75 493.345 18.75Z" fill="#FFFBFF"/>
<path d="M440.573 16.25V13.75C440.573 5.15 443.673 2.75 451.573 2.75H465.323C466.973 2.75 468.073 3.6 468.073 5.25C468.073 6.9 466.973 7.75 465.323 7.75H451.573C447.323 7.75 446.073 9.5 446.073 13.75V16.25C446.073 17.9 447.173 19 448.823 19H465.073C466.723 19 467.823 19.85 467.823 21.5C467.823 23.15 466.723 24 465.073 24H448.823C447.173 24 446.073 25.1 446.073 26.75V30.25C446.073 34.5 447.323 36.25 451.573 36.25H465.573C467.223 36.25 468.323 37.1 468.323 38.75C468.323 40.4 467.223 41.25 465.573 41.25H451.573C443.673 41.25 440.573 38.85 440.573 30.25V26.75C440.573 25.1 441.673 24 443.323 24C444.973 24 446.073 23.15 446.073 21.5C446.073 19.85 444.973 19 443.323 19C441.673 19 440.573 17.9 440.573 16.25Z" fill="#FFFBFF"/>
<path d="M393.587 2.75V38.5C393.587 40.15 392.487 41.25 390.837 41.25C389.187 41.25 388.087 40.15 388.087 38.5C388.087 36.85 386.987 35.75 385.337 35.75C383.687 35.75 382.587 36.85 382.587 38.5C382.587 40.15 381.487 41.25 379.837 41.25C369.187 41.25 366.087 38.8 366.087 27.5C366.087 16.75 369.087 13.75 379.837 13.75H385.337C386.987 13.75 388.087 12.65 388.087 11V2.75C388.087 1.1 389.187 0 390.837 0C392.487 0 393.587 1.1 393.587 2.75ZM379.837 19.1C372.587 19.1 371.587 20.25 371.587 27.5C371.587 34.1 373.237 35.75 379.837 35.75C381.487 35.75 382.587 34.65 382.587 33C382.587 31.35 383.687 30.25 385.337 30.25C386.987 30.25 388.087 29.15 388.087 27.5C388.087 20.75 386.587 19.1 379.837 19.1Z" fill="#FFFBFF"/>
<path d="M328.854 33V11C328.854 5.6 332.254 2.75 337.354 2.75H343.854C357.454 2.75 360.354 8.65 360.354 22C360.354 35.35 357.454 41.25 343.854 41.25H337.354C332.254 41.25 328.854 38.4 328.854 33ZM334.604 11V33C334.604 34.65 335.704 35.75 337.354 35.75H343.854C351.954 35.75 354.604 32.1 354.604 22C354.604 11.85 351.954 8.25 343.854 8.25H337.354C335.704 8.25 334.604 9.35 334.604 11Z" fill="#FFFBFF"/>
<path d="M272.854 41.25C262.104 41.25 259.104 39.25 259.104 27.5C259.104 15.75 262.104 13.75 272.854 13.75H281.104C282.754 13.75 283.854 14.75 283.854 16.4C283.854 18.05 282.754 19.05 281.104 19.05H272.854C266.104 19.05 264.604 20.75 264.604 27.5C264.604 34.25 266.104 35.95 272.854 35.95H281.104C282.754 35.95 283.854 36.95 283.854 38.6C283.854 40.25 282.754 41.25 281.104 41.25H272.854Z" fill="#FFFBFF"/>
<path d="M224.718 35.75C223.518 33.25 223.118 29.7 223.118 24.75V19.25C223.118 14.3 223.518 10.75 224.718 8.25C227.318 2.8 234.368 2.75 239.618 2.75H250.618C252.268 2.75 253.368 3.85 253.368 5.5C253.368 7.15 252.268 8.25 250.618 8.25H239.618C230.618 8.25 228.868 10.25 228.868 19.25V24.75C228.868 33.75 230.618 35.75 239.618 35.75H250.618C252.268 35.75 253.368 36.85 253.368 38.5C253.368 40.15 252.268 41.25 250.618 41.25H239.618C234.368 41.25 227.268 41.2 224.718 35.75Z" fill="#FFFBFF"/>
<path d="M151.132 27.5V2.75C151.132 1.1 152.232 0 153.882 0C155.532 0 156.632 1.1 156.632 2.75V16.5C156.632 18.15 157.732 19.25 159.382 19.25C161.032 19.25 162.132 18.15 162.132 16.5C162.132 14.85 163.232 13.75 164.882 13.75C176.132 13.75 178.632 16.25 178.632 27.5C178.632 38 175.382 41.25 164.882 41.25C154.132 41.25 151.132 39.25 151.132 27.5ZM156.632 27.5C156.632 34.25 158.132 35.75 164.882 35.75C171.982 35.75 172.882 34.6 172.882 27.5C172.882 20.75 171.632 19.25 164.882 19.25C163.232 19.25 162.132 20.35 162.132 22C162.132 23.65 161.032 24.75 159.382 24.75C157.732 24.75 156.632 25.85 156.632 27.5Z" fill="#FFFBFF"/>
<path d="M112.399 33V11C112.399 5.6 115.799 2.75 120.899 2.75H130.149C141.499 2.75 143.899 5.1 143.899 15.75C143.899 17.4 142.799 18.75 141.149 18.75C139.499 18.75 138.149 19.85 138.149 21.5C138.149 23.15 139.499 24.25 141.149 24.25C142.799 24.25 143.899 25.6 143.899 27.25C143.899 37.9 141.499 41.25 130.149 41.25H120.899C115.799 41.25 112.399 38.4 112.399 33ZM118.149 27.25V33C118.149 34.65 119.249 35.75 120.899 35.75H130.149C137.149 35.75 138.149 34.25 138.149 27.25C138.149 25.6 137.049 24.25 135.399 24.25H120.899C119.249 24.25 118.149 25.6 118.149 27.25ZM118.149 11V15.75C118.149 17.4 119.249 18.75 120.899 18.75H135.399C137.049 18.75 138.149 17.4 138.149 15.75C138.149 8.75 137.149 8.25 130.149 8.25H120.899C119.249 8.25 118.149 9.35 118.149 11Z" fill="#FFFBFF"/>
<path d="M42.665 13.75H53.665C64.915 13.75 67.415 16 67.415 27.25V38.75C67.415 40.4 66.315 41.25 64.665 41.25C63.015 41.25 61.915 40.4 61.915 38.75C61.915 37.1 60.815 36.25 59.165 36.25C57.515 36.25 56.415 37.1 56.415 38.75C56.415 40.4 55.315 41.25 53.665 41.25H47.915C43.765 41.25 41.215 39.7 40.265 36.25C40.065 35.3 39.915 34.25 39.915 33C39.915 27.75 42.215 24.75 47.915 24.75H53.665C55.315 24.75 56.415 25.6 56.415 27.25C56.415 28.9 57.515 29.75 59.165 29.75C60.815 29.75 61.915 28.9 61.915 27.25C61.915 20.5 60.415 18.75 53.665 18.75H42.665C41.015 18.75 39.915 17.9 39.915 16.25C39.915 14.6 41.015 13.75 42.665 13.75ZM53.665 29.75H47.915C46.265 29.75 45.165 31.35 45.165 33C45.165 34.65 46.265 36.25 47.915 36.25H53.665C55.315 36.25 56.415 34.65 56.415 33C56.415 31.35 55.315 29.75 53.665 29.75Z" fill="#FFFBFF"/>
<path d="M3.61951 41.25C0.369506 41.25 0.369506 41.25 1.61951 37.75L14.0695 8.25C16.3195 2.75 16.3195 2.75 18.6195 2.75C20.9195 2.75 20.9195 2.75 23.1695 8.25L35.6195 37.75C36.8695 41.25 36.8695 41.25 33.6195 41.25C30.8695 41.25 30.8695 41.25 29.3695 37.75L23.3695 23.25L21.3695 18.25V15.75C21.3695 14.1 20.2695 13 18.6195 13C16.9695 13 15.8695 14.1 15.8695 15.75C15.8695 18.25 15.8695 18.25 13.8695 23.25L7.86951 37.75C6.36951 41.25 6.36951 41.25 3.61951 41.25Z" fill="#FFFBFF"/>
<path d="M1065.88 257.25C1066.13 256.5 1066.73 255.7 1067.88 254L1076.78 243C1079.53 239.75 1079.53 239.75 1076.28 239.75H1068.38C1066.73 239.75 1065.63 238.9 1065.63 237.25C1065.63 235.6 1066.73 234.75 1068.38 234.75H1083.28C1084.93 234.75 1086.03 235.6 1086.03 237.25C1086.03 238.45 1086.03 239.05 1085.78 239.75C1085.53 240.5 1084.93 241.3 1083.78 243L1074.88 254C1072.13 257.25 1072.13 257.25 1075.38 257.25H1083.28C1084.93 257.25 1086.03 258.1 1086.03 259.75C1086.03 261.4 1084.93 262.25 1083.28 262.25H1068.38C1066.73 262.25 1065.63 261.4 1065.63 259.75C1065.63 258.55 1065.63 257.95 1065.88 257.25Z" fill="#F23D3D"/>
<path d="M1035.41 259.75V257.25C1035.41 254 1035.41 254 1039.91 248.25L1050.56 234.5C1050.66 234.4 1050.71 234.3 1050.76 234.2C1054.81 228.75 1054.71 228.75 1046.61 228.75H1038.16C1036.51 228.75 1035.41 227.9 1035.41 226.25C1035.41 224.6 1036.51 223.75 1038.16 223.75H1057.06C1058.71 223.75 1059.81 224.6 1059.81 226.25V228.75C1059.81 232 1059.81 232 1055.06 237.75L1044.16 252C1044.11 252.1 1044.01 252.2 1043.96 252.3C1040.41 257.25 1040.51 257.25 1048.61 257.25H1057.06C1058.71 257.25 1059.81 258.1 1059.81 259.75C1059.81 261.4 1058.71 262.25 1057.06 262.25H1038.16C1036.51 262.25 1035.41 261.4 1035.41 259.75Z" fill="#F23D3D"/>
<path d="M981.928 234.75C984.678 234.75 984.678 234.75 986.028 239.5L987.528 244.25C988.278 247 988.278 247 988.278 251.5C988.278 253.15 989.378 254.25 991.028 254.25C992.678 254.25 993.778 253.15 993.778 251.5C993.778 247 993.778 247 994.528 244.25L996.028 239.5C997.378 234.75 997.378 234.75 1000.13 234.75C1002.88 234.75 1002.88 234.75 1001.53 239.25L995.778 256.75L991.778 267.75C989.528 273.25 989.528 273.25 987.278 273.25C984.528 273.25 984.528 273.25 986.778 267C988.278 262.25 988.278 262.25 986.278 256.75L980.528 239.25C979.178 234.75 979.178 234.75 981.928 234.75Z" fill="#F23D3D"/>
<path d="M953.031 224.25C956.531 224.25 956.531 224.25 959.281 229.75C962.231 235.75 962.231 235.75 962.231 238C962.231 239.65 963.331 240.75 964.981 240.75C966.631 240.75 967.731 239.65 967.731 238C967.731 235.75 967.731 235.75 970.681 229.75C973.431 224.25 973.431 224.25 976.931 224.25C980.431 224.25 980.431 224.25 977.431 229.75L971.481 240.25C967.931 246.75 967.931 246.75 967.931 251.25V259.5C967.931 261.15 966.581 262.25 964.931 262.25C963.281 262.25 961.931 261.15 961.931 259.5V251.25C961.931 246.75 961.931 246.75 958.481 240.25L952.531 229.75C949.531 224.25 949.531 224.25 953.031 224.25Z" fill="#F23D3D"/>
<path d="M899.303 256.25L901.803 251.75C903.553 248.5 903.553 248.5 901.803 245.25L899.303 240.75C896.053 234.75 896.053 234.75 899.553 234.75C902.303 234.75 902.303 234.75 903.303 237.25C905.053 241.25 905.053 241.25 905.053 243C905.053 244.65 906.153 245.75 907.803 245.75C909.453 245.75 910.553 244.65 910.553 243C910.553 241.25 910.553 241.25 912.303 237.25C913.303 234.75 913.303 234.75 916.053 234.75C919.553 234.75 919.553 234.75 916.303 240.75L913.803 245.25C912.053 248.5 912.053 248.5 913.803 251.75L916.303 256.25C919.553 262.25 919.553 262.25 916.053 262.25C913.303 262.25 913.303 262.25 912.303 259.75C910.553 255.75 910.553 255.75 910.553 254C910.553 252.35 909.453 251.25 907.803 251.25C906.153 251.25 905.053 252.35 905.053 254C905.053 255.75 905.053 255.75 903.303 259.75C902.303 262.25 902.303 262.25 899.553 262.25C896.053 262.25 896.053 262.25 899.303 256.25Z" fill="#F23D3D"/>
<path d="M868.156 256.75L874.106 246.25C876.106 243 876.106 243 874.106 239.75L868.156 229.25C865.156 223.75 865.156 223.75 868.656 223.75C872.156 223.75 872.156 223.75 874.906 229.25C877.856 235.25 877.856 235.25 877.856 237.5C877.856 239.15 878.956 240.25 880.606 240.25C882.256 240.25 883.356 239.15 883.356 237.5C883.356 235.25 883.356 235.25 886.306 229.25C889.056 223.75 889.056 223.75 892.556 223.75C896.056 223.75 896.056 223.75 893.056 229.25L887.106 239.75C885.106 243 885.106 243 887.106 246.25L893.056 256.75C896.056 262.25 896.056 262.25 892.556 262.25C889.056 262.25 889.056 262.25 886.306 256.75C883.356 250.75 883.356 250.75 883.356 248.5C883.356 246.85 882.256 245.75 880.606 245.75C878.956 245.75 877.856 246.85 877.856 248.5C877.856 250.75 877.856 250.75 874.906 256.75C872.156 262.25 872.156 262.25 868.656 262.25C865.156 262.25 865.156 262.25 868.156 256.75Z" fill="#F23D3D"/>
<path d="M815.473 234.75C818.223 234.75 818.223 234.75 819.573 239.5L821.073 244.25C821.823 247 821.823 247 821.823 251.5C821.823 253.15 822.923 254.25 824.573 254.25C826.223 254.25 827.323 253.15 827.323 251.5C827.323 247 827.323 247 828.073 244.25L829.573 239.5C830.923 234.75 830.923 234.75 833.673 234.75C836.423 234.75 836.423 234.75 835.073 239.25L829.323 256.75C827.323 262.25 827.323 262.25 825.023 262.25H824.123C821.823 262.25 821.823 262.25 819.823 256.75L814.073 239.25C812.723 234.75 812.723 234.75 815.473 234.75Z" fill="#F23D3D"/>
<path d="M812.55 227.25L803.6 256.25C801.6 262.25 801.6 262.25 799.05 262.25C796.5 262.25 796.5 262.25 794.5 256.25L785.55 227.25C784.55 223.75 784.55 223.75 787.8 223.75C790.3 223.75 790.3 223.75 791.3 227.25L795.8 241.75C796.3 243.75 796.3 243.75 796.3 247.75C796.3 249.4 797.4 250.5 799.05 250.5C800.7 250.5 801.8 249.4 801.8 247.75C801.8 243.75 801.8 243.75 802.3 241.75L806.8 227.25C807.8 223.75 807.8 223.75 810.55 223.75C813.55 223.75 813.55 223.75 812.55 227.25Z" fill="#F23D3D"/>
<path d="M730.12 256.75C729.57 254.7 729.37 252 729.37 248.5V237.5C729.37 235.85 730.37 234.75 732.02 234.75C733.67 234.75 734.72 235.85 734.72 237.5V248.5C734.72 255.7 735.62 257.05 740.37 257.05C745.02 257.05 746.02 255.55 746.02 248.5V237.5C746.02 235.85 747.02 234.75 748.67 234.75C750.32 234.75 751.37 235.85 751.37 237.5V248.5C751.37 252 751.12 254.7 750.57 256.75C749.27 261.15 746.32 262.55 740.37 262.55C734.22 262.55 731.32 261.25 730.12 256.75Z" fill="#F23D3D"/>
<path d="M696.158 226.5C696.158 224.85 697.258 223.75 698.908 223.75C700.558 223.75 701.658 224.85 701.658 226.5V248.75C701.658 255.5 702.608 257 709.358 257C716.108 257 717.058 255.5 717.058 248.75V226.5C717.058 224.85 718.158 223.75 719.808 223.75C721.458 223.75 722.558 224.85 722.558 226.5V248.75C722.558 259.3 721.258 262.5 709.358 262.5C697.458 262.5 696.158 259.3 696.158 248.75V226.5Z" fill="#F23D3D"/>
<path d="M652.434 262.25C647.034 262.25 644.684 259.55 644.684 254.5V242.25C644.684 240.6 645.534 239.75 647.184 239.75C648.834 239.75 649.684 239.15 649.684 237.5C649.684 235.85 648.834 235.25 647.184 235.25C645.534 235.25 644.684 234.4 644.684 232.75V224.75C644.684 223.1 645.784 222 647.434 222C649.084 222 650.184 223.1 650.184 224.75V232.25C650.184 233.9 651.034 235 652.684 235H656.684C658.334 235 659.434 235.85 659.434 237.5C659.434 239.15 658.334 240 656.684 240H652.684C651.034 240 650.184 241.1 650.184 242.75V254.5C650.184 256.15 651.034 257 652.434 257C653.834 257 654.684 256.15 654.684 254.5C654.684 252.85 655.784 251.75 657.434 251.75C659.084 251.75 660.184 252.85 660.184 254.5C660.184 256.15 659.084 257 657.434 257C655.784 257 654.684 258.1 654.684 259.75C654.684 261.4 653.834 262.25 652.434 262.25Z" fill="#F23D3D"/>
<path d="M617.034 223.75H621.534C623.184 223.75 624.284 224.85 624.284 226.5C624.284 228.15 625.384 229.25 627.034 229.25H627.534C629.184 229.25 630.284 228.15 630.284 226.5C630.284 224.85 631.384 223.75 633.034 223.75H637.534C639.184 223.75 640.284 225.1 640.284 226.75C640.284 228.4 639.184 229.75 637.534 229.75H633.034C631.384 229.75 630.284 230.85 630.284 232.5V259.5C630.284 261.15 629.184 262.25 627.534 262.25H627.034C625.384 262.25 624.284 261.15 624.284 259.5V232.5C624.284 230.85 623.184 229.75 621.534 229.75H617.034C615.384 229.75 614.284 228.4 614.284 226.75C614.284 225.1 615.384 223.75 617.034 223.75Z" fill="#F23D3D"/>
<path d="M577.041 239.75H567.691C563.491 239.75 563.191 241.25 566.941 243.75L573.941 248.4C583.041 253.7 581.341 262.25 571.191 262.25H561.841C560.191 262.25 559.091 261.4 559.091 259.75C559.091 258.1 560.191 257.25 561.841 257.25H571.191C575.391 257.25 575.691 255.75 571.941 253.25L564.941 248.6C555.841 243.3 557.541 234.75 567.691 234.75H577.041C578.691 234.75 579.791 235.6 579.791 237.25C579.791 238.9 578.691 239.75 577.041 239.75Z" fill="#F23D3D"/>
<path d="M530.813 237C526.063 229.65 529.513 223.75 539.613 223.75H549.463C551.113 223.75 552.213 224.85 552.213 226.5C552.213 228.15 551.113 229.25 549.463 229.25H539.613C533.113 229.25 533.313 231.4 539.363 237.75L546.113 245C547.463 246.35 548.563 247.7 549.413 249C554.113 256.35 550.713 262.25 540.613 262.25H530.763C529.113 262.25 528.013 261.15 528.013 259.5C528.013 257.85 529.113 256.75 530.763 256.75H540.613C547.113 256.75 546.913 254.6 540.863 248.25L534.113 241C532.763 239.65 531.663 238.3 530.813 237Z" fill="#F23D3D"/>
<path d="M488.369 239.75H479.019C474.819 239.75 474.519 241.25 478.269 243.75L485.269 248.4C494.369 253.7 492.669 262.25 482.519 262.25H473.169C471.519 262.25 470.419 261.4 470.419 259.75C470.419 258.1 471.519 257.25 473.169 257.25H482.519C486.719 257.25 487.019 255.75 483.269 253.25L476.269 248.6C467.169 243.3 468.869 234.75 479.019 234.75H488.369C490.019 234.75 491.119 235.6 491.119 237.25C491.119 238.9 490.019 239.75 488.369 239.75Z" fill="#F23D3D"/>
<path d="M439.331 237.75V231.5C439.331 226 442.581 223.75 447.581 223.75H455.831C463.981 223.75 465.731 227.6 465.731 234.75C465.731 241.95 463.981 245.5 455.831 245.5H456.581C454.581 245.5 454.581 245.5 457.581 251.25L460.581 256.75C463.581 262.25 463.581 262.25 460.331 262.25C456.581 262.25 456.581 262.25 453.831 256.75C448.081 245.5 448.081 245.5 447.081 245.5C445.431 245.5 444.831 246.6 444.831 248.25V259.5C444.831 261.15 443.731 262.25 442.081 262.25C440.431 262.25 439.331 261.15 439.331 259.5V248.25C439.331 246.6 440.431 245.5 442.081 245.5C443.731 245.5 444.831 244.65 444.831 243C444.831 241.35 443.731 240.5 442.081 240.5C440.431 240.5 439.331 239.4 439.331 237.75ZM444.831 231.5V237.75C444.831 239.4 445.931 240.5 447.581 240.5H455.831C459.081 240.5 460.231 239 460.231 234.75C460.231 230.5 459.081 228.75 455.831 228.75H447.581C445.931 228.75 444.831 229.85 444.831 231.5Z" fill="#F23D3D"/>
<path d="M383.702 273.25C382.052 273.25 380.952 272.15 380.952 270.5V264.85C380.952 264.05 381.252 263.35 381.702 262.85C382.202 262.4 382.902 262.1 383.702 262.1C385.352 262.1 386.452 261 386.452 259.35C386.452 257.7 385.352 256.6 383.702 256.6C382.002 256.6 380.952 255.5 380.952 253.85V248.5C380.952 240 382.152 236.35 386.452 235.05C387.902 234.6 389.702 234.45 391.952 234.45C400.652 234.45 402.952 237.4 402.952 248.5C402.952 259.85 400.852 262.5 391.952 262.5H389.202C387.552 262.5 386.452 263.6 386.452 265.25V270.5C386.452 272.15 385.352 273.25 383.702 273.25ZM386.452 244.65C386.352 245.7 386.302 247 386.302 248.5C386.302 250 386.352 251.3 386.452 252.35C386.852 256.45 388.252 257.45 391.952 257.45C396.602 257.45 397.602 255.9 397.602 248.5C397.602 241.3 396.502 239.5 391.952 239.5C388.252 239.5 386.852 240.5 386.452 244.65Z" fill="#F23D3D"/>
<path d="M354.093 245.5C355.743 245.5 356.843 244.65 356.843 243C356.843 241.35 355.743 240.5 354.093 240.5C352.443 240.5 351.343 239.4 351.343 237.75V231.5C351.343 226 354.593 223.75 359.593 223.75H366.743C375.343 223.75 377.743 226.85 377.743 234.75C377.743 242.7 375.293 245.5 366.743 245.5H359.593C357.943 245.5 356.843 246.6 356.843 248.25V259.5C356.843 261.15 355.743 262.25 354.093 262.25C352.443 262.25 351.343 261.15 351.343 259.5V248.25C351.343 246.6 352.443 245.5 354.093 245.5ZM366.743 228.75H359.593C357.943 228.75 356.843 229.85 356.843 231.5V237.75C356.843 239.4 357.943 240.5 359.593 240.5H366.743C370.993 240.5 372.243 239 372.243 234.75C372.243 230.5 370.993 228.75 366.743 228.75Z" fill="#F23D3D"/>
<path d="M292.975 248.5C292.975 237.15 295.075 234.5 303.975 234.5C312.875 234.5 314.975 237.15 314.975 248.5C314.975 259.6 312.675 262.55 303.975 262.55C295.075 262.55 292.975 259.85 292.975 248.5ZM298.325 248.5C298.325 255.9 299.325 257.5 303.975 257.5C308.525 257.5 309.625 255.7 309.625 248.5C309.625 241.1 308.625 239.55 303.975 239.55C299.325 239.55 298.325 241.1 298.325 248.5Z" fill="#F23D3D"/>
<path d="M257.77 240.25C257.77 227.85 259.27 223.65 272.57 223.65C285.77 223.65 287.37 227.75 287.37 240.25V245.75C287.37 258.2 285.82 262.35 272.57 262.35C260.22 262.35 257.87 259.1 257.77 246.6C257.77 246.3 257.77 246.05 257.77 245.75V240.25ZM272.57 229.15C263.77 229.15 263.52 231.25 263.52 240.25V245.75C263.52 254.75 263.77 256.85 272.57 256.85C281.37 256.85 281.62 254.75 281.62 245.75V240.25C281.62 231.25 281.37 229.15 272.57 229.15Z" fill="#F23D3D"/>
<path d="M202.249 234.75C203.899 234.75 205.099 235.6 205.099 237.25C205.099 238.9 205.949 239.75 207.349 239.75C208.999 239.75 209.849 238.9 209.849 237.25C209.849 235.6 210.949 234.75 212.349 234.75H213.149C218.449 234.75 221.399 237.6 221.399 242.75V259.5C221.399 261.15 220.299 262.25 218.649 262.25C216.999 262.25 215.899 261.15 215.899 259.5V242.75C215.899 241.1 214.799 239.75 213.149 239.75H212.349C210.949 239.75 209.849 240.85 209.849 242.5C209.849 244.15 208.999 245.25 207.349 245.25C205.949 245.25 205.099 246.35 205.099 248V259.5C205.099 261.15 203.899 262.25 202.249 262.25C200.599 262.25 199.399 261.15 199.399 259.5V237.25C199.399 235.6 200.599 234.75 202.249 234.75Z" fill="#F23D3D"/>
<path d="M164.942 223.75C166.142 223.75 166.992 223.75 167.692 223.95C169.342 224.35 170.242 225.7 173.192 230.25L177.742 238.35L181.142 244.75C183.542 249.3 184.692 251.6 185.292 251.6C185.892 251.6 185.892 249.3 185.892 244.75V226.5C185.892 224.85 186.992 223.75 188.642 223.75C190.292 223.75 191.392 224.85 191.392 226.5V259.5C191.392 261.15 190.292 262.25 188.642 262.25C187.442 262.25 186.592 262.25 185.892 262.05C184.242 261.65 183.342 260.3 180.392 255.75L175.842 247.65L172.442 241.25C170.092 236.65 168.892 234.4 168.292 234.4C167.692 234.4 167.692 236.65 167.692 241.25V259.5C167.692 261.15 166.592 262.25 164.942 262.25C163.292 262.25 162.192 261.15 162.192 259.5V226.5C162.192 224.85 163.292 223.75 164.942 223.75Z" fill="#F23D3D"/>
<path d="M1086.59 177.75C1088.24 177.75 1089.39 178.6 1089.39 180.25C1089.39 181.9 1090.14 182.75 1091.79 182.75C1093.19 182.75 1094.19 181.9 1094.19 180.25C1094.19 178.6 1095.19 177.75 1096.59 177.75C1098.24 177.75 1099.24 178.6 1099.24 180.25C1099.24 181.9 1100.39 182.75 1102.04 182.75C1103.69 182.75 1104.89 181.9 1104.89 180.25C1104.89 178.6 1105.99 177.75 1107.39 177.75H1110.19C1115.49 177.75 1118.44 180.6 1118.44 185.75V202.5C1118.44 204.15 1117.34 205.25 1115.69 205.25C1114.04 205.25 1112.94 204.15 1112.94 202.5V185.75C1112.94 184.1 1111.84 182.75 1110.19 182.75H1107.39C1105.99 182.75 1104.89 183.85 1104.89 185.5V202.5C1104.89 204.15 1103.69 205.25 1102.04 205.25C1100.39 205.25 1099.24 204.15 1099.24 202.5V185.5C1099.24 183.85 1098.24 182.75 1096.59 182.75C1095.19 182.75 1094.19 183.85 1094.19 185.5C1094.19 187.15 1093.19 188.25 1091.79 188.25C1090.14 188.25 1089.39 189.35 1089.39 191V202.5C1089.39 204.15 1088.24 205.25 1086.59 205.25C1084.94 205.25 1084.04 204.15 1084.04 202.5V180.25C1084.04 178.6 1084.94 177.75 1086.59 177.75Z" fill="#F23D3D"/>
<path d="M1046.04 202.5V169.5C1046.04 167.85 1047.14 166.75 1048.79 166.75H1051.94C1054.69 166.75 1054.69 166.75 1057.69 173.75C1058.69 176.25 1058.69 176.25 1058.69 178.5C1058.69 180.15 1059.79 181.25 1061.44 181.25C1063.09 181.25 1064.19 180.15 1064.19 178.5C1064.19 176.25 1064.19 176.25 1065.19 173.75C1069.19 166.75 1069.19 166.75 1070.94 166.75H1074.09C1075.74 166.75 1076.84 167.85 1076.84 169.5V202.5C1076.84 204.15 1075.74 205.25 1074.09 205.25C1072.44 205.25 1071.34 204.15 1071.34 202.5V179.75C1071.34 176 1071.34 174.1 1070.94 174.1C1070.54 174.1 1069.79 176 1068.19 179.75C1064.19 189.25 1064.19 189.25 1064.19 190.5C1064.19 192.15 1063.09 193.25 1061.44 193.25C1059.79 193.25 1058.69 192.15 1058.69 190.5C1058.69 189.25 1058.69 189.25 1054.69 180.25C1053.09 176.2 1052.29 174.2 1051.89 174.2C1051.54 174.2 1051.54 176.05 1051.54 179.75V202.5C1051.54 204.15 1050.44 205.25 1048.79 205.25C1047.14 205.25 1046.04 204.15 1046.04 202.5Z" fill="#F23D3D"/>
<path d="M1012.33 166.25C1012.33 164.6 1013.38 164 1014.33 164H1018.58C1020.23 164 1021.33 164.6 1021.33 166.25V198.25C1021.33 199.9 1022.18 200.75 1023.33 200.75C1024.33 200.75 1025.33 201.35 1025.33 203C1025.33 204.65 1024.33 205.25 1023.33 205.25H1014.33C1013.33 205.25 1012.33 204.65 1012.33 203C1012.33 201.35 1013.33 200.75 1014.33 200.75C1015.48 200.75 1016.33 199.9 1016.33 198.25V171C1016.33 169.35 1015.48 168.5 1014.33 168.5C1013.38 168.5 1012.33 167.9 1012.33 166.25Z" fill="#F23D3D"/>
<path d="M987.109 169.5C987.109 167.85 988.209 166.75 989.859 166.75C991.509 166.75 992.609 167.85 992.609 169.5V191.5C992.609 198.25 994.109 199.75 1000.86 199.75H1006.76C1008.41 199.75 1009.51 200.85 1009.51 202.5C1009.51 204.15 1008.41 205.25 1006.76 205.25H1000.86C989.109 205.25 987.109 202.25 987.109 191.5V169.5Z" fill="#F23D3D"/>
<path d="M935.438 194.25C937.088 194.25 938.288 193.15 938.288 191.5C938.288 189.85 937.088 188.75 935.438 188.75C933.788 188.75 932.588 187.65 932.588 186V166.75C932.588 165.1 933.788 164 935.438 164C937.088 164 938.288 165.1 938.288 166.75V186C938.288 187.65 939.138 188.75 940.788 188.75C941.838 188.75 941.838 188.75 944.588 183.25C947.338 177.75 947.338 177.75 950.338 177.75C954.438 177.75 954.438 177.75 951.188 183.25L949.088 186.95C947.988 188.75 947.638 188.75 946.588 188.75C944.938 188.75 943.838 189.85 943.838 191.5C943.838 193.15 944.938 194.25 946.588 194.25C947.638 194.25 947.988 194.25 949.088 196.05L951.188 199.75C954.438 205.25 954.438 205.25 950.338 205.25C947.338 205.25 947.338 205.25 944.588 199.75C941.838 194.25 941.838 194.25 940.788 194.25C939.138 194.25 938.288 195.35 938.288 197V202.5C938.288 204.15 937.088 205.25 935.438 205.25C933.788 205.25 932.588 204.15 932.588 202.5V197C932.588 195.35 933.788 194.25 935.438 194.25Z" fill="#F23D3D"/>
<path d="M906.07 188.75C907.72 188.75 908.82 187.65 908.82 186C908.82 184.35 907.72 183.25 906.07 183.25C904.42 183.25 903.32 182.15 903.32 180.5V169.5C903.32 167.85 904.42 166.75 906.07 166.75C907.72 166.75 908.82 167.85 908.82 169.5V180C908.82 181.65 909.92 182.75 911.57 182.75C913.32 182.75 913.32 182.75 918.82 172.25C921.97 166.75 921.97 166.75 925.47 166.75C928.97 166.75 928.97 166.75 925.82 172.25L922.57 177.75C919.32 183.25 919.32 183.25 917.32 183.25C915.67 183.25 914.57 184.35 914.57 186C914.57 187.65 915.67 188.75 917.32 188.75C919.32 188.75 919.32 188.75 922.57 194.25L925.82 199.75C928.97 205.25 928.97 205.25 925.47 205.25C921.97 205.25 921.97 205.25 918.82 199.75C913.32 189.25 913.32 189.25 911.57 189.25C909.92 189.25 908.82 190.35 908.82 192V202.5C908.82 204.15 907.72 205.25 906.07 205.25C904.42 205.25 903.32 204.15 903.32 202.5V191.5C903.32 189.85 904.42 188.75 906.07 188.75Z" fill="#F23D3D"/>
<path d="M856.718 200.75C857.868 200.75 858.718 199.9 858.718 198.25V184.75C858.718 183.1 857.868 182.25 856.718 182.25C855.568 182.25 854.718 181.4 854.718 180C854.718 178.6 855.568 177.75 856.718 177.75H860.968C862.618 177.75 863.718 178.85 863.718 180.5V198.25C863.718 199.9 864.568 200.75 865.718 200.75C866.868 200.75 867.718 201.6 867.718 203C867.718 204.4 866.868 205.25 865.718 205.25H856.718C855.568 205.25 854.718 204.4 854.718 203C854.718 201.6 855.568 200.75 856.718 200.75ZM860.968 171.35C858.618 171.35 858.018 170.5 858.018 168.15C858.018 165.85 858.618 164.95 860.968 164.95C863.268 164.95 863.918 165.85 863.918 168.15C863.918 170.5 863.268 171.35 860.968 171.35Z" fill="#F23D3D"/>
<path d="M826.867 166.75H830.567C832.217 166.75 833.317 167.85 833.317 169.5C833.317 171.15 834.417 172.25 836.067 172.25H836.567C838.217 172.25 839.317 171.15 839.317 169.5C839.317 167.85 840.417 166.75 842.067 166.75H845.767C847.417 166.75 848.517 168.1 848.517 169.75C848.517 171.4 847.417 172.75 845.767 172.75H842.067C840.417 172.75 839.317 173.85 839.317 175.5V196.5C839.317 198.15 840.417 199.25 842.067 199.25H845.767C847.417 199.25 848.517 200.6 848.517 202.25C848.517 203.9 847.417 205.25 845.767 205.25H842.067C840.417 205.25 839.317 204.15 839.317 202.5C839.317 200.85 838.217 199.75 836.567 199.75H836.067C834.417 199.75 833.317 200.85 833.317 202.5C833.317 204.15 832.217 205.25 830.567 205.25H826.867C825.217 205.25 824.117 203.9 824.117 202.25C824.117 200.6 825.217 199.25 826.867 199.25H830.567C832.217 199.25 833.317 198.15 833.317 196.5V175.5C833.317 173.85 832.217 172.75 830.567 172.75H826.867C825.217 172.75 824.117 171.4 824.117 169.75C824.117 168.1 825.217 166.75 826.867 166.75Z" fill="#F23D3D"/>
<path d="M765.156 202.5V166.5C765.156 164.85 766.356 164 768.006 164C769.656 164 770.856 164.85 770.856 166.5V180.25C770.856 181.9 771.706 182.75 773.106 182.75C774.756 182.75 775.606 181.9 775.606 180.25C775.606 178.6 776.706 177.75 778.106 177.75H778.906C783.956 177.75 787.156 180.3 787.156 185.75V202.5C787.156 204.15 786.056 205.25 784.406 205.25C782.756 205.25 781.656 204.15 781.656 202.5V185.75C781.656 184.1 780.556 182.75 778.906 182.75H778.106C776.706 182.75 775.606 183.85 775.606 185.5C775.606 187.15 774.756 188.25 773.106 188.25C771.706 188.25 770.856 189.35 770.856 191V202.5C770.856 204.15 769.656 205.25 768.006 205.25C766.356 205.25 765.156 204.15 765.156 202.5Z" fill="#F23D3D"/>
<path d="M732.364 202.5V191.25C732.364 189.6 733.464 188.5 735.114 188.5C736.764 188.5 737.864 187.4 737.864 185.75V185.25C737.864 183.6 736.764 182.5 735.114 182.5C733.464 182.5 732.364 181.4 732.364 179.75V169.5C732.364 167.85 733.714 166.75 735.364 166.75C737.014 166.75 738.364 167.85 738.364 169.5V179.75C738.364 181.4 739.464 182.5 741.114 182.5H748.814C750.464 182.5 751.564 181.4 751.564 179.75V169.5C751.564 167.85 752.914 166.75 754.564 166.75C756.214 166.75 757.564 167.85 757.564 169.5V179.75C757.564 181.4 756.464 182.5 754.814 182.5C753.164 182.5 752.064 183.6 752.064 185.25V185.75C752.064 187.4 753.164 188.5 754.814 188.5C756.464 188.5 757.564 189.6 757.564 191.25V202.5C757.564 204.15 756.214 205.25 754.564 205.25C752.914 205.25 751.564 204.15 751.564 202.5V191.25C751.564 189.6 750.464 188.5 748.814 188.5H741.114C739.464 188.5 738.364 189.6 738.364 191.25V202.5C738.364 204.15 737.014 205.25 735.364 205.25C733.714 205.25 732.364 204.15 732.364 202.5Z" fill="#F23D3D"/>
<path d="M675.646 204.25C675.046 203.5 674.696 202.5 674.496 201.25C674.446 200.7 674.396 200.15 674.396 199.5C674.396 197.85 675.496 197.25 677.146 197.25C678.796 197.25 679.896 196.4 679.896 194.75C679.896 193.1 678.796 192.25 677.146 192.25C675.496 192.25 674.396 191.4 674.396 189.75V185.25C674.396 180.35 677.046 177.75 682.146 177.75C682.596 177.75 682.596 177.75 684.096 176.15C686.846 173.4 686.846 173.4 688.096 173.4H690.846C692.346 173.4 692.346 173.4 689.596 176.15C688.096 177.75 688.096 177.75 688.646 177.75C693.746 177.75 696.396 180.35 696.396 185.25V189.75C696.396 194.95 693.446 197.25 688.646 197.25H682.646C680.996 197.25 679.896 197.85 679.896 199.5C679.896 201.15 680.496 202 682.146 202H688.646C693.896 202 696.396 203.8 696.396 209C696.396 214.25 693.896 216.25 688.646 216.25H682.146C676.796 216.25 674.396 214.15 674.396 209C674.396 206.9 674.796 205.35 675.646 204.25ZM679.896 189.75C679.896 191.4 680.746 192.25 682.146 192.25H688.646C690.046 192.25 690.896 191.4 690.896 189.75V185.25C690.896 183.6 690.046 182.75 688.646 182.75H682.146C680.746 182.75 679.896 183.6 679.896 185.25V189.75ZM682.146 211.75H688.646C690.296 211.75 691.396 210.65 691.396 209C691.396 207.35 690.296 206.5 688.646 206.5H682.146C680.496 206.5 679.396 207.35 679.396 209C679.396 210.65 680.496 211.75 682.146 211.75Z" fill="#F23D3D"/>
<path d="M643.194 180.25C643.194 169.5 645.244 166.75 656.944 166.75L665.144 166.85C666.794 166.85 667.894 167.95 667.894 169.6C667.894 171.25 666.794 172.35 665.144 172.35L656.944 172.25C650.194 172.25 648.944 173.5 648.944 180.25V191.75C648.944 198.5 650.194 200.25 656.944 200.25H657.144C661.394 200.25 662.644 198.5 662.644 194.25V191.5C662.644 189.85 661.544 188.75 659.894 188.75H655.894C654.244 188.75 653.144 187.65 653.144 186C653.144 184.35 654.244 183.25 655.894 183.25H659.894C665.144 183.25 668.394 186.25 668.394 191.5V194.25C668.394 202.25 665.694 205.25 657.144 205.25H656.944C645.294 205.25 643.194 202.55 643.194 191.75V180.25Z" fill="#F23D3D"/>
<path d="M586.8 203C586.8 201.35 587.9 200.75 589.05 200.75C590.2 200.75 591.3 199.9 591.3 198.25V185.5C591.3 183.85 592.4 182.75 594.05 182.75C595.7 182.75 596.8 181.9 596.8 180.25C596.8 178.6 595.7 177.75 594.05 177.75C592.4 177.75 591.3 176.65 591.3 175V172.25C591.3 167 594.3 164 599.55 164H606.05C607.7 164 608.8 164.85 608.8 166.5C608.8 168.15 607.7 169 606.05 169H599.55C597.9 169 596.8 170.1 596.8 172.25V175C596.8 176.65 597.9 177.75 599.55 177.75H603.55C605.2 177.75 606.3 178.6 606.3 180.25C606.3 181.9 605.2 182.75 603.55 182.75H599.55C597.9 182.75 596.8 183.85 596.8 185.5V198.25C596.8 199.9 597.9 200.75 599.05 200.75C600.2 200.75 601.3 201.35 601.3 203C601.3 204.65 600.2 205.25 599.05 205.25H589.05C587.9 205.25 586.8 204.65 586.8 203Z" fill="#F23D3D"/>
<path d="M564.762 188H565.012C566.662 188 567.762 187.15 567.762 185.5C567.762 183.85 566.662 183 565.012 183H564.762C563.112 183 562.012 181.9 562.012 180.25C562.012 175.4 562.012 169.45 567.512 167.65C569.962 166.85 573.212 166.75 575.762 166.75H581.462C583.112 166.75 584.212 167.6 584.212 169.25C584.212 170.9 583.112 171.75 581.462 171.75H575.762C569.012 171.75 567.762 173.5 567.762 180.25C567.762 181.9 568.862 183 570.512 183H577.712C579.362 183 580.462 183.85 580.462 185.5C580.462 187.15 579.362 188 577.712 188H570.512C568.862 188 567.762 189.1 567.762 190.75V202.5C567.762 204.15 566.662 205.25 565.012 205.25H564.762C563.112 205.25 562.012 204.15 562.012 202.5V190.75C562.012 189.1 563.112 188 564.762 188Z" fill="#F23D3D"/>
<path d="M504.034 186C504.034 180.9 506.884 177.75 512.284 177.75H517.784C523.434 177.75 526.034 180.7 526.034 186C526.034 191.75 523.034 194 517.784 194H512.284C510.634 194 509.534 195.35 509.534 197C509.534 198.65 510.634 200.25 512.284 200.25H523.284C524.934 200.25 526.034 201.1 526.034 202.75C526.034 204.4 524.934 205.25 523.284 205.25H512.284C506.884 205.25 504.034 202.1 504.034 197C504.034 195.35 505.134 194 506.784 194C508.434 194 509.534 193.15 509.534 191.5C509.534 189.85 508.434 189 506.784 189C505.134 189 504.034 187.65 504.034 186ZM517.784 182.75H512.284C510.634 182.75 509.534 184.35 509.534 186C509.534 187.65 510.634 189 512.284 189H517.784C519.434 189 520.534 187.65 520.534 186C520.534 184.35 519.434 182.75 517.784 182.75Z" fill="#F23D3D"/>
<path d="M477.246 180.25V177.75C477.246 169.15 480.346 166.75 488.246 166.75H496.446C498.096 166.75 499.196 167.6 499.196 169.25C499.196 170.9 498.096 171.75 496.446 171.75H488.246C483.996 171.75 482.746 173.5 482.746 177.75V180.25C482.746 181.9 483.846 183 485.496 183H496.196C497.846 183 498.946 183.85 498.946 185.5C498.946 187.15 497.846 188 496.196 188H485.496C483.846 188 482.746 189.1 482.746 190.75V194.25C482.746 198.5 483.996 200.25 488.246 200.25H496.696C498.346 200.25 499.446 201.1 499.446 202.75C499.446 204.4 498.346 205.25 496.696 205.25H488.246C480.346 205.25 477.246 202.85 477.246 194.25V190.75C477.246 189.1 478.346 188 479.996 188C481.646 188 482.746 187.15 482.746 185.5C482.746 183.85 481.646 183 479.996 183C478.346 183 477.246 181.9 477.246 180.25Z" fill="#F23D3D"/>
<path d="M427.894 177.75H431.394C433.044 177.75 434.144 176.65 434.144 175V166.75C434.144 165.1 435.244 164 436.894 164C438.544 164 439.644 165.1 439.644 166.75V202.7C439.644 204.35 438.794 205.25 437.144 205.25C435.444 205.25 434.644 204.3 434.644 202.7C434.644 201.05 433.794 200.2 432.144 200.2C430.594 200.2 429.844 201.05 429.844 202.7C429.844 204.35 428.894 205.25 427.394 205.25C425.744 205.25 424.294 205.15 423.144 204.85C418.844 203.75 417.644 200.25 417.644 191.5C417.644 180.65 419.794 177.75 427.894 177.75ZM422.994 191.5C422.994 198.6 423.794 200.2 427.394 200.2C428.894 200.2 429.594 198.95 429.594 197.3C429.594 195.65 430.594 194.4 431.844 194.4C433.594 194.4 434.294 193.05 434.294 191.5C434.294 190.2 434.244 189.05 434.144 188.1C433.694 183.9 432.094 182.8 427.894 182.8C423.944 182.8 422.994 184.5 422.994 191.5Z" fill="#F23D3D"/>
<path d="M386.328 197V175C386.328 169.6 389.728 166.75 394.828 166.75H395.028C407.778 166.75 411.528 173.75 411.528 186C411.528 198.25 407.778 205.25 395.028 205.25H394.828C389.728 205.25 386.328 202.4 386.328 197ZM395.028 172.25H394.828C393.178 172.25 392.078 173.35 392.078 175V197C392.078 198.65 393.178 199.75 394.828 199.75H395.028C403.128 199.75 405.778 196.15 405.778 186C405.778 175.85 403.128 172.25 395.028 172.25Z" fill="#F23D3D"/>
<path d="M344.298 205.25C333.548 205.25 330.548 203.25 330.548 191.5C330.548 179.75 333.548 177.75 344.298 177.75H347.198C348.848 177.75 349.948 178.75 349.948 180.4C349.948 182.05 348.848 183.05 347.198 183.05H344.298C337.548 183.05 336.048 184.75 336.048 191.5C336.048 198.25 337.548 199.95 344.298 199.95H347.198C348.848 199.95 349.948 200.95 349.948 202.6C349.948 204.25 348.848 205.25 347.198 205.25H344.298Z" fill="#F23D3D"/>
<path d="M303.779 199.75C302.579 197.25 302.179 193.7 302.179 188.75V183.25C302.179 178.3 302.579 174.75 303.779 172.25C306.379 166.8 313.429 166.75 318.679 166.75H323.179C324.829 166.75 325.929 167.85 325.929 169.5C325.929 171.15 324.829 172.25 323.179 172.25H318.679C309.679 172.25 307.929 174.25 307.929 183.25V188.75C307.929 197.75 309.679 199.75 318.679 199.75H323.179C324.829 199.75 325.929 200.85 325.929 202.5C325.929 204.15 324.829 205.25 323.179 205.25H318.679C313.429 205.25 306.329 205.2 303.779 199.75Z" fill="#F23D3D"/>
<path d="M247.34 164C248.99 164 250.09 165.1 250.09 166.75V180.3C250.09 181.95 250.94 182.8 252.34 182.8C253.74 182.8 254.59 181.95 254.59 180.3C254.59 178.65 255.44 177.75 256.84 177.75C264.69 177.75 266.59 180.4 266.59 191.5C266.59 202.35 264.44 205.25 256.34 205.25C246.24 205.25 244.59 201.85 244.59 191.5V166.75C244.59 165.1 245.69 164 247.34 164ZM249.94 191.5C249.94 192.8 249.99 193.95 250.09 194.9C250.54 199.1 252.14 200.2 256.34 200.2C260.29 200.2 261.24 198.5 261.24 191.5C261.24 184.4 260.44 182.8 256.84 182.8C255.44 182.8 254.59 184.05 254.59 185.7C254.59 187.35 253.74 188.6 252.34 188.6C250.74 188.6 249.94 190.1 249.94 191.5Z" fill="#F23D3D"/>
<path d="M213.574 197V175C213.574 169.6 216.974 166.75 222.074 166.75H225.024C236.374 166.75 238.774 169.1 238.774 179.75C238.774 181.4 237.674 182.75 236.024 182.75C234.374 182.75 233.024 183.85 233.024 185.5C233.024 187.15 234.374 188.25 236.024 188.25C237.674 188.25 238.774 189.6 238.774 191.25C238.774 201.9 236.374 205.25 225.024 205.25H222.074C216.974 205.25 213.574 202.4 213.574 197ZM219.324 191.25V197C219.324 198.65 220.424 199.75 222.074 199.75H225.024C232.024 199.75 233.024 198.25 233.024 191.25C233.024 189.6 231.924 188.25 230.274 188.25H222.074C220.424 188.25 219.324 189.6 219.324 191.25ZM219.324 175V179.75C219.324 181.4 220.424 182.75 222.074 182.75H230.274C231.924 182.75 233.024 181.4 233.024 179.75C233.024 172.75 232.024 172.25 225.024 172.25H222.074C220.424 172.25 219.324 173.35 219.324 175Z" fill="#F23D3D"/>
<path d="M158.835 177.75H164.335C175.585 177.75 177.585 180 177.585 191.25V202.75C177.585 204.4 176.585 205.25 175.085 205.25C173.585 205.25 172.585 204.4 172.585 202.75C172.585 201.1 171.735 200.25 170.085 200.25C168.435 200.25 167.585 201.1 167.585 202.75C167.585 204.4 166.735 205.25 165.085 205.25H164.085C159.935 205.25 157.385 203.7 156.435 200.25C156.235 199.3 156.085 198.25 156.085 197C156.085 191.7 158.335 188.75 164.085 188.75H165.085C166.735 188.75 167.585 189.6 167.585 191.25C167.585 192.9 168.435 193.75 170.085 193.75C171.735 193.75 172.585 192.9 172.585 191.25C172.585 184.5 171.085 182.75 164.335 182.75H158.835C157.185 182.75 156.085 181.9 156.085 180.25C156.085 178.6 157.185 177.75 158.835 177.75ZM165.085 193.75H164.085C162.435 193.75 161.335 195.35 161.335 197C161.335 198.65 162.435 200.25 164.085 200.25H165.085C166.735 200.25 167.585 198.65 167.585 197C167.585 195.35 166.735 193.75 165.085 193.75Z" fill="#F23D3D"/>
<path d="M150.565 205.25C147.815 205.25 147.815 205.25 146.815 201.75L142.315 187.25C141.815 185.25 141.815 185.25 141.815 181.25C141.815 179.6 140.715 178.5 139.065 178.5C137.415 178.5 136.315 179.6 136.315 181.25C136.315 185.25 136.315 185.25 135.815 187.25L131.315 201.75C130.315 205.25 130.315 205.25 127.815 205.25C124.565 205.25 124.565 205.25 125.565 201.75L134.515 172.75C136.515 166.75 136.515 166.75 139.065 166.75C141.615 166.75 141.615 166.75 143.615 172.75L152.565 201.75C153.565 205.25 153.565 205.25 150.565 205.25Z" fill="#F23D3D"/>
<path d="M923.461 344.5C923.461 332.8 926.411 330.5 937.211 330.5C948.011 330.5 950.961 332.8 950.961 344.5V355.5C950.961 367.2 948.011 369.5 937.211 369.5C926.411 369.5 923.461 367.2 923.461 355.5V344.5ZM928.961 355.5C928.961 362.25 930.461 364 937.211 364C943.961 364 945.461 362.25 945.461 355.5V344.5C945.461 337.75 943.961 336 937.211 336C930.461 336 928.961 337.75 928.961 344.5V355.5Z" fill="#FFFBFF"/>
<path d="M853.734 341.75C853.734 333.5 856.484 330.75 864.734 330.75H868.984C877.234 330.75 879.984 333.5 879.984 341.75V344.5C879.984 346.15 878.884 347.25 877.234 347.25C875.584 347.25 874.484 348.35 874.484 350C874.484 351.65 875.584 352.75 877.234 352.75C878.884 352.75 879.984 353.85 879.984 355.5C879.984 366.25 877.984 369.25 866.234 369.25H859.234C857.584 369.25 856.484 368.15 856.484 366.5C856.484 364.85 857.584 363.75 859.234 363.75H866.234C872.984 363.75 874.484 362.25 874.484 355.5C874.484 353.85 873.384 352.75 871.734 352.75H864.734C856.484 352.75 853.734 350 853.734 341.75ZM859.234 341.75C859.234 346 860.484 347.25 864.734 347.25H871.734C873.384 347.25 874.484 346.15 874.484 344.5V341.75C874.484 337.5 873.234 336.25 868.984 336.25H864.734C860.484 336.25 859.234 337.5 859.234 341.75Z" fill="#FFFBFF"/>
<path d="M785.463 352.75C787.113 352.75 788.213 351.65 788.213 350C788.213 348.35 787.113 347.25 785.463 347.25C783.813 347.25 782.713 346.15 782.713 344.5C782.713 332.8 785.663 330.5 796.463 330.5C807.263 330.5 810.213 332.8 810.213 344.5C810.213 346.15 809.113 347.25 807.463 347.25C805.813 347.25 804.713 348.35 804.713 350C804.713 351.65 805.813 352.75 807.463 352.75C809.113 352.75 810.213 353.85 810.213 355.5C810.213 367.2 807.263 369.5 796.463 369.5C785.663 369.5 782.713 367.2 782.713 355.5C782.713 353.85 783.813 352.75 785.463 352.75ZM788.213 344.5C788.213 346.15 789.313 347.25 790.963 347.25H801.963C803.613 347.25 804.713 346.15 804.713 344.5C804.713 337.75 803.213 336 796.463 336C789.713 336 788.213 337.75 788.213 344.5ZM796.463 364C803.213 364 804.713 362.25 804.713 355.5C804.713 353.85 803.613 352.75 801.963 352.75H790.963C789.313 352.75 788.213 353.85 788.213 355.5C788.213 362.25 789.713 364 796.463 364Z" fill="#FFFBFF"/>
<path d="M717.193 369.25L718.343 366.5V366.45C718.393 366.4 718.393 366.3 718.443 366.25L730.943 336.25H714.443C712.793 336.25 711.693 335.15 711.693 333.5C711.693 331.85 712.793 330.75 714.443 330.75H736.443C739.043 330.75 739.193 330.75 738.093 333.35L739.193 330.75L724.693 366.25C723.443 369.25 723.443 369.25 720.693 369.25H719.693C717.293 369.25 717.243 369.15 718.293 366.6L717.193 369.25ZM729.843 338.85L730.943 336.25H728.593C730.843 336.25 730.893 336.4 729.843 338.85ZM729.843 338.85C729.843 338.85 729.843 338.85 729.843 338.9V338.85ZM729.693 339.25L729.843 338.9C729.793 339 729.743 339.15 729.693 339.25Z" fill="#FFFBFF"/>
<path d="M642.967 358.25V355.5C642.967 353.85 644.067 352.75 645.717 352.75C647.367 352.75 648.467 351.65 648.467 350C648.467 348.35 647.367 347.25 645.717 347.25C644.067 347.25 642.967 346.15 642.967 344.5C642.967 333.75 644.967 330.75 656.717 330.75H663.717C665.367 330.75 666.467 331.85 666.467 333.5C666.467 335.15 665.367 336.25 663.717 336.25H656.717C649.967 336.25 648.467 337.75 648.467 344.5C648.467 346.15 649.567 347.25 651.217 347.25H658.217C666.467 347.25 669.217 350 669.217 358.25C669.217 366.5 666.467 369.25 658.217 369.25H653.967C645.717 369.25 642.967 366.5 642.967 358.25ZM648.467 358.25C648.467 362.5 649.717 363.75 653.967 363.75H658.217C662.467 363.75 663.717 362.5 663.717 358.25C663.717 354 662.467 352.75 658.217 352.75H651.217C649.567 352.75 648.467 353.85 648.467 355.5V358.25Z" fill="#FFFBFF"/>
<path d="M570.945 339C570.945 333.85 573.795 330.75 579.195 330.75H595.695C597.345 330.75 598.445 331.85 598.445 333.5C598.445 335.15 597.345 336.25 595.695 336.25H579.195C577.545 336.25 576.445 337.35 576.445 339V341.5C576.445 343.15 577.545 344.25 579.195 344.25H584.695C593.445 344.25 598.445 349.25 598.445 355.25V358.25C598.445 364.25 593.445 369.5 584.695 369.5C575.945 369.5 571.195 364.5 571.195 358.5C571.195 356.85 572.295 355.75 573.945 355.75C575.595 355.75 576.695 356.85 576.695 358.5C576.695 362.5 580.545 364 584.695 364C588.845 364 592.945 362.25 592.945 358.25V355.25C592.945 351.25 588.845 349.75 584.695 349.75H579.195C573.945 349.75 570.945 346.75 570.945 341.5V339Z" fill="#FFFBFF"/>
<path d="M503.363 358.25C500.363 358.25 500.363 353.75 502.363 351.5L517.213 334.25C519.163 332.4 520.113 331.55 520.963 331.1C521.713 330.75 522.413 330.75 523.713 330.75C525.363 330.75 526.463 331.85 526.463 333.5V350C526.463 351.65 525.363 352.75 523.713 352.75C522.063 352.75 520.963 353.85 520.963 355.5C520.963 357.15 522.063 358.25 523.713 358.25C525.363 358.25 526.463 359.35 526.463 361V366.5C526.463 368.15 525.363 369.25 523.713 369.25C522.063 369.25 520.963 368.15 520.963 366.5V361C520.963 359.35 519.863 358.25 518.213 358.25H503.363ZM510.863 352.75H518.213C519.863 352.75 520.963 351.65 520.963 350V342.25C520.963 340.6 520.963 339.8 520.563 339.8C520.163 339.8 519.363 340.6 517.713 342.25L512.113 348.5C508.613 352.75 508.613 352.75 510.863 352.75Z" fill="#FFFBFF"/>
<path d="M429.564 360.75C429.564 359.1 430.664 358 432.314 358C433.964 358 435.064 359.1 435.064 360.75C435.064 362.4 436.064 363.5 437.714 363.5L443.214 363.75C450.214 363.75 451.214 362.25 451.214 355.25C451.214 353.6 450.114 352.25 448.464 352.25H440.464C438.814 352.25 437.714 351.15 437.714 349.5C437.714 347.85 438.814 346.75 440.464 346.75H448.464C450.114 346.75 451.214 345.4 451.214 343.75C451.214 336.75 450.214 336.25 443.214 336.25L437.714 336.5C436.064 336.5 435.064 337.6 435.064 339.25C435.064 340.9 433.964 342 432.314 342C430.664 342 429.564 340.9 429.564 339.25C429.564 334 432.464 331 437.714 331L443.214 330.75C454.214 330.75 456.964 332.75 456.964 343.75C456.964 345.4 455.864 346.75 454.214 346.75C452.564 346.75 451.214 347.85 451.214 349.5C451.214 351.15 452.564 352.25 454.214 352.25C455.864 352.25 456.964 353.6 456.964 355.25C456.964 365.9 454.564 369.25 443.214 369.25L437.714 369C432.464 369 429.564 366 429.564 360.75Z" fill="#FFFBFF"/>
<path d="M358.043 341.5C358.043 335.5 363.543 330.5 372.293 330.5C386.793 330.5 388.543 346.25 383.293 350.5L370.293 360.75C366.543 363.75 366.543 363.75 369.793 363.75H383.293C384.943 363.75 386.043 364.85 386.043 366.5C386.043 368.15 384.943 369.25 383.293 369.25H361.293C359.643 369.25 358.543 368.15 358.543 366.5C358.543 365.2 358.543 364.55 359.093 363.75C359.743 362.85 361.093 361.8 364.043 359.5L378.043 348.25C383.943 343.5 379.393 336 372.293 336C368.143 336 363.543 337.5 363.543 341.5C363.543 343.15 362.443 344.25 360.793 344.25C359.143 344.25 358.043 343.15 358.043 341.5Z" fill="#FFFBFF"/>
<path d="M299.27 341.75C306.02 341.75 307.52 340.25 307.52 333.5C307.52 331.85 308.62 330.75 310.27 330.75C311.92 330.75 313.02 331.85 313.02 333.5V366.75C313.02 368.4 311.92 369.25 310.27 369.25H310.22C308.77 369.25 307.77 368.6 307.52 367.35V346.3C305.52 347 302.82 347.25 299.27 347.25C297.62 347.25 296.52 346.15 296.52 344.5C296.52 342.85 297.62 341.75 299.27 341.75Z" fill="#FFFBFF"/>
<path d="M863.659 448.5C863.659 439.9 866.759 437.5 874.659 437.5C882.559 437.5 885.659 439.9 885.659 448.5V465.25C885.659 473.85 882.559 476.25 874.659 476.25C866.759 476.25 863.659 473.85 863.659 465.25V448.5ZM869.159 465.25C869.159 469.5 870.409 470.75 874.659 470.75C878.909 470.75 880.159 469.5 880.159 465.25V448.5C880.159 444.25 878.909 443 874.659 443C870.409 443 869.159 444.25 869.159 448.5V465.25Z" fill="#F23D3D"/>
<path d="M828.897 467.05C828.397 474.2 825.397 476.25 817.947 476.25H813.397C811.747 476.25 810.647 475.15 810.647 473.5C810.647 471.85 811.747 470.75 813.397 470.75H817.947C821.697 470.75 823.147 469.75 823.397 466.55V462.5C823.397 460.85 822.297 459.75 820.647 459.75H816.147C810.897 459.75 807.897 456.75 807.897 451.5V446C807.897 440.75 810.897 437.75 816.147 437.75H820.647C825.897 437.75 828.897 440.75 828.897 446V451.5C828.897 453.15 827.797 454.25 826.147 454.25C824.497 454.25 823.397 455.35 823.397 457C823.397 458.65 824.497 459.75 826.147 459.75C827.797 459.75 828.897 460.85 828.897 462.5V467.05ZM823.397 446C823.397 444.35 822.297 443.25 820.647 443.25H816.147C814.497 443.25 813.397 444.35 813.397 446V451.5C813.397 453.15 814.497 454.25 816.147 454.25H820.647C822.297 454.25 823.397 453.15 823.397 451.5V446Z" fill="#F23D3D"/>
<path d="M751.13 448.5C751.13 439.9 754.23 437.5 762.13 437.5C770.03 437.5 773.13 439.9 773.13 448.5V451.5C773.13 453.15 772.03 454.25 770.38 454.25C768.73 454.25 767.63 455.35 767.63 457C767.63 458.65 768.73 459.75 770.38 459.75C772.03 459.75 773.13 460.85 773.13 462.5V465.5C773.13 474.1 770.03 476.5 762.13 476.5C754.23 476.5 751.13 474.1 751.13 465.5V462.5C751.13 460.85 752.23 459.75 753.88 459.75C755.53 459.75 756.63 458.65 756.63 457C756.63 455.35 755.53 454.25 753.88 454.25C752.23 454.25 751.13 453.15 751.13 451.5V448.5ZM756.63 465.5C756.63 469.75 757.88 471 762.13 471C766.38 471 767.63 469.75 767.63 465.5V462.5C767.63 460.85 766.53 459.75 764.88 459.75H759.38C757.73 459.75 756.63 460.85 756.63 462.5V465.5ZM756.63 448.5V451.5C756.63 453.15 757.73 454.25 759.38 454.25H764.88C766.53 454.25 767.63 453.15 767.63 451.5V448.5C767.63 444.25 766.38 443 762.13 443C757.88 443 756.63 444.25 756.63 448.5Z" fill="#F23D3D"/>
<path d="M694.372 440.5C694.372 438.85 695.472 437.75 697.122 437.75H713.972C716.722 437.75 716.722 437.75 715.722 440.75L706.372 473.25C705.372 476.25 705.372 476.25 702.622 476.25H701.872C699.122 476.25 699.122 476.25 700.122 473.25L707.872 446.25C708.772 443.25 708.772 443.25 706.022 443.25H697.122C695.472 443.25 694.372 442.15 694.372 440.5Z" fill="#F23D3D"/>
<path d="M639.411 446.95C639.911 439.8 642.911 437.75 650.361 437.75H654.911C656.561 437.75 657.661 438.85 657.661 440.5C657.661 442.15 656.561 443.25 654.911 443.25H650.361C646.611 443.25 645.161 444.25 644.911 447.45V451.5C644.911 453.15 646.011 454.25 647.661 454.25H652.161C657.411 454.25 660.411 457.25 660.411 462.5V468C660.411 473.25 657.411 476.25 652.161 476.25H647.661C642.411 476.25 639.411 473.25 639.411 468V462.5C639.411 460.85 640.511 459.75 642.161 459.75C643.811 459.75 644.911 458.65 644.911 457C644.911 455.35 643.811 454.25 642.161 454.25C640.511 454.25 639.411 453.15 639.411 451.5V446.95ZM644.911 468C644.911 469.65 646.011 470.75 647.661 470.75H652.161C653.811 470.75 654.911 469.65 654.911 468V462.5C654.911 460.85 653.811 459.75 652.161 459.75H647.661C646.011 459.75 644.911 460.85 644.911 462.5V468Z" fill="#F23D3D"/>
<path d="M589.642 437.75H601.092C602.742 437.75 603.842 438.85 603.842 440.5C603.842 442.15 602.742 443.25 601.092 443.25H589.642C588.392 443.25 587.392 444.35 587.392 446V448.5C587.392 450.15 588.392 451.25 589.642 451.25H592.992C601.242 451.25 603.842 455.5 603.842 463.75C603.842 472 601.242 476.25 592.992 476.25C584.742 476.25 582.142 473.5 582.142 466.5C582.142 464.85 583.242 463.75 584.892 463.75C586.542 463.75 587.642 464.85 587.642 466.5C587.642 469.75 588.742 470.75 592.992 470.75C597.242 470.75 598.342 468.25 598.342 463.75C598.342 459.25 597.242 456.75 592.992 456.75H589.642C584.392 456.75 581.892 453.75 581.892 448.5V446C581.892 441 584.142 437.75 589.642 437.75Z" fill="#F23D3D"/>
<path d="M529.325 465.25C525.775 465.25 524.875 462.25 527.325 458.5L538.575 442.25C539.975 440 540.625 438.85 541.325 438.3C542.025 437.75 542.725 437.75 544.075 437.75C545.425 437.75 546.325 438.85 546.325 440.5V457C546.325 458.65 545.425 459.75 544.075 459.75H543.575C542.325 459.75 541.325 460.85 541.325 462.5C541.325 464.15 542.325 465.25 543.575 465.25H544.075C545.425 465.25 546.325 466.35 546.325 468V473.5C546.325 475.15 545.425 476.25 544.075 476.25H543.575C542.325 476.25 541.325 475.15 541.325 473.5V468C541.325 466.35 540.425 465.25 539.075 465.25H529.325ZM534.825 459.75H539.075C540.425 459.75 541.325 458.65 541.325 457V450.75C541.325 448.8 541.325 447.85 541.025 447.85C540.725 447.85 540.175 448.7 539.075 450.25L535.575 455.25C532.575 459.75 532.575 459.75 534.825 459.75Z" fill="#F23D3D"/>
<path d="M468.688 446.05C468.688 440.8 471.588 437.8 476.838 437.8L480.338 437.75C488.988 437.75 490.738 441.05 490.738 448.75V450.75C490.738 452.4 489.888 453.75 488.238 453.75C486.588 453.75 485.488 454.85 485.488 456.5C485.488 458.15 486.588 459.25 488.238 459.25C489.888 459.25 490.738 460.6 490.738 462.25V465.25C490.738 472.95 489.038 476.25 480.338 476.25L476.838 476.2C471.588 476.2 468.688 473.2 468.688 467.95C468.688 466.3 469.788 465.2 471.438 465.2C473.088 465.2 474.188 466.3 474.188 467.95C474.188 469.6 475.188 470.7 476.838 470.7L480.338 470.75C484.588 470.75 485.488 469.5 485.488 465.25V462.25C485.488 460.6 484.638 459.25 482.988 459.25H479.588C477.938 459.25 476.838 458.15 476.838 456.5C476.838 454.85 477.938 453.75 479.588 453.75H482.988C484.638 453.75 485.488 452.4 485.488 450.75V448.75C485.488 444.5 484.588 443.25 480.338 443.25L476.838 443.3C475.188 443.3 474.188 444.4 474.188 446.05C474.188 447.7 473.088 448.8 471.438 448.8C469.788 448.8 468.688 447.7 468.688 446.05Z" fill="#F23D3D"/>
<path d="M410.935 448.5C410.935 440.9 414.735 437.5 423.185 437.5C433.685 437.5 437.585 450.15 429.685 458.5L421.435 467.75C418.935 470.75 418.935 470.75 422.185 470.75H431.085C432.735 470.75 433.835 471.85 433.835 473.5C433.835 475.15 432.735 476.25 431.085 476.25H414.185C412.535 476.25 411.435 475.15 411.435 473.5C411.435 472.2 411.435 471.55 411.835 470.75C412.285 469.85 413.285 468.8 415.435 466.5L425.435 455.25C430.985 449.45 428.785 443 423.185 443C417.885 443 416.435 444.2 416.435 448.5C416.435 450.15 415.335 451.25 413.685 451.25C412.035 451.25 410.935 450.15 410.935 448.5Z" fill="#F23D3D"/>
<path d="M361.765 448.75C361.765 447.1 362.865 446 364.265 446C368.515 446 369.465 444.75 369.465 440.5C369.465 438.85 370.565 437.75 372.215 437.75C373.865 437.75 374.965 438.85 374.965 440.5V473.75C374.965 475.4 373.865 476.25 372.215 476.25H372.165C370.715 476.25 369.715 475.6 369.465 474.35V450.95C368.065 451.3 366.365 451.5 364.265 451.5C362.865 451.5 361.765 450.4 361.765 448.75Z" fill="#F23D3D"/>
</svg>
