<svg width="1545" height="176" viewBox="0 0 1545 176" fill="none" xmlns="http://www.w3.org/2000/svg">
<path d="M0 0.0461426H1545V3.36515H0V0.0461426Z" fill="#F23D3D"/>
<path d="M0 8.34369H1545V11.6627H0V8.34369Z" fill="#F23D3D"/>
<path d="M0 44.8529H1545V48.1719H0V44.8529Z" fill="#F23D3D"/>
<path d="M0 136.126H1545V139.445H0V136.126Z" fill="#F23D3D"/>
<path d="M0 172.635H1545V175.954H0V172.635Z" fill="#F23D3D"/>
<path d="M1278.6 62.2778H1225.49C1213.05 62.2778 1214.71 71.4051 1223 74.3922L1269.47 90.9873C1296.02 99.2848 1293.87 136.956 1260.34 136.956H1207.24C1201.76 136.956 1198.11 134.134 1198.11 128.658C1198.11 123.182 1201.76 120.361 1207.24 120.361H1260.34C1272.79 120.361 1271.13 111.233 1262.83 108.246L1216.37 91.6511C1189.81 83.3536 1191.97 45.6828 1225.49 45.6828H1278.6C1284.07 45.6828 1287.73 48.5039 1287.73 53.9803C1287.73 59.4567 1284.07 62.2778 1278.6 62.2778Z" fill="#FFFBFF"/>
<path d="M1092.68 122.02L1116.74 63.9373C1125.04 45.6828 1125.04 45.6828 1132.67 45.6828H1138.98C1146.61 45.6828 1146.61 45.6828 1154.91 63.9373L1178.97 122.02C1184.78 136.956 1184.78 136.956 1175.65 136.956H1173.99C1164.86 136.956 1164.86 136.956 1158.23 121.19L1152.42 105.425C1144.95 86.3407 1144.95 86.3407 1144.95 76.3836C1144.95 70.9073 1141.3 67.2563 1135.82 67.2563C1130.35 67.2563 1126.69 70.9073 1126.69 76.3836C1126.69 86.3407 1126.69 86.3407 1119.23 105.425L1113.42 121.19C1106.78 136.956 1106.78 136.956 1097.65 136.956H1095.99C1086.87 136.956 1086.87 136.956 1092.68 122.02Z" fill="#FFFBFF"/>
<path d="M999.685 45.6828H1020.43C1025.91 45.6828 1029.56 49.3337 1029.56 54.81C1029.56 60.2864 1033.21 63.9373 1038.68 63.9373H1040.34C1045.82 63.9373 1049.47 60.2864 1049.47 54.81C1049.47 49.3337 1053.12 45.6828 1058.6 45.6828H1079.34C1084.82 45.6828 1088.47 49.3337 1088.47 54.81C1088.47 60.2864 1084.82 63.9373 1079.34 63.9373H1058.6C1053.12 63.9373 1049.47 67.5882 1049.47 73.0646V127.828C1049.47 133.305 1045.82 136.956 1040.34 136.956H1038.68C1033.21 136.956 1029.56 133.305 1029.56 127.828V73.0646C1029.56 67.5882 1025.91 63.9373 1020.43 63.9373H999.685C994.209 63.9373 990.558 60.2864 990.558 54.81C990.558 49.3337 994.209 45.6828 999.685 45.6828Z" fill="#FFFBFF"/>
<path d="M884.362 127.33C884.362 121.854 888.013 117.871 893.49 117.871H909.255C914.731 117.871 918.382 114.22 918.382 108.744V73.8944C918.382 68.418 914.731 64.7671 909.255 64.7671H893.49C888.013 64.7671 884.362 60.6183 884.362 55.1419C884.362 49.6656 888.013 45.6828 893.49 45.6828H912.574C918.05 45.6828 920.871 48.5039 920.871 53.9803C920.871 59.4567 922.863 62.2778 928.339 62.2778C933.816 62.2778 935.807 59.4567 935.807 53.9803C935.807 48.5039 938.628 45.6828 944.105 45.6828H963.189C968.665 45.6828 972.316 49.6656 972.316 55.1419C972.316 60.6183 968.665 64.7671 963.189 64.7671H947.424C941.947 64.7671 938.296 68.418 938.296 73.8944V108.744C938.296 114.22 941.947 117.871 947.424 117.871H963.189C968.665 117.871 972.316 121.854 972.316 127.33C972.316 132.807 968.665 136.956 963.189 136.956H944.105C938.628 136.956 935.807 134.134 935.807 128.658C935.807 123.182 933.816 120.361 928.339 120.361C922.863 120.361 920.871 123.182 920.871 128.658C920.871 134.134 918.05 136.956 912.574 136.956H893.49C888.013 136.956 884.362 132.807 884.362 127.33Z" fill="#FFFBFF"/>
<path d="M786.516 54.81C786.516 49.3337 790.167 45.6828 795.643 45.6828C801.119 45.6828 804.77 49.3337 804.77 54.81V91.3192C804.77 113.723 809.749 120.361 832.152 120.361H860.364C865.84 120.361 869.491 123.182 869.491 128.658C869.491 134.134 865.84 136.956 860.364 136.956H832.152C793.486 136.956 786.516 126.999 786.516 91.3192V54.81Z" fill="#FFFBFF"/>
<path d="M679.419 122.02L703.482 63.9373C711.78 45.6828 711.78 45.6828 719.413 45.6828H725.719C733.353 45.6828 733.353 45.6828 741.651 63.9373L765.714 122.02C771.522 136.956 771.522 136.956 762.395 136.956H760.735C751.608 136.956 751.608 136.956 744.97 121.19L739.161 105.425C731.694 86.3407 731.694 86.3407 731.694 76.3836C731.694 70.9073 728.043 67.2563 722.566 67.2563C717.09 67.2563 713.439 70.9073 713.439 76.3836C713.439 86.3407 713.439 86.3407 705.971 105.425L700.163 121.19C693.525 136.956 693.525 136.956 684.398 136.956H682.738C673.611 136.956 673.611 136.956 679.419 122.02Z" fill="#FFFBFF"/>
<path d="M651.259 62.2778H598.155C585.709 62.2778 587.368 71.4051 595.666 74.3922L642.132 90.9873C668.684 99.2848 666.527 136.956 633.005 136.956H579.901C574.424 136.956 570.773 134.134 570.773 128.658C570.773 123.182 574.424 120.361 579.901 120.361H633.005C645.451 120.361 643.792 111.233 635.494 108.246L589.028 91.6511C562.476 83.3536 564.633 45.6828 598.155 45.6828H651.259C656.736 45.6828 660.387 48.5039 660.387 53.9803C660.387 59.4567 656.736 62.2778 651.259 62.2778Z" fill="#FFFBFF"/>
<path d="M463.937 127.828V107.914C463.937 102.438 466.758 98.787 472.234 98.787C477.71 98.787 480.532 96.7955 480.532 91.3192C480.532 85.8428 477.71 83.0217 472.234 83.0217C466.758 83.0217 463.937 80.2005 463.937 74.7241V71.4051C463.937 53.4824 472.898 45.6828 489.659 45.6828H527.828C544.589 45.6828 553.55 53.6484 553.55 71.4051V74.7241C553.55 85.8428 549.733 97.2934 536.955 98.621C536.125 98.787 535.295 98.787 534.466 98.787H531.147C522.849 98.787 522.849 98.787 538.614 118.701C555.209 136.956 555.209 136.956 542.763 136.956H541.933C536.457 136.956 534.797 136.956 530.981 132.973L518.7 118.701C501.275 98.787 501.275 98.787 492.978 98.787H489.659C484.182 98.787 480.532 102.438 480.532 107.914V127.828C480.532 133.305 477.71 136.956 472.234 136.956C466.758 136.956 463.937 133.305 463.937 127.828ZM480.532 74.7241C480.532 80.2005 484.182 83.0217 489.659 83.0217H527.828C533.304 83.0217 536.955 80.2005 536.955 74.7241V71.4051C536.955 65.9287 533.304 62.2778 527.828 62.2778H489.659C484.182 62.2778 480.532 65.9287 480.532 71.4051V74.7241Z" fill="#FFFBFF"/>
<path d="M362.687 73.0646V71.4051C362.687 53.1505 373.473 45.6828 390.068 45.6828H435.705C441.181 45.6828 444.832 48.5039 444.832 53.9803C444.832 59.4567 441.181 62.2778 435.705 62.2778H390.068C384.592 62.2778 380.941 65.9287 380.941 71.4051V73.0646C380.941 78.541 384.592 82.1919 390.068 82.1919H434.875C440.351 82.1919 444.002 85.0131 444.002 90.4894C444.002 95.9658 440.351 98.787 434.875 98.787H390.068C384.592 98.787 380.941 102.438 380.941 107.914V111.233C380.941 116.71 384.592 120.361 390.068 120.361H436.535C442.011 120.361 445.662 123.182 445.662 128.658C445.662 134.134 442.011 136.956 436.535 136.956H390.068C373.473 136.956 362.687 129.488 362.687 111.233V107.914C362.687 102.438 366.337 98.787 371.814 98.787C377.29 98.787 380.941 95.9658 380.941 90.4894C380.941 85.0131 377.29 82.1919 371.814 82.1919C366.337 82.1919 362.687 78.541 362.687 73.0646Z" fill="#FFFBFF"/>
<path d="M258.987 45.6828H260.647C269.774 45.6828 269.774 45.6828 276.412 61.4481L282.22 77.2134C289.688 96.2977 289.688 96.2977 289.688 106.255C289.688 111.731 293.339 115.382 298.815 115.382C304.292 115.382 307.943 111.731 307.943 106.255C307.943 96.2977 307.943 96.2977 315.41 77.2134L321.219 61.4481C327.857 45.6828 327.857 45.6828 336.984 45.6828H338.644C347.771 45.6828 347.771 45.6828 341.963 60.6183L317.9 118.701C309.602 136.956 309.602 136.956 301.968 136.956H295.662C288.029 136.956 288.029 136.956 279.731 118.701L255.668 60.6183C249.86 45.6828 249.86 45.6828 258.987 45.6828Z" fill="#FFFBFF"/>
<path d="M172.972 136.955C155.381 136.955 145.59 128.492 145.59 111.233V70.5752C145.59 65.0988 148.411 62.2776 153.887 62.2776C159.364 62.2776 162.185 60.2862 162.185 54.8099C162.185 49.3335 159.364 47.3421 153.887 47.3421C148.411 47.3421 145.59 44.5209 145.59 39.0446V12.4925C145.59 7.01609 149.241 3.36517 154.717 3.36517C160.193 3.36517 163.844 7.01609 163.844 12.4925V37.3851C163.844 42.8614 167.495 46.5123 172.972 46.5123H197.035C202.511 46.5123 206.162 49.3335 206.162 54.8099C206.162 60.2862 202.511 63.1074 197.035 63.1074H172.972C167.495 63.1074 163.844 66.7583 163.844 72.2347V111.233C163.844 116.709 167.495 119.531 172.972 119.531H182.099C187.575 119.531 191.226 116.709 191.226 111.233C191.226 105.757 194.877 102.106 200.354 102.106C205.83 102.106 209.481 105.757 209.481 111.233C209.481 116.709 205.83 119.531 200.354 119.531C194.877 119.531 191.226 123.182 191.226 128.658C191.226 134.134 187.575 136.955 182.099 136.955H172.972Z" fill="#353535"/>
<path d="M1332.14 45.6827H1333.8C1342.93 45.6827 1342.93 45.6827 1349.57 61.448L1355.38 77.2133C1362.84 96.2976 1362.84 96.2976 1362.84 106.255C1362.84 111.731 1366.49 115.382 1371.97 115.382C1377.45 115.382 1381.1 111.731 1381.1 106.255C1381.1 96.2976 1381.1 96.2976 1388.57 77.2133L1394.37 61.448C1401.01 45.6827 1401.01 45.6827 1410.14 45.6827H1411.8C1420.93 45.6827 1420.93 45.6827 1415.12 60.6182L1391.06 118.701L1382.76 136.955L1376.12 155.21C1368.65 173.465 1368.65 173.465 1359.52 173.465H1357.86C1348.74 173.465 1348.74 173.465 1356.21 152.721C1361.18 136.955 1361.18 136.956 1352.89 118.701L1328.82 60.6182C1323.02 45.6827 1323.02 45.6827 1332.14 45.6827Z" fill="#353535"/>
</svg>
