<svg width="2160" height="2160" viewBox="0 0 2160 2160" fill="none" xmlns="http://www.w3.org/2000/svg">
<g clip-path="url(#clip0_351_3254)">
<rect width="2160" height="2160" fill="#071013"/>
<path d="M249.561 2157.15V2.85H1908.6V2157.15H249.561Z" stroke="#353535" stroke-width="5.7" stroke-miterlimit="10"/>
<path d="M2.85 2157.3V2.9999H2157.15V2157.3H2.85Z" stroke="#353535" stroke-width="5.7" stroke-miterlimit="10"/>
<path d="M0 1605.87H2160" stroke="#353535" stroke-width="5.7" stroke-miterlimit="10"/>
<path d="M0 1272.92H2160" stroke="#353535" stroke-width="5.7" stroke-miterlimit="10"/>
<path d="M0 939.97H2160" stroke="#353535" stroke-width="5.7" stroke-miterlimit="10"/>
<path d="M0 607.03H2160" stroke="#353535" stroke-width="5.7" stroke-miterlimit="10"/>
<path d="M0 274.08H2160" stroke="#353535" stroke-width="5.7" stroke-miterlimit="10"/>
<path d="M0 1938.82H2160" stroke="#353535" stroke-width="5.7" stroke-miterlimit="10"/>
<path d="M1578.5 0V2160" stroke="#353535" stroke-width="5.7" stroke-miterlimit="10"/>
<path d="M1245.55 0V2160" stroke="#353535" stroke-width="5.7" stroke-miterlimit="10"/>
<path d="M912.602 0V2160" stroke="#353535" stroke-width="5.7" stroke-miterlimit="10"/>
<path d="M579.648 0V2160" stroke="#353535" stroke-width="5.7" stroke-miterlimit="10"/>
<g opacity="0.6">
<path d="M686.518 1272.92C777.325 1161.93 777.325 1050.95 686.518 939.97L414.108 607.02C242.588 385.053 227.455 274.07 368.708 274.07H398.978C530.138 274.07 641.121 324.516 731.928 425.41C853.001 586.836 913.538 702.863 913.538 773.49C913.538 873.37 980.128 939.96 1080.02 939.96C1179.91 939.96 1246.5 873.37 1246.5 773.49C1246.5 702.863 1307.03 586.836 1428.11 425.41C1518.91 324.516 1629.9 274.07 1761.06 274.07H1791.33C1932.58 274.07 1917.45 385.053 1745.93 607.02L1473.52 939.97C1382.71 1050.96 1382.71 1161.94 1473.52 1272.92L1745.93 1605.87C1917.45 1827.84 1932.58 1938.82 1791.33 1938.82H1761.06C1629.9 1938.82 1518.91 1888.37 1428.11 1787.48C1307.03 1626.05 1246.5 1510.03 1246.5 1439.4C1246.5 1339.52 1179.91 1272.93 1080.02 1272.93C980.128 1272.93 913.538 1339.52 913.538 1439.4C913.538 1510.03 853.001 1626.05 731.928 1787.48C641.121 1888.37 530.138 1938.82 398.978 1938.82H368.708C227.455 1938.82 242.588 1827.84 414.108 1605.87L686.518 1272.92Z" fill="#353535" stroke="#FFFBFF" stroke-width="5"/>
</g>
<path d="M159.5 274.08H368.56" stroke="#C1272D" stroke-width="4.13" stroke-miterlimit="10"/>
<path d="M352.531 274.08L376.401 287.86V260.3L352.531 274.08Z" fill="#F23D3D"/>
<path d="M596.669 274.08H401.219" stroke="#C1272D" stroke-width="4.13" stroke-miterlimit="10"/>
<path d="M417.249 274.08L393.379 260.3V287.86L417.249 274.08Z" fill="#F23D3D"/>
<path d="M159.502 264.331L149.758 274.075L159.502 283.819L169.246 274.075L159.502 264.331Z" fill="#F23D3D"/>
<path d="M912.598 664.83V779.16" stroke="#C1272D" stroke-width="4.13" stroke-miterlimit="10"/>
<path d="M912.598 878.04V777.82" stroke="#C1272D" stroke-width="4.13" stroke-miterlimit="10"/>
<path d="M902.862 878.031L912.605 887.775L922.349 878.031L912.606 868.287L902.862 878.031Z" fill="#F23D3D"/>
<path d="M912.6 788.38C919.194 788.38 924.54 783.034 924.54 776.44C924.54 769.846 919.194 764.5 912.6 764.5C906.006 764.5 900.66 769.846 900.66 776.44C900.66 783.034 906.006 788.38 912.6 788.38Z" fill="#F23D3D"/>
<path d="M973.398 939.97H1085" stroke="#C1272D" stroke-width="4.13" stroke-miterlimit="10"/>
<path d="M1176.86 939.97H1085" stroke="#C1272D" stroke-width="4.13" stroke-miterlimit="10"/>
<path d="M1176.86 949.725L1186.6 939.981L1176.86 930.237L1167.11 939.981L1176.86 949.725Z" fill="#F23D3D"/>
<path d="M977.99 949.716L987.734 939.972L977.99 930.228L968.247 939.972L977.99 949.716Z" fill="#F23D3D"/>
<path d="M1080 951.91C1086.59 951.91 1091.94 946.564 1091.94 939.97C1091.94 933.376 1086.59 928.03 1080 928.03C1073.4 928.03 1068.06 933.376 1068.06 939.97C1068.06 946.564 1073.4 951.91 1080 951.91Z" fill="#F23D3D"/>
<path d="M973.398 1272.92H1085" stroke="#C1272D" stroke-width="4.13" stroke-miterlimit="10"/>
<path d="M1176.86 1272.92H1085" stroke="#C1272D" stroke-width="4.13" stroke-miterlimit="10"/>
<path d="M1176.86 1282.67L1186.6 1272.93L1176.86 1263.19L1167.11 1272.93L1176.86 1282.67Z" fill="#F23D3D"/>
<path d="M977.987 1282.66L987.73 1272.92L977.987 1263.18L968.243 1272.92L977.987 1282.66Z" fill="#F23D3D"/>
<path d="M1080 1284.86C1086.59 1284.86 1091.94 1279.51 1091.94 1272.92C1091.94 1266.33 1086.59 1260.98 1080 1260.98C1073.4 1260.98 1068.06 1266.33 1068.06 1272.92C1068.06 1279.51 1073.4 1284.86 1080 1284.86Z" fill="#F23D3D"/>
<path d="M596.668 274.08L732.638 425.64" stroke="#C1272D" stroke-width="4.13" stroke-miterlimit="10"/>
<path d="M159.5 274.08L417.25 612.72" stroke="#C1272D" stroke-width="4.13" stroke-miterlimit="10"/>
<path d="M606.412 274.078L596.668 264.334L586.924 274.078L596.668 283.822L606.412 274.078Z" fill="#F23D3D"/>
<path d="M823.678 1106.45L686.578 940.94" stroke="#C1272D" stroke-width="4.13" stroke-miterlimit="10"/>
<path d="M696.141 953.65L692.811 926.29L670.781 942.87L696.141 953.65Z" fill="#F23D3D"/>
<path d="M823.678 1106.45L686.578 1271.96" stroke="#C1272D" stroke-width="4.13" stroke-miterlimit="10"/>
<path d="M696.141 1259.24L692.811 1286.6L670.781 1270.03L696.141 1259.24Z" fill="#F23D3D"/>
<path d="M833.412 1106.45L823.668 1096.7L813.924 1106.45L823.668 1116.19L833.412 1106.45Z" fill="#F23D3D"/>
<path d="M912.601 664.83L732.641 425.64" stroke="#C1272D" stroke-width="4.13" stroke-miterlimit="10"/>
<path d="M732.639 437.58C739.234 437.58 744.579 432.234 744.579 425.64C744.579 419.045 739.234 413.7 732.639 413.7C726.045 413.7 720.699 419.045 720.699 425.64C720.699 432.234 726.045 437.58 732.639 437.58Z" fill="#F23D3D"/>
<path d="M922.349 664.826L912.605 655.083L902.862 664.826L912.605 674.57L922.349 664.826Z" fill="#F23D3D"/>
<path d="M407.121 599.59L409.871 627.02L432.241 610.92L407.121 599.59Z" fill="#F23D3D"/>
<path d="M159.5 1938.68H368.56" stroke="#C1272D" stroke-width="4.13" stroke-miterlimit="10"/>
<path d="M352.531 1938.68L376.401 1924.9V1952.46L352.531 1938.68Z" fill="#F23D3D"/>
<path d="M596.669 1938.68H401.219" stroke="#C1272D" stroke-width="4.13" stroke-miterlimit="10"/>
<path d="M417.249 1938.68L393.379 1952.46V1924.9L417.249 1938.68Z" fill="#F23D3D"/>
<path d="M169.236 1938.68L159.492 1928.94L149.748 1938.68L159.492 1948.43L169.236 1938.68Z" fill="#F23D3D"/>
<path d="M912.598 1547.92V1433.6" stroke="#C1272D" stroke-width="4.13" stroke-miterlimit="10"/>
<path d="M912.598 1334.72V1434.94" stroke="#C1272D" stroke-width="4.13" stroke-miterlimit="10"/>
<path d="M912.608 1344.46L922.352 1334.72L912.608 1324.98L902.864 1334.72L912.608 1344.46Z" fill="#F23D3D"/>
<path d="M912.6 1448.26C919.194 1448.26 924.54 1442.91 924.54 1436.32C924.54 1429.73 919.194 1424.38 912.6 1424.38C906.006 1424.38 900.66 1429.73 900.66 1436.32C900.66 1442.91 906.006 1448.26 912.6 1448.26Z" fill="#F23D3D"/>
<path d="M596.668 1938.68L732.638 1787.12" stroke="#C1272D" stroke-width="4.13" stroke-miterlimit="10"/>
<path d="M159.5 1938.68L417.25 1600.04" stroke="#C1272D" stroke-width="4.13" stroke-miterlimit="10"/>
<path d="M596.67 1928.94L586.926 1938.68L596.67 1948.42L606.414 1938.68L596.67 1928.94Z" fill="#F23D3D"/>
<path d="M912.601 1547.92L732.641 1787.12" stroke="#C1272D" stroke-width="4.13" stroke-miterlimit="10"/>
<path d="M732.639 1799.06C739.234 1799.06 744.579 1793.71 744.579 1787.12C744.579 1780.53 739.234 1775.18 732.639 1775.18C726.045 1775.18 720.699 1780.53 720.699 1787.12C720.699 1793.71 726.045 1799.06 732.639 1799.06Z" fill="#F23D3D"/>
<path d="M912.595 1538.18L902.852 1547.92L912.596 1557.67L922.339 1547.92L912.595 1538.18Z" fill="#F23D3D"/>
<path d="M407.121 1613.17L409.871 1585.74L432.241 1601.84L407.121 1613.17Z" fill="#F23D3D"/>
<path d="M1998.85 274.08H1789.78" stroke="#C1272D" stroke-width="4.13" stroke-miterlimit="10"/>
<path d="M1805.82 274.08L1781.95 287.86V260.3L1805.82 274.08Z" fill="#F23D3D"/>
<path d="M1561.67 274.08H1757.12" stroke="#C1272D" stroke-width="4.13" stroke-miterlimit="10"/>
<path d="M1741.09 274.08L1764.96 260.3V287.86L1741.09 274.08Z" fill="#F23D3D"/>
<path d="M1989.1 274.077L1998.84 283.821L2008.59 274.077L1998.84 264.333L1989.1 274.077Z" fill="#F23D3D"/>
<path d="M1245.74 664.83V779.16" stroke="#C1272D" stroke-width="4.13" stroke-miterlimit="10"/>
<path d="M1245.74 878.04V777.82" stroke="#C1272D" stroke-width="4.13" stroke-miterlimit="10"/>
<path d="M1245.74 868.298L1236 878.042L1245.74 887.786L1255.49 878.042L1245.74 868.298Z" fill="#F23D3D"/>
<path d="M1245.74 788.38C1252.34 788.38 1257.68 783.034 1257.68 776.44C1257.68 769.846 1252.34 764.5 1245.74 764.5C1239.15 764.5 1233.8 769.846 1233.8 776.44C1233.8 783.034 1239.15 788.38 1245.74 788.38Z" fill="#F23D3D"/>
<path d="M1561.67 274.08L1425.7 425.64" stroke="#C1272D" stroke-width="4.13" stroke-miterlimit="10"/>
<path d="M1998.85 274.08L1741.09 612.72" stroke="#C1272D" stroke-width="4.13" stroke-miterlimit="10"/>
<path d="M1561.67 283.822L1571.42 274.078L1561.67 264.334L1551.93 274.078L1561.67 283.822Z" fill="#F23D3D"/>
<path d="M1334.67 1106.45L1471.76 940.94" stroke="#C1272D" stroke-width="4.13" stroke-miterlimit="10"/>
<path d="M1462.2 953.65L1465.54 926.29L1487.56 942.87L1462.2 953.65Z" fill="#F23D3D"/>
<path d="M1334.67 1106.45L1471.76 1271.96" stroke="#C1272D" stroke-width="4.13" stroke-miterlimit="10"/>
<path d="M1462.2 1259.24L1465.54 1286.6L1487.56 1270.03L1462.2 1259.24Z" fill="#F23D3D"/>
<path d="M1334.66 1116.19L1344.41 1106.45L1334.66 1096.71L1324.92 1106.45L1334.66 1116.19Z" fill="#F23D3D"/>
<path d="M1245.74 664.83L1425.7 425.64" stroke="#C1272D" stroke-width="4.13" stroke-miterlimit="10"/>
<path d="M1425.7 437.58C1432.29 437.58 1437.64 432.234 1437.64 425.64C1437.64 419.045 1432.29 413.7 1425.7 413.7C1419.1 413.7 1413.76 419.045 1413.76 425.64C1413.76 432.234 1419.1 437.58 1425.7 437.58Z" fill="#F23D3D"/>
<path d="M1245.74 674.584L1255.48 664.84L1245.74 655.096L1235.99 664.84L1245.74 674.584Z" fill="#F23D3D"/>
<path d="M1751.23 599.59L1748.47 627.02L1726.1 610.92L1751.23 599.59Z" fill="#F23D3D"/>
<path d="M1998.85 1938.68H1789.78" stroke="#C1272D" stroke-width="4.13" stroke-miterlimit="10"/>
<path d="M1805.82 1938.68L1781.95 1924.9V1952.46L1805.82 1938.68Z" fill="#F23D3D"/>
<path d="M1561.67 1938.68H1757.12" stroke="#C1272D" stroke-width="4.13" stroke-miterlimit="10"/>
<path d="M1741.09 1938.68L1764.96 1952.46V1924.9L1741.09 1938.68Z" fill="#F23D3D"/>
<path d="M1998.85 1948.42L2008.59 1938.67L1998.85 1928.93L1989.1 1938.67L1998.85 1948.42Z" fill="#F23D3D"/>
<path d="M1245.74 1547.92V1433.6" stroke="#C1272D" stroke-width="4.13" stroke-miterlimit="10"/>
<path d="M1245.74 1334.72V1434.94" stroke="#C1272D" stroke-width="4.13" stroke-miterlimit="10"/>
<path d="M1255.48 1334.73L1245.73 1324.98L1235.99 1334.73L1245.73 1344.47L1255.48 1334.73Z" fill="#F23D3D"/>
<path d="M1245.74 1448.26C1252.34 1448.26 1257.68 1442.91 1257.68 1436.32C1257.68 1429.73 1252.34 1424.38 1245.74 1424.38C1239.15 1424.38 1233.8 1429.73 1233.8 1436.32C1233.8 1442.91 1239.15 1448.26 1245.74 1448.26Z" fill="#F23D3D"/>
<path d="M1561.67 1938.68L1425.7 1787.12" stroke="#C1272D" stroke-width="4.13" stroke-miterlimit="10"/>
<path d="M1998.85 1938.68L1741.09 1600.04" stroke="#C1272D" stroke-width="4.13" stroke-miterlimit="10"/>
<path d="M1551.93 1938.68L1561.67 1948.43L1571.42 1938.68L1561.67 1928.94L1551.93 1938.68Z" fill="#F23D3D"/>
<path d="M1245.74 1547.92L1425.7 1787.12" stroke="#C1272D" stroke-width="4.13" stroke-miterlimit="10"/>
<path d="M1425.7 1799.06C1432.29 1799.06 1437.64 1793.71 1437.64 1787.12C1437.64 1780.53 1432.29 1775.18 1425.7 1775.18C1419.1 1775.18 1413.76 1780.53 1413.76 1787.12C1413.76 1793.71 1419.1 1799.06 1425.7 1799.06Z" fill="#F23D3D"/>
<path d="M1235.99 1547.93L1245.74 1557.67L1255.48 1547.93L1245.74 1538.18L1235.99 1547.93Z" fill="#F23D3D"/>
<path d="M1751.23 1613.17L1748.47 1585.74L1726.1 1601.84L1751.23 1613.17Z" fill="#F23D3D"/>
</g>
<defs>
<clipPath id="clip0_351_3254">
<rect width="2160" height="2160" fill="white"/>
</clipPath>
</defs>
</svg>
