<svg width="974" height="185" viewBox="0 0 974 185" fill="none" xmlns="http://www.w3.org/2000/svg">
<path d="M165.758 145.616C165.758 137.898 167.73 131.381 171.675 126.064C175.62 120.747 180.851 116.373 187.369 112.943C193.886 109.341 201.261 106.597 209.494 104.71C217.898 102.823 226.474 101.537 235.221 100.851V95.1909C235.221 91.0746 234.964 86.9582 234.45 82.8418C233.935 78.7255 232.734 74.9521 230.848 71.5218C228.79 68.0915 225.96 65.9476 222.358 65.09C218.928 64.0609 215.497 63.5464 212.067 63.5464C207.436 63.5464 203.834 63.7179 201.261 64.0609C198.689 64.2324 196.716 64.6612 195.344 65.3473C194.144 66.0334 193.372 67.0624 193.029 68.4346C192.857 69.6352 192.771 71.3503 192.771 73.58C192.771 75.9812 193.029 77.5249 193.543 78.2109C194.229 78.7255 194.572 79.4115 194.572 80.2691C194.572 81.6412 193.972 83.0991 192.771 84.6427C191.742 86.0149 190.37 87.3012 188.655 88.5018C187.111 89.5309 185.311 90.3885 183.252 91.0746C181.366 91.7606 179.565 92.1037 177.85 92.1037C173.905 92.1037 171.504 90.9888 170.646 88.7591C169.788 86.3579 169.36 84.2997 169.36 82.5846C169.36 78.4682 171.332 74.4376 175.277 70.4928C179.393 66.5479 184.281 62.9461 189.941 59.6873C195.773 56.4285 201.776 53.8558 207.951 51.9691C214.125 49.9109 219.356 48.8818 223.644 48.8818C230.848 48.8818 236.679 49.9967 241.139 52.2264C245.77 54.4561 249.286 57.3718 251.687 60.9737C254.088 64.5755 255.718 68.6918 256.575 73.3227C257.433 77.7821 257.861 82.3273 257.861 86.9582V160.538C259.748 160.538 261.721 160.195 263.779 159.509C265.837 158.652 267.895 158.223 269.953 158.223C271.84 158.223 273.041 158.566 273.555 159.252C274.241 159.938 274.584 160.881 274.584 162.082C274.584 162.768 273.898 163.883 272.526 165.426C271.154 166.799 269.181 168.256 266.609 169.8C264.208 171.344 261.378 172.716 258.119 173.916C254.86 175.117 251.258 175.717 247.313 175.717C244.054 175.717 241.224 175.031 238.823 173.659C236.422 172.287 235.221 169.972 235.221 166.713V156.936C230.762 162.425 225.874 166.97 220.557 170.572C215.24 174.002 208.808 175.717 201.261 175.717C194.915 175.717 189.427 174.774 184.796 172.887C180.337 171.001 176.649 168.599 173.733 165.684C170.989 162.596 168.931 159.338 167.559 155.907C166.358 152.305 165.758 148.875 165.758 145.616ZM189.941 137.126C189.941 143.987 191.657 149.733 195.087 154.364C198.517 158.995 204.863 161.31 214.125 161.31C217.555 161.31 221.157 160.024 224.931 157.451C228.875 154.878 232.306 151.534 235.221 147.417V112.685C230.419 112.857 225.359 113.372 220.042 114.229C214.725 114.915 209.837 116.116 205.378 117.831C200.918 119.546 197.231 121.947 194.315 125.035C191.399 128.122 189.941 132.152 189.941 137.126Z" fill="#A57F60"/>
<path d="M4.88818 171.601C2.83 171.601 1.54364 171.001 1.02909 169.8C0.34303 168.599 0 167.485 0 166.455C0 165.426 0.686061 164.569 2.05818 163.883C3.4303 163.025 5.0597 162.339 6.94636 161.825C8.66152 161.138 10.4624 160.624 12.3491 160.281C14.2358 159.766 15.6079 159.252 16.4655 158.737L68.9491 13.3782C71.0073 8.9188 73.3227 5.57425 75.8955 3.34455C78.4682 1.11485 81.5555 0 85.1573 0C87.387 0 89.5309 0.343033 91.5891 1.02909C97.7636 16.1224 102.995 29.7579 107.283 41.9355C111.571 53.9415 115.601 65.6046 119.375 76.9246C123.319 88.2446 127.264 99.8218 131.209 111.656C135.325 123.319 140.128 136.526 145.616 151.276C147.16 154.707 148.618 156.936 149.99 157.965C151.362 158.995 154.021 160.024 157.965 161.053C159.509 161.396 160.71 161.91 161.567 162.596C162.425 163.111 162.854 164.226 162.854 165.941C162.854 166.798 162.168 167.999 160.795 169.543C159.423 170.915 157.194 171.601 154.106 171.601H115.001C112.943 171.601 111.571 171.001 110.885 169.8C110.37 168.599 110.113 167.485 110.113 166.455C110.113 164.912 111.142 163.797 113.2 163.111L122.976 158.737C120.575 152.048 118.345 145.616 116.287 139.442C114.401 133.267 112.514 127.178 110.627 121.175C99.1358 121.175 88.5018 121.175 78.7255 121.175C69.1206 121.004 58.4867 120.918 46.8236 120.918L35.7609 153.077C35.7609 155.479 36.7042 157.108 38.5909 157.965C40.4776 158.823 42.45 159.509 44.5082 160.024C46.7379 160.538 48.7103 161.138 50.4255 161.825C52.3121 162.511 53.2555 163.883 53.2555 165.941C53.2555 169.714 50.3397 171.601 44.5082 171.601H4.88818ZM51.7118 106.254C62.3458 106.254 71.6933 106.339 79.7546 106.511C87.9873 106.682 96.8203 106.768 106.254 106.768C102.48 93.9046 98.6212 81.0409 94.6764 68.1773C90.7315 55.1421 85.7576 40.9064 79.7546 25.47L51.7118 106.254Z" fill="#A57F60"/>
<path d="M716.209 97.7633C716.037 93.99 715.18 91.16 713.636 89.2733C712.092 87.2151 709.262 86.0145 705.146 85.6715C703.945 86.5291 702.316 89.4448 700.258 94.4188C698.371 99.2212 697.171 104.367 696.656 109.855C694.941 118.088 694.083 126.321 694.083 134.553C694.255 142.958 695.627 149.132 698.2 153.077C698.543 153.763 698.886 154.02 699.229 153.849C700.086 153.849 701.458 152.134 703.345 148.703C712.435 132.238 716.723 115.258 716.209 97.7633ZM724.184 146.902L720.325 156.936C720.325 157.279 717.838 160.967 712.864 167.999C711.321 171.258 708.405 173.058 704.117 173.402C700.001 173.745 695.97 173.316 692.025 172.115C686.708 170.228 682.678 167.999 679.933 165.426C677.189 162.853 674.445 158.565 671.701 152.562C669.128 146.388 667.756 141.328 667.584 137.383C666.727 131.723 666.298 128.122 666.298 126.578V120.403C666.298 114.229 666.555 110.627 667.07 109.598C667.241 108.912 667.67 107.111 668.356 104.195C669.214 96.9915 671.272 90.1309 674.531 83.6133C680.877 71.0927 687.394 64.6609 694.083 64.3179H695.37C695.713 64.4894 696.227 64.5751 696.913 64.5751H700.258C706.261 65.0897 709.948 65.6042 711.321 66.1188C713.893 66.8048 716.123 67.1479 718.01 67.1479L724.699 68.4342C726.757 68.2627 729.415 68.6915 732.674 69.7206C736.105 70.7497 737.905 71.5215 738.077 72.0361C738.42 72.5506 738.935 74.4373 739.621 77.6961C740.307 80.9548 740.735 83.3561 740.907 84.8997C741.25 86.2718 741.507 87.7297 741.679 89.2733C743.051 101.794 745.281 113.457 748.368 124.262C748.539 124.777 748.711 125.549 748.882 126.578C749.054 127.607 749.654 129.665 750.683 132.752C751.712 135.668 752.484 138.155 752.999 140.213C753.513 142.272 754.457 145.016 755.829 148.446C756.858 151.019 758.401 154.02 760.46 157.451C764.233 162.768 762.261 166.884 754.542 169.8C753.513 170.143 751.712 170.314 749.14 170.314C748.625 170.314 746.996 169.457 744.251 167.742C742.536 167.742 740.907 166.798 739.363 164.912L737.305 164.397C736.105 163.196 735.075 162.596 734.218 162.596C733.875 162.253 730.788 155.307 724.956 141.757C724.442 143.644 724.184 145.359 724.184 146.902Z" fill="#A57F60"/>
<path d="M596.629 102.137C596.972 101.794 598.944 101.451 602.546 101.108C606.32 100.593 610.693 99.0498 615.667 96.4771C615.839 96.4771 615.753 94.4189 615.41 90.3026C614.895 83.0989 614.467 77.9535 614.124 74.8662C613.781 70.7498 613.437 67.8341 613.094 66.1189C613.094 62.8601 611.808 56.0853 609.235 45.7944L597.915 84.128C595.514 94.762 594.571 101.28 595.085 103.681L596.629 102.137ZM561.897 109.598L563.441 98.278C563.441 96.0483 563.784 93.8186 564.47 91.5889C564.47 88.6732 565.928 84.2995 568.844 78.468C568.844 78.125 569.615 75.8953 571.159 71.7789C571.159 71.4359 572.788 66.3762 576.047 56.5998L579.134 49.1389C579.134 48.4529 579.563 47.1665 580.421 45.2798C581.278 43.2217 581.879 41.2492 582.222 39.3626C582.736 37.3044 583.337 35.332 584.023 33.4453C586.424 28.8144 588.568 24.8695 590.454 21.6108C594.056 14.7501 600.745 11.6629 610.522 12.3489L618.754 13.1207C623.9 14.4929 627.845 15.9507 630.589 17.4944C634.534 19.038 637.192 20.7532 638.564 22.6398C639.937 24.355 640.537 27.2707 640.365 31.3871C640.537 33.4453 641.051 42.3641 641.909 58.1435C642.767 73.9229 643.195 81.8983 643.195 82.0698L644.482 93.1326C644.482 94.1617 646.368 106.511 650.142 130.18L655.802 148.189C659.232 157.794 661.033 162.853 661.204 163.368C661.547 163.711 662.319 165.512 663.52 168.771C665.407 174.431 663.777 178.204 658.632 180.091C654.001 180.777 650.571 180.348 648.341 178.804C647.483 178.804 645.511 178.033 642.424 176.489C642.081 175.631 641.051 174.774 639.336 173.916C637.793 173.23 636.764 172.63 636.249 172.115C634.362 171.601 632.647 168.942 631.104 164.14C630.589 163.797 629.646 162.425 628.274 160.023C627.073 157.622 626.73 155.65 627.244 154.106C626.044 152.563 625.444 149.39 625.444 144.587C623.9 142.014 623.128 137.984 623.128 132.495C623.128 127.007 622.271 122.719 620.555 119.632C611.808 123.577 602.461 125.72 592.513 126.063C590.626 126.063 589.683 126.407 589.683 127.093C589.683 128.636 589.168 131.38 588.139 135.325L583.765 163.625C585.481 176.317 583.937 183.007 579.134 183.693C577.762 183.693 575.447 184.036 572.188 184.722C569.101 185.408 566.528 184.807 564.47 182.921C560.525 180.691 557.695 178.376 555.98 175.974C554.436 173.745 553.75 171.172 553.922 168.256C554.093 165.855 554.522 160.71 555.208 152.82C555.551 152.477 555.637 150.59 555.465 147.16C555.465 143.558 555.723 140.814 556.237 138.927L560.354 122.976C560.868 122.633 561.554 120.06 562.412 115.258C562.24 114.915 562.154 114.057 562.154 112.685L561.897 109.598Z" fill="#A57F60"/>
<path d="M934.791 166.721L934.711 169.121C934.711 170.027 934.764 170.721 934.871 171.201C935.031 171.627 935.111 172.027 935.111 172.401C935.111 173.254 933.618 173.121 930.631 172.001C930.524 172.054 930.258 172.027 929.831 171.921C929.404 171.867 929.111 171.787 928.951 171.681C928.844 171.574 928.684 171.467 928.471 171.361C927.671 171.147 927.298 170.694 927.351 170.001C927.298 169.734 927.191 169.441 927.031 169.121C926.924 168.801 926.871 168.347 926.871 167.761C926.924 167.174 926.898 166.321 926.791 165.201C926.684 164.027 926.658 163.361 926.711 163.201C927.138 160.694 927.458 158.987 927.671 158.081C928.204 155.307 928.258 152.641 927.831 150.081C927.458 147.521 926.471 146.187 924.871 146.081C923.591 146.081 922.444 146.907 921.431 148.561C919.778 151.814 918.951 157.494 918.951 165.601C918.951 166.934 919.111 168.214 919.431 169.441C919.751 170.667 919.858 171.681 919.751 172.481C919.698 173.334 918.951 173.681 917.511 173.521C916.124 173.414 915.218 173.201 914.791 172.881L913.831 172.401C913.191 172.401 912.791 172.107 912.631 171.521C912.524 171.307 912.284 170.987 911.911 170.561L910.471 168.721C910.098 168.294 909.938 167.921 909.991 167.601V166.161L909.911 165.601C909.538 165.227 909.378 164.507 909.431 163.441C909.538 162.374 909.804 160.347 910.231 157.361C910.818 153.201 911.111 150.027 911.111 147.841C911.058 145.814 911.058 144.801 911.111 144.801L911.831 137.521V134.561C911.831 131.147 912.231 127.787 913.031 124.481C913.298 123.894 913.484 123.521 913.591 123.361C913.751 123.147 913.858 122.907 913.911 122.641C913.964 121.787 914.258 121.094 914.791 120.561L914.631 120.641C914.738 120.267 915.031 119.921 915.511 119.601C916.418 119.121 917.831 119.227 919.751 119.921C920.124 120.187 920.391 120.347 920.551 120.401C920.871 120.561 921.191 120.641 921.511 120.641C922.471 121.281 922.898 121.867 922.791 122.401C922.791 122.507 922.578 123.361 922.151 124.961C921.938 126.134 921.831 126.827 921.831 127.041C920.658 131.467 919.858 136.374 919.431 141.761C920.124 141.067 920.924 140.507 921.831 140.081C923.911 139.281 925.564 138.907 926.791 138.961C930.631 139.227 933.271 140.774 934.711 143.601C936.098 145.894 936.604 149.174 936.231 153.441C936.178 154.401 935.698 158.827 934.791 166.721Z" fill="#37393A"/>
<path d="M883.973 148.801C883.92 148.161 883.947 146.934 884.053 145.121L884.613 142.401L886.213 138.961L887.493 137.361C887.493 136.934 888.88 136.348 891.653 135.601H891.733C892.32 135.548 893.227 135.601 894.453 135.761C895.733 135.921 896.96 136.454 898.133 137.361C899.307 138.214 900.107 138.934 900.533 139.521C901.653 141.761 902.133 143.841 901.973 145.761C901.973 146.294 901.707 146.934 901.173 147.681C901.12 147.788 900.72 147.948 899.973 148.161C899.227 148.374 898.613 148.401 898.133 148.241C897.653 148.028 897.093 147.708 896.453 147.281C895.813 146.854 895.52 146.188 895.573 145.281C895.093 144.748 894.987 144.054 895.253 143.201C895.36 142.561 895.28 142.081 895.013 141.761L894.053 141.361C893.733 141.468 893.413 141.948 893.093 142.801C892.827 143.654 892.693 144.694 892.693 145.921C892.693 148.161 893.253 150.188 894.373 152.001C894.747 152.588 895.387 153.281 896.293 154.081L897.733 155.841L899.813 157.761L901.333 159.841C901.707 160.214 902.213 161.041 902.853 162.321C903.547 163.548 903.893 164.668 903.893 165.681C903.893 166.641 903.6 167.868 903.013 169.361L902.293 170.401C902.293 170.508 902 170.854 901.413 171.441C899.813 173.041 898.08 174.028 896.213 174.401H895.653C893.947 174.614 892.267 174.588 890.613 174.321L888.133 173.681C887.867 173.681 887.573 173.574 887.253 173.361C886.933 173.201 886.64 173.068 886.373 172.961C885.147 172.161 884.4 171.521 884.133 171.041C883.867 170.881 883.68 170.134 883.573 168.801C883.2 168.001 883.28 166.908 883.813 165.521C883.813 164.721 883.893 164.108 884.053 163.681C885.067 162.508 886.373 162.241 887.973 162.881C888.507 163.094 888.773 163.521 888.773 164.161C888.773 164.321 888.853 164.881 889.013 165.841C889.227 166.748 889.547 167.601 889.973 168.401C890.4 169.201 890.987 169.601 891.733 169.601C892.48 169.601 893.253 169.308 894.053 168.721C894.907 167.068 895.333 166.161 895.333 166.001L895.493 164.881C895.6 164.081 895.36 163.254 894.773 162.401C894.613 161.761 894.24 161.121 893.653 160.481L892.453 158.721L891.253 157.601C891.04 157.548 890.373 157.121 889.253 156.321C889.2 156.161 888.907 155.788 888.373 155.201C887.84 154.614 887.333 153.894 886.853 153.041C886.373 152.134 885.76 151.334 885.013 150.641C884.96 150.268 884.613 149.654 883.973 148.801Z" fill="#37393A"/>
<path d="M874.418 149.441L874.498 150.961C874.498 151.121 874.658 152.801 874.978 156.001V156.961C874.978 158.241 875.191 160.161 875.618 162.721C875.618 163.841 876.178 165.788 877.298 168.561C877.564 168.721 877.751 169.094 877.858 169.681L877.778 170.481C877.884 170.748 877.751 171.041 877.378 171.361C877.378 171.734 876.871 171.921 875.858 171.921C874.844 171.921 874.204 171.974 873.938 172.081C873.671 172.188 873.244 172.134 872.658 171.921C872.444 172.028 871.804 171.814 870.738 171.281C870.258 171.174 869.884 170.694 869.618 169.841L868.978 168.321C868.978 167.361 868.711 166.508 868.178 165.761C868.178 165.494 868.044 165.014 867.778 164.321C867.564 163.628 867.404 163.254 867.298 163.201C866.764 165.334 866.098 166.988 865.298 168.161C865.298 168.428 865.138 168.748 864.818 169.121L864.018 170.641C864.018 170.748 863.778 171.041 863.298 171.521C862.978 172.214 862.258 172.561 861.138 172.561C860.124 172.561 858.898 172.294 857.458 171.761C857.084 171.708 856.338 171.468 855.218 171.041C854.898 171.094 854.391 171.014 853.698 170.801C853.058 170.534 852.684 170.401 852.578 170.401C852.418 170.241 852.044 169.974 851.458 169.601L850.098 168.161C850.044 168.108 849.938 167.868 849.778 167.441C849.671 166.961 849.644 166.641 849.698 166.481C849.751 166.268 849.751 165.974 849.698 165.601C849.644 165.228 849.671 164.854 849.778 164.481C849.778 163.414 849.884 162.241 850.098 160.961C850.044 160.801 850.018 160.614 850.018 160.401C850.018 160.188 850.124 159.788 850.338 159.201C850.284 158.934 850.258 158.748 850.258 158.641L850.658 155.521C850.658 154.774 850.684 154.241 850.738 153.921V152.721C850.791 152.508 850.818 152.214 850.818 151.841L851.218 148.001C851.218 147.414 851.244 147.041 851.298 146.881V146.081C851.404 145.974 851.458 145.548 851.458 144.801L852.178 142.561L852.738 141.601C852.791 141.388 853.084 141.148 853.618 140.881C854.471 140.348 855.698 140.081 857.298 140.081C857.938 140.188 858.631 140.454 859.378 140.881C859.538 140.828 859.911 140.934 860.498 141.201C861.564 141.681 861.618 143.041 860.658 145.281C860.444 146.721 860.338 147.468 860.338 147.521C860.124 147.948 860.018 148.294 860.018 148.561C859.698 150.268 859.538 151.174 859.538 151.281C859.751 151.068 859.671 151.388 859.298 152.241L858.978 155.201C858.604 156.481 858.444 157.894 858.498 159.441L858.178 160.481C858.231 160.748 858.204 161.574 858.098 162.961C858.204 163.121 858.258 163.308 858.258 163.521L858.338 164.161C858.284 164.321 858.311 164.481 858.418 164.641C858.524 164.748 858.818 164.801 859.298 164.801C859.831 164.748 860.284 164.614 860.658 164.401C861.404 163.494 861.911 162.561 862.178 161.601C862.444 160.588 862.578 160.001 862.578 159.841C863.484 157.548 864.044 156.214 864.258 155.841C864.524 154.401 864.978 152.748 865.618 150.881C865.511 150.614 865.511 150.081 865.618 149.281L866.658 145.041C867.138 144.241 867.378 143.761 867.378 143.601C867.378 143.388 867.698 142.641 868.338 141.361C868.338 141.148 868.498 140.721 868.818 140.081C869.191 139.494 869.858 138.934 870.818 138.401H871.058C872.231 138.294 873.244 138.454 874.098 138.881C874.204 139.094 874.258 139.468 874.258 140.001C874.364 140.534 874.471 141.494 874.578 142.881V143.681L874.258 145.441C874.684 146.774 874.738 148.108 874.418 149.441Z" fill="#37393A"/>
<path d="M822.501 148.001C822.501 147.521 822.447 146.961 822.341 146.321V145.761C822.394 145.387 822.367 144.987 822.261 144.561C822.261 144.027 822.314 143.547 822.421 143.121C822.421 142.054 822.554 141.361 822.821 141.041C822.821 140.774 823.194 140.161 823.941 139.201C824.154 138.987 824.554 138.641 825.141 138.161C825.994 137.894 826.581 137.734 826.901 137.681C827.114 137.467 827.834 137.547 829.061 137.921C829.594 137.974 830.421 138.161 831.541 138.481C831.914 138.587 832.394 139.014 832.981 139.761C832.874 139.974 832.687 140.774 832.421 142.161C832.207 143.494 832.127 144.587 832.181 145.441C832.501 145.174 833.061 144.614 833.861 143.761C834.661 142.907 835.087 142.454 835.141 142.401C836.527 141.761 837.887 141.307 839.221 141.041C841.141 140.881 842.394 141.014 842.981 141.441C843.461 141.601 843.834 141.841 844.101 142.161C844.581 142.587 844.981 143.334 845.301 144.401C845.621 145.414 845.594 146.054 845.221 146.321C844.901 146.587 843.834 146.801 842.021 146.961C841.914 146.961 841.541 147.174 840.901 147.601L836.741 150.881C835.887 151.307 835.301 151.681 834.981 152.001L833.461 154.801C833.407 154.907 833.354 155.601 833.301 156.881C833.247 158.161 833.247 159.094 833.301 159.681C833.354 160.214 833.354 162.001 833.301 165.041V168.481C833.301 170.347 833.274 171.414 833.221 171.681C833.167 172.001 832.954 172.534 832.581 173.281C832.421 173.547 831.914 173.681 831.061 173.681C828.981 175.227 827.647 175.147 827.061 173.441L826.021 172.801C825.594 172.587 825.327 172.321 825.221 172.001C824.794 171.414 824.581 171.067 824.581 170.961L824.261 169.841L823.781 168.881C823.621 168.827 823.487 167.814 823.381 165.841C823.274 163.814 823.221 162.587 823.221 162.161C823.221 161.681 823.167 161.174 823.061 160.641C823.434 160.267 823.594 159.627 823.541 158.721C823.541 157.814 823.487 157.121 823.381 156.641C823.274 156.107 823.274 155.787 823.381 155.681C823.487 155.521 823.461 154.774 823.301 153.441C823.141 153.227 823.114 152.827 823.221 152.241L822.501 148.001Z" fill="#37393A"/>
<path d="M802.947 138.481L804.227 135.761C804.494 135.014 804.6 134.428 804.547 134.001C804.547 133.574 804.547 133.228 804.547 132.961C804.547 132.694 804.52 132.374 804.467 132.001C804.414 131.574 804.227 131.174 803.907 130.801C803.64 130.374 803.347 130.108 803.027 130.001C802.76 129.841 802.227 129.601 801.427 129.281L799.667 129.201C798.067 128.881 796.707 129.014 795.587 129.601C795.587 130.774 795.294 133.228 794.707 136.961L794.227 142.481L793.827 145.361C794.2 145.361 795.16 145.068 796.707 144.481L797.827 143.521C798.04 143.468 798.707 142.881 799.827 141.761C800.094 141.654 800.387 141.388 800.707 140.961L801.507 140.001C801.667 140.054 801.96 139.788 802.387 139.201L802.947 138.481ZM793.667 159.841L793.827 161.761C794.04 162.241 794.04 162.934 793.827 163.841C793.614 164.748 793.587 165.441 793.747 165.921C793.747 166.828 793.774 167.361 793.827 167.521C794.307 167.521 795.027 167.308 795.987 166.881C797 166.454 797.64 166.214 797.907 166.161C798.174 166.108 798.52 165.894 798.947 165.521C800.28 164.828 801.667 164.028 803.107 163.121L804.947 161.441C806.494 159.574 807.56 158.214 808.147 157.361L808.627 155.921C809.32 154.428 808.654 153.014 806.627 151.681C806.2 151.041 805.32 150.614 803.987 150.401H803.907C802.04 149.868 800.947 149.654 800.627 149.761L797.107 150.561C796.467 150.881 795.88 151.041 795.347 151.041C794.867 151.041 794.334 150.801 793.747 150.321L793.827 152.561C793.454 153.574 793.347 154.561 793.507 155.521C793.72 156.481 793.774 157.921 793.667 159.841ZM797.187 174.081H796.467C795.934 174.188 794.894 174.108 793.347 173.841C790.627 173.414 788.44 172.561 786.787 171.281C786.307 170.854 785.747 170.294 785.107 169.601C784.52 168.854 784.227 168.348 784.227 168.081C784.227 167.814 784.227 167.468 784.227 167.041C784.28 166.614 784.254 166.188 784.147 165.761V165.121C783.987 164.801 784.014 164.241 784.227 163.441C784.44 162.588 784.494 161.894 784.387 161.361C784.28 160.668 784.2 159.921 784.147 159.121C783.987 158.908 784.067 158.321 784.387 157.361C784.814 150.161 785.027 146.214 785.027 145.521L785.427 143.121C785.16 141.521 785.214 140.134 785.587 138.961V137.201C785.534 136.454 785.747 134.294 786.227 130.721C786.014 130.081 785.294 129.254 784.067 128.241C783.8 127.974 783.534 127.574 783.267 127.041C783 126.454 783.107 125.548 783.587 124.321C783.907 123.894 784.84 123.201 786.387 122.241C786.494 121.921 787.934 121.308 790.707 120.401L792.227 119.761C792.974 119.494 794.467 119.388 796.707 119.441C797.934 119.601 798.92 119.841 799.667 120.161C802.387 121.494 804.894 123.014 807.187 124.721C807.88 125.041 808.36 125.468 808.627 126.001C809.587 126.641 810.467 127.681 811.267 129.121C812.12 130.508 812.6 131.388 812.707 131.761C812.974 133.468 812.707 135.521 811.907 137.921C811.534 139.148 809.774 141.708 806.627 145.601C807.16 145.761 808.067 146.214 809.347 146.961C809.507 147.174 810.067 147.548 811.027 148.081C811.134 148.241 811.267 148.428 811.427 148.641C811.64 148.854 811.8 149.041 811.907 149.201L812.547 149.601L813.347 150.801L814.547 151.841C815.08 152.374 815.507 152.961 815.827 153.601C816.627 154.348 817.054 154.961 817.107 155.441L817.267 156.961C817.214 157.548 816.414 159.468 814.867 162.721C814.28 163.894 813.534 164.801 812.627 165.441L811.427 166.881C811.107 167.308 810.494 167.841 809.587 168.481C808.734 169.121 808.014 169.734 807.427 170.321C807.16 170.428 806.734 170.668 806.147 171.041C805.614 171.414 804.787 171.868 803.667 172.401C802.6 172.934 801.88 173.254 801.507 173.361C800.44 173.681 799 173.921 797.187 174.081Z" fill="#37393A"/>
<path d="M962.126 51.5209C962.019 52.8543 961.966 53.8409 961.966 54.4809C961.966 55.0676 961.939 55.6009 961.886 56.0809V58.1609L961.806 58.7209V60.4009C961.806 60.8809 961.779 61.3609 961.726 61.8409L964.526 61.2809C964.739 61.2809 965.513 61.1476 966.846 60.8809C968.179 60.6143 969.379 60.5076 970.446 60.5609C971.566 60.5609 972.313 60.7743 972.686 61.2009C973.113 61.6276 973.326 62.2409 973.326 63.0409C973.433 63.6809 973.246 64.2943 972.766 64.8809L972.446 65.3609C972.019 66.0543 971.406 66.5076 970.606 66.7209L967.806 67.1209L964.206 68.0009L962.046 68.8009C962.099 70.1343 962.179 71.6009 962.286 73.2009C962.446 74.8009 962.526 75.9209 962.526 76.5609L962.766 79.5209C963.459 84.2143 964.366 89.0143 965.486 93.9209C965.806 94.4009 966.153 95.4943 966.526 97.2009L967.166 98.8809C967.379 100.694 966.259 101.601 963.806 101.601C963.379 101.601 962.313 101.494 960.606 101.281C960.126 101.228 959.433 100.748 958.526 99.8409C958.526 99.7343 958.233 99.3876 957.646 98.8009L956.126 95.1209C956.019 94.9609 955.886 94.4543 955.726 93.6009C955.139 93.0143 954.659 91.6809 954.286 89.6009C954.286 89.4943 954.233 89.2276 954.126 88.8009V87.6809C953.753 87.3076 953.486 86.2676 953.326 84.5609C953.166 82.8543 952.979 81.2543 952.766 79.7609C952.766 77.6809 952.606 75.6809 952.286 73.7609L952.126 72.0009V71.2809C952.179 70.7476 952.179 70.4809 952.126 70.4809H951.166C950.366 70.5876 949.699 70.5876 949.166 70.4809C946.819 70.4809 945.193 69.8143 944.286 68.4809C943.646 67.0409 943.619 66.1076 944.206 65.6809C944.793 65.2543 946.233 64.8276 948.526 64.4009C949.539 64.4009 950.846 64.0543 952.446 63.3609C952.446 62.0276 952.526 61.2809 952.686 61.1209C952.846 59.8943 953.006 59.1209 953.166 58.8009C953.379 58.4276 953.513 58.0543 953.566 57.6809C953.619 56.4009 954.073 54.5076 954.926 52.0009C955.246 50.7743 955.539 49.9476 955.806 49.5209C956.499 48.5076 957.939 48.1876 960.126 48.5609C961.033 48.7209 961.699 49.0676 962.126 49.6009C962.286 49.5476 962.286 50.1876 962.126 51.5209Z" fill="#37393A"/>
<path d="M930.044 76.1608L929.644 75.4408C929.004 75.4408 927.804 76.7475 926.044 79.3608C923.964 82.1875 922.498 84.9875 921.644 87.7608C921.058 89.4142 920.711 90.7742 920.604 91.8408C920.604 93.3875 920.924 94.4008 921.564 94.8808C921.831 94.8808 922.124 94.6942 922.444 94.3208C922.818 93.9475 923.031 93.6808 923.084 93.5208C923.458 93.3075 923.938 92.6942 924.524 91.6808C925.218 90.6675 925.591 90.1342 925.644 90.0808L926.364 88.5608L927.724 86.2408C927.618 86.2408 927.778 85.6275 928.204 84.4008C928.844 83.2808 929.191 82.4275 929.244 81.8408L930.044 76.1608ZM913.164 95.5208C913.004 93.2275 913.031 91.4675 913.244 90.2408C914.471 85.7608 915.431 82.3475 916.124 80.0008C916.124 79.9475 916.311 79.2808 916.684 78.0008C917.271 76.1342 917.804 74.9075 918.284 74.3208C918.284 74.1608 918.498 73.7342 918.924 73.0408C918.924 72.5608 919.511 71.7342 920.684 70.5608L921.564 69.6008C922.524 68.7475 923.884 68.3208 925.644 68.3208C926.284 68.2142 927.031 68.2408 927.884 68.4008C929.431 69.0942 931.191 70.1342 933.164 71.5208L933.964 72.0008C934.391 72.1075 934.791 72.2408 935.164 72.4008C935.378 72.4008 935.831 72.5075 936.524 72.7208L937.564 73.5208C938.044 73.8408 938.338 74.2942 938.444 74.8808C938.124 75.2008 937.964 76.2408 937.964 78.0008C937.751 80.2942 937.911 82.9875 938.444 86.0808C938.658 88.9608 939.164 92.0008 939.964 95.2008C939.964 95.4675 940.151 96.1875 940.524 97.3608C940.951 98.5342 941.138 99.2808 941.084 99.6008C941.084 100.934 939.831 101.601 937.324 101.601C934.871 101.441 933.164 100.374 932.204 98.4008C932.151 98.1875 931.964 97.7608 931.644 97.1208C931.004 96.4808 930.658 95.9475 930.604 95.5208L930.444 94.4008C930.231 94.2408 930.098 94.0275 930.044 93.7608C929.404 94.6675 928.604 95.6008 927.644 96.5608L925.964 99.2008L925.324 99.8408C925.271 100.054 924.711 100.294 923.644 100.561C922.578 100.881 921.804 100.934 921.324 100.721C921.058 100.721 920.684 100.668 920.204 100.561L916.684 99.1208C915.884 98.9075 915.298 98.5342 914.924 98.0008C914.231 97.5742 913.884 97.3342 913.884 97.2808C913.351 96.3742 913.111 95.7875 913.164 95.5208Z" fill="#37393A"/>
<path d="M898.847 70.241C898.74 69.9744 898.367 69.8677 897.727 69.921C897.14 69.9744 896.687 70.2944 896.367 70.881C894.18 74.3477 893.007 78.0544 892.847 82.001C894.66 82.4277 896.207 81.6277 897.487 79.601C899.14 74.3744 899.593 71.2544 898.847 70.241ZM892.607 102.001L891.807 101.841L890.687 100.721C890.367 100.721 890.127 100.588 889.967 100.321C889.38 99.6277 888.313 98.241 886.767 96.161L885.567 91.761C885.567 90.9077 885.407 90.161 885.087 89.521C884.553 87.121 884.233 85.761 884.127 85.441C884.02 85.0677 883.94 84.081 883.887 82.481C883.887 80.881 883.967 79.7077 884.127 78.961C884.287 77.9477 885.273 75.441 887.087 71.441C887.567 70.961 887.86 70.321 887.967 69.521L889.247 67.681C890.42 66.2944 891.673 65.281 893.007 64.641C893.007 64.5344 893.913 64.2677 895.727 63.841C896.1 63.7877 896.953 63.921 898.287 64.241C901.487 64.9877 903.487 65.921 904.287 67.041L904.527 67.441C905.54 68.881 906.127 71.0944 906.287 74.081C906.127 75.4144 905.993 76.5344 905.887 77.441C905.78 78.3477 905.193 80.001 904.127 82.401C903.327 83.8944 902.553 85.0944 901.807 86.001C900.633 86.8544 899.833 87.281 899.407 87.281C899.193 87.3877 898.74 87.441 898.047 87.441H896.207C896.047 87.3877 895.7 87.361 895.167 87.361C894.633 87.361 893.86 87.2277 892.847 86.961C892.847 88.1344 893.167 89.8144 893.807 92.001C894.5 94.1344 895.06 95.441 895.487 95.921C896.607 96.7744 897.487 97.3344 898.127 97.601C898.767 97.8677 899.62 97.921 900.687 97.761C901.753 97.5477 902.527 97.1744 903.007 96.641L905.087 94.081C906.42 92.2677 907.78 92.1077 909.167 93.601C909.807 94.2944 910.047 94.9877 909.887 95.681C909.78 96.321 909.247 97.6277 908.287 99.601C907.487 100.881 906.633 101.948 905.727 102.801C904.073 103.654 903.087 104.081 902.767 104.081C902.287 104.134 901.54 104.054 900.527 103.841C899.993 104.108 899.087 104.081 897.807 103.761C897.807 103.654 897.647 103.574 897.327 103.521C897.06 103.521 896.687 103.441 896.207 103.281L896.367 103.201C896.26 103.201 895.94 103.201 895.407 103.201L893.167 102.001H892.607Z" fill="#37393A"/>
<path d="M864.229 90.9609L865.269 84.9609C865.269 84.6409 865.296 84.4009 865.349 84.2409C865.456 84.0276 865.509 83.7609 865.509 83.4409C865.562 83.0143 865.696 82.3209 865.909 81.3609C865.909 80.9343 866.016 80.5876 866.229 80.3209C866.336 79.4676 867.002 77.7876 868.229 75.2809C868.442 74.5343 868.789 73.8943 869.269 73.3609C869.269 73.0409 869.429 72.6676 869.749 72.2409L870.709 70.5609C870.709 70.4543 870.896 70.0543 871.269 69.3609C871.589 69.2009 871.802 68.9343 871.909 68.5609C872.016 68.1343 872.336 67.5476 872.869 66.8009C873.029 66.3209 873.642 65.8676 874.709 65.4409H875.989L877.749 66.0009L878.949 66.8009C879.216 67.0676 879.402 67.4409 879.509 67.9209C879.616 67.8143 879.669 67.8143 879.669 67.9209C879.616 68.4009 879.296 69.6009 878.709 71.5209C878.176 73.2809 877.802 74.5343 877.589 75.2809C877.376 75.9743 877.136 76.6943 876.869 77.4409C876.869 77.4943 876.656 78.2676 876.229 79.7609C875.802 81.2009 875.429 82.1876 875.109 82.7209L873.589 88.3209C873.002 89.7076 872.629 90.9343 872.469 92.0009C871.296 97.2276 870.709 99.9476 870.709 100.161C870.709 100.374 870.496 101.041 870.069 102.161C869.962 103.014 869.029 103.441 867.269 103.441C867.002 103.174 866.656 102.934 866.229 102.721C866.069 102.934 865.349 102.961 864.069 102.801C861.776 103.068 859.829 102.748 858.229 101.841C857.856 101.201 857.536 100.188 857.269 98.8009C856.576 97.6276 856.202 96.6943 856.149 96.0009L855.349 94.5609C855.349 93.8676 855.216 93.2276 854.949 92.6409C854.736 92.0543 854.602 91.4676 854.549 90.8809C854.389 90.5076 854.309 90.0809 854.309 89.6009C854.202 89.1743 854.149 88.7209 854.149 88.2409C853.936 87.2276 853.856 86.1876 853.909 85.1209C853.962 84.0009 853.909 82.6676 853.749 81.1209C853.749 80.2143 853.722 79.6543 853.669 79.4409L853.749 77.3609C853.749 76.3476 853.776 75.7343 853.829 75.5209C853.616 74.6676 853.509 73.9209 853.509 73.2809L853.429 71.7609C853.429 71.1209 853.376 70.5076 853.269 69.9209C853.162 69.3343 853.216 68.7476 853.429 68.1609C853.802 67.7343 854.202 67.3876 854.629 67.1209C855.269 66.5876 856.229 66.5609 857.509 67.0409L859.509 67.9209L860.229 68.4809C860.336 68.5876 860.309 68.8543 860.149 69.2809L860.549 73.1209C860.549 74.3476 860.709 75.9209 861.029 77.8409C861.349 79.7076 861.562 81.2809 861.669 82.5609C861.776 83.7876 861.962 85.5209 862.229 87.7609C862.549 89.9476 862.736 91.3076 862.789 91.8409C862.789 92.8543 862.896 93.4143 863.109 93.5209C863.589 92.7209 863.962 91.8676 864.229 90.9609Z" fill="#37393A"/>
<path d="M834.255 76.6407C834.202 75.4674 833.935 74.5874 833.455 74.0007C832.975 73.3607 832.095 72.9874 830.815 72.8807C830.442 73.1474 829.935 74.0541 829.295 75.6007C828.709 77.0941 828.335 78.6941 828.175 80.4007C827.642 82.9607 827.375 85.5207 827.375 88.0807C827.429 90.6941 827.855 92.6141 828.655 93.8407C828.762 94.0541 828.869 94.1341 828.975 94.0807C829.242 94.0807 829.669 93.5474 830.255 92.4807C833.082 87.3607 834.415 82.0807 834.255 76.6407ZM836.735 91.9207L835.535 95.0407C835.535 95.1474 834.762 96.2941 833.215 98.4807C832.735 99.4941 831.829 100.054 830.495 100.161C829.215 100.267 827.962 100.134 826.735 99.7607C825.082 99.1741 823.829 98.4807 822.975 97.6807C822.122 96.8807 821.269 95.5474 820.415 93.6807C819.615 91.7607 819.189 90.1874 819.135 88.9607C818.869 87.2007 818.735 86.0807 818.735 85.6007V83.6807C818.735 81.7607 818.815 80.6407 818.975 80.3207C819.029 80.1074 819.162 79.5474 819.375 78.6407C819.642 76.4007 820.282 74.2674 821.295 72.2407C823.269 68.3474 825.295 66.3474 827.375 66.2407H827.775C827.882 66.2941 828.042 66.3207 828.255 66.3207H829.295C831.162 66.4807 832.309 66.6407 832.735 66.8007C833.535 67.0141 834.229 67.1207 834.815 67.1207L836.895 67.5207C837.535 67.4674 838.362 67.6007 839.375 67.9207C840.442 68.2407 841.002 68.4807 841.055 68.6407C841.162 68.8007 841.322 69.3874 841.535 70.4007C841.749 71.4141 841.882 72.1607 841.935 72.6407C842.042 73.0674 842.122 73.5207 842.175 74.0007C842.602 77.8941 843.295 81.5207 844.255 84.8807C844.309 85.0407 844.362 85.2807 844.415 85.6007C844.469 85.9207 844.655 86.5607 844.975 87.5207C845.295 88.4274 845.535 89.2007 845.695 89.8407C845.855 90.4807 846.149 91.3341 846.575 92.4007C846.895 93.2007 847.375 94.1341 848.015 95.2007C849.189 96.8541 848.575 98.1341 846.175 99.0407C845.855 99.1474 845.295 99.2007 844.495 99.2007C844.335 99.2007 843.829 98.9341 842.975 98.4007C842.442 98.4007 841.935 98.1074 841.455 97.5207L840.815 97.3607C840.442 96.9874 840.122 96.8007 839.855 96.8007C839.749 96.6941 838.789 94.5341 836.975 90.3207C836.815 90.9074 836.735 91.4407 836.735 91.9207Z" fill="#37393A"/>
<path d="M794.707 50.6408C795.454 50.3208 797 50.2141 799.347 50.3208C801.694 50.3741 803.374 50.5874 804.387 50.9608L806.387 51.6008C808.04 52.7208 808.974 53.2808 809.187 53.2808C811.374 54.9874 812.627 57.2274 812.947 60.0008C813.267 61.1741 813.32 62.2408 813.107 63.2008C813.107 63.5208 813 64.2141 812.787 65.2808L811.987 67.1208L811.027 68.4808C810.707 68.5341 810.52 68.5608 810.467 68.5608C808.494 68.8808 806.974 68.9341 805.907 68.7208C804.84 68.4541 803.907 67.8674 803.107 66.9608C802.947 66.6408 802.867 66.3474 802.867 66.0808C802.92 65.8141 803 65.5741 803.107 65.3608L803.507 64.0808C804.2 62.3741 804.147 60.9341 803.347 59.7608C803.347 59.6008 803.08 59.3074 802.547 58.8808C802.014 58.4541 801.587 58.1341 801.267 57.9208C801 57.7074 800.494 57.6808 799.747 57.8408C798.467 58.3741 797.374 60.0008 796.467 62.7208C795.4 64.1074 794.654 65.9208 794.227 68.1608C793.587 72.1608 793.267 74.4274 793.267 74.9608L793.187 76.7208V77.4408C793.08 77.5474 793.134 79.8674 793.347 84.4008C793.4 84.6674 793.507 85.0408 793.667 85.5208C793.827 86.1074 794.067 87.0674 794.387 88.4008L795.427 90.1608C795.694 90.3208 796.04 90.8008 796.467 91.6008C796.734 91.6008 796.947 91.7874 797.107 92.1608C797.48 92.5341 797.64 92.7474 797.587 92.8008C797.854 92.8541 798.254 93.0141 798.787 93.2808C800.227 94.0274 801.48 93.8674 802.547 92.8008C802.92 92.4274 803.374 91.9208 803.907 91.2808C804.494 90.5874 804.92 90.0541 805.187 89.6808C805.507 89.2541 805.987 88.8541 806.627 88.4808C808.387 87.1474 809.907 87.2008 811.187 88.6408C811.454 89.0674 811.48 90.1074 811.267 91.7608C811.107 93.3608 810.36 95.0408 809.027 96.8008C808.92 97.1208 808.574 97.6541 807.987 98.4008C807.4 99.0941 806.787 99.6541 806.147 100.081C806.04 100.454 804.014 100.721 800.067 100.881C799.854 100.881 799.427 100.827 798.787 100.721C798.2 100.881 797.4 100.801 796.387 100.481C795.427 100.161 794.894 100.001 794.787 100.001L793.747 99.7608C793.32 99.7608 792.894 99.6274 792.467 99.3608C792.04 99.0941 791.32 98.6408 790.307 98.0008C789.347 97.3074 788.6 96.7474 788.067 96.3208C786.467 95.0408 785.32 93.5741 784.627 91.9208C784.414 91.5474 784.28 91.0408 784.227 90.4008C784.174 89.7074 784.067 89.2008 783.907 88.8808C783.48 88.4541 783.267 87.7608 783.267 86.8008C783.32 85.8408 783.267 84.6674 783.107 83.2808C783.107 82.6408 783.134 82.2674 783.187 82.1608C782.92 81.8941 782.814 81.4408 782.867 80.8008C782.92 80.1074 782.947 79.1741 782.947 78.0008C783.107 77.6808 783.16 76.7474 783.107 75.2008C783.107 73.6008 783.16 72.4008 783.267 71.6008C783.054 71.1208 783.027 70.4274 783.187 69.5208L783.267 67.1208C783.32 66.1608 783.56 65.1474 783.987 64.0808C784.04 63.6008 784.147 63.0408 784.307 62.4008C784.467 61.7074 785.16 60.3474 786.387 58.3208C786.387 57.8941 786.787 57.3608 787.587 56.7208C787.587 56.5074 787.8 56.1874 788.227 55.7608C788.654 55.3341 789.134 54.8008 789.667 54.1608C790.414 53.2541 791.24 52.5874 792.147 52.1608C793.054 51.7341 793.907 51.2274 794.707 50.6408Z" fill="#37393A"/>
<path d="M441.152 170.101C441.152 169.768 441.352 169.468 441.752 169.201C442.219 168.868 442.752 168.568 443.352 168.301C443.952 168.034 444.552 167.801 445.152 167.601C445.752 167.334 446.186 167.134 446.452 167.001V134.101C445.119 133.834 443.752 133.401 442.352 132.801C440.952 132.201 440.252 131.668 440.252 131.201C440.252 130.534 440.652 129.868 441.452 129.201C442.252 128.468 443.219 127.834 444.352 127.301C445.552 126.768 446.819 126.334 448.152 126.001C449.486 125.601 450.652 125.401 451.652 125.401C452.186 125.401 452.686 125.468 453.152 125.601C453.619 125.734 453.919 126.001 454.052 126.401V135.701C455.452 132.568 457.252 129.901 459.452 127.701C461.719 125.501 464.352 124.401 467.352 124.401C467.952 124.401 468.686 124.501 469.552 124.701C470.486 124.901 471.386 125.301 472.252 125.901C473.186 126.434 473.952 127.201 474.552 128.201C475.219 129.201 475.552 130.468 475.552 132.001C475.552 132.601 475.352 133.201 474.952 133.801C474.552 134.334 474.052 134.834 473.452 135.301C472.852 135.701 472.186 136.068 471.452 136.401C470.786 136.668 470.119 136.834 469.452 136.901C468.919 136.901 468.452 136.801 468.052 136.601C467.719 136.334 467.486 135.734 467.352 134.801C467.019 133.268 466.519 132.268 465.852 131.801C465.252 131.334 464.319 131.101 463.052 131.101C462.119 131.101 461.186 131.568 460.252 132.501C459.319 133.434 458.452 134.601 457.652 136.001C456.919 137.334 456.286 138.768 455.752 140.301C455.286 141.768 455.052 143.068 455.052 144.201V164.901C455.052 165.834 455.552 166.468 456.552 166.801C457.552 167.068 458.619 167.301 459.752 167.501C460.952 167.634 462.019 167.868 462.952 168.201C463.952 168.468 464.452 169.034 464.452 169.901C464.452 171.368 463.319 172.101 461.052 172.101H443.052C442.252 172.101 441.719 171.868 441.452 171.401C441.252 170.934 441.152 170.501 441.152 170.101Z" fill="#37393A"/>
<path d="M393.694 162.001C393.694 159.001 394.461 156.468 395.994 154.401C397.527 152.334 399.561 150.634 402.094 149.301C404.627 147.901 407.494 146.834 410.694 146.101C413.961 145.368 417.294 144.868 420.694 144.601V142.401C420.694 140.801 420.594 139.201 420.394 137.601C420.194 136.001 419.727 134.534 418.994 133.201C418.194 131.868 417.094 131.034 415.694 130.701C414.361 130.301 413.027 130.101 411.694 130.101C409.894 130.101 408.494 130.168 407.494 130.301C406.494 130.368 405.727 130.534 405.194 130.801C404.727 131.068 404.427 131.468 404.294 132.001C404.227 132.468 404.194 133.134 404.194 134.001C404.194 134.934 404.294 135.534 404.494 135.801C404.761 136.001 404.894 136.268 404.894 136.601C404.894 137.134 404.661 137.701 404.194 138.301C403.794 138.834 403.261 139.334 402.594 139.801C401.994 140.201 401.294 140.534 400.494 140.801C399.761 141.068 399.061 141.201 398.394 141.201C396.861 141.201 395.927 140.768 395.594 139.901C395.261 138.968 395.094 138.168 395.094 137.501C395.094 135.901 395.861 134.334 397.394 132.801C398.994 131.268 400.894 129.868 403.094 128.601C405.361 127.334 407.694 126.334 410.094 125.601C412.494 124.801 414.527 124.401 416.194 124.401C418.994 124.401 421.261 124.834 422.994 125.701C424.794 126.568 426.161 127.701 427.094 129.101C428.027 130.501 428.661 132.101 428.994 133.901C429.327 135.634 429.494 137.401 429.494 139.201V167.801C430.227 167.801 430.994 167.668 431.794 167.401C432.594 167.068 433.394 166.901 434.194 166.901C434.927 166.901 435.394 167.034 435.594 167.301C435.861 167.568 435.994 167.934 435.994 168.401C435.994 168.668 435.727 169.101 435.194 169.701C434.661 170.234 433.894 170.801 432.894 171.401C431.961 172.001 430.861 172.534 429.594 173.001C428.327 173.468 426.927 173.701 425.394 173.701C424.127 173.701 423.027 173.434 422.094 172.901C421.161 172.368 420.694 171.468 420.694 170.201V166.401C418.961 168.534 417.061 170.301 414.994 171.701C412.927 173.034 410.427 173.701 407.494 173.701C405.027 173.701 402.894 173.334 401.094 172.601C399.361 171.868 397.927 170.934 396.794 169.801C395.727 168.601 394.927 167.334 394.394 166.001C393.927 164.601 393.694 163.268 393.694 162.001ZM403.094 158.701C403.094 161.368 403.761 163.601 405.094 165.401C406.427 167.201 408.894 168.101 412.494 168.101C413.827 168.101 415.227 167.601 416.694 166.601C418.227 165.601 419.561 164.301 420.694 162.701V149.201C418.827 149.268 416.861 149.468 414.794 149.801C412.727 150.068 410.827 150.534 409.094 151.201C407.361 151.868 405.927 152.801 404.794 154.001C403.661 155.201 403.094 156.768 403.094 158.701Z" fill="#37393A"/>
<path d="M353.676 167.701C353.743 166.834 353.776 165.801 353.776 164.601C353.776 163.334 353.81 162.168 353.876 161.101C354.01 159.968 354.243 159.034 354.576 158.301C354.976 157.501 355.576 157.101 356.376 157.101C356.776 157.101 357.11 157.368 357.376 157.901C357.71 158.368 358.01 158.968 358.276 159.701C358.543 160.368 358.776 161.034 358.976 161.701C359.243 162.368 359.476 162.901 359.676 163.301C360.41 164.634 361.843 165.901 363.976 167.101C366.11 168.234 368.543 168.801 371.276 168.801C373.01 168.801 374.61 168.268 376.076 167.201C377.61 166.134 378.376 164.634 378.376 162.701C378.376 160.834 377.776 159.301 376.576 158.101C375.376 156.901 373.876 155.834 372.076 154.901C370.343 153.968 368.443 153.101 366.376 152.301C364.31 151.434 362.376 150.434 360.576 149.301C358.843 148.168 357.376 146.801 356.176 145.201C354.976 143.534 354.376 141.434 354.376 138.901C354.376 136.634 354.91 134.601 355.976 132.801C357.043 131.001 358.41 129.501 360.076 128.301C361.81 127.034 363.743 126.068 365.876 125.401C368.01 124.734 370.11 124.401 372.176 124.401C376.176 124.401 379.11 125.068 380.976 126.401C382.843 127.668 383.776 128.968 383.776 130.301C383.776 130.968 383.776 131.834 383.776 132.901C383.776 133.901 383.71 134.901 383.576 135.901C383.443 136.834 383.21 137.634 382.876 138.301C382.543 138.968 382.043 139.301 381.376 139.301C380.976 139.301 380.576 139.034 380.176 138.501C379.843 137.968 379.543 137.401 379.276 136.801C378.943 136.068 378.643 135.234 378.376 134.301C377.776 132.768 376.743 131.668 375.276 131.001C373.876 130.268 371.31 129.901 367.576 129.901C366.11 129.901 364.776 130.334 363.576 131.201C362.443 132.001 361.876 133.434 361.876 135.501C361.876 137.234 362.476 138.701 363.676 139.901C364.876 141.034 366.376 142.068 368.176 143.001C370.043 143.934 372.043 144.868 374.176 145.801C376.31 146.668 378.276 147.734 380.076 149.001C381.943 150.201 383.476 151.668 384.676 153.401C385.876 155.068 386.476 157.201 386.476 159.801C386.476 162.068 385.91 164.068 384.776 165.801C383.71 167.534 382.276 169.001 380.476 170.201C378.743 171.334 376.743 172.201 374.476 172.801C372.276 173.401 370.076 173.701 367.876 173.701C366.61 173.701 365.276 173.534 363.876 173.201C362.476 172.934 361.11 172.568 359.776 172.101C358.443 171.568 357.243 170.934 356.176 170.201C355.11 169.401 354.276 168.568 353.676 167.701Z" fill="#37393A"/>
<path d="M290.247 172.101C289.447 172.101 288.947 171.868 288.747 171.401C288.481 170.934 288.347 170.501 288.347 170.101C288.347 169.701 288.614 169.368 289.147 169.101C289.681 168.768 290.314 168.501 291.047 168.301C291.714 168.034 292.414 167.834 293.147 167.701C293.881 167.501 294.414 167.301 294.747 167.101L315.147 110.601C315.947 108.868 316.847 107.568 317.847 106.701C318.847 105.834 320.047 105.401 321.447 105.401C322.314 105.401 323.147 105.534 323.947 105.801C326.347 111.668 328.381 116.968 330.047 121.701C331.714 126.368 333.281 130.901 334.747 135.301C336.281 139.701 337.814 144.201 339.347 148.801C340.947 153.334 342.814 158.468 344.947 164.201C345.547 165.534 346.114 166.401 346.647 166.801C347.181 167.201 348.214 167.601 349.747 168.001C350.347 168.134 350.814 168.334 351.147 168.601C351.481 168.801 351.647 169.234 351.647 169.901C351.647 170.234 351.381 170.701 350.847 171.301C350.314 171.834 349.447 172.101 348.247 172.101H333.047C332.247 172.101 331.714 171.868 331.447 171.401C331.247 170.934 331.147 170.501 331.147 170.101C331.147 169.501 331.547 169.068 332.347 168.801L336.147 167.101C335.214 164.501 334.347 162.001 333.547 159.601C332.814 157.201 332.081 154.834 331.347 152.501C326.881 152.501 322.747 152.501 318.947 152.501C315.214 152.434 311.081 152.401 306.547 152.401L302.247 164.901C302.247 165.834 302.614 166.468 303.347 166.801C304.081 167.134 304.847 167.401 305.647 167.601C306.514 167.801 307.281 168.034 307.947 168.301C308.681 168.568 309.047 169.101 309.047 169.901C309.047 171.368 307.914 172.101 305.647 172.101H290.247ZM308.447 146.701C312.581 146.701 316.214 146.734 319.347 146.801C322.547 146.868 325.981 146.901 329.647 146.901C328.181 141.901 326.681 136.901 325.147 131.901C323.614 126.834 321.681 121.301 319.347 115.301L308.447 146.701Z" fill="#37393A"/>
</svg>
