<svg width="550" height="156" viewBox="0 0 550 156" fill="none" xmlns="http://www.w3.org/2000/svg">
<path d="M88.7748 127.582C88.6367 130.155 88.0381 132.682 86.933 135.117C85.8279 137.552 84.4005 139.803 82.6508 141.87C80.8551 143.754 78.783 145.27 76.2966 146.373C73.9943 147.337 71.3698 147.797 68.515 147.797C63.8644 147.797 59.7204 146.418 56.0368 143.708C52.4913 140.997 50.6956 136.219 50.6956 129.42L50.2812 129.236C49.1761 131.028 47.7026 132.957 45.7687 135.163C43.973 137.322 41.8089 139.389 39.2304 141.273C36.79 143.157 33.9812 144.765 30.8502 145.959C27.8572 147.062 24.4959 147.613 20.8123 147.613C18.6482 147.613 16.392 147.337 14.0437 146.786C11.8796 146.097 9.80759 144.994 7.91974 143.524C6.12399 141.87 4.65055 139.849 3.40733 137.414C2.30225 134.979 1.74971 131.993 1.74971 128.455C1.74971 124.642 3.2692 120.966 6.26212 117.429C9.39318 113.891 13.2149 110.675 17.7273 107.827C22.2397 104.978 26.1996 102.498 29.6069 100.476C33.1524 98.4546 36.2374 96.7547 38.8159 95.3765C41.3945 93.8604 43.6507 92.6658 45.5846 91.7011C47.6105 90.5984 49.3142 89.6796 50.6956 88.8526V67.811C50.6956 67.5354 50.4193 66.9381 49.8667 65.9733C49.4523 64.8707 48.6235 63.814 47.4264 62.7114C46.3213 61.6088 44.7558 60.6899 42.7298 59.863C40.7038 58.8982 38.0332 58.4387 34.764 58.4387C32.5999 58.4387 30.3897 58.8522 28.2256 59.6792C26.1996 60.3683 24.3578 61.3331 22.7002 62.5276C21.0426 63.6302 19.7533 64.7788 18.8324 66.0192C17.8655 67.1219 17.405 68.0407 17.405 68.8677V78.0562C17.405 79.9398 16.392 81.6397 14.32 83.1558C12.4322 84.6719 10.3141 85.4069 7.96579 85.4069C5.80167 85.4069 3.86778 84.6719 2.25621 83.1558C0.73672 81.5018 0 79.6641 0 77.6427C0 75.9887 0.414405 74.5186 1.24322 73.1403C2.07203 71.7621 3.08502 70.5675 4.32823 69.4649C5.57145 68.3623 6.86071 67.4435 8.19601 66.6165C9.7155 65.7895 11.0048 65.0545 12.0638 64.3653C15.6093 62.3439 19.2468 60.3683 22.8844 58.4387C26.568 56.5551 30.0674 54.9012 33.3366 53.5229C36.7439 52.1446 39.8289 51.088 42.5456 50.261C45.4004 49.434 47.7487 49.0206 49.4984 49.0206C53.0439 49.0206 56.4051 49.9853 59.5362 51.869C62.6673 53.6607 64.9235 55.866 66.3048 58.6225C66.8574 59.5873 67.1797 61.2872 67.3178 63.7221C67.4559 66.0193 67.502 68.3623 67.502 70.6594C67.502 75.5753 67.4559 79.9857 67.3178 83.9368V95.3765C67.3178 99.0518 67.2718 102.865 67.1336 106.816V119.45C67.1336 125.561 68.1466 129.649 70.2186 131.717C72.3828 133.601 74.8692 134.565 77.5859 134.565C80.7169 134.565 83.0192 133.968 84.5387 132.728C86.0581 131.349 87.0711 129.649 87.6237 127.628H88.8669L88.7748 127.582ZM50.7416 123.493V92.0686C48.3012 93.8603 45.2162 95.744 41.5326 97.7655C37.849 99.6491 34.2575 101.762 30.712 104.106C27.3047 106.403 24.3118 109.021 21.7332 111.87C19.2929 114.58 18.0496 117.704 18.0496 121.242C18.0496 124.78 19.2929 127.996 21.7332 130.844C24.1736 133.692 27.3968 135.117 31.3567 135.117C34.9021 135.117 38.0332 134.703 40.7498 133.876C43.4665 133.049 45.999 131.487 48.3012 129.19C49.9588 127.674 50.7416 125.79 50.7416 123.493ZM164.335 51.042L157.98 63.4924H126.9V117.153C126.9 124.09 128.42 129.144 131.412 132.268C134.405 135.392 138.319 136.954 143.062 136.954C147.022 136.954 150.291 136.357 152.869 135.117C155.448 133.738 157.704 131.717 159.638 129.006L160.881 129.604C160.052 131.625 158.901 133.83 157.382 136.127C156.001 138.287 154.113 140.354 151.672 142.238C149.37 144.029 146.561 145.454 143.292 146.51C140.161 147.475 136.385 147.935 132.057 147.935C129.202 147.935 126.394 147.521 123.677 146.694C121.098 145.729 118.75 144.443 116.724 142.835C114.698 141.043 112.994 139.16 111.613 137.138C110.37 134.979 109.771 132.774 109.771 130.614C109.771 117.842 109.817 105.713 109.955 94.2738C110.094 82.6963 110.14 72.4512 110.14 63.4465H95.2211V61.1953L124.874 33.2164H126.532V50.9961H164.381L164.335 51.042ZM254.583 116.556C254.03 119.542 252.787 122.942 250.899 126.755C249.011 130.431 246.387 133.83 243.118 136.954C239.848 140.078 235.889 142.651 231.238 144.719C226.726 146.74 221.707 147.797 216.089 147.797C209.136 147.797 202.782 146.51 197.073 143.938C191.363 141.365 186.436 137.735 182.338 133.141C178.378 128.363 175.293 122.85 173.129 116.602C170.965 110.216 169.86 103.462 169.86 96.3872C169.86 90.6903 170.873 85.0394 172.945 79.4344C174.971 73.7376 177.872 68.638 181.555 64.1356C185.377 59.6333 189.936 56.0497 195.277 53.3391C200.71 50.4907 206.742 49.0665 213.28 49.0665C218.622 49.0665 223.595 49.7556 228.199 51.088C232.988 52.4662 237.086 54.5796 240.493 57.428C244.039 60.1386 246.893 63.6302 249.104 67.8569C251.314 72.0837 252.603 77.0454 252.971 82.7423H187.311C187.311 83.8449 187.265 85.1313 187.127 86.6015C186.989 87.9797 186.943 89.4039 186.943 90.8741C186.943 96.571 187.772 102.084 189.383 107.413C191.041 112.605 193.389 117.199 196.566 121.288C199.697 125.239 203.657 128.363 208.446 130.66C213.234 132.957 218.76 134.152 225.022 134.152C231.837 134.152 237.776 132.452 242.841 129.052C248.045 125.515 251.452 121.242 253.063 116.188L254.721 116.602L254.583 116.556ZM232.712 70.8432C232.712 65.7895 230.962 61.5169 227.37 57.9793C223.963 54.3039 219.312 52.4662 213.465 52.4662C209.643 52.4662 206.19 53.6148 203.012 55.9579C200.02 58.1172 197.349 60.7359 195.047 63.7221C192.883 66.7084 191.179 69.7865 189.936 72.9106C188.692 75.8969 187.956 78.2399 187.679 79.8479H203.243C205.683 79.7101 208.216 79.6641 210.794 79.6641C213.373 79.5263 216.227 79.4804 219.404 79.4804C221.43 79.4804 223.364 79.4344 225.114 79.2966C226.91 79.1588 228.475 78.8372 229.811 78.2859C230.778 77.1833 231.468 76.1725 231.837 75.2077C232.389 74.2429 232.665 72.8187 232.665 70.9351L232.712 70.8432ZM311.172 147.567H263.516V145.316C269.778 144.902 273.968 144.305 275.994 143.478C278.02 142.513 279.079 140.951 279.079 138.792V21.4551C279.079 20.3525 278.941 19.5715 278.664 19.0202C278.526 18.4688 277.974 17.8716 277.007 17.1825C275.764 16.4933 273.922 15.4826 271.481 14.1043C269.041 12.5882 266.969 11.5315 265.357 10.8424V9.60196L294.596 0H296.023V139.803C296.023 141.181 296.3 142.192 296.852 142.881C297.543 143.57 298.51 144.029 299.707 144.305C300.95 144.581 302.516 144.765 304.404 144.902C306.291 144.902 308.548 145.04 311.172 145.316V147.567ZM355.79 16.723C355.79 19.8471 354.685 22.5118 352.521 24.6711C350.495 26.6925 347.87 27.7492 344.739 27.7492C341.608 27.7492 339.168 26.6466 336.957 24.4873C334.793 22.328 333.688 19.7093 333.688 16.723C333.688 13.7368 334.701 11.0262 336.773 8.95877C338.937 6.9373 341.608 5.88063 344.739 5.88063C347.87 5.88063 350.449 6.89136 352.521 8.95877C354.685 10.9802 355.79 13.599 355.79 16.723ZM367.255 147.567H323.282V145.546C324.94 145.408 326.551 145.27 328.209 145.132C329.866 144.856 331.294 144.535 332.491 144.121C333.872 143.57 334.931 142.881 335.76 142.1C336.727 141.273 337.188 140.262 337.188 139.022V69.0055C337.188 67.9029 337.05 66.984 336.773 66.1571C336.635 65.3301 336.083 64.595 335.116 63.9059C333.872 63.0789 332.399 62.252 330.603 61.471C328.946 60.644 327.196 59.9089 325.262 59.2198V57.9793L352.889 49.0206H354.132V140.262C354.409 141.64 354.961 142.651 355.79 143.34C356.757 143.892 357.816 144.305 359.059 144.581C360.302 144.856 361.591 145.04 362.927 145.178C364.446 145.178 365.874 145.316 367.209 145.592V147.613L367.255 147.567ZM467.265 116.556C466.712 119.542 465.469 122.942 463.581 126.755C461.647 130.431 459.069 133.83 455.8 136.954C452.53 140.078 448.571 142.651 443.92 144.719C439.408 146.74 434.389 147.797 428.771 147.797C421.818 147.797 415.464 146.51 409.755 143.938C404.045 141.365 399.118 137.735 395.02 133.141C391.06 128.363 387.975 122.85 385.811 116.602C383.647 110.216 382.542 103.462 382.542 96.3872C382.542 90.6903 383.555 85.0394 385.627 79.4344C387.653 73.7376 390.554 68.638 394.237 64.1356C398.059 59.6333 402.618 56.0497 407.959 53.3391C413.392 50.4907 419.424 49.0665 425.962 49.0665C431.304 49.0665 436.276 49.7556 440.881 51.088C445.67 52.4662 449.768 54.5796 453.175 57.428C456.721 60.1386 459.575 63.6302 461.785 67.8569C463.996 72.0837 465.285 77.0454 465.653 82.7423H399.993C399.993 83.8449 399.947 85.1313 399.809 86.6015C399.671 87.9797 399.625 89.4039 399.625 90.8741C399.625 96.571 400.454 102.084 402.065 107.413C403.723 112.605 406.071 117.199 409.202 121.288C412.333 125.239 416.293 128.363 421.082 130.66C425.87 132.957 431.396 134.152 437.658 134.152C444.473 134.152 450.412 132.452 455.477 129.052C460.68 125.515 464.088 121.242 465.699 116.188L467.357 116.602L467.265 116.556ZM445.347 70.8432C445.347 65.7895 443.552 61.5169 440.006 57.9793C436.599 54.3039 431.948 52.4662 426.101 52.4662C422.279 52.4662 418.825 53.6148 415.648 55.9579C412.655 58.1172 409.985 60.7359 407.683 63.7221C405.518 66.7084 403.815 69.7865 402.572 72.9106C401.328 75.8969 400.592 78.2399 400.315 79.8479H415.879C418.319 79.7101 420.851 79.6641 423.43 79.6641C426.008 79.5263 428.863 79.4804 432.04 79.4804C434.066 79.4804 436 79.4344 437.75 79.2966C439.546 79.1588 441.111 78.8372 442.447 78.2859C443.413 77.1833 444.104 76.1725 444.473 75.2077C445.025 74.2429 445.301 72.8187 445.301 70.9351L445.347 70.8432ZM549.824 59.817C549.824 62.8033 548.949 65.3301 547.153 67.3516C545.357 69.2352 543.331 70.2 541.029 70.2C538.865 70.2 537.069 69.8784 535.734 69.1893C534.49 68.3623 533.432 67.4894 532.465 66.5246C531.498 65.5598 530.485 64.7329 529.38 64.0897C528.274 63.2627 526.801 62.8492 524.867 62.8492C523.256 62.8492 521.598 63.4465 519.94 64.6869C518.421 65.7895 516.993 67.2138 515.658 68.9596C514.277 70.7513 513.08 72.7728 511.975 75.0699C510.869 77.2292 509.949 79.3425 509.12 81.41V140.216C509.534 141.457 510.409 142.376 511.79 143.065C513.172 143.754 514.645 144.213 516.303 144.489C518.098 144.765 519.848 144.948 521.598 145.086C523.532 145.086 525.143 145.224 526.525 145.5V147.521H480.71V145.5C483.841 145.224 486.512 144.627 488.676 143.662C490.978 142.697 492.175 141.135 492.175 138.976V69.9703C492.175 68.8677 492.037 68.0867 491.761 67.5353C491.623 66.984 491.07 66.3868 490.103 65.6977C488.86 65.0085 487.433 64.1816 485.821 63.2627C484.209 62.1601 482.552 61.2872 480.894 60.598V59.3576L507.692 48.9287H508.936L508.521 77.3211H508.936C509.626 75.6672 510.731 73.3241 512.205 70.2C513.678 67.0759 515.612 63.9518 517.914 60.8278C520.217 57.5658 523.025 54.7634 526.295 52.4662C529.564 50.1691 533.339 48.9746 537.529 48.9746C540.937 48.9746 543.792 49.9853 546.14 52.0528C548.58 54.0742 549.824 56.6929 549.824 59.817Z" fill="black"/>
<circle cx="466.088" cy="116.628" r="8.05882" stroke="#FF0000" stroke-width="3"/>
<circle cx="323.853" cy="146.441" r="8.05882" stroke="#FF0000" stroke-width="3"/>
<circle cx="266.5" cy="10.3235" r="8.05882" stroke="#FF0000" stroke-width="3"/>
<circle cx="510.441" cy="76.8635" r="8.05882" stroke="#FF0000" stroke-width="3"/>
<circle cx="159.441" cy="56.981" r="11.8824" stroke="#FF0000" stroke-width="3"/>
<circle cx="50.0879" cy="128.863" r="11.8824" stroke="#FF0000" stroke-width="3"/>
</svg>
