<svg width="478" height="241" viewBox="0 0 478 241" fill="none" xmlns="http://www.w3.org/2000/svg">
<path d="M418.272 121.636C418.272 121.059 418.618 120.54 419.31 120.079C420.118 119.502 421.04 118.983 422.079 118.521C423.117 118.06 424.155 117.656 425.193 117.31C426.231 116.849 426.981 116.503 427.442 116.272V59.3473C425.135 58.8859 422.771 58.1361 420.348 57.098C417.926 56.0598 416.715 55.137 416.715 54.3296C416.715 53.1761 417.407 52.0226 418.791 50.8691C420.175 49.6003 421.848 48.5044 423.809 47.5816C425.885 46.6589 428.077 45.9091 430.384 45.3323C432.691 44.6403 434.709 44.2942 436.44 44.2942C437.362 44.2942 438.227 44.4095 439.035 44.6402C439.842 44.8709 440.361 45.3323 440.592 46.0244V62.1156C443.014 56.6942 446.129 52.0803 449.935 48.2737C453.857 44.4672 458.414 42.564 463.604 42.564C464.642 42.564 465.911 42.737 467.411 43.083C469.026 43.4291 470.583 44.1212 472.082 45.1593C473.697 46.0821 475.024 47.4086 476.062 49.1389C477.215 50.8691 477.792 53.0607 477.792 55.7138C477.792 56.7519 477.446 57.79 476.754 58.8282C476.062 59.751 475.197 60.6161 474.159 61.4235C473.121 62.1156 471.967 62.7501 470.698 63.3268C469.545 63.7882 468.391 64.0766 467.238 64.1919C466.315 64.1919 465.507 64.0189 464.815 63.6729C464.239 63.2115 463.835 62.1733 463.604 60.5584C463.028 57.9054 462.162 56.1752 461.009 55.3677C459.971 54.5603 458.356 54.1565 456.164 54.1565C454.549 54.1565 452.934 54.964 451.32 56.5789C449.705 58.1938 448.205 60.2124 446.821 62.6347C445.552 64.9417 444.456 67.4217 443.534 70.0747C442.726 72.6124 442.322 74.8617 442.322 76.8226V112.639C442.322 114.253 443.187 115.349 444.918 115.926C446.648 116.387 448.494 116.791 450.454 117.137C452.531 117.368 454.376 117.772 455.991 118.348C457.721 118.81 458.587 119.79 458.587 121.29C458.587 123.827 456.626 125.096 452.704 125.096H421.559C420.175 125.096 419.253 124.693 418.791 123.885C418.445 123.078 418.272 122.328 418.272 121.636Z" fill="#FAF2E7"/>
<path d="M331.338 90.1455C331.338 83.4552 332.261 77.2264 334.106 71.4589C335.952 65.6915 338.547 60.6738 341.892 56.4059C345.353 52.1379 349.505 48.7928 354.35 46.3705C359.31 43.8328 364.789 42.564 370.787 42.564C377.362 42.564 382.611 43.8905 386.532 46.5435C390.454 49.0812 393.453 52.3686 395.53 56.4059C397.721 60.4431 399.163 64.884 399.855 69.7287C400.547 74.458 400.951 79.072 401.066 83.5706C401.066 85.3008 400.317 86.2813 398.817 86.512C397.318 86.7427 395.76 86.858 394.145 86.858H347.256C347.487 90.7799 348.064 94.5864 348.986 98.2776C350.024 101.969 351.466 105.256 353.312 108.14C355.273 111.024 357.695 113.388 360.579 115.234C363.578 116.964 367.038 117.829 370.96 117.829C375.228 117.829 378.689 117.541 381.342 116.964C383.995 116.272 386.186 115.58 387.917 114.888C389.647 114.08 391.089 113.388 392.242 112.812C393.511 112.119 394.838 111.773 396.222 111.773C397.837 111.773 398.644 112.408 398.644 113.677C398.644 115.176 397.779 116.791 396.049 118.521C394.319 120.136 391.954 121.693 388.955 123.193C386.071 124.577 382.668 125.673 378.746 126.48C374.94 127.403 370.903 127.865 366.635 127.865C360.521 127.865 355.215 126.826 350.717 124.75C346.333 122.674 342.7 119.906 339.816 116.445C336.932 112.985 334.798 109.005 333.414 104.506C332.03 99.8925 331.338 95.1055 331.338 90.1455ZM383.937 77.8608C383.822 74.285 383.533 70.9398 383.072 67.8254C382.611 64.5956 381.745 61.8273 380.477 59.5203C379.208 57.2133 377.362 55.3677 374.94 53.9835C372.518 52.5993 369.345 51.9072 365.424 51.9072C359.656 51.9072 355.273 54.5026 352.274 59.6933C349.39 64.7687 347.717 71.2282 347.256 79.072L383.937 77.8608Z" fill="#FAF2E7"/>
<path d="M280.422 121.636C280.422 121.059 280.883 120.482 281.806 119.905C282.729 119.329 283.825 118.81 285.094 118.348C286.362 117.771 287.574 117.31 288.727 116.964C289.996 116.503 290.976 116.099 291.668 115.753V59.3472C290.515 59.1165 289.246 58.8281 287.862 58.482C286.593 58.0207 285.382 57.5592 284.228 57.0979C283.19 56.6365 282.267 56.1751 281.46 55.7137C280.768 55.2523 280.422 54.7909 280.422 54.3295C280.422 53.176 281.114 52.0225 282.498 50.869C283.882 49.6002 285.613 48.5043 287.689 47.5816C289.765 46.6588 291.957 45.909 294.264 45.3322C296.571 44.6402 298.647 44.2941 300.493 44.2941C301.531 44.2941 302.684 44.4095 303.953 44.6401C305.222 44.8708 305.972 45.3322 306.202 46.0243V112.292C306.202 114.023 306.837 115.234 308.106 115.926C309.375 116.503 310.759 116.964 312.258 117.31C313.758 117.656 315.142 118.06 316.411 118.521C317.68 118.983 318.314 119.905 318.314 121.29C318.314 123.827 316.353 125.096 312.431 125.096H283.709C282.325 125.096 281.402 124.692 280.941 123.885C280.595 123.078 280.422 122.328 280.422 121.636ZM298.935 29.241C296.398 29.241 294.264 28.9527 292.534 28.3759C290.803 27.6838 289.477 26.9341 288.554 26.1266C287.631 25.3192 286.939 24.5117 286.478 23.7043C286.132 22.8968 285.959 22.3201 285.959 21.9741C285.959 21.0513 286.247 19.9554 286.824 18.6866C287.4 17.4178 288.15 16.2643 289.073 15.2261C289.996 14.0726 291.034 13.1498 292.187 12.4578C293.341 11.6503 294.494 11.2466 295.648 11.2466C300.723 11.2466 304.241 12.1694 306.202 14.015C308.163 15.8605 309.144 17.5908 309.144 19.2057C309.144 20.2438 308.798 21.3396 308.106 22.4931C307.529 23.6466 306.721 24.7424 305.683 25.7806C304.761 26.7034 303.665 27.5108 302.396 28.2029C301.242 28.895 300.089 29.241 298.935 29.241Z" fill="#FAF2E7"/>
<path d="M230.784 121.636C230.784 121.059 231.13 120.54 231.822 120.078C232.63 119.502 233.553 118.983 234.591 118.521C235.629 118.06 236.667 117.656 237.705 117.31C238.743 116.849 239.493 116.503 239.954 116.272V11.0735C237.417 10.7275 235.225 10.2084 233.38 9.5163C231.649 8.82421 230.784 8.13212 230.784 7.44002C230.784 5.82514 231.476 4.55629 232.86 3.6335C234.245 2.7107 235.917 1.96093 237.878 1.38419C239.954 0.807441 242.088 0.461398 244.28 0.346051C246.587 0.115349 248.663 0 250.509 0C252.701 0 254.027 0.519069 254.488 1.55721V112.292C254.488 114.023 255.123 115.234 256.392 115.926C257.661 116.503 259.045 116.964 260.544 117.31C262.159 117.541 263.601 117.887 264.87 118.348C266.139 118.81 266.773 119.79 266.773 121.29C266.773 123.827 264.812 125.096 260.89 125.096H234.072C232.687 125.096 231.765 124.692 231.303 123.885C230.957 123.078 230.784 122.328 230.784 121.636Z" fill="#FAF2E7"/>
<path d="M145.061 90.1455C145.061 83.4552 145.983 77.2264 147.829 71.4589C149.675 65.6915 152.27 60.6738 155.615 56.4059C159.075 52.1379 163.228 48.7928 168.073 46.3705C173.033 43.8328 178.512 42.564 184.51 42.564C191.085 42.564 196.333 43.8905 200.255 46.5435C204.177 49.0812 207.176 52.3686 209.252 56.4059C211.444 60.4431 212.886 64.884 213.578 69.7287C214.27 74.458 214.674 79.072 214.789 83.5706C214.789 85.3008 214.039 86.2813 212.54 86.512C211.04 86.7427 209.483 86.858 207.868 86.858H160.979C161.209 90.7799 161.786 94.5864 162.709 98.2776C163.747 101.969 165.189 105.256 167.035 108.14C168.995 111.024 171.418 113.388 174.302 115.234C177.301 116.964 180.761 117.829 184.683 117.829C188.951 117.829 192.411 117.541 195.064 116.964C197.717 116.272 199.909 115.58 201.639 114.888C203.37 114.08 204.811 113.388 205.965 112.812C207.234 112.119 208.56 111.773 209.944 111.773C211.559 111.773 212.367 112.408 212.367 113.677C212.367 115.176 211.502 116.791 209.771 118.521C208.041 120.136 205.676 121.693 202.677 123.193C199.794 124.577 196.391 125.673 192.469 126.48C188.663 127.403 184.625 127.865 180.357 127.865C174.244 127.865 168.938 126.826 164.439 124.75C160.056 122.674 156.422 119.906 153.539 116.445C150.655 112.985 148.521 109.005 147.137 104.506C145.753 99.8925 145.061 95.1055 145.061 90.1455ZM197.66 77.8608C197.544 74.285 197.256 70.9398 196.795 67.8254C196.333 64.5956 195.468 61.8273 194.199 59.5203C192.93 57.2133 191.085 55.3677 188.663 53.9835C186.24 52.5993 183.068 51.9072 179.146 51.9072C173.379 51.9072 168.995 54.5026 165.996 59.6933C163.113 64.7687 161.44 71.2282 160.979 79.072L197.66 77.8608Z" fill="#FAF2E7"/>
<path d="M93.7957 55.5405H86.5287C85.952 55.3098 85.5482 54.906 85.3175 54.3293C85.2022 53.7525 85.1445 53.2335 85.1445 52.7721C85.1445 51.6186 85.4329 50.8688 86.0096 50.5228C86.5864 50.0614 87.3362 49.6 88.259 49.1386C89.1817 48.5618 90.2199 47.8121 91.3734 46.8893C92.6422 45.9665 93.9111 44.4669 95.1799 42.3907C95.9873 40.8911 96.6218 39.1032 97.0832 37.0269C97.5446 34.8353 98.006 32.759 98.4674 30.7981C99.0441 28.8371 99.6785 27.1646 100.371 25.7804C101.178 24.3962 102.216 23.7041 103.485 23.7041C104.408 23.7041 105.388 23.7618 106.426 23.8771C107.58 23.9925 108.387 24.1655 108.849 24.3962V45.8511H125.286C126.786 45.8511 127.708 46.1395 128.054 46.7162C128.516 47.293 128.746 48.0428 128.746 48.9655C128.746 50.3497 128.227 51.7916 127.189 53.2911C126.266 54.6753 124.998 55.4251 123.383 55.5405H108.849V99.6615C108.849 103.814 108.906 107.044 109.022 109.351C109.137 111.658 109.426 113.388 109.887 114.542C110.464 115.695 111.271 116.445 112.309 116.791C113.463 117.022 115.078 117.137 117.154 117.137C118.769 117.137 120.441 116.849 122.172 116.272C124.017 115.58 125.92 115.234 127.881 115.234C129.612 115.234 130.592 115.695 130.823 116.618C131.053 117.425 131.169 117.944 131.169 118.175C131.169 119.559 130.304 120.828 128.573 121.982C126.843 123.135 124.652 124.116 121.999 124.923C119.461 125.73 116.635 126.307 113.52 126.653C110.406 127.115 107.522 127.345 104.869 127.345C101.986 127.345 99.3901 126.307 97.0832 124.231C94.8915 122.155 93.7957 119.155 93.7957 115.234V55.5405Z" fill="#FAF2E7"/>
<path d="M0.607422 107.621C0.607422 102.43 1.93394 98.0469 4.58697 94.4711C7.24 90.8952 10.7581 87.9538 15.1414 85.6469C19.5247 83.2245 24.4847 81.3789 30.0214 80.1101C35.6736 78.8413 41.441 77.9761 47.3238 77.5147V73.7082C47.3238 70.9398 47.1508 68.1715 46.8047 65.4031C46.4587 62.6347 45.6513 60.097 44.3824 57.79C42.9982 55.4831 41.095 54.0412 38.6726 53.4645C36.3657 52.7724 34.0587 52.4263 31.7517 52.4263C28.6373 52.4263 26.2149 52.5417 24.4847 52.7724C22.7545 52.8877 21.4279 53.1761 20.5051 53.6375C19.6977 54.0989 19.1786 54.791 18.9479 55.7138C18.8326 56.5212 18.7749 57.6747 18.7749 59.1742C18.7749 60.7891 18.9479 61.8273 19.294 62.2887C19.7554 62.6347 19.9861 63.0961 19.9861 63.6729C19.9861 64.5957 19.5824 65.5761 18.7749 66.6143C18.0828 67.5371 17.16 68.4022 16.0065 69.2096C14.9684 69.9017 13.7572 70.4785 12.373 70.9399C11.1042 71.4013 9.89303 71.6319 8.73954 71.6319C6.08651 71.6319 4.47162 70.8822 3.89487 69.3826C3.31813 67.7677 3.02975 66.3836 3.02975 65.2301C3.02975 62.4617 4.35627 59.751 7.0093 57.098C9.77768 54.4449 13.0651 52.0226 16.8716 49.831C20.7935 47.6393 24.8307 45.9091 28.9833 44.6402C33.1359 43.2561 36.654 42.564 39.5377 42.564C44.3824 42.564 48.3043 43.3137 51.3034 44.8133C54.4178 46.3128 56.7824 48.2737 58.3973 50.6961C60.0122 53.1184 61.108 55.8868 61.6848 59.0012C62.2615 62.0003 62.5499 65.057 62.5499 68.1715V117.656C63.8187 117.656 65.1453 117.426 66.5294 116.964C67.9136 116.387 69.2978 116.099 70.682 116.099C71.9509 116.099 72.7583 116.33 73.1043 116.791C73.5657 117.253 73.7964 117.887 73.7964 118.694C73.7964 119.156 73.335 119.906 72.4123 120.944C71.4895 121.866 70.1629 122.847 68.4327 123.885C66.8178 124.923 64.9146 125.846 62.7229 126.653C60.5313 127.461 58.109 127.865 55.4559 127.865C53.2643 127.865 51.361 127.403 49.7461 126.48C48.1313 125.558 47.3238 124 47.3238 121.809V115.234C44.3247 118.925 41.0373 121.982 37.4615 124.404C33.8856 126.711 29.56 127.865 24.4847 127.865C20.2168 127.865 16.5256 127.23 13.4112 125.961C10.4121 124.693 7.93209 123.078 5.97116 121.117C4.12557 119.04 2.74138 116.849 1.81859 114.542C1.01114 112.119 0.607422 109.813 0.607422 107.621ZM16.8716 101.911C16.8716 106.525 18.0251 110.389 20.3321 113.504C22.6391 116.618 26.907 118.175 33.1359 118.175C35.4429 118.175 37.8652 117.31 40.4029 115.58C43.0559 113.85 45.3629 111.6 47.3238 108.832V85.4738C44.094 85.5892 40.6912 85.9352 37.1154 86.512C33.5396 86.9734 30.2521 87.7808 27.2531 88.9343C24.254 90.0878 21.774 91.7027 19.813 93.779C17.8521 95.8553 16.8716 98.566 16.8716 101.911Z" fill="#FAF2E7"/>
<path d="M423.977 218.768C423.054 218.768 422.162 218.491 421.301 217.937C420.44 217.322 419.732 216.492 419.179 215.446C418.625 214.338 418.348 213.047 418.348 211.57C418.348 210.647 418.502 209.355 418.81 207.694C419.179 205.972 419.702 203.819 420.378 201.235C420.501 200.374 420.594 199.82 420.655 199.574C420.778 199.328 420.84 199.082 420.84 198.836C420.84 198.712 420.809 198.62 420.747 198.559C420.747 198.436 420.686 198.374 420.563 198.374C420.071 198.374 419.394 198.712 418.533 199.389C417.733 200.004 416.81 200.743 415.764 201.604C415.58 201.727 415.365 201.881 415.118 202.065C414.934 202.25 414.719 202.434 414.472 202.619C414.288 202.804 414.073 202.988 413.827 203.173C413.211 203.542 412.258 204.249 410.966 205.295C409.735 206.341 408.444 207.448 407.09 208.617C405.798 209.786 404.66 210.77 403.676 211.57C403.184 211.939 402.753 212.247 402.384 212.493C402.076 212.739 401.861 212.862 401.738 212.862C401.615 212.862 401.123 212.708 400.261 212.401C399.462 212.031 398.662 211.539 397.862 210.924C397.124 210.247 396.755 209.478 396.755 208.617C396.755 208.063 396.97 206.956 397.401 205.295C397.893 203.634 398.57 201.665 399.431 199.389C400.292 197.113 401.277 194.806 402.384 192.468C402.63 191.915 402.815 191.176 402.938 190.254C403.061 189.331 403.184 188.439 403.307 187.577C403.491 186.655 403.799 185.978 404.229 185.547C404.414 185.24 404.629 185.024 404.875 184.901C405.183 184.717 405.491 184.625 405.798 184.625C406.413 184.625 406.998 184.778 407.552 185.086C408.105 185.332 408.628 185.763 409.12 186.378C410.043 187.362 410.535 188.531 410.597 189.884C410.72 191.176 410.628 192.437 410.32 193.668C410.012 194.898 409.674 195.913 409.305 196.713C408.936 197.451 408.751 197.759 408.751 197.636C408.997 197.513 409.336 197.205 409.766 196.713C410.258 196.221 411.089 195.637 412.258 194.96C413.857 193.729 415.088 192.868 415.949 192.376C416.81 191.822 417.456 191.422 417.887 191.176C418.379 190.93 418.81 190.653 419.179 190.346C419.486 190.1 419.702 189.946 419.825 189.884C420.009 189.823 420.102 189.792 420.102 189.792C420.286 189.792 420.594 189.669 421.024 189.423C421.516 189.177 421.978 189.054 422.409 189.054C423.024 189.054 423.67 189.208 424.346 189.515C425.023 189.761 425.608 190.131 426.1 190.623C426.592 191.053 426.838 191.515 426.838 192.007C426.838 192.191 426.899 192.345 427.022 192.468C427.146 192.591 427.269 192.745 427.392 192.93C427.699 193.299 428.038 193.822 428.407 194.498C428.837 195.114 429.053 196.129 429.053 197.544C429.053 198.528 428.837 199.974 428.407 201.881C427.976 203.788 427.515 205.664 427.022 207.51C426.53 209.417 426.284 210.955 426.284 212.124C426.346 213.231 426.469 214.092 426.653 214.708C426.838 215.261 426.93 215.723 426.93 216.092C426.93 216.584 426.684 217.168 426.192 217.845C425.7 218.46 424.962 218.768 423.977 218.768Z" fill="#FAF2E7"/>
<path d="M355.572 217.199C355.326 216.707 354.772 216.215 353.911 215.723C353.111 215.231 352.711 214.862 352.711 214.615C352.711 214.369 352.557 214 352.25 213.508C352.004 212.954 351.758 212.555 351.511 212.308C351.204 211.939 351.296 211.047 351.788 209.632C352.28 208.156 353.019 206.372 354.003 204.28C354.987 202.188 356.064 200.066 357.233 197.913C357.725 197.421 358.217 196.775 358.709 195.975C359.201 195.175 359.571 194.652 359.817 194.406C359.817 194.16 359.909 193.945 360.093 193.76C360.278 193.514 360.493 193.391 360.739 193.391L361.478 191.915C361.601 191.669 361.97 191.177 362.585 190.438C363.262 189.7 364.061 188.9 364.984 188.039C365.907 187.116 366.83 186.255 367.753 185.455C368.737 184.655 369.537 184.071 370.152 183.702C371.444 182.841 372.766 182.441 374.12 182.502C375.535 182.564 376.734 182.994 377.719 183.794C377.903 183.979 378.303 184.348 378.918 184.902C379.595 185.455 380.333 186.07 381.133 186.747C381.994 187.424 382.733 188.039 383.348 188.593L386.762 191.638L385.193 196.252C384.394 198.713 384.178 200.866 384.547 202.711C384.917 204.557 385.501 206.157 386.301 207.51C386.608 208.187 387.008 208.71 387.5 209.079C388.054 209.448 388.762 209.694 389.623 209.817C390.115 209.878 390.576 210.063 391.007 210.371C391.438 210.678 391.653 211.17 391.653 211.847C391.653 213.324 391.376 214.4 390.822 215.077C390.33 215.692 389.777 216.061 389.161 216.184C387.131 216.43 385.193 216.215 383.348 215.538C381.502 214.862 379.841 213.108 378.365 210.278C378.119 209.909 377.78 209.232 377.35 208.248C376.981 207.202 376.765 206.526 376.704 206.218C376.458 206.526 376.119 206.925 375.689 207.418C375.319 207.848 374.95 208.248 374.581 208.617C370.213 213.047 366.461 215.938 363.323 217.292C360.247 218.583 357.663 218.553 355.572 217.199ZM360.647 209.54C361.078 209.602 361.754 209.386 362.677 208.894C363.6 208.34 364.83 207.448 366.368 206.218C368.46 204.434 370.183 202.957 371.536 201.789C372.889 200.62 374.212 199.113 375.504 197.267L377.534 193.945C376.919 192.53 376.365 191.607 375.873 191.176C375.381 190.746 374.889 190.531 374.397 190.531C373.597 190.531 372.643 191.053 371.536 192.099C370.429 193.084 369.168 194.56 367.753 196.529C366.399 198.436 364.861 200.835 363.139 203.726C362.339 205.08 361.724 206.403 361.293 207.694C360.862 208.925 360.647 209.54 360.647 209.54Z" fill="#FAF2E7"/>
<path d="M313.96 240.638C313.714 240.638 313.345 240.638 312.853 240.638C312.422 240.7 312.053 240.454 311.745 239.9C311.499 239.592 311.13 238.977 310.638 238.054C310.146 237.193 310.053 235.963 310.361 234.363C310.669 233.317 310.915 232.271 311.099 231.226C311.284 230.241 311.376 229.503 311.376 229.011C311.376 228.765 311.438 228.273 311.561 227.534C311.745 226.858 311.838 226.366 311.838 226.058C312.145 225.566 312.391 224.889 312.576 224.028C312.76 223.167 312.853 222.398 312.853 221.721C312.853 220.983 313.222 220.306 313.96 219.691C313.96 219.199 314.052 218.583 314.237 217.845C314.483 217.107 314.606 216.615 314.606 216.369C314.79 215.507 315.19 214 315.806 211.847C316.482 209.632 317.282 207.141 318.205 204.372C319.189 201.604 320.143 198.897 321.065 196.252C321.988 193.606 322.819 191.361 323.557 189.515C324.295 187.793 324.91 186.193 325.403 184.717C325.895 183.24 326.141 182.195 326.141 181.579C326.141 181.333 326.202 181.149 326.325 181.026C326.448 180.841 326.725 180.503 327.156 180.011C327.771 179.395 328.571 179.18 329.555 179.365C330.601 179.488 331.462 179.795 332.139 180.287C332.631 181.087 332.969 181.825 333.154 182.502C333.4 183.117 333.4 184.102 333.154 185.455C333.154 186.378 332.939 187.239 332.508 188.039C332.077 188.777 331.678 189.392 331.308 189.885C331.001 190.315 330.909 190.5 331.032 190.438C333.738 188.777 336.168 187.885 338.322 187.762C340.536 187.578 342.382 187.947 343.858 188.869C345.396 189.731 346.565 190.93 347.365 192.468C348.165 194.006 348.565 195.667 348.565 197.451C348.565 198.19 348.319 199.174 347.826 200.404C347.334 201.635 346.781 202.804 346.165 203.911C345.55 204.957 345.058 205.664 344.689 206.033C344.443 206.033 344.197 206.249 343.951 206.679C343.705 207.048 343.459 207.479 343.212 207.971C342.72 208.586 341.89 209.294 340.721 210.094C339.614 210.832 338.475 211.447 337.307 211.939C336.138 212.37 335.307 212.493 334.815 212.308C334.815 212.308 334.723 212.37 334.538 212.493C334.415 212.616 334.354 212.831 334.354 213.139C334.354 213.262 333.923 213.508 333.062 213.877C332.2 214.246 331.185 214.585 330.017 214.892C328.848 215.2 327.771 215.354 326.787 215.354C325.495 215.354 324.572 215.108 324.018 214.615C323.895 214.738 323.742 214.923 323.557 215.169C323.434 215.415 323.372 215.63 323.372 215.815C323.372 216.184 323.219 216.769 322.911 217.568C322.665 218.368 322.357 219.076 321.988 219.691C321.619 220.367 321.281 220.706 320.973 220.706C320.973 220.706 320.912 220.798 320.789 220.983C320.666 221.167 320.727 221.413 320.973 221.721C320.973 221.721 320.942 222.059 320.881 222.736C320.881 223.474 320.727 224.089 320.419 224.582C320.419 225.074 320.327 225.812 320.143 226.796C319.958 227.781 319.743 228.519 319.497 229.011C319.497 229.749 319.374 230.457 319.128 231.133C318.943 231.872 318.728 232.241 318.482 232.241C318.236 232.302 318.082 232.671 318.02 233.348C317.959 234.086 317.928 234.609 317.928 234.917C317.866 236.455 317.374 237.777 316.451 238.885C315.529 240.054 314.698 240.638 313.96 240.638ZM325.772 208.34C326.264 208.34 327.156 208.125 328.448 207.694C329.74 207.264 331.093 206.741 332.508 206.126C333.923 205.449 335.03 204.772 335.83 204.096C337.43 202.681 338.66 201.296 339.521 199.943C340.444 198.59 340.383 197.082 339.337 195.421C338.845 194.56 338.045 194.222 336.937 194.406C335.892 194.529 334.723 195.021 333.431 195.883C332.139 196.744 330.816 197.821 329.463 199.112C328.725 199.912 328.048 200.835 327.433 201.881C326.818 202.927 326.295 203.942 325.864 204.926C325.495 205.91 325.28 206.741 325.218 207.418C325.157 208.033 325.341 208.34 325.772 208.34Z" fill="#FAF2E7"/>
<path d="M270.572 218.307C268.173 217.323 266.512 215.723 265.589 213.508C264.666 211.294 264.42 208.341 264.851 204.65C264.974 202.742 264.912 201.481 264.666 200.866C264.42 200.189 263.959 199.543 263.282 198.928C263.097 198.682 262.667 198.282 261.99 197.729C261.313 197.113 261.006 196.652 261.067 196.344C261.006 195.914 261.098 195.391 261.344 194.776C261.59 194.099 261.806 193.73 261.99 193.668C262.421 193.484 262.851 193.268 263.282 193.022C263.774 192.776 264.143 192.715 264.389 192.838C264.635 192.838 265.005 192.992 265.497 193.299C266.05 193.607 266.327 193.884 266.327 194.13C266.573 194.56 266.942 194.376 267.435 193.576C267.988 192.776 268.573 191.761 269.188 190.531C269.803 189.547 270.572 188.624 271.495 187.762C272.418 186.901 273.34 186.132 274.263 185.456C275.248 184.717 276.078 184.164 276.755 183.794C277.062 183.671 277.647 183.487 278.508 183.241C279.431 182.995 280.384 182.81 281.369 182.687C282.353 182.503 283.091 182.441 283.583 182.503C284.691 182.564 285.86 183.025 287.09 183.887C288.32 184.748 289.274 185.548 289.951 186.286C290.75 186.84 291.273 187.701 291.519 188.87C291.827 189.977 291.95 191.146 291.889 192.376C291.827 193.607 291.581 194.653 291.15 195.514C290.966 196.129 290.32 196.99 289.212 198.098C288.105 199.205 286.875 200.282 285.521 201.328C284.229 202.312 283.122 202.989 282.199 203.358C281.399 203.542 280.446 203.696 279.339 203.819C278.231 203.881 277.185 203.881 276.201 203.819C275.278 203.696 274.632 203.542 274.263 203.358C273.833 203.112 273.463 203.204 273.156 203.635C272.91 204.004 272.694 205.049 272.51 206.772C272.448 207.449 272.448 208.033 272.51 208.525C272.633 209.017 272.756 209.387 272.879 209.633C273.31 210.371 273.74 210.925 274.171 211.294C274.602 211.601 275.401 211.694 276.57 211.571C277.739 211.448 278.908 210.74 280.077 209.448C281.307 208.095 282.415 207.018 283.399 206.218C283.645 205.788 284.168 205.511 284.968 205.388C285.829 205.203 286.844 205.265 288.013 205.572C288.69 206.003 288.997 206.68 288.936 207.603C288.936 208.525 288.443 209.879 287.459 211.663C287.275 212.093 286.752 212.739 285.89 213.601C285.091 214.4 284.199 215.231 283.214 216.092C282.292 216.892 281.523 217.476 280.907 217.846C279.062 218.83 277.247 219.291 275.463 219.23C273.679 219.168 272.049 218.861 270.572 218.307ZM277.401 197.544C278.324 197.298 279.093 197.052 279.708 196.806C280.384 196.56 281.03 196.16 281.646 195.606C282.261 195.053 282.968 194.222 283.768 193.115C284.014 192.438 284.137 191.854 284.137 191.361C284.199 190.869 284.168 190.562 284.045 190.439C283.553 189.946 282.999 189.793 282.384 189.977C281.83 190.1 281.215 190.408 280.538 190.9C280.108 191.085 279.492 191.484 278.693 192.1C277.954 192.653 277.216 193.299 276.478 194.037C275.801 194.714 275.248 195.36 274.817 195.975C274.448 196.529 274.386 196.867 274.632 196.99C274.509 197.236 274.848 197.39 275.647 197.452C276.509 197.513 277.093 197.544 277.401 197.544Z" fill="#FAF2E7"/>
<path d="M250.977 220.244C250.3 220.49 249.531 220.613 248.67 220.613C247.87 220.675 246.948 220.306 245.902 219.506C245.287 218.829 244.856 218.122 244.61 217.384C244.425 216.645 244.333 215.507 244.333 213.969C244.456 213.047 244.702 211.724 245.071 210.001C245.44 208.217 245.84 206.372 246.271 204.465C246.763 202.496 247.194 200.743 247.563 199.205C247.993 197.605 248.332 196.529 248.578 195.975C249.008 194.498 249.101 193.576 248.855 193.206C248.609 192.837 247.87 192.622 246.64 192.561C245.225 192.499 243.749 193.176 242.211 194.591C240.673 196.006 238.919 198.251 236.951 201.327C235.474 203.603 234.582 205.48 234.275 206.956C233.967 208.371 233.936 209.355 234.182 209.909C234.305 210.155 234.521 210.309 234.828 210.37C235.197 210.37 235.628 210.278 236.12 210.094C236.674 209.909 237.258 209.663 237.873 209.355C238.304 209.109 238.827 208.863 239.442 208.617C240.119 208.31 240.765 208.033 241.38 207.787C241.749 207.787 241.995 208.002 242.118 208.433C242.303 208.863 242.395 209.386 242.395 210.001C242.395 210.247 242.457 210.709 242.58 211.386C242.764 212.062 243.072 212.524 243.502 212.77C243.749 213.016 243.226 213.539 241.934 214.338C240.703 215.077 239.104 215.999 237.135 217.107C235.29 217.537 233.905 217.753 232.983 217.753C232.121 217.753 231.168 217.353 230.122 216.553C228.399 215.507 227.292 213.569 226.8 210.74C226.369 207.91 226.738 204.772 227.907 201.327C229.076 198.559 230.368 196.19 231.783 194.222C233.259 192.191 234.797 190.346 236.397 188.685C236.643 188.439 237.412 187.947 238.704 187.208C239.996 186.47 241.318 185.886 242.672 185.455C244.21 184.963 245.502 184.778 246.548 184.901C247.655 184.963 248.701 185.332 249.685 186.009C250.793 186.255 251.531 186.224 251.9 185.916C252.33 185.609 252.823 184.748 253.376 183.333C254.484 180.257 255.653 177.15 256.883 174.012C258.113 170.813 259.405 167.584 260.759 164.323C261.374 163.154 261.743 162.262 261.866 161.647C262.051 160.97 262.266 160.509 262.512 160.263L265.096 159.432C265.773 159.248 266.542 159.555 267.403 160.355C268.326 161.155 268.91 161.924 269.156 162.662C269.156 163.216 268.91 164.446 268.418 166.353C267.926 168.199 267.126 170.414 266.019 172.997C265.034 175.274 264.05 177.581 263.066 179.918C262.143 182.195 261.251 184.625 260.39 187.208C259.713 189.115 259.098 190.653 258.544 191.822C257.99 192.991 257.621 194.006 257.437 194.868C257.067 196.467 256.606 197.913 256.052 199.205C255.56 200.435 255.222 201.296 255.037 201.788C254.238 204.126 253.622 206.064 253.192 207.602C252.761 209.079 252.484 210.37 252.361 211.478C252.238 212.524 252.207 213.569 252.269 214.615C252.33 215.6 252.454 216.738 252.638 218.03C252.638 218.276 252.454 218.645 252.084 219.137C251.777 219.568 251.408 219.937 250.977 220.244Z" fill="#FAF2E7"/>
<path d="M175.277 217.845C174.785 217.968 174.139 218.03 173.339 218.03C172.539 217.968 171.832 217.876 171.217 217.753C170.663 217.568 170.386 217.384 170.386 217.199C170.386 216.891 170.232 216.738 169.925 216.738C169.925 216.738 169.586 216.492 168.91 215.999C168.233 215.446 167.618 215.046 167.064 214.8C166.51 213.939 166.141 212.954 165.957 211.847C165.834 210.678 166.203 208.648 167.064 205.756C167.126 203.788 167.679 201.727 168.725 199.574C169.771 197.359 171.094 195.206 172.693 193.114C174.293 191.022 175.954 189.177 177.676 187.577C179.399 185.916 180.937 184.686 182.29 183.886C183.151 183.025 184.289 182.564 185.704 182.502C187.181 182.441 188.473 182.717 189.58 183.333C190.195 183.64 190.872 184.255 191.61 185.178C192.349 186.101 193.056 187.085 193.733 188.131C194.409 189.115 194.932 190.007 195.301 190.807C195.486 191.484 195.64 192.099 195.763 192.653C195.947 193.145 196.07 193.76 196.132 194.498C196.194 195.237 196.132 196.344 195.947 197.82C195.64 198.928 195.363 200.066 195.117 201.235C194.932 202.342 194.84 203.48 194.84 204.649C194.717 205.818 194.84 206.648 195.209 207.141C195.64 207.633 196.255 207.664 197.055 207.233C197.793 206.864 198.562 206.833 199.362 207.141C200.162 207.387 200.715 207.879 201.023 208.617C201.392 209.294 201.3 210.186 200.746 211.293C200.377 212.093 199.792 212.862 198.993 213.6C198.193 214.338 197.301 214.954 196.317 215.446C195.332 215.876 194.379 216.092 193.456 216.092C192.779 216.092 192.102 215.846 191.426 215.353C190.749 214.8 190.134 214.062 189.58 213.139C189.026 212.216 188.565 211.201 188.196 210.094L187.642 207.971L184.32 211.016C183.52 211.878 182.721 212.677 181.921 213.416C181.183 214.092 180.721 214.584 180.537 214.892C180.229 215.446 179.614 215.938 178.691 216.369C177.83 216.799 176.692 217.291 175.277 217.845ZM177.768 208.986C178.814 208.371 179.706 207.633 180.445 206.771C181.244 205.91 182.013 204.957 182.751 203.911C183.49 202.803 184.289 201.635 185.151 200.404C186.197 198.989 186.935 197.851 187.365 196.99C187.858 196.129 188.227 195.206 188.473 194.222C188.227 193.545 187.888 192.837 187.458 192.099C187.027 191.299 186.596 190.869 186.166 190.807C185.305 190.807 184.259 191.33 183.028 192.376C181.859 193.422 180.568 194.929 179.153 196.898C178.907 197.205 178.599 197.697 178.23 198.374C177.861 199.051 177.492 199.697 177.122 200.312C176.815 200.866 176.6 201.235 176.477 201.419C176.292 201.665 176.015 202.25 175.646 203.173C175.338 204.034 175.062 204.926 174.815 205.849C174.569 206.71 174.446 207.325 174.446 207.694C174.446 208.063 174.477 208.463 174.539 208.894C174.662 209.325 174.969 209.601 175.461 209.724C175.954 209.847 176.723 209.601 177.768 208.986Z" fill="#FAF2E7"/>
<path d="M143.476 219.691C141.508 219.691 139.693 219.26 138.032 218.399C136.432 217.476 135.14 216.369 134.156 215.077C133.172 213.724 132.68 212.432 132.68 211.201C132.68 210.648 132.772 210.248 132.957 210.002C133.203 209.755 133.541 209.632 133.972 209.632C134.279 209.694 134.648 209.848 135.079 210.094C135.51 210.34 135.94 210.617 136.371 210.924C137.355 211.601 138.432 212.032 139.601 212.216C140.77 212.401 141.815 212.339 142.738 212.032C143.661 211.663 144.184 211.109 144.307 210.371C144.307 210.125 144.184 209.602 143.938 208.802C143.692 208.002 143.384 207.233 143.015 206.495C141.477 204.219 140.523 202.066 140.154 200.035C139.785 197.944 139.539 195.852 139.416 193.76C139.416 192.899 139.816 191.946 140.616 190.9C141.415 189.792 142.4 188.716 143.569 187.67C144.861 186.563 146.275 185.517 147.813 184.532C149.413 183.548 150.982 182.718 152.52 182.041C154.058 181.364 155.35 180.964 156.395 180.841C157.503 180.841 158.672 180.903 159.902 181.026C161.194 181.087 162.055 181.303 162.486 181.672C163.347 182.349 164.147 183.456 164.885 184.994C165.623 186.532 165.993 187.824 165.993 188.87C165.993 189.362 165.716 189.977 165.162 190.715C164.67 191.392 164.208 192.161 163.778 193.022C163.532 193.453 163.316 193.914 163.132 194.406C162.947 194.899 162.732 195.391 162.486 195.883C162.117 196.744 161.44 197.113 160.456 196.99C159.533 196.806 158.672 196.313 157.872 195.514C157.072 194.652 156.672 193.668 156.672 192.561C156.672 191.638 156.949 190.838 157.503 190.162C158.056 189.485 158.333 189.023 158.333 188.777C158.333 188.654 158.272 188.562 158.149 188.5C158.026 188.439 157.81 188.408 157.503 188.408C157.072 188.408 156.365 188.593 155.38 188.962C154.458 189.269 153.473 189.731 152.427 190.346C151.382 190.961 150.428 191.7 149.567 192.561C148.952 193.237 148.429 193.976 147.998 194.775C147.629 195.514 147.444 196.313 147.444 197.175C147.444 198.036 147.598 199.051 147.906 200.22C148.275 201.327 148.675 202.25 149.105 202.988C149.228 203.111 149.413 203.45 149.659 204.003C149.967 204.496 150.305 205.111 150.674 205.849C152.95 210.524 153.319 214 151.781 216.277C150.305 218.553 147.537 219.691 143.476 219.691Z" fill="#FAF2E7"/>
<path d="M92.143 217.199C91.8969 216.707 91.3433 216.215 90.482 215.723C89.6822 215.231 89.2824 214.862 89.2824 214.615C89.2824 214.369 89.1286 214 88.821 213.508C88.5749 212.954 88.3288 212.555 88.0827 212.308C87.7751 211.939 87.8674 211.047 88.3596 209.632C88.8517 208.156 89.59 206.372 90.5743 204.28C91.5586 202.188 92.6352 200.066 93.804 197.913C94.2962 197.421 94.7884 196.775 95.2805 195.975C95.7727 195.175 96.1418 194.652 96.3879 194.406C96.3879 194.16 96.4802 193.945 96.6647 193.76C96.8493 193.514 97.0646 193.391 97.3107 193.391L98.0489 191.915C98.1719 191.669 98.5411 191.177 99.1563 190.438C99.833 189.7 100.633 188.9 101.556 188.039C102.478 187.116 103.401 186.255 104.324 185.455C105.308 184.655 106.108 184.071 106.723 183.702C108.015 182.841 109.338 182.441 110.691 182.502C112.106 182.564 113.306 182.994 114.29 183.794C114.475 183.979 114.874 184.348 115.49 184.902C116.166 185.455 116.905 186.07 117.704 186.747C118.566 187.424 119.304 188.039 119.919 188.593L123.333 191.638L121.765 196.252C120.965 198.713 120.75 200.866 121.119 202.711C121.488 204.557 122.072 206.157 122.872 207.51C123.18 208.187 123.58 208.71 124.072 209.079C124.625 209.448 125.333 209.694 126.194 209.817C126.686 209.878 127.148 210.063 127.578 210.371C128.009 210.678 128.224 211.17 128.224 211.847C128.224 213.324 127.947 214.4 127.394 215.077C126.902 215.692 126.348 216.061 125.733 216.184C123.703 216.43 121.765 216.215 119.919 215.538C118.073 214.862 116.412 213.108 114.936 210.278C114.69 209.909 114.352 209.232 113.921 208.248C113.552 207.202 113.336 206.526 113.275 206.218C113.029 206.526 112.691 206.925 112.26 207.418C111.891 207.848 111.522 208.248 111.153 208.617C106.785 213.047 103.032 215.938 99.8945 217.292C96.8185 218.583 94.2347 218.553 92.143 217.199ZM97.2184 209.54C97.649 209.602 98.3257 209.386 99.2485 208.894C100.171 208.34 101.402 207.448 102.94 206.218C105.031 204.434 106.754 202.957 108.107 201.789C109.461 200.62 110.783 199.113 112.075 197.267L114.105 193.945C113.49 192.53 112.937 191.607 112.444 191.176C111.952 190.746 111.46 190.531 110.968 190.531C110.168 190.531 109.215 191.053 108.107 192.099C107 193.084 105.739 194.56 104.324 196.529C102.97 198.436 101.432 200.835 99.7099 203.726C98.9102 205.08 98.295 206.403 97.8643 207.694C97.4337 208.925 97.2184 209.54 97.2184 209.54Z" fill="#FAF2E7"/>
<path d="M65.6348 219.506C63.8508 219.814 62.0667 219.66 60.2826 219.045C58.5601 218.43 57.1144 217.446 55.9455 216.092C54.8382 214.677 54.2845 212.985 54.2845 211.017C54.0999 209.171 54.2537 206.987 54.7459 204.465C55.2996 201.881 56.0993 199.297 57.1451 196.713C58.2525 194.13 59.5136 191.946 60.9286 190.162C62.159 188.685 63.3894 187.332 64.6198 186.101C65.8502 184.871 66.9575 184.04 67.9418 183.61C68.8031 183.241 69.8489 182.964 71.0793 182.779C72.3712 182.533 73.2633 182.41 73.7554 182.41C74.7397 182.656 75.8163 183.056 76.9852 183.61C78.2156 184.163 78.8308 184.809 78.8308 185.548C78.8308 185.548 78.8923 185.64 79.0153 185.824C79.1999 185.948 79.2922 186.009 79.2922 186.009C79.6613 186.009 80.0612 186.47 80.4918 187.393C80.984 188.255 81.3531 189.27 81.5992 190.438C81.8452 191.546 81.7837 192.438 81.4146 193.115C81.1685 194.283 80.6764 195.422 79.9381 196.529C79.2614 197.636 78.677 198.19 78.1848 198.19C77.9387 198.19 77.6927 198.221 77.4466 198.282C77.262 198.282 77.1697 198.436 77.1697 198.744C77.1697 199.051 76.8314 199.205 76.1547 199.205C75.5395 199.205 74.8935 199.082 74.2168 198.836C73.5401 198.59 73.1095 198.221 72.9249 197.729C72.9249 197.421 72.9864 197.021 73.1095 196.529C73.2325 196.037 73.4171 195.206 73.6631 194.037C74.0323 192.315 74.063 191.177 73.7554 190.623C73.4478 190.008 72.6788 189.946 71.4484 190.438C69.9104 191.3 68.6493 192.315 67.665 193.484C66.6807 194.591 65.7886 196.16 64.9889 198.19C64.2506 200.22 63.4201 203.05 62.4973 206.68C62.1282 208.095 62.0667 209.202 62.3128 210.002C62.6204 210.801 62.8665 211.232 63.051 211.294C63.9123 211.54 64.8351 211.601 65.8194 211.478C66.8652 211.294 67.7265 211.017 68.4032 210.648C69.3875 210.155 70.2488 209.633 70.987 209.079C71.7868 208.464 72.6481 207.818 73.5709 207.141C73.8785 206.956 74.1553 206.618 74.4014 206.126C74.6475 205.572 75.0166 205.172 75.5087 204.926C76.0009 204.188 76.6161 203.819 77.3543 203.819C78.1541 203.757 78.9231 203.727 79.6613 203.727C80.1534 203.85 80.6764 204.157 81.23 204.649C81.7837 205.142 82.1836 205.634 82.4297 206.126C82.7373 206.557 82.7065 206.864 82.3374 207.049C82.0913 207.049 81.9375 207.141 81.876 207.326C81.876 207.449 81.876 207.51 81.876 207.51C81.999 207.756 81.7222 208.31 81.0455 209.171C80.4303 210.032 79.6305 210.955 78.6462 211.94C77.6619 212.924 76.7084 213.785 75.7856 214.523C74.9243 215.2 74.3091 215.538 73.94 215.538C73.3248 215.538 73.0172 215.723 73.0172 216.092C73.0172 216.215 72.5558 216.523 71.633 217.015C70.7717 217.507 69.7566 217.999 68.5878 218.491C67.4804 218.984 66.4961 219.322 65.6348 219.506Z" fill="#FAF2E7"/>
</svg>
