<svg width="602" height="162" viewBox="0 0 602 162" fill="none" xmlns="http://www.w3.org/2000/svg">
<rect x="515.529" y="70.8696" width="5.0625" height="5.0625" fill="#E6E8E6"/>
<rect x="520.592" y="65.8125" width="5.0625" height="5.0625" fill="#E6E8E6"/>
<rect x="525.654" y="65.8125" width="5.0625" height="5.0625" fill="#E6E8E6"/>
<rect x="525.654" y="86.0625" width="5.0625" height="5.0625" fill="#E6E8E6"/>
<rect x="505.404" y="86.0625" width="5.0625" height="5.0625" fill="#E6E8E6"/>
<rect x="490.217" y="81" width="5.0625" height="5.0625" fill="#E6E8E6"/>
<rect x="490.217" y="75.9375" width="5.0625" height="5.0625" fill="#E6E8E6"/>
<rect x="490.217" y="70.8696" width="5.0625" height="5.0625" fill="#E6E8E6"/>
<rect x="490.217" y="65.8125" width="5.0625" height="5.0625" fill="#E6E8E6"/>
<rect x="490.217" y="60.75" width="5.0625" height="5.0625" fill="#E6E8E6"/>
<rect x="490.217" y="55.6929" width="5.0625" height="5.0625" fill="#E6E8E6"/>
<rect x="490.217" y="50.625" width="5.0625" height="5.0625" fill="#E6E8E6"/>
<rect x="490.217" y="45.5625" width="5.0625" height="5.0625" fill="#E6E8E6"/>
<rect x="490.217" y="40.5" width="5.0625" height="5.0625" fill="#E6E8E6"/>
<rect x="490.217" y="35.4375" width="5.0625" height="5.0625" fill="#E6E8E6"/>
<rect x="490.217" y="30.375" width="5.0625" height="5.0625" fill="#E6E8E6"/>
<rect x="490.217" y="25.3125" width="5.0625" height="5.0625" fill="#E6E8E6"/>
<rect x="490.217" y="20.25" width="5.0625" height="5.0625" fill="#E6E8E6"/>
<rect x="490.217" y="15.1875" width="5.0625" height="5.0625" fill="#E6E8E6"/>
<rect x="500.342" y="15.1875" width="5.0625" height="5.0625" fill="#E6E8E6"/>
<rect x="505.404" y="15.1875" width="5.0625" height="5.0625" fill="#E6E8E6"/>
<rect x="510.467" y="15.1875" width="5.0625" height="5.0625" fill="#E6E8E6"/>
<rect x="515.529" y="15.1875" width="5.0625" height="5.0625" fill="#E6E8E6"/>
<rect x="520.592" y="15.1875" width="5.0625" height="5.0625" fill="#E6E8E6"/>
<rect x="495.279" y="15.1875" width="5.0625" height="5.0625" fill="#E6E8E6"/>
<rect x="545.904" y="86.0625" width="5.0625" height="5.0625" fill="#E6E8E6"/>
<rect x="566.154" y="86.0625" width="5.0625" height="5.0625" fill="#E6E8E6"/>
<rect x="525.654" y="15.1875" width="5.0625" height="5.0625" fill="#E6E8E6"/>
<rect x="530.717" y="65.8125" width="5.0625" height="5.0625" fill="#E6E8E6"/>
<rect x="530.717" y="86.0625" width="5.0625" height="5.0625" fill="#E6E8E6"/>
<rect x="510.467" y="86.0625" width="5.0625" height="5.0625" fill="#E6E8E6"/>
<rect x="550.967" y="86.0625" width="5.0625" height="5.0625" fill="#E6E8E6"/>
<rect x="571.217" y="86.0625" width="5.0625" height="5.0625" fill="#E6E8E6"/>
<rect x="530.717" y="15.1875" width="5.0625" height="5.0625" fill="#E6E8E6"/>
<rect x="535.779" y="65.8125" width="5.0625" height="5.0625" fill="#E6E8E6"/>
<rect x="535.779" y="86.0625" width="5.0625" height="5.0625" fill="#E6E8E6"/>
<rect x="515.529" y="86.0625" width="5.0625" height="5.0625" fill="#E6E8E6"/>
<rect x="495.279" y="86.0625" width="5.0625" height="5.0625" fill="#E6E8E6"/>
<rect x="556.029" y="86.0625" width="5.0625" height="5.0625" fill="#E6E8E6"/>
<rect x="576.279" y="86.0625" width="5.0625" height="5.0625" fill="#E6E8E6"/>
<rect x="535.779" y="15.1875" width="5.0625" height="5.0625" fill="#E6E8E6"/>
<rect x="540.842" y="65.8125" width="5.0625" height="5.0625" fill="#E6E8E6"/>
<rect x="540.842" y="86.0625" width="5.0625" height="5.0625" fill="#E6E8E6"/>
<rect x="520.592" y="86.0625" width="5.0625" height="5.0625" fill="#E6E8E6"/>
<rect x="500.342" y="86.0625" width="5.0625" height="5.0625" fill="#E6E8E6"/>
<rect x="561.092" y="86.0625" width="5.0625" height="5.0625" fill="#E6E8E6"/>
<rect x="581.342" y="81" width="5.0625" height="5.0625" fill="#E6E8E6"/>
<rect x="581.342" y="75.9375" width="5.0625" height="5.0625" fill="#E6E8E6"/>
<rect x="581.342" y="70.8696" width="5.0625" height="5.0625" fill="#E6E8E6"/>
<rect x="581.342" y="65.8125" width="5.0625" height="5.0625" fill="#E6E8E6"/>
<rect x="581.342" y="60.75" width="5.0625" height="5.0625" fill="#E6E8E6"/>
<rect x="581.342" y="55.6929" width="5.0625" height="5.0625" fill="#E6E8E6"/>
<rect x="581.342" y="50.625" width="5.0625" height="5.0625" fill="#E6E8E6"/>
<rect x="581.342" y="45.5625" width="5.0625" height="5.0625" fill="#E6E8E6"/>
<rect x="581.342" y="40.5" width="5.0625" height="5.0625" fill="#E6E8E6"/>
<rect x="581.342" y="35.4375" width="5.0625" height="5.0625" fill="#E6E8E6"/>
<rect x="581.342" y="30.375" width="5.0625" height="5.0625" fill="#E6E8E6"/>
<rect x="581.342" y="25.3125" width="5.0625" height="5.0625" fill="#E6E8E6"/>
<rect x="581.342" y="20.25" width="5.0625" height="5.0625" fill="#E6E8E6"/>
<rect x="576.279" y="15.1875" width="5.0625" height="5.0625" fill="#E6E8E6"/>
<rect x="581.342" width="5.0625" height="5.0625" fill="#E6E8E6"/>
<rect width="5.0625" height="5.0625" transform="matrix(-1 0 0 1 495.279 0)" fill="#E6E8E6"/>
<rect width="5.0625" height="5.0625" transform="matrix(-1 0 0 1 500.342 0)" fill="#E6E8E6"/>
<rect width="5.0625" height="5.0625" transform="matrix(-1 0 0 1 505.404 0)" fill="#E6E8E6"/>
<rect width="5.0625" height="5.0625" transform="matrix(-1 0 0 1 510.467 0)" fill="#E6E8E6"/>
<rect width="5.0625" height="5.0625" transform="matrix(-1 0 0 1 515.529 0)" fill="#E6E8E6"/>
<rect width="5.0625" height="5.0625" transform="matrix(-1 0 0 1 520.592 0)" fill="#E6E8E6"/>
<rect width="5.0625" height="5.0625" transform="matrix(-1 0 0 1 525.654 0)" fill="#E6E8E6"/>
<rect width="5.0625" height="5.0625" transform="matrix(-1 0 0 1 530.717 0)" fill="#E6E8E6"/>
<rect width="5.0625" height="5.0625" transform="matrix(-1 0 0 1 535.779 0)" fill="#E6E8E6"/>
<rect width="5.0625" height="5.0625" transform="matrix(-1 0 0 1 540.842 0)" fill="#E6E8E6"/>
<rect width="5.0625" height="5.0625" transform="matrix(-1 0 0 1 545.904 0)" fill="#E6E8E6"/>
<rect width="5.0625" height="5.0625" transform="matrix(-1 0 0 1 550.967 0)" fill="#E6E8E6"/>
<rect width="5.0625" height="5.0625" transform="matrix(-1 0 0 1 556.029 0)" fill="#E6E8E6"/>
<rect width="5.0625" height="5.0625" transform="matrix(-1 0 0 1 561.092 0)" fill="#E6E8E6"/>
<rect width="5.0625" height="5.0625" transform="matrix(-1 0 0 1 566.154 0)" fill="#E6E8E6"/>
<rect width="5.0625" height="5.0625" transform="matrix(-1 0 0 1 571.217 0)" fill="#E6E8E6"/>
<rect width="5.0625" height="5.0625" transform="matrix(-1 0 0 1 576.279 0)" fill="#E6E8E6"/>
<rect width="5.0625" height="5.0625" transform="matrix(-1 0 0 1 581.342 0)" fill="#E6E8E6"/>
<rect x="586.404" width="5.0625" height="5.0625" fill="#E6E8E6"/>
<rect width="5.0625" height="5.0625" transform="matrix(-1 0 0 1 490.217 0)" fill="#E6E8E6"/>
<rect x="591.467" y="5.0625" width="5.0625" height="5.0625" fill="#E6E8E6"/>
<rect width="5.0625" height="5.0625" transform="matrix(-1 0 0 1 485.154 5.0625)" fill="#E6E8E6"/>
<rect x="596.529" y="10.125" width="5.0625" height="5.0625" fill="#E6E8E6"/>
<rect width="5.0625" height="5.0625" transform="matrix(-1 0 0 1 480.092 10.125)" fill="#E6E8E6"/>
<rect x="596.529" y="15.1875" width="5.0625" height="5.0625" fill="#E6E8E6"/>
<rect width="5.0625" height="5.0625" transform="matrix(-1 0 0 1 480.092 15.1875)" fill="#E6E8E6"/>
<rect width="5.0625" height="5.0625" transform="matrix(-1 0 0 1 480.092 20.25)" fill="#E6E8E6"/>
<rect width="5.0625" height="5.0625" transform="matrix(-1 0 0 1 601.592 20.25)" fill="#E6E8E6"/>
<rect width="5.0625" height="5.0625" transform="matrix(-1 0 0 1 480.092 25.3125)" fill="#E6E8E6"/>
<rect width="5.0625" height="5.0625" transform="matrix(-1 0 0 1 601.592 25.3125)" fill="#E6E8E6"/>
<rect width="5.0625" height="5.0625" transform="matrix(-1 0 0 1 480.092 30.375)" fill="#E6E8E6"/>
<rect width="5.0625" height="5.0625" transform="matrix(-1 0 0 1 601.592 30.375)" fill="#E6E8E6"/>
<rect width="5.0625" height="5.0625" transform="matrix(-1 0 0 1 480.092 35.4375)" fill="#E6E8E6"/>
<rect width="5.0625" height="5.0625" transform="matrix(-1 0 0 1 601.592 35.4375)" fill="#E6E8E6"/>
<rect width="5.0625" height="5.0625" transform="matrix(-1 0 0 1 480.092 40.5)" fill="#E6E8E6"/>
<rect width="5.0625" height="5.0625" transform="matrix(-1 0 0 1 601.592 40.5)" fill="#E6E8E6"/>
<rect width="5.0625" height="5.0625" transform="matrix(-1 0 0 1 480.092 45.5625)" fill="#E6E8E6"/>
<rect width="5.0625" height="5.0625" transform="matrix(-1 0 0 1 601.592 45.5625)" fill="#E6E8E6"/>
<rect width="5.0625" height="5.0625" transform="matrix(-1 0 0 1 480.092 50.625)" fill="#E6E8E6"/>
<rect width="5.0625" height="5.0625" transform="matrix(-1 0 0 1 601.592 50.625)" fill="#E6E8E6"/>
<rect width="5.0625" height="5.0625" transform="matrix(-1 0 0 1 480.092 55.6929)" fill="#E6E8E6"/>
<rect width="5.0625" height="5.0625" transform="matrix(-1 0 0 1 601.592 55.6929)" fill="#E6E8E6"/>
<rect width="5.0625" height="5.0625" transform="matrix(-1 0 0 1 480.092 60.75)" fill="#E6E8E6"/>
<rect width="5.0625" height="5.0625" transform="matrix(-1 0 0 1 601.592 60.75)" fill="#E6E8E6"/>
<rect width="5.0625" height="5.0625" transform="matrix(-1 0 0 1 480.092 65.8125)" fill="#E6E8E6"/>
<rect width="5.0625" height="5.0625" transform="matrix(-1 0 0 1 601.592 65.8125)" fill="#E6E8E6"/>
<rect width="5.0625" height="5.0625" transform="matrix(-1 0 0 1 480.092 70.8696)" fill="#E6E8E6"/>
<rect width="5.0625" height="5.0625" transform="matrix(-1 0 0 1 601.592 70.8696)" fill="#E6E8E6"/>
<rect width="5.0625" height="5.0625" transform="matrix(-1 0 0 1 480.092 75.9375)" fill="#E6E8E6"/>
<rect width="5.0625" height="5.0625" transform="matrix(-1 0 0 1 601.592 75.9375)" fill="#E6E8E6"/>
<rect width="5.0625" height="5.0625" transform="matrix(-1 0 0 1 480.092 81)" fill="#E6E8E6"/>
<rect width="5.0625" height="5.0625" transform="matrix(-1 0 0 1 601.592 81)" fill="#E6E8E6"/>
<rect width="5.0625" height="5.0625" transform="matrix(-1 0 0 1 480.092 86.0625)" fill="#E6E8E6"/>
<rect width="5.0625" height="5.0625" transform="matrix(-1 0 0 1 601.592 86.0625)" fill="#E6E8E6"/>
<rect width="5.0625" height="5.0625" transform="matrix(-1 0 0 1 480.092 91.125)" fill="#E6E8E6"/>
<rect width="5.0625" height="5.0625" transform="matrix(-1 0 0 1 480.092 96.1875)" fill="#E6E8E6"/>
<rect width="5.0625" height="5.0625" transform="matrix(-1 0 0 1 601.592 96.1875)" fill="#E6E8E6"/>
<rect width="5.0625" height="5.0625" transform="matrix(-1 0 0 1 480.092 101.25)" fill="#E6E8E6"/>
<rect width="5.0625" height="5.0625" transform="matrix(-1 0 0 1 601.592 101.25)" fill="#E6E8E6"/>
<rect width="5.0625" height="5.0625" transform="matrix(-1 0 0 1 480.092 106.312)" fill="#E6E8E6"/>
<rect width="5.0625" height="5.0625" transform="matrix(-1 0 0 1 601.592 106.312)" fill="#E6E8E6"/>
<rect width="5.0625" height="5.0625" transform="matrix(-1 0 0 1 480.092 111.375)" fill="#E6E8E6"/>
<rect width="5.0625" height="5.0625" transform="matrix(-1 0 0 1 601.592 111.375)" fill="#E6E8E6"/>
<rect width="5.0625" height="5.0625" transform="matrix(-1 0 0 1 480.092 116.438)" fill="#E6E8E6"/>
<rect width="5.0625" height="5.0625" transform="matrix(-1 0 0 1 480.092 121.5)" fill="#E6E8E6"/>
<rect width="5.0625" height="5.0625" transform="matrix(-1 0 0 1 480.092 126.562)" fill="#E6E8E6"/>
<rect width="5.0625" height="5.0625" transform="matrix(-1 0 0 1 480.092 131.625)" fill="#E6E8E6"/>
<rect width="5.0625" height="5.0625" transform="matrix(-1 0 0 1 601.592 131.625)" fill="#E6E8E6"/>
<rect width="5.0625" height="5.0625" transform="matrix(-1 0 0 1 485.154 136.688)" fill="#E6E8E6"/>
<rect width="5.0625" height="5.0625" transform="matrix(-1 0 0 1 485.154 141.755)" fill="#E6E8E6"/>
<rect width="5.0625" height="5.0625" transform="matrix(-1 0 0 1 485.154 146.812)" fill="#E6E8E6"/>
<rect width="5.0625" height="5.0625" transform="matrix(-1 0 0 1 485.154 151.875)" fill="#E6E8E6"/>
<rect width="5.0625" height="5.0625" transform="matrix(-1 0 0 1 485.154 156.938)" fill="#E6E8E6"/>
<rect width="5.0625" height="5.0625" transform="matrix(-1 0 0 1 596.529 156.938)" fill="#E6E8E6"/>
<rect width="5.0625" height="5.0625" transform="matrix(-1 0 0 1 490.217 156.938)" fill="#E6E8E6"/>
<rect width="5.0625" height="5.0625" transform="matrix(-1 0 0 1 495.279 156.938)" fill="#E6E8E6"/>
<rect width="5.0625" height="5.0625" transform="matrix(-1 0 0 1 500.342 156.938)" fill="#E6E8E6"/>
<rect width="5.0625" height="5.0625" transform="matrix(-1 0 0 1 505.404 156.938)" fill="#E6E8E6"/>
<rect width="5.0625" height="5.0625" transform="matrix(-1 0 0 1 510.467 156.938)" fill="#E6E8E6"/>
<rect width="5.0625" height="5.0625" transform="matrix(-1 0 0 1 515.529 156.938)" fill="#E6E8E6"/>
<rect width="5.0625" height="5.0625" transform="matrix(-1 0 0 1 520.592 156.938)" fill="#E6E8E6"/>
<rect width="5.0625" height="5.0625" transform="matrix(-1 0 0 1 525.654 156.938)" fill="#E6E8E6"/>
<rect width="5.0625" height="5.0625" transform="matrix(-1 0 0 1 530.717 156.938)" fill="#E6E8E6"/>
<rect width="5.0625" height="5.0625" transform="matrix(-1 0 0 1 535.779 156.938)" fill="#E6E8E6"/>
<rect width="5.0625" height="5.0625" transform="matrix(-1 0 0 1 540.842 156.938)" fill="#E6E8E6"/>
<rect width="5.0625" height="5.0625" transform="matrix(-1 0 0 1 545.904 156.938)" fill="#E6E8E6"/>
<rect width="5.0625" height="5.0625" transform="matrix(-1 0 0 1 550.967 156.938)" fill="#E6E8E6"/>
<rect width="5.0625" height="5.0625" transform="matrix(-1 0 0 1 556.029 156.938)" fill="#E6E8E6"/>
<rect width="5.0625" height="5.0625" transform="matrix(-1 0 0 1 561.092 156.938)" fill="#E6E8E6"/>
<rect width="5.0625" height="5.0625" transform="matrix(-1 0 0 1 566.154 156.938)" fill="#E6E8E6"/>
<rect width="5.0625" height="5.0625" transform="matrix(-1 0 0 1 571.217 156.938)" fill="#E6E8E6"/>
<rect width="5.0625" height="5.0625" transform="matrix(-1 0 0 1 576.279 156.938)" fill="#E6E8E6"/>
<rect width="5.0625" height="5.0625" transform="matrix(-1 0 0 1 581.342 156.938)" fill="#E6E8E6"/>
<rect width="5.0625" height="5.0625" transform="matrix(-1 0 0 1 586.404 156.938)" fill="#E6E8E6"/>
<rect width="5.0625" height="5.0625" transform="matrix(-1 0 0 1 591.467 156.938)" fill="#E6E8E6"/>
<rect width="5.0625" height="5.0625" transform="matrix(-1 0 0 1 596.529 151.875)" fill="#E6E8E6"/>
<rect width="5.0625" height="5.0625" transform="matrix(-1 0 0 1 596.529 146.812)" fill="#E6E8E6"/>
<rect width="5.0625" height="5.0625" transform="matrix(-1 0 0 1 596.529 141.755)" fill="#E6E8E6"/>
<rect width="5.0625" height="5.0625" transform="matrix(-1 0 0 1 490.217 136.688)" fill="#E6E8E6"/>
<rect width="5.0625" height="5.0625" transform="matrix(-1 0 0 1 495.279 136.688)" fill="#E6E8E6"/>
<rect width="5.0625" height="5.0625" transform="matrix(-1 0 0 1 500.342 136.688)" fill="#E6E8E6"/>
<rect width="5.0625" height="5.0625" transform="matrix(-1 0 0 1 505.404 136.688)" fill="#E6E8E6"/>
<rect width="5.0625" height="5.0625" transform="matrix(-1 0 0 1 510.467 136.688)" fill="#E6E8E6"/>
<rect width="5.0625" height="5.0625" transform="matrix(-1 0 0 1 515.529 136.688)" fill="#E6E8E6"/>
<rect width="5.0625" height="5.0625" transform="matrix(-1 0 0 1 520.592 136.688)" fill="#E6E8E6"/>
<rect width="5.0625" height="5.0625" transform="matrix(-1 0 0 1 525.654 136.688)" fill="#E6E8E6"/>
<rect width="5.0625" height="5.0625" transform="matrix(-1 0 0 1 530.717 136.688)" fill="#E6E8E6"/>
<rect width="5.0625" height="5.0625" transform="matrix(-1 0 0 1 535.779 136.688)" fill="#E6E8E6"/>
<rect width="5.0625" height="5.0625" transform="matrix(-1 0 0 1 540.842 136.688)" fill="#E6E8E6"/>
<rect width="5.0625" height="5.0625" transform="matrix(-1 0 0 1 545.904 136.688)" fill="#E6E8E6"/>
<rect width="5.0625" height="5.0625" transform="matrix(-1 0 0 1 550.967 136.688)" fill="#E6E8E6"/>
<rect width="5.0625" height="5.0625" transform="matrix(-1 0 0 1 556.029 136.688)" fill="#E6E8E6"/>
<rect width="5.0625" height="5.0625" transform="matrix(-1 0 0 1 561.092 136.688)" fill="#E6E8E6"/>
<rect width="5.0625" height="5.0625" transform="matrix(-1 0 0 1 566.154 136.688)" fill="#E6E8E6"/>
<rect width="5.0625" height="5.0625" transform="matrix(-1 0 0 1 571.217 136.688)" fill="#E6E8E6"/>
<rect width="5.0625" height="5.0625" transform="matrix(-1 0 0 1 576.279 136.688)" fill="#E6E8E6"/>
<rect width="5.0625" height="5.0625" transform="matrix(-1 0 0 1 581.342 136.688)" fill="#E6E8E6"/>
<rect width="5.0625" height="5.0625" transform="matrix(-1 0 0 1 586.404 136.688)" fill="#E6E8E6"/>
<rect width="5.0625" height="5.0625" transform="matrix(-1 0 0 1 591.467 136.688)" fill="#E6E8E6"/>
<rect width="5.0625" height="5.0625" transform="matrix(-1 0 0 1 596.529 136.688)" fill="#E6E8E6"/>
<rect width="5.0625" height="5.0625" transform="matrix(-1 0 0 1 601.592 116.438)" fill="#E6E8E6"/>
<rect width="5.0625" height="5.0625" transform="matrix(-1 0 0 1 601.592 121.5)" fill="#E6E8E6"/>
<rect width="5.0625" height="5.0625" transform="matrix(-1 0 0 1 601.592 126.562)" fill="#E6E8E6"/>
<rect width="5.0625" height="5.0625" transform="matrix(-1 0 0 1 495.279 111.375)" fill="#E6E8E6"/>
<rect width="5.0625" height="5.0625" transform="matrix(-1 0 0 1 500.342 111.375)" fill="#E6E8E6"/>
<rect width="5.0625" height="5.0625" transform="matrix(-1 0 0 1 581.342 111.375)" fill="#E6E8E6"/>
<rect width="5.0625" height="5.0625" transform="matrix(-1 0 0 1 576.279 111.375)" fill="#E6E8E6"/>
<rect width="5.0625" height="5.0625" transform="matrix(-1 0 0 1 571.217 111.375)" fill="#E6E8E6"/>
<rect width="5.0625" height="5.0625" transform="matrix(-1 0 0 1 566.154 111.375)" fill="#E6E8E6"/>
<rect width="5.0625" height="5.0625" transform="matrix(-1 0 0 1 561.092 111.375)" fill="#E6E8E6"/>
<rect width="5.0625" height="5.0625" transform="matrix(-1 0 0 1 556.029 111.375)" fill="#E6E8E6"/>
<rect width="5.0625" height="5.0625" transform="matrix(-1 0 0 1 601.592 91.125)" fill="#E6E8E6"/>
<rect x="571.217" y="15.1875" width="5.0625" height="5.0625" fill="#E6E8E6"/>
<rect x="566.154" y="15.1875" width="5.0625" height="5.0625" fill="#E6E8E6"/>
<rect x="561.092" y="15.1875" width="5.0625" height="5.0625" fill="#E6E8E6"/>
<rect x="556.029" y="15.1875" width="5.0625" height="5.0625" fill="#E6E8E6"/>
<rect x="550.967" y="15.1875" width="5.0625" height="5.0625" fill="#E6E8E6"/>
<rect x="545.904" y="15.1875" width="5.0625" height="5.0625" fill="#E6E8E6"/>
<rect x="540.842" y="15.1875" width="5.0625" height="5.0625" fill="#E6E8E6"/>
<rect x="545.904" y="65.8125" width="5.0625" height="5.0625" fill="#E6E8E6"/>
<rect x="550.967" y="70.8696" width="5.0625" height="5.0625" fill="#E6E8E6"/>
<rect x="556.029" y="70.8696" width="5.0625" height="5.0625" fill="#E6E8E6"/>
<rect x="561.092" y="75.9375" width="5.0625" height="5.0625" fill="#E6E8E6"/>
<rect x="556.029" y="35.4375" width="5.0625" height="5.0625" fill="#E6E8E6"/>
<rect x="550.967" y="30.375" width="5.0625" height="5.0625" fill="#E6E8E6"/>
<rect x="561.092" y="30.375" width="5.0625" height="5.0625" fill="#E6E8E6"/>
<rect x="550.967" y="40.5" width="5.0625" height="5.0625" fill="#E6E8E6"/>
<rect x="561.092" y="40.5" width="5.0625" height="5.0625" fill="#E6E8E6"/>
<rect x="510.467" y="40.5" width="5.0625" height="5.0625" fill="#E6E8E6"/>
<rect x="515.529" y="35.4375" width="5.0625" height="5.0625" fill="#E6E8E6"/>
<rect x="510.467" y="30.375" width="5.0625" height="5.0625" fill="#E6E8E6"/>
<rect x="520.592" y="40.5" width="5.0625" height="5.0625" fill="#E6E8E6"/>
<rect x="525.654" y="50.625" width="5.0625" height="5.0625" fill="#E6E8E6"/>
<rect x="530.717" y="55.6929" width="5.0625" height="5.0625" fill="#E6E8E6"/>
<rect x="535.779" y="55.6929" width="5.0625" height="5.0625" fill="#E6E8E6"/>
<rect x="540.842" y="50.625" width="5.0625" height="5.0625" fill="#E6E8E6"/>
<rect x="520.592" y="30.375" width="5.0625" height="5.0625" fill="#E6E8E6"/>
<path d="M256.232 47.4236V39.0295H247.838V47.4236V55.8177V64.2118H256.232V55.8177V47.4236Z" fill="#E6E8E6"/>
<path d="M323.383 64.2118H314.989V39.0295H306.595V64.2118H289.807V39.0295H281.413V64.2118H256.23V72.6059H281.413V89.3941H256.23V97.7882H281.413V122.971H289.807V97.7882H306.595V122.971H314.989V97.7882H340.171V89.3941H314.989V72.6059H340.171V64.2118H323.383ZM306.595 81V89.3941H289.807V72.6059H306.595V81Z" fill="#E6E8E6"/>
<path d="M273.019 39.0296H281.413V30.6355H273.019H264.625H256.23V39.0296H264.625H273.019Z" fill="#E6E8E6"/>
<path d="M331.778 39.0296H340.173V30.6355H331.778H323.384H314.99V39.0296H323.384H331.778Z" fill="#E6E8E6"/>
<path d="M340.174 39.0295V47.4236V55.8177V64.2118H348.568V55.8177V47.4236V39.0295H340.174Z" fill="#E6E8E6"/>
<path d="M340.174 114.577V122.971H348.568V114.577V106.183V97.7885H340.174V106.183V114.577Z" fill="#E6E8E6"/>
<path d="M323.384 122.971H314.99V131.365H323.384H331.778H340.173V122.971H331.778H323.384Z" fill="#E6E8E6"/>
<path d="M264.625 122.971H256.23V131.365H264.625H273.019H281.413V122.971H273.019H264.625Z" fill="#E6E8E6"/>
<path d="M256.232 106.183V97.7885H247.838V106.183V114.577V122.971H256.232V114.577V106.183Z" fill="#E6E8E6"/>
<path d="M29.521 17.3569H35.2659H41.0108H46.7557H52.5006H58.2455H63.9904H69.7352H75.4801H81.225H86.9699H92.7148H98.4597H104.205V11.5712H98.4597H92.7148H86.9699H81.225H75.4801H69.7352H63.9904H58.2455H52.5006H46.7557H41.0108H35.2659H29.521H23.7761H18.0312V17.3569H23.7761H29.521Z" fill="#E6E8E6"/>
<path d="M75.4785 40.5V46.2857H81.2234V40.5V34.7142H75.4785V40.5Z" fill="#E6E8E6"/>
<path d="M46.7547 40.5V34.7142H41.0098V40.5V46.2857H46.7547V40.5Z" fill="#E6E8E6"/>
<path d="M63.9878 63.6429V57.8572V52.0714V46.2857V40.5V34.7142H58.2429V40.5V46.2857V52.0714V57.8572H52.498V63.6429H58.2429H63.9878Z" fill="#E6E8E6"/>
<path d="M58.2429 75.2137H52.498V80.9995H58.2429H63.9878H69.7327V75.2137H63.9878H58.2429Z" fill="#E6E8E6"/>
<path d="M52.4988 69.4283H46.7539V75.2141H52.4988V69.4283Z" fill="#E6E8E6"/>
<path d="M75.4793 69.4283H69.7344V75.2141H75.4793V69.4283Z" fill="#E6E8E6"/>
<path d="M104.203 23.1436V28.9294V34.7151V40.5008V46.2866V52.0723V57.8581V63.6438V69.4295V75.2153V81.001V86.7867H109.948V81.001V75.2153V69.4295V63.6438V57.8581V52.0723V46.2866V40.5008V34.7151V28.9294V23.1436V17.3579H104.203V23.1436Z" fill="#E6E8E6"/>
<path d="M92.7148 86.7863H86.9699H81.225H75.4801H69.7352H63.9904H58.2455H52.5006H46.7557H41.0108H35.2659H29.521H23.7761H18.0312V92.572H23.7761H29.521H35.2659H41.0108H46.7557H52.5006H58.2455H63.9904H69.7352H75.4801H81.225H86.9699H92.7148H98.4597H104.205V86.7863H98.4597H92.7148Z" fill="#E6E8E6"/>
<path d="M92.7132 109.929H86.9683H81.2234H75.4785V115.715H81.2234H86.9683H92.7132H98.4581H104.203V109.929H98.4581H92.7132Z" fill="#E6E8E6"/>
<path d="M18.0312 115.715V121.501H23.7761H29.521V115.715H23.7761H18.0312Z" fill="#E6E8E6"/>
<path d="M18.03 75.2153V69.4295V63.6438V57.8581V52.0723V46.2866V40.5008V34.7151V28.9294V23.1436V17.3579H12.2852V23.1436V28.9294V34.7151V40.5008V46.2866V52.0723V57.8581V63.6438V69.4295V75.2153V81.001V86.7867H18.03V81.001V75.2153Z" fill="#E6E8E6"/>
<path d="M23.7749 5.78573H29.5198H35.2647H41.0096H46.7545H52.4994H58.2443H63.9891H69.734H75.4789H81.2238H86.9687H92.7136H98.4585H104.203H109.948V0H104.203H98.4585H92.7136H86.9687H81.2238H75.4789H69.734H63.9891H58.2443H52.4994H46.7545H41.0096H35.2647H29.5198H23.7749H18.03H12.2852V5.78573H18.03H23.7749Z" fill="#E6E8E6"/>
<path d="M115.692 5.78577H109.947V11.5715H115.692V5.78577Z" fill="#E6E8E6"/>
<path d="M115.693 11.5712V17.3569V23.1426V28.9284V34.7141V40.4998V46.2856V52.0713V57.857V63.6428V69.4285V75.2142V81V86.7857V92.5715V98.3572V104.143V109.929V115.714V121.5V127.286V133.072H121.438V127.286V121.5V115.714V109.929V104.143V98.3572V92.5715V86.7857V81V75.2142V69.4285V63.6428V57.857V52.0713V46.2856V40.4998V34.7141V28.9284V23.1426V17.3569V11.5712H115.693Z" fill="#E6E8E6"/>
<path d="M12.2859 5.78577H6.54102V11.5715H12.2859V5.78577Z" fill="#E6E8E6"/>
<path d="M6.53981 121.5V115.714V109.929V104.143V98.3572V92.5715V86.7857V81V75.2142V69.4285V63.6428V57.857V52.0713V46.2856V40.4998V34.7141V28.9284V23.1426V17.3569V11.5712H0.794922V17.3569V23.1426V28.9284V34.7141V40.4998V46.2856V52.0713V57.857V63.6428V69.4285V75.2142V81V86.7857V92.5715V98.3572V104.143V109.929V115.714V121.5V127.286V133.072H6.53981V127.286V121.5Z" fill="#E6E8E6"/>
<path d="M104.204 133.071H6.54102V162H115.694V133.071H104.204ZM109.949 144.643V156.214H12.2859V138.857H109.949V144.643Z" fill="#E6E8E6"/>
</svg>
