<svg width="1284" height="181" viewBox="0 0 1284 181" fill="none" xmlns="http://www.w3.org/2000/svg">
<path d="M1183.83 180.424V160.359H1163.77V60.1944L1183.83 60.0339V40.1294H1243.87V60.0339H1203.9L1203.74 100.324L1244.03 100.164V40.1294H1263.93V60.1944H1284V120.229H1203.9L1203.74 160.519H1263.93V180.424H1183.83ZM1264.09 160.359V140.454H1284V160.359H1264.09Z" fill="#C4C4C4"/>
<path d="M1043.38 180.424V40.1294H1083.35V60.1944L1103.57 60.0339V40.1294H1143.54V80.0988H1083.51L1083.35 180.424H1043.38Z" fill="#C4C4C4"/>
<path d="M922.991 180.424V160.359H902.926V120.389H942.895V160.519L983.186 160.359V120.229H922.991V100.324L983.186 100.164V60.0339H922.991V40.1294H1003.09V60.1944H1023.16V180.424H922.991ZM902.926 80.0988V60.1944H922.83V80.0988H902.926Z" fill="#C4C4C4"/>
<path d="M742.4 180.424V0H782.37V60.195H802.435V120.229H782.53L782.37 180.424H742.4ZM842.725 180.424V160.52H862.63V180.424H842.725ZM822.66 160.359V140.455H842.565V160.359H822.66ZM802.595 140.294V120.39H822.5V140.294H802.595ZM802.595 60.0344V40.13H822.5V60.0344H802.595ZM822.66 39.9695V20.065H842.565V39.9695H822.66ZM842.725 19.9045V0H862.63V19.9045H842.725Z" fill="#C4C4C4"/>
<path d="M521.688 180.424V40.1294H621.852V60.1944H641.917V180.424H601.947V60.0339H561.817L561.657 180.424H521.688Z" fill="#C4C4C4"/>
<path d="M401.301 180.424V160.359H381.236V120.389H421.206V160.519L461.496 160.359V120.229H401.301V100.324L461.496 100.164V60.0339H401.301V40.1294H481.401V60.1944H501.466V180.424H401.301ZM381.236 80.0988V60.1944H401.141V80.0988H381.236Z" fill="#C4C4C4"/>
<path d="M280.913 180.424V160.359H321.043V140.294H300.978V120.229H280.913V100.164H260.848V60.1944L280.913 60.0339V40.1294H340.947V60.0339H300.978L300.817 80.2594H320.882V100.324H340.947V120.389H361.012V160.359H341.108L340.947 180.424H280.913ZM260.848 160.359V140.454H280.752V160.359H260.848ZM341.108 80.0988V60.1944H361.012V80.0988H341.108Z" fill="#C4C4C4"/>
<path d="M140.456 180.424V160.359H120.391V40.1294H160.36V160.519L200.651 160.359V40.1294H240.62V180.424H140.456Z" fill="#C4C4C4"/>
<path d="M20.065 180.424V160.359H60.195V120.229H40.13V100.164H20.065V80.0994H0V20.065L20.065 19.9045V0H80.0994V19.9045H40.13L39.9695 60.195H60.0344V80.26H80.0994V100.325H100.164V160.359H80.2599L80.0994 180.424H20.065ZM0 160.359V140.455H19.9045V160.359H0ZM80.2599 39.9695V20.065H100.164V39.9695H80.2599Z" fill="#C4C4C4"/>
</svg>
