<svg width="1249" height="181" viewBox="0 0 1249 181" fill="none" xmlns="http://www.w3.org/2000/svg">
<path d="M832.397 135.888C846.215 135.888 857.638 126.858 857.638 114.237V105.751L833.05 107.274C821.191 108.145 814.446 113.476 814.446 121.744C814.446 130.448 821.626 135.888 832.397 135.888ZM821.953 158.844C799.758 158.844 782.895 144.483 782.895 123.485C782.895 102.269 799.214 89.9754 828.263 88.2346L857.638 86.4939V78.7693C857.638 67.8895 850.022 61.5793 838.055 61.5793C826.196 61.5793 818.689 67.4544 817.166 76.0494H788.117C789.314 53.4195 808.571 37.8615 839.469 37.8615C869.388 37.8615 888.863 53.3107 888.863 76.8109V156.995H858.182V139.152H857.529C851.002 151.555 836.532 158.844 821.953 158.844Z" fill="#E6E8E6"/>
<path d="M740.791 156.994L728.824 118.915H673.664L661.696 156.994H627.969L682.476 0H721.099L775.715 156.994H740.791ZM700.863 30.028L680.735 94.3272H721.752L701.624 30.028H700.863Z" fill="#E6E8E6"/>
<path d="M1155.43 168.305C1154.82 168.305 1153.8 168.247 1153.25 168.13V163.885C1153.8 164.002 1154.59 164.031 1155.23 164.031C1158.05 164.031 1159.62 162.664 1160.78 159.146L1161.48 157.024L1150.31 126.756H1155.72L1164.1 151.935H1164.18L1172.56 126.756H1177.88L1165.99 159.117C1163.4 166.182 1160.9 168.305 1155.43 168.305Z" fill="black"/>
<path d="M1133.01 153.215C1137.78 153.215 1141.45 149.871 1141.45 145.51V143.038L1133.36 143.533C1129.29 143.794 1126.97 145.597 1126.97 148.446C1126.97 151.325 1129.38 153.215 1133.01 153.215ZM1131.88 157.518C1125.86 157.518 1121.82 153.883 1121.82 148.446C1121.82 143.271 1125.8 140.015 1132.78 139.608L1141.45 139.113V136.584C1141.45 132.891 1139 130.682 1134.82 130.682C1130.92 130.682 1128.48 132.513 1127.84 135.479H1122.95C1123.3 130.245 1127.78 126.233 1134.93 126.233C1142.03 126.233 1146.51 130.071 1146.51 136.09V156.995H1141.71V151.79H1141.59C1139.79 155.25 1135.95 157.518 1131.88 157.518Z" fill="black"/>
<path d="M1111.15 156.994V115.039H1116.21V156.994H1111.15Z" fill="black"/>
<path d="M1092.83 126.233C1100.54 126.233 1105.77 132.397 1105.77 141.875C1105.77 151.354 1100.57 157.518 1092.95 157.518C1088.62 157.518 1085.13 155.395 1083.33 152.081H1083.21V167.084H1078.15V126.756H1082.95V131.874H1083.06C1084.92 128.472 1088.44 126.233 1092.83 126.233ZM1091.84 153.069C1097.22 153.069 1100.6 148.737 1100.6 141.875C1100.6 135.043 1097.22 130.682 1091.84 130.682C1086.67 130.682 1083.18 135.159 1083.18 141.875C1083.18 148.621 1086.67 153.069 1091.84 153.069Z" fill="black"/>
<path d="M1049.89 135.101C1049.89 129.926 1054.51 126.233 1061.17 126.233C1067.42 126.233 1072.01 129.955 1072.25 135.072H1067.42C1067.07 132.164 1064.72 130.362 1061 130.362C1057.3 130.362 1054.86 132.193 1054.86 134.839C1054.86 136.933 1056.46 138.328 1059.89 139.201L1064.57 140.334C1070.68 141.875 1072.89 144.085 1072.89 148.534C1072.89 153.796 1067.91 157.518 1060.85 157.518C1054.22 157.518 1049.6 153.913 1049.07 148.563H1054.13C1054.69 151.703 1057.07 153.389 1061.17 153.389C1065.27 153.389 1067.8 151.645 1067.8 148.912C1067.8 146.76 1066.55 145.597 1063.15 144.696L1057.83 143.329C1052.51 141.963 1049.89 139.23 1049.89 135.101Z" fill="black"/>
<path d="M1038.52 156.994V126.756H1043.58V156.994H1038.52ZM1041.05 121.668C1039.33 121.668 1037.91 120.243 1037.91 118.528C1037.91 116.784 1039.33 115.388 1041.05 115.388C1042.79 115.388 1044.22 116.784 1044.22 118.528C1044.22 120.243 1042.79 121.668 1041.05 121.668Z" fill="black"/>
<path d="M998.629 115.039H1012.73C1025.17 115.039 1032.53 122.802 1032.53 136.002C1032.53 149.231 1025.2 156.994 1012.73 156.994H998.629V115.039ZM1003.86 119.749V152.284H1012.38C1021.89 152.284 1027.18 146.469 1027.18 136.06C1027.18 125.564 1021.92 119.749 1012.38 119.749H1003.86Z" fill="black"/>
<path d="M966.532 157.518C958.158 157.518 952.518 151.499 952.518 141.875C952.518 132.223 958.158 126.233 966.532 126.233C974.876 126.233 980.517 132.223 980.517 141.875C980.517 151.499 974.876 157.518 966.532 157.518ZM966.532 153.069C971.882 153.069 975.371 148.999 975.371 141.875C975.371 134.752 971.882 130.682 966.532 130.682C961.182 130.682 957.664 134.752 957.664 141.875C957.664 148.999 961.182 153.069 966.532 153.069Z" fill="black"/>
<path d="M937.076 156.995V126.756H941.844V131.699H941.961C942.949 128.356 945.741 126.233 949.288 126.233C950.16 126.233 950.916 126.378 951.323 126.437V131.35C950.916 131.205 949.84 131.06 948.619 131.06C944.694 131.06 942.135 133.88 942.135 138.154V156.995H937.076Z" fill="black"/>
<path d="M903.438 115.039H918.411C926.291 115.039 931.844 120.563 931.844 128.501C931.844 136.467 926.232 142.021 918.353 142.021H908.671V156.994H903.438V115.039ZM908.671 119.691V137.369H917.045C923.034 137.369 926.465 134.083 926.465 128.501C926.465 122.947 923.063 119.691 917.045 119.691H908.671Z" fill="black"/>
<path d="M1234.14 103.841C1225.76 103.841 1220.12 97.822 1220.12 88.1981C1220.12 78.5451 1225.76 72.5557 1234.14 72.5557C1242.48 72.5557 1248.12 78.5451 1248.12 88.1981C1248.12 97.822 1242.48 103.841 1234.14 103.841ZM1234.14 99.392C1239.49 99.392 1242.98 95.3215 1242.98 88.1981C1242.98 81.0747 1239.49 77.0042 1234.14 77.0042C1228.79 77.0042 1225.27 81.0747 1225.27 88.1981C1225.27 95.3215 1228.79 99.392 1234.14 99.392Z" fill="black"/>
<path d="M1216.9 82.9936H1211.95C1211.23 79.7081 1208.67 77.0042 1204.22 77.0042C1198.99 77.0042 1195.44 81.3364 1195.44 88.1981C1195.44 95.2343 1199.04 99.392 1204.28 99.392C1208.41 99.392 1211.11 97.2114 1211.98 93.577H1216.95C1216.17 99.5955 1211.11 103.841 1204.25 103.841C1195.88 103.841 1190.29 97.9383 1190.29 88.1981C1190.29 78.6614 1195.85 72.5557 1204.19 72.5557C1211.75 72.5557 1216.26 77.5566 1216.9 82.9936Z" fill="black"/>
<path d="M1163.52 81.4236C1163.52 76.2482 1168.14 72.5557 1174.8 72.5557C1181.05 72.5557 1185.64 76.2773 1185.87 81.3945H1181.05C1180.7 78.487 1178.34 76.6843 1174.62 76.6843C1170.93 76.6843 1168.49 78.5161 1168.49 81.1619C1168.49 83.2553 1170.09 84.6509 1173.52 85.5232L1178.2 86.6571C1184.3 88.1981 1186.51 90.4078 1186.51 94.8563C1186.51 100.119 1181.54 103.841 1174.48 103.841C1167.85 103.841 1163.22 100.235 1162.7 94.8854H1167.76C1168.31 98.0255 1170.7 99.7118 1174.8 99.7118C1178.9 99.7118 1181.43 97.9673 1181.43 95.2343C1181.43 93.0827 1180.18 91.9197 1176.77 91.0184L1171.45 89.6518C1166.13 88.2853 1163.52 85.5522 1163.52 81.4236Z" fill="black"/>
<path d="M1152.15 103.317V73.0791H1157.2V103.317H1152.15ZM1154.68 67.9909C1152.96 67.9909 1151.54 66.5662 1151.54 64.8508C1151.54 63.1063 1152.96 61.7107 1154.68 61.7107C1156.42 61.7107 1157.84 63.1063 1157.84 64.8508C1157.84 66.5662 1156.42 67.9909 1154.68 67.9909Z" fill="black"/>
<path d="M1147.17 82.9936H1142.23C1141.5 79.7081 1138.95 77.0042 1134.5 77.0042C1129.26 77.0042 1125.72 81.3364 1125.72 88.1981C1125.72 95.2343 1129.32 99.392 1134.56 99.392C1138.68 99.392 1141.39 97.2114 1142.26 93.577H1147.23C1146.45 99.5955 1141.39 103.841 1134.53 103.841C1126.15 103.841 1120.57 97.9383 1120.57 88.1981C1120.57 78.6614 1126.12 72.5557 1134.47 72.5557C1142.03 72.5557 1146.53 77.5566 1147.17 82.9936Z" fill="black"/>
<path d="M1090.65 103.317V73.079H1095.42V77.9055H1095.54C1097.22 74.6491 1100.45 72.5557 1105.13 72.5557C1111.76 72.5557 1115.6 76.8297 1115.6 83.6914V103.317H1110.54V84.5928C1110.54 79.7081 1108.24 77.0332 1103.59 77.0332C1098.82 77.0332 1095.71 80.406 1095.71 85.5232V103.317H1090.65Z" fill="black"/>
<path d="M1070.73 99.5374C1075.5 99.5374 1079.17 96.1937 1079.17 91.8325V89.3611L1071.08 89.8554C1067.01 90.117 1064.69 91.9197 1064.69 94.7691C1064.69 97.6475 1067.1 99.5374 1070.73 99.5374ZM1069.6 103.841C1063.58 103.841 1059.54 100.206 1059.54 94.7691C1059.54 89.5937 1063.52 86.3373 1070.5 85.9302L1079.17 85.4359V82.9064C1079.17 79.2139 1076.72 77.0042 1072.54 77.0042C1068.64 77.0042 1066.2 78.8359 1065.56 81.8016H1060.67C1061.02 76.568 1065.5 72.5557 1072.65 72.5557C1079.75 72.5557 1084.23 76.3936 1084.23 82.4121V103.317H1079.43V98.1127H1079.31C1077.51 101.573 1073.67 103.841 1069.6 103.841Z" fill="black"/>
<path d="M1042.97 103.317V73.079H1047.74V78.0218H1047.85C1048.84 74.6781 1051.63 72.5557 1055.18 72.5557C1056.05 72.5557 1056.81 72.701 1057.22 72.7592V77.6729C1056.81 77.5275 1055.73 77.3821 1054.51 77.3821C1050.59 77.3821 1048.03 80.2024 1048.03 84.4765V103.317H1042.97Z" fill="black"/>
<path d="M1017.53 103.317H1012.29V61.3617H1037.76V66.0719H1017.53V80.4931H1036.11V85.1451H1017.53V103.317Z" fill="black"/>
<path d="M967.898 103.317V73.079H972.667V77.9055H972.783C974.469 74.6491 977.697 72.5557 982.378 72.5557C989.007 72.5557 992.845 76.8297 992.845 83.6914V103.317H987.786V84.5928C987.786 79.7081 985.489 77.0332 980.837 77.0332C976.069 77.0332 972.958 80.406 972.958 85.5232V103.317H967.898Z" fill="black"/>
<path d="M947.979 99.5374C952.747 99.5374 956.411 96.1937 956.411 91.8325V89.3611L948.328 89.8554C944.257 90.117 941.931 91.9197 941.931 94.7691C941.931 97.6475 944.345 99.5374 947.979 99.5374ZM946.845 103.841C940.827 103.841 936.785 100.206 936.785 94.7691C936.785 89.5937 940.768 86.3373 947.746 85.9302L956.411 85.4359V82.9064C956.411 79.2139 953.969 77.0042 949.782 77.0042C945.886 77.0042 943.443 78.8359 942.804 81.8016H937.919C938.268 76.568 942.746 72.5557 949.898 72.5557C956.992 72.5557 961.47 76.3936 961.47 82.4121V103.317H956.673V98.1127H956.556C954.754 101.573 950.916 103.841 946.845 103.841Z" fill="black"/>
<path d="M901.432 91.7743H906.694C907.189 96.31 911.492 99.3048 917.481 99.3048C923.151 99.3048 927.279 96.31 927.279 92.1814C927.279 88.6342 924.808 86.4536 919.167 84.9998L913.789 83.6042C906.055 81.6271 902.624 78.2253 902.624 72.5266C902.624 65.5486 908.729 60.6639 917.452 60.6639C925.797 60.6639 931.844 65.6067 932.077 72.6429H926.843C926.378 68.1362 922.744 65.3741 917.278 65.3741C911.841 65.3741 908.061 68.1944 908.061 72.294C908.061 75.4632 910.387 77.3531 916.086 78.8359L920.476 79.9989C929.169 82.1795 932.687 85.5232 932.687 91.5417C932.687 99.2176 926.64 104.015 916.987 104.015C908.09 104.015 901.926 99.1885 901.432 91.7743Z" fill="black"/>
<path d="M137.703 157.86V140.735H120.578V106.623H154.69V140.872L189.077 140.735V106.486H137.703V89.4986L189.077 89.3616V55.1124H137.703V38.1248H206.064V55.2494H223.189V157.86H137.703ZM120.578 72.237V55.2494H137.566V72.237H120.578Z" fill="#E6E8E6"/>
<path d="M0.705078 157.86V20.8632H17.8297V3.87555H69.0665V20.8632H34.9543L34.8173 72.374L69.2035 72.237V3.87555H86.1911V21.0002H103.316V157.86H69.2035V89.3616H34.9543L34.8173 157.86H0.705078Z" fill="#E6E8E6"/>
<path d="M528.388 157.86V150.285H520.812V112.468L528.388 112.408V104.893H551.054V112.408H535.963L535.903 150.345L551.114 150.285V104.893H558.629V112.468H566.204V150.285H558.69L558.629 157.86H528.388Z" fill="black"/>
<path d="M467.785 173.011V165.496H475.3V173.011H467.785ZM475.361 180.586V173.011H498.087V157.86H475.361V150.285H467.785V112.468H482.875V150.345L498.087 150.285V112.408H475.361V104.893H513.177V173.011H505.662L505.602 180.586H475.361Z" fill="black"/>
<path d="M422.331 157.86V150.285H414.756V135.195H429.846V150.345L445.058 150.285V135.134H422.331V127.619L445.058 127.559V112.408H422.331V104.893H452.572V112.468H460.148V157.86H422.331ZM414.756 119.983V112.468H422.271V119.983H414.756Z" fill="black"/>
<path d="M376.88 157.86V150.285H369.305V112.468L376.88 112.408V104.893H399.546V112.408H384.456L384.395 150.345H399.546V157.86H376.88ZM399.606 150.285V142.77H407.121V150.285H399.606ZM399.606 119.983V112.468H407.121V119.983H399.606Z" fill="black"/>
<path d="M346.578 157.86V104.893H361.668V157.86H346.578ZM346.578 97.2568V89.7419H361.668V97.2568H346.578Z" fill="black"/>
<path d="M293.549 157.86V89.7419H308.639V104.893H331.365V112.468H338.941V157.86H323.851V112.408H308.7L308.639 157.86H293.549Z" fill="black"/>
<path d="M248.097 157.86V150.285H240.521V97.3174L248.097 97.2568V89.7419H278.338V97.2568H255.672L255.612 150.345H278.338V157.86H248.097ZM278.399 150.285V142.77H285.913V150.285H278.399ZM278.399 104.832V97.3174H285.913V104.832H278.399Z" fill="black"/>
</svg>
