<svg width="617" height="174" viewBox="0 0 617 174" fill="none" xmlns="http://www.w3.org/2000/svg">
<rect width="63.2727" height="63.2727" rx="6.32727" fill="#FDFFFC"/>
<path d="M18.9822 41.1273C18.534 41.1273 18.1583 40.9757 17.8552 40.6726C17.552 40.3694 17.4004 39.9937 17.4004 39.5455C17.4004 39.0973 17.552 38.7216 17.8552 38.4185C18.1583 38.1153 18.534 37.9637 18.9822 37.9637H44.2913C44.7395 37.9637 45.1152 38.1153 45.4183 38.4185C45.7215 38.7216 45.8731 39.0973 45.8731 39.5455C45.8731 39.9937 45.7215 40.3694 45.4183 40.6726C45.1152 40.9757 44.7395 41.1273 44.2913 41.1273H18.9822ZM18.9822 33.2182C18.534 33.2182 18.1583 33.0666 17.8552 32.7635C17.552 32.4603 17.4004 32.0846 17.4004 31.6364C17.4004 31.1882 17.552 30.8126 17.8552 30.5094C18.1583 30.2062 18.534 30.0546 18.9822 30.0546H44.2913C44.7395 30.0546 45.1152 30.2062 45.4183 30.5094C45.7215 30.8126 45.8731 31.1882 45.8731 31.6364C45.8731 32.0846 45.7215 32.4603 45.4183 32.7635C45.1152 33.0666 44.7395 33.2182 44.2913 33.2182H18.9822ZM18.9822 25.3091C18.534 25.3091 18.1583 25.1576 17.8552 24.8544C17.552 24.5512 17.4004 24.1755 17.4004 23.7273C17.4004 23.2791 17.552 22.9035 17.8552 22.6003C18.1583 22.2971 18.534 22.1455 18.9822 22.1455H44.2913C44.7395 22.1455 45.1152 22.2971 45.4183 22.6003C45.7215 22.9035 45.8731 23.2791 45.8731 23.7273C45.8731 24.1755 45.7215 24.5512 45.4183 24.8544C45.1152 25.1576 44.7395 25.3091 44.2913 25.3091H18.9822Z" fill="#1E2EDE"/>
<rect x="110.727" width="63.2727" height="63.2727" rx="6.32727" fill="#FDFFFC"/>
<path d="M138.745 38.3C135.871 38.3 133.439 37.3047 131.449 35.3143C129.458 33.3238 128.463 30.8918 128.463 28.0181C128.463 25.1445 129.458 22.7125 131.449 20.722C133.439 18.7316 135.871 17.7363 138.745 17.7363C141.618 17.7363 144.05 18.7316 146.041 20.722C148.031 22.7125 149.027 25.1445 149.027 28.0181C149.027 29.1781 148.842 30.2722 148.473 31.3004C148.104 32.3286 147.603 33.2381 146.97 34.0291L155.828 42.8872C156.118 43.1772 156.263 43.5463 156.263 43.9945C156.263 44.4427 156.118 44.8118 155.828 45.1018C155.538 45.3918 155.169 45.5368 154.721 45.5368C154.273 45.5368 153.904 45.3918 153.614 45.1018L144.756 36.2436C143.965 36.8763 143.055 37.3772 142.027 37.7463C140.999 38.1154 139.905 38.3 138.745 38.3ZM138.745 35.1363C140.722 35.1363 142.403 34.4443 143.787 33.0602C145.171 31.6761 145.863 29.9954 145.863 28.0181C145.863 26.0409 145.171 24.3602 143.787 22.9761C142.403 21.592 140.722 20.9 138.745 20.9C136.767 20.9 135.087 21.592 133.703 22.9761C132.319 24.3602 131.627 26.0409 131.627 28.0181C131.627 29.9954 132.319 31.6761 133.703 33.0602C135.087 34.4443 136.767 35.1363 138.745 35.1363Z" fill="#1E2EDE"/>
<rect x="221.455" width="63.2727" height="63.2727" rx="6.32727" fill="#FDFFFC"/>
<path d="M249.137 31.6468L260.763 43.2732C261.158 43.6686 261.35 44.13 261.336 44.6573C261.323 45.1845 261.119 45.6459 260.723 46.0414C260.328 46.4368 259.867 46.6345 259.339 46.6345C258.812 46.6345 258.351 46.4368 257.955 46.0414L245.775 33.9009C245.459 33.5845 245.222 33.2286 245.063 32.8332C244.905 32.4377 244.826 32.0423 244.826 31.6468C244.826 31.2514 244.905 30.8559 245.063 30.4604C245.222 30.065 245.459 29.7091 245.775 29.3927L257.955 17.2127C258.351 16.8173 258.819 16.6261 259.359 16.6393C259.9 16.6525 260.368 16.8568 260.763 17.2523C261.158 17.6477 261.356 18.1091 261.356 18.6364C261.356 19.1636 261.158 19.625 260.763 20.0204L249.137 31.6468Z" fill="#1E2EDE"/>
<rect x="332.182" width="63.2727" height="63.2727" rx="6.32727" fill="#FDFFFC"/>
<path d="M363.818 34.6419L366.191 36.461C366.481 36.6983 366.797 36.7049 367.14 36.4808C367.483 36.2567 367.588 35.9601 367.456 35.591L366.507 32.5856L369.157 30.5292C369.447 30.2919 369.526 29.9953 369.394 29.6394C369.262 29.2835 369.012 29.1056 368.643 29.1056H365.558L364.57 26.0606C364.438 25.6915 364.187 25.5069 363.818 25.5069C363.449 25.5069 363.199 25.6915 363.067 26.0606L362.078 29.1056H358.954C358.585 29.1056 358.341 29.2835 358.222 29.6394C358.104 29.9953 358.19 30.2919 358.48 30.5292L361.05 32.5856L360.101 35.6306C359.969 35.9997 360.061 36.2963 360.378 36.5203C360.694 36.7444 361.01 36.7378 361.327 36.5006L363.818 34.6419ZM351.164 44.291C350.294 44.291 349.549 43.9813 348.929 43.3617C348.31 42.7422 348 41.9974 348 41.1274V35.7888C348 35.4988 348.092 35.2483 348.277 35.0374C348.461 34.8265 348.699 34.6947 348.989 34.6419C349.621 34.431 350.142 34.0488 350.551 33.4951C350.959 32.9415 351.164 32.3219 351.164 31.6365C351.164 30.951 350.959 30.3315 350.551 29.7778C350.142 29.2242 349.621 28.8419 348.989 28.631C348.699 28.5783 348.461 28.4465 348.277 28.2356C348.092 28.0247 348 27.7742 348 27.4842V22.1456C348 21.2756 348.31 20.5308 348.929 19.9113C349.549 19.2917 350.294 18.9819 351.164 18.9819H376.473C377.343 18.9819 378.087 19.2917 378.707 19.9113C379.327 20.5308 379.636 21.2756 379.636 22.1456V27.4842C379.636 27.7742 379.544 28.0247 379.36 28.2356C379.175 28.4465 378.938 28.5783 378.648 28.631C378.015 28.8419 377.494 29.2242 377.086 29.7778C376.677 30.3315 376.473 30.951 376.473 31.6365C376.473 32.3219 376.677 32.9415 377.086 33.4951C377.494 34.0488 378.015 34.431 378.648 34.6419C378.938 34.6947 379.175 34.8265 379.36 35.0374C379.544 35.2483 379.636 35.4988 379.636 35.7888V41.1274C379.636 41.9974 379.327 42.7422 378.707 43.3617C378.087 43.9813 377.343 44.291 376.473 44.291H351.164ZM351.164 41.1274H376.473V37.0938C375.497 36.5138 374.726 35.7426 374.159 34.7803C373.592 33.8181 373.309 32.7701 373.309 31.6365C373.309 30.5028 373.592 29.4549 374.159 28.4926C374.726 27.5303 375.497 26.7592 376.473 26.1792V22.1456H351.164V26.1792C352.139 26.7592 352.91 27.5303 353.477 28.4926C354.044 29.4549 354.327 30.5028 354.327 31.6365C354.327 32.7701 354.044 33.8181 353.477 34.7803C352.91 35.7426 352.139 36.5138 351.164 37.0938V41.1274Z" fill="#1E2EDE"/>
<rect x="442.908" width="63.2727" height="63.2727" rx="6.32727" fill="#FDFFFC"/>
<path d="M463.472 47.4547C462.602 47.4547 461.857 47.1449 461.238 46.5254C460.618 45.9059 460.309 45.1611 460.309 44.2911V22.1456C460.309 21.2756 460.618 20.5309 461.238 19.9113C461.857 19.2918 462.602 18.982 463.472 18.982H465.054V17.4002C465.054 16.952 465.206 16.5763 465.509 16.2731C465.812 15.97 466.188 15.8184 466.636 15.8184C467.084 15.8184 467.46 15.97 467.763 16.2731C468.066 16.5763 468.218 16.952 468.218 17.4002V18.982H480.872V17.4002C480.872 16.952 481.024 16.5763 481.327 16.2731C481.63 15.97 482.006 15.8184 482.454 15.8184C482.902 15.8184 483.278 15.97 483.581 16.2731C483.884 16.5763 484.036 16.952 484.036 17.4002V18.982H485.618C486.488 18.982 487.232 19.2918 487.852 19.9113C488.472 20.5309 488.781 21.2756 488.781 22.1456V44.2911C488.781 45.1611 488.472 45.9059 487.852 46.5254C487.232 47.1449 486.488 47.4547 485.618 47.4547H463.472ZM463.472 44.2911H485.618V28.4729H463.472V44.2911ZM463.472 25.3093H485.618V22.1456H463.472V25.3093ZM474.545 34.8002C474.097 34.8002 473.721 34.6486 473.418 34.3454C473.115 34.0422 472.963 33.6665 472.963 33.2184C472.963 32.7702 473.115 32.3945 473.418 32.0913C473.721 31.7881 474.097 31.6365 474.545 31.6365C474.993 31.6365 475.369 31.7881 475.672 32.0913C475.975 32.3945 476.127 32.7702 476.127 33.2184C476.127 33.6665 475.975 34.0422 475.672 34.3454C475.369 34.6486 474.993 34.8002 474.545 34.8002ZM468.218 34.8002C467.77 34.8002 467.394 34.6486 467.091 34.3454C466.787 34.0422 466.636 33.6665 466.636 33.2184C466.636 32.7702 466.787 32.3945 467.091 32.0913C467.394 31.7881 467.77 31.6365 468.218 31.6365C468.666 31.6365 469.042 31.7881 469.345 32.0913C469.648 32.3945 469.8 32.7702 469.8 33.2184C469.8 33.6665 469.648 34.0422 469.345 34.3454C469.042 34.6486 468.666 34.8002 468.218 34.8002ZM480.872 34.8002C480.424 34.8002 480.048 34.6486 479.745 34.3454C479.442 34.0422 479.29 33.6665 479.29 33.2184C479.29 32.7702 479.442 32.3945 479.745 32.0913C480.048 31.7881 480.424 31.6365 480.872 31.6365C481.32 31.6365 481.696 31.7881 481.999 32.0913C482.302 32.3945 482.454 32.7702 482.454 33.2184C482.454 33.6665 482.302 34.0422 481.999 34.3454C481.696 34.6486 481.32 34.8002 480.872 34.8002ZM474.545 41.1274C474.097 41.1274 473.721 40.9759 473.418 40.6727C473.115 40.3695 472.963 39.9938 472.963 39.5456C472.963 39.0975 473.115 38.7218 473.418 38.4186C473.721 38.1154 474.097 37.9638 474.545 37.9638C474.993 37.9638 475.369 38.1154 475.672 38.4186C475.975 38.7218 476.127 39.0975 476.127 39.5456C476.127 39.9938 475.975 40.3695 475.672 40.6727C475.369 40.9759 474.993 41.1274 474.545 41.1274ZM468.218 41.1274C467.77 41.1274 467.394 40.9759 467.091 40.6727C466.787 40.3695 466.636 39.9938 466.636 39.5456C466.636 39.0975 466.787 38.7218 467.091 38.4186C467.394 38.1154 467.77 37.9638 468.218 37.9638C468.666 37.9638 469.042 38.1154 469.345 38.4186C469.648 38.7218 469.8 39.0975 469.8 39.5456C469.8 39.9938 469.648 40.3695 469.345 40.6727C469.042 40.9759 468.666 41.1274 468.218 41.1274ZM480.872 41.1274C480.424 41.1274 480.048 40.9759 479.745 40.6727C479.442 40.3695 479.29 39.9938 479.29 39.5456C479.29 39.0975 479.442 38.7218 479.745 38.4186C480.048 38.1154 480.424 37.9638 480.872 37.9638C481.32 37.9638 481.696 38.1154 481.999 38.4186C482.302 38.7218 482.454 39.0975 482.454 39.5456C482.454 39.9938 482.302 40.3695 481.999 40.6727C481.696 40.9759 481.32 41.1274 480.872 41.1274Z" fill="#1E2EDE"/>
<rect x="553.637" width="63.2727" height="63.2727" rx="6.32727" fill="#FDFFFC"/>
<path d="M583.692 33.218H575.783C575.335 33.218 574.959 33.0664 574.656 32.7632C574.353 32.4601 574.201 32.0844 574.201 31.6362C574.201 31.188 574.353 30.8123 574.656 30.5092C574.959 30.206 575.335 30.0544 575.783 30.0544H583.692V22.1453C583.692 21.6971 583.844 21.3214 584.147 21.0182C584.45 20.7151 584.826 20.5635 585.274 20.5635C585.722 20.5635 586.098 20.7151 586.401 21.0182C586.704 21.3214 586.856 21.6971 586.856 22.1453V30.0544H594.765C595.213 30.0544 595.589 30.206 595.892 30.5092C596.195 30.8123 596.347 31.188 596.347 31.6362C596.347 32.0844 596.195 32.4601 595.892 32.7632C595.589 33.0664 595.213 33.218 594.765 33.218H586.856V41.1271C586.856 41.5753 586.704 41.951 586.401 42.2542C586.098 42.5573 585.722 42.7089 585.274 42.7089C584.826 42.7089 584.45 42.5573 584.147 42.2542C583.844 41.951 583.692 41.5753 583.692 41.1271V33.218Z" fill="#1E2EDE"/>
<rect y="110.727" width="63.2727" height="63.2727" rx="6.32727" fill="#FDFFFC"/>
<path d="M31.6362 146.318C30.318 146.318 29.1975 145.856 28.2748 144.934C27.3521 144.011 26.8907 142.89 26.8907 141.572V132.081C26.8907 130.763 27.3521 129.643 28.2748 128.72C29.1975 127.797 30.318 127.336 31.6362 127.336C32.9544 127.336 34.0748 127.797 34.9975 128.72C35.9203 129.643 36.3816 130.763 36.3816 132.081V141.572C36.3816 142.89 35.9203 144.011 34.9975 144.934C34.0748 145.856 32.9544 146.318 31.6362 146.318ZM30.0544 155.809V152.526C27.6289 152.184 25.5528 151.155 23.826 149.442C22.0991 147.728 21.0512 145.645 20.6821 143.194C20.6294 142.745 20.748 142.363 21.038 142.047C21.328 141.73 21.6971 141.572 22.1453 141.572C22.5935 141.572 22.9691 141.724 23.2723 142.027C23.5755 142.33 23.7798 142.706 23.8853 143.154C24.2544 145 25.1705 146.515 26.6337 147.702C28.0969 148.888 29.7644 149.481 31.6362 149.481C33.5344 149.481 35.2085 148.882 36.6585 147.682C38.1085 146.483 39.018 144.973 39.3871 143.154C39.4925 142.706 39.6969 142.33 40 142.027C40.3032 141.724 40.6789 141.572 41.1271 141.572C41.5753 141.572 41.9444 141.73 42.2344 142.047C42.5244 142.363 42.643 142.745 42.5903 143.194C42.2212 145.593 41.1798 147.662 39.4662 149.402C37.7525 151.142 35.6698 152.184 33.218 152.526V155.809C33.218 156.257 33.0664 156.633 32.7632 156.936C32.46 157.239 32.0844 157.39 31.6362 157.39C31.188 157.39 30.8123 157.239 30.5091 156.936C30.206 156.633 30.0544 156.257 30.0544 155.809ZM31.6362 143.154C32.0844 143.154 32.46 143.003 32.7632 142.699C33.0664 142.396 33.218 142.02 33.218 141.572V132.081C33.218 131.633 33.0664 131.258 32.7632 130.954C32.46 130.651 32.0844 130.5 31.6362 130.5C31.188 130.5 30.8123 130.651 30.5091 130.954C30.206 131.258 30.0544 131.633 30.0544 132.081V141.572C30.0544 142.02 30.206 142.396 30.5091 142.699C30.8123 143.003 31.188 143.154 31.6362 143.154Z" fill="#1E2EDE"/>
<rect x="110.727" y="110.727" width="63.2727" height="63.2727" rx="6.32727" fill="#FDFFFC"/>
<path d="M131.291 153.436C130.843 153.436 130.467 153.285 130.164 152.982C129.861 152.678 129.709 152.303 129.709 151.855C129.709 151.406 129.861 151.031 130.164 150.727C130.467 150.424 130.843 150.273 131.291 150.273H132.873V139.2C132.873 137.012 133.532 135.067 134.85 133.367C136.168 131.667 137.882 130.553 139.991 130.025V128.918C139.991 128.259 140.221 127.699 140.683 127.237C141.144 126.776 141.704 126.545 142.364 126.545C143.023 126.545 143.583 126.776 144.044 127.237C144.506 127.699 144.736 128.259 144.736 128.918V130.025C146.845 130.553 148.559 131.667 149.877 133.367C151.195 135.067 151.854 137.012 151.854 139.2V150.273H153.436C153.884 150.273 154.26 150.424 154.563 150.727C154.866 151.031 155.018 151.406 155.018 151.855C155.018 152.303 154.866 152.678 154.563 152.982C154.26 153.285 153.884 153.436 153.436 153.436H131.291ZM142.364 158.182C141.494 158.182 140.749 157.872 140.129 157.252C139.51 156.633 139.2 155.888 139.2 155.018H145.527C145.527 155.888 145.217 156.633 144.598 157.252C143.978 157.872 143.234 158.182 142.364 158.182ZM136.036 150.273H148.691V139.2C148.691 137.46 148.071 135.97 146.832 134.731C145.593 133.492 144.104 132.873 142.364 132.873C140.624 132.873 139.134 133.492 137.895 134.731C136.656 135.97 136.036 137.46 136.036 139.2V150.273Z" fill="#1E2EDE"/>
<rect x="221.455" y="110.727" width="63.2727" height="63.2727" rx="6.32727" fill="#FDFFFC"/>
<path d="M246.778 158.182C245.908 158.182 245.163 157.872 244.544 157.252C243.924 156.633 243.614 155.888 243.614 155.018C243.614 154.148 243.924 153.403 244.544 152.784C245.163 152.164 245.908 151.855 246.778 151.855C247.648 151.855 248.393 152.164 249.012 152.784C249.632 153.403 249.942 154.148 249.942 155.018C249.942 155.888 249.632 156.633 249.012 157.252C248.393 157.872 247.648 158.182 246.778 158.182ZM262.596 158.182C261.726 158.182 260.981 157.872 260.362 157.252C259.742 156.633 259.433 155.888 259.433 155.018C259.433 154.148 259.742 153.403 260.362 152.784C260.981 152.164 261.726 151.855 262.596 151.855C263.466 151.855 264.211 152.164 264.831 152.784C265.45 153.403 265.76 154.148 265.76 155.018C265.76 155.888 265.45 156.633 264.831 157.252C264.211 157.872 263.466 158.182 262.596 158.182ZM245.433 132.873L249.23 140.782H260.303L264.653 132.873H245.433ZM243.931 129.709H267.263C267.869 129.709 268.33 129.979 268.647 130.52C268.963 131.06 268.976 131.607 268.686 132.161L263.071 142.285C262.781 142.812 262.392 143.22 261.904 143.51C261.416 143.8 260.883 143.945 260.303 143.945H248.518L246.778 147.109H264.178C264.626 147.109 265.002 147.261 265.305 147.564C265.608 147.867 265.76 148.243 265.76 148.691C265.76 149.139 265.608 149.515 265.305 149.818C265.002 150.121 264.626 150.273 264.178 150.273H246.778C245.592 150.273 244.695 149.752 244.089 148.711C243.483 147.669 243.456 146.635 244.01 145.606L246.145 141.731L240.451 129.709H238.869C238.421 129.709 238.045 129.557 237.742 129.254C237.439 128.951 237.287 128.575 237.287 128.127C237.287 127.679 237.439 127.303 237.742 127C238.045 126.697 238.421 126.545 238.869 126.545H241.439C241.729 126.545 242.006 126.625 242.27 126.783C242.533 126.941 242.731 127.165 242.863 127.455L243.931 129.709Z" fill="#1E2EDE"/>
<rect x="332.182" y="110.727" width="63.2727" height="63.2727" rx="6.32727" fill="#FDFFFC"/>
<path d="M355.91 156.6C355.04 156.6 354.295 156.29 353.675 155.67C353.056 155.051 352.746 154.306 352.746 153.436V132.872C352.298 132.872 351.922 132.721 351.619 132.418C351.316 132.114 351.164 131.739 351.164 131.291C351.164 130.842 351.316 130.467 351.619 130.164C351.922 129.86 352.298 129.709 352.746 129.709H359.073C359.073 129.261 359.225 128.885 359.528 128.582C359.831 128.279 360.207 128.127 360.655 128.127H366.982C367.43 128.127 367.806 128.279 368.109 128.582C368.412 128.885 368.564 129.261 368.564 129.709H374.891C375.34 129.709 375.715 129.86 376.018 130.164C376.322 130.467 376.473 130.842 376.473 131.291C376.473 131.739 376.322 132.114 376.018 132.418C375.715 132.721 375.34 132.872 374.891 132.872V153.436C374.891 154.306 374.582 155.051 373.962 155.67C373.342 156.29 372.598 156.6 371.728 156.6H355.91ZM371.728 132.872H355.91V153.436H371.728V132.872ZM360.655 150.272C361.103 150.272 361.479 150.121 361.782 149.818C362.085 149.514 362.237 149.139 362.237 148.691V137.618C362.237 137.17 362.085 136.794 361.782 136.491C361.479 136.188 361.103 136.036 360.655 136.036C360.207 136.036 359.831 136.188 359.528 136.491C359.225 136.794 359.073 137.17 359.073 137.618V148.691C359.073 149.139 359.225 149.514 359.528 149.818C359.831 150.121 360.207 150.272 360.655 150.272ZM366.982 150.272C367.43 150.272 367.806 150.121 368.109 149.818C368.412 149.514 368.564 149.139 368.564 148.691V137.618C368.564 137.17 368.412 136.794 368.109 136.491C367.806 136.188 367.43 136.036 366.982 136.036C366.534 136.036 366.158 136.188 365.855 136.491C365.552 136.794 365.4 137.17 365.4 137.618V148.691C365.4 149.139 365.552 149.514 365.855 149.818C366.158 150.121 366.534 150.272 366.982 150.272Z" fill="#1E2EDE"/>
<rect x="442.908" y="110.727" width="63.2727" height="63.2727" rx="6.32727" fill="#FDFFFC"/>
<path d="M487.338 143.827L462.978 154.109C462.451 154.319 461.95 154.273 461.475 153.97C461.001 153.667 460.764 153.225 460.764 152.645V132.082C460.764 131.502 461.001 131.06 461.475 130.757C461.95 130.454 462.451 130.408 462.978 130.619L487.338 140.9C487.997 141.19 488.327 141.678 488.327 142.364C488.327 143.049 487.997 143.537 487.338 143.827ZM463.927 150.273L482.672 142.364L463.927 134.454V139.991L473.418 142.364L463.927 144.736V150.273Z" fill="#1E2EDE"/>
<rect x="553.637" y="110.727" width="63.2727" height="63.2727" rx="6.32727" fill="#FDFFFC"/>
<path d="M575.783 153.041H580.528V145.132C580.528 144.683 580.68 144.308 580.983 144.005C581.286 143.701 581.662 143.55 582.11 143.55H588.437C588.886 143.55 589.261 143.701 589.564 144.005C589.868 144.308 590.019 144.683 590.019 145.132V153.041H594.765V138.804L585.274 131.686L575.783 138.804V153.041ZM572.619 153.041V138.804C572.619 138.303 572.731 137.829 572.955 137.381C573.179 136.932 573.489 136.563 573.885 136.273L583.376 129.155C583.929 128.733 584.562 128.522 585.274 128.522C585.986 128.522 586.618 128.733 587.172 129.155L596.663 136.273C597.058 136.563 597.368 136.932 597.592 137.381C597.816 137.829 597.928 138.303 597.928 138.804V153.041C597.928 153.911 597.618 154.655 596.999 155.275C596.379 155.895 595.635 156.204 594.765 156.204H588.437C587.989 156.204 587.613 156.053 587.31 155.75C587.007 155.446 586.856 155.071 586.856 154.622V146.713H583.692V154.622C583.692 155.071 583.54 155.446 583.237 155.75C582.934 156.053 582.558 156.204 582.11 156.204H575.783C574.913 156.204 574.168 155.895 573.548 155.275C572.929 154.655 572.619 153.911 572.619 153.041Z" fill="#1E2EDE"/>
</svg>
