<svg width="443" height="152" viewBox="0 0 443 152" fill="none" xmlns="http://www.w3.org/2000/svg">
<path d="M421.153 149.125C420.671 149.125 420.43 148.901 420.43 148.453V122.413C420.43 121.966 420.619 121.742 420.998 121.742H424.098C424.477 121.742 424.666 121.931 424.666 122.31V125.307C424.666 125.479 424.701 125.582 424.77 125.617C424.839 125.651 424.959 125.6 425.131 125.462C426.268 124.566 427.319 123.808 428.283 123.188C429.282 122.534 430.298 122.052 431.331 121.742C432.365 121.397 433.467 121.225 434.638 121.225C437.325 121.225 439.374 121.948 440.786 123.395C442.233 124.842 442.956 126.719 442.956 129.027V148.298C442.956 148.85 442.698 149.125 442.181 149.125H439.288C439.047 149.125 438.875 149.073 438.771 148.97C438.668 148.832 438.616 148.66 438.616 148.453V130.008C438.616 128.321 438.186 127.012 437.325 126.082C436.464 125.117 435.103 124.635 433.243 124.635C432.244 124.635 431.297 124.807 430.401 125.152C429.54 125.462 428.662 125.927 427.766 126.547C426.871 127.132 425.872 127.89 424.77 128.82V148.35C424.77 148.867 424.511 149.125 423.995 149.125H421.153Z" fill="#020100"/>
<path d="M412.409 148.247C412.409 148.591 412.34 148.832 412.202 148.97C412.099 149.074 411.858 149.125 411.479 149.125H408.844C408.534 149.125 408.327 149.074 408.224 148.97C408.121 148.867 408.069 148.677 408.069 148.402V122.465C408.069 121.983 408.276 121.742 408.689 121.742H411.841C412.22 121.742 412.409 121.966 412.409 122.414V148.247ZM412.616 115.852C412.616 116.506 412.306 116.834 411.686 116.834H408.689C408.379 116.834 408.172 116.765 408.069 116.627C407.966 116.455 407.914 116.231 407.914 115.955V111.615C407.914 111.064 408.155 110.789 408.637 110.789H411.892C412.375 110.789 412.616 111.047 412.616 111.564V115.852Z" fill="#020100"/>
<path d="M400.099 148.247C400.099 148.591 400.03 148.832 399.892 148.97C399.754 149.074 399.513 149.125 399.169 149.125H396.482C395.965 149.125 395.707 148.884 395.707 148.402L395.759 111.512C395.759 111.03 395.965 110.789 396.379 110.789H399.479C399.892 110.789 400.099 111.012 400.099 111.46V148.247Z" fill="#020100"/>
<path d="M390.207 148.299C390.345 148.505 390.38 148.695 390.311 148.867C390.242 149.039 390.052 149.125 389.742 149.125H386.126C385.919 149.125 385.73 149.074 385.557 148.97C385.42 148.867 385.299 148.712 385.196 148.505L377.394 135.124C377.325 134.986 377.239 134.9 377.136 134.865C377.067 134.796 376.946 134.848 376.774 135.02L371.297 140.549C371.16 140.686 371.056 140.841 370.987 141.014C370.953 141.151 370.936 141.341 370.936 141.582V148.247C370.936 148.591 370.867 148.832 370.729 148.97C370.626 149.074 370.385 149.125 370.006 149.125H367.371C367.026 149.125 366.802 149.074 366.699 148.97C366.63 148.867 366.596 148.677 366.596 148.402V111.512C366.596 111.03 366.785 110.789 367.164 110.789H370.316C370.729 110.789 370.936 111.012 370.936 111.46V135.434C370.936 135.709 370.97 135.881 371.039 135.95C371.108 135.985 371.246 135.881 371.452 135.64L384.214 122.362C384.593 121.949 384.955 121.742 385.299 121.742H388.451C388.795 121.742 388.985 121.845 389.019 122.052C389.088 122.224 388.985 122.448 388.709 122.724L380.546 131.042C380.442 131.145 380.373 131.266 380.339 131.404C380.339 131.541 380.391 131.714 380.494 131.92L390.207 148.299Z" fill="#020100"/>
<path d="M337.094 149.125C336.612 149.125 336.371 148.901 336.371 148.453V122.413C336.371 121.966 336.561 121.742 336.939 121.742H340.039C340.418 121.742 340.608 121.931 340.608 122.31V125.307C340.608 125.479 340.642 125.582 340.711 125.617C340.78 125.651 340.901 125.6 341.073 125.462C342.209 124.566 343.26 123.808 344.224 123.188C345.223 122.534 346.239 122.052 347.273 121.742C348.306 121.397 349.408 121.225 350.579 121.225C353.266 121.225 355.316 121.948 356.728 123.395C358.174 124.842 358.898 126.719 358.898 129.027V148.298C358.898 148.85 358.639 149.125 358.123 149.125H355.229C354.988 149.125 354.816 149.073 354.713 148.97C354.609 148.832 354.558 148.66 354.558 148.453V130.008C354.558 128.321 354.127 127.012 353.266 126.082C352.405 125.117 351.044 124.635 349.184 124.635C348.186 124.635 347.238 124.807 346.343 125.152C345.482 125.462 344.603 125.927 343.708 126.547C342.812 127.132 341.813 127.89 340.711 128.82V148.35C340.711 148.867 340.453 149.125 339.936 149.125H337.094Z" fill="#020100"/>
<path d="M323.823 145.818C322.549 147.058 321.154 148.006 319.638 148.66C318.157 149.315 316.486 149.642 314.626 149.642C311.94 149.642 309.821 148.953 308.271 147.575C306.756 146.197 305.998 144.389 305.998 142.15C305.998 140.325 306.515 138.757 307.548 137.448C308.581 136.105 310.114 135.055 312.146 134.297C314.179 133.505 316.676 133.022 319.638 132.85L323.668 132.54C323.875 132.506 324.064 132.437 324.236 132.333C324.409 132.23 324.495 132.041 324.495 131.765V130.37C324.495 128.51 323.909 127.046 322.738 125.978C321.601 124.876 320.051 124.325 318.088 124.325C316.572 124.325 315.195 124.67 313.955 125.358C312.749 126.047 311.664 127.081 310.7 128.458C310.562 128.631 310.441 128.751 310.338 128.82C310.269 128.855 310.131 128.837 309.925 128.768L307.135 127.838C307.031 127.77 306.945 127.683 306.876 127.58C306.842 127.477 306.894 127.287 307.031 127.012C308.065 125.221 309.511 123.808 311.371 122.775C313.266 121.742 315.574 121.225 318.295 121.225C320.602 121.225 322.514 121.587 324.03 122.31C325.58 122.999 326.734 124.015 327.491 125.358C328.284 126.667 328.68 128.235 328.68 130.06V148.35C328.68 148.66 328.628 148.867 328.525 148.97C328.421 149.073 328.249 149.125 328.008 149.125H325.373C325.132 149.125 324.96 149.056 324.856 148.918C324.753 148.746 324.684 148.54 324.65 148.298L324.598 145.922C324.495 145.44 324.236 145.405 323.823 145.818ZM324.495 136.002C324.495 135.416 324.254 135.141 323.771 135.175L320.361 135.485C318.777 135.554 317.365 135.761 316.125 136.105C314.885 136.415 313.834 136.828 312.973 137.345C312.112 137.862 311.457 138.482 311.01 139.205C310.562 139.894 310.338 140.703 310.338 141.633C310.338 143.149 310.855 144.337 311.888 145.198C312.956 146.025 314.385 146.438 316.176 146.438C317.279 146.438 318.329 146.249 319.328 145.87C320.361 145.457 321.257 144.94 322.015 144.32C322.807 143.666 323.41 142.994 323.823 142.305C324.271 141.616 324.495 140.945 324.495 140.29V136.002Z" fill="#020100"/>
<path d="M289.313 149.125C289.072 149.125 288.883 149.073 288.745 148.97C288.642 148.832 288.59 148.66 288.59 148.453V122.413C288.59 121.966 288.779 121.742 289.158 121.742H292.155C292.534 121.742 292.723 121.931 292.723 122.31V125.668C292.723 125.875 292.775 125.996 292.878 126.03C292.982 126.065 293.119 125.996 293.292 125.823C294.187 124.756 295.065 123.895 295.927 123.24C296.822 122.551 297.718 122.052 298.613 121.742C299.509 121.397 300.404 121.225 301.3 121.225C302.505 121.225 303.108 121.449 303.108 121.897V124.997C303.108 125.341 302.953 125.479 302.643 125.41C302.333 125.376 301.972 125.341 301.558 125.307C301.179 125.272 300.766 125.255 300.318 125.255C299.56 125.255 298.751 125.427 297.89 125.772C297.029 126.082 296.219 126.53 295.462 127.115C294.738 127.701 294.135 128.355 293.653 129.078C293.171 129.802 292.93 130.525 292.93 131.248V148.35C292.93 148.867 292.672 149.125 292.155 149.125H289.313Z" fill="#020100"/>
<path d="M261.469 111.512C261.469 111.03 261.675 110.789 262.089 110.789H284.822C285.167 110.789 285.339 110.978 285.339 111.357V113.992C285.339 114.405 285.115 114.612 284.667 114.612H267.1C266.653 114.612 266.429 114.819 266.429 115.232V127.942C266.429 128.321 266.618 128.51 266.997 128.51H280.792C281.171 128.51 281.36 128.682 281.36 129.027V131.765C281.36 132.075 281.171 132.23 280.792 132.23H266.997C266.618 132.23 266.429 132.42 266.429 132.799V148.454C266.429 148.901 266.188 149.125 265.705 149.125H262.192C261.917 149.125 261.727 149.074 261.624 148.97C261.52 148.867 261.469 148.677 261.469 148.402V111.512Z" fill="#020100"/>
<path d="M356.823 91.1384C356.823 92.8262 357.219 94.3762 358.011 95.7884C358.838 97.1662 359.923 98.2684 361.266 99.0951C362.644 99.9218 364.177 100.335 365.865 100.335C367.587 100.335 369.12 99.9907 370.463 99.3018C371.806 98.5784 372.96 97.4934 373.925 96.0468C374.063 95.909 374.166 95.8401 374.235 95.8401C374.338 95.8057 374.476 95.8229 374.648 95.8918L376.818 96.9768C377.128 97.149 377.163 97.3901 376.921 97.7001C375.991 99.0779 374.958 100.215 373.821 101.11C372.719 101.971 371.479 102.608 370.101 103.022C368.724 103.435 367.174 103.642 365.451 103.642C362.903 103.642 360.646 103.056 358.683 101.885C356.72 100.714 355.17 99.0779 354.033 96.9768C352.896 94.8757 352.328 92.4473 352.328 89.6918C352.328 86.6951 352.896 84.129 354.033 81.9934C355.204 79.8234 356.771 78.1529 358.735 76.9818C360.733 75.8107 362.954 75.2251 365.4 75.2251C367.914 75.2251 370.101 75.7762 371.961 76.8784C373.821 77.9807 375.268 79.5823 376.301 81.6834C377.335 83.7845 377.851 86.3162 377.851 89.2784C377.851 89.5195 377.817 89.7607 377.748 90.0018C377.714 90.2429 377.49 90.3634 377.076 90.3634H357.288C357.15 90.3634 357.03 90.4495 356.926 90.6218C356.858 90.7595 356.823 90.9318 356.823 91.1384ZM372.633 87.5218C373.012 87.5218 373.253 87.4873 373.356 87.4184C373.46 87.3151 373.511 87.1084 373.511 86.7984C373.511 85.3173 373.184 83.9395 372.53 82.6651C371.91 81.3562 370.997 80.3057 369.791 79.5134C368.62 78.7212 367.191 78.3251 365.503 78.3251C363.643 78.3251 362.076 78.7729 360.801 79.6684C359.527 80.5295 358.563 81.6662 357.908 83.0784C357.254 84.4907 356.926 85.9718 356.926 87.5218H372.633Z" fill="#020100"/>
<path d="M335.53 103.125C335.289 103.125 335.099 103.073 334.962 102.97C334.858 102.832 334.807 102.66 334.807 102.453V76.4134C334.807 75.9657 334.996 75.7418 335.375 75.7418H338.372C338.751 75.7418 338.94 75.9312 338.94 76.3101V79.6684C338.94 79.8751 338.992 79.9957 339.095 80.0301C339.198 80.0645 339.336 79.9957 339.508 79.8234C340.404 78.7557 341.282 77.8945 342.143 77.2401C343.039 76.5512 343.934 76.0518 344.83 75.7418C345.726 75.3973 346.621 75.2251 347.517 75.2251C348.722 75.2251 349.325 75.449 349.325 75.8968V78.9968C349.325 79.3412 349.17 79.479 348.86 79.4101C348.55 79.3757 348.188 79.3412 347.775 79.3068C347.396 79.2723 346.983 79.2551 346.535 79.2551C345.777 79.2551 344.968 79.4273 344.107 79.7718C343.246 80.0818 342.436 80.5295 341.678 81.1151C340.955 81.7007 340.352 82.3551 339.87 83.0784C339.388 83.8018 339.147 84.5251 339.147 85.2484V102.35C339.147 102.867 338.888 103.125 338.372 103.125H335.53Z" fill="#020100"/>
<path d="M304.704 103.125C304.394 103.125 304.17 103.056 304.032 102.919C303.929 102.781 303.877 102.574 303.877 102.299V65.5119C303.877 65.0297 304.084 64.7886 304.497 64.7886H307.7C308.045 64.7886 308.217 65.0297 308.217 65.5119V78.1702C308.217 78.5491 308.286 78.7558 308.424 78.7902C308.561 78.7902 308.751 78.6869 308.992 78.4802C309.302 78.1702 309.801 77.7569 310.49 77.2402C311.214 76.7236 312.126 76.2586 313.229 75.8452C314.365 75.4319 315.709 75.2252 317.259 75.2252C319.773 75.2252 321.84 75.8452 323.459 77.0852C325.078 78.3252 326.283 80.013 327.075 82.1486C327.902 84.2497 328.315 86.6264 328.315 89.2786C328.315 93.6875 327.282 97.1836 325.215 99.7669C323.149 102.35 320.255 103.642 316.535 103.642C314.951 103.642 313.59 103.401 312.454 102.919C311.351 102.436 310.439 101.868 309.715 101.214C308.992 100.559 308.458 100.008 308.114 99.5602C307.976 99.388 307.855 99.3191 307.752 99.3536C307.649 99.388 307.58 99.5086 307.545 99.7152L307.287 102.299C307.218 102.85 306.908 103.125 306.357 103.125H304.704ZM308.217 93.8769C308.217 95.1169 308.561 96.2536 309.25 97.2869C309.974 98.2858 310.904 99.078 312.04 99.6636C313.177 100.249 314.365 100.542 315.605 100.542C317.155 100.542 318.55 100.163 319.79 99.4052C321.03 98.613 322.012 97.3902 322.735 95.7369C323.459 94.0836 323.82 91.9652 323.82 89.3819C323.82 85.8686 323.149 83.1647 321.805 81.2702C320.462 79.3414 318.516 78.3769 315.967 78.3769C314.348 78.3769 312.867 78.7558 311.524 79.5136C310.215 80.2369 309.113 81.1325 308.217 82.2002V93.8769Z" fill="#020100"/>
<path d="M295.856 102.247C295.856 102.591 295.787 102.832 295.65 102.97C295.546 103.074 295.305 103.125 294.926 103.125H292.291C291.981 103.125 291.775 103.074 291.671 102.97C291.568 102.867 291.516 102.677 291.516 102.402V76.4652C291.516 75.983 291.723 75.7419 292.136 75.7419H295.288C295.667 75.7419 295.856 75.9658 295.856 76.4136V102.247ZM296.063 69.8519C296.063 70.5064 295.753 70.8336 295.133 70.8336H292.136C291.826 70.8336 291.62 70.7647 291.516 70.6269C291.413 70.4547 291.361 70.2308 291.361 69.9552V65.6152C291.361 65.0641 291.602 64.7886 292.085 64.7886H295.34C295.822 64.7886 296.063 65.0469 296.063 65.5636V69.8519Z" fill="#020100"/>
<path d="M261.469 65.5119C261.469 65.0297 261.675 64.7886 262.089 64.7886H265.809C266.222 64.7886 266.429 65.0125 266.429 65.4602V98.7852C266.429 99.1297 266.601 99.3019 266.945 99.3019H284.822C285.235 99.3019 285.442 99.4741 285.442 99.8186V102.557C285.442 102.729 285.39 102.867 285.287 102.97C285.184 103.074 285.029 103.125 284.822 103.125H262.192C261.917 103.125 261.727 103.074 261.624 102.97C261.52 102.832 261.469 102.643 261.469 102.402V65.5119Z" fill="#020100"/>
<path d="M211.176 138.876C207.022 142.627 202.333 145.642 197.107 147.92C192.016 150.063 186.121 151.135 179.421 151.135C169.239 151.135 161.199 148.389 155.304 142.895C149.543 137.402 146.662 130.368 146.662 121.793C146.662 114.289 149.007 107.724 153.696 102.097C158.386 96.4694 165.085 92.1149 173.794 89.0332C182.503 85.8176 192.887 84.0758 204.946 83.8078L211.98 83.2049C212.784 83.2049 213.521 83.0039 214.191 82.6019C214.86 82.2 215.195 81.4631 215.195 80.3912V76.1707C215.195 71.0792 213.722 67.1267 210.774 64.313C207.826 61.3653 203.606 59.8915 198.112 59.8915C194.093 59.8915 190.207 60.8294 186.456 62.7052C182.838 64.447 179.756 67.5286 177.211 71.9501C176.809 72.888 176.34 73.491 175.804 73.7589C175.268 74.0269 174.263 74.0269 172.789 73.7589L152.691 69.1365C151.888 68.8685 151.285 68.4665 150.883 67.9306C150.615 67.2607 150.883 65.9208 151.687 63.911C155.036 56.0059 160.798 50.1776 168.971 46.426C177.278 42.5404 187.461 40.5977 199.519 40.5977C210.64 40.5977 219.483 42.0045 226.048 44.8182C232.613 47.6319 237.37 51.5844 240.318 56.6758C243.265 61.6333 244.739 67.4616 244.739 74.1609V144.704C244.739 146.312 244.471 147.451 243.935 148.121C243.399 148.791 242.394 149.125 240.921 149.125H220.22C218.746 149.125 217.674 148.59 217.004 147.518C216.468 146.446 216.133 145.106 215.999 143.498L215.597 139.077C215.329 136.665 213.856 136.598 211.176 138.876ZM215.195 101.695C215.195 99.417 214.191 98.2782 212.181 98.2782L206.553 98.6801C203.07 98.8141 199.586 99.3501 196.103 100.288C192.619 101.092 189.47 102.298 186.657 103.906C183.843 105.379 181.498 107.322 179.622 109.734C177.881 112.012 177.01 114.691 177.01 117.773C177.01 121.793 178.417 125.008 181.23 127.42C184.044 129.698 187.929 130.837 192.887 130.837C196.237 130.837 199.184 130.301 201.73 129.229C204.41 128.157 206.687 126.884 208.563 125.41C210.573 123.668 212.181 121.927 213.387 120.185C214.592 118.443 215.195 116.634 215.195 114.758V101.695Z" fill="#1E2EDE"/>
<path d="M3.46974 149.125C2.26387 149.125 1.39297 148.589 0.857033 147.517C0.321093 146.446 0.321093 145.039 0.857033 143.297L50.9004 4.01954C51.4364 2.54571 52.0393 1.54083 52.7092 1.00489C53.3791 0.334962 54.518 0 56.1258 0H86.2724C89.2201 0 91.2299 1.47383 92.3018 4.4215L141.943 143.699C142.345 144.771 142.345 145.977 141.943 147.316C141.541 148.522 140.737 149.125 139.531 149.125H109.988C107.978 149.125 106.705 148.187 106.169 146.312L95.7184 116.969C95.5844 116.299 95.3164 115.763 94.9145 115.361C94.6465 114.959 94.0436 114.758 93.1057 114.758H44.0672C42.7273 114.758 41.8564 115.428 41.4545 116.768L30.8027 146.513C30.5347 147.316 30.0658 147.986 29.3958 148.522C28.8599 148.924 27.922 149.125 26.5821 149.125H3.46974ZM84.8656 88.0281C86.7414 88.0281 87.3443 86.8892 86.6744 84.6115L69.7923 37.5828C69.3903 36.7789 68.9214 36.3769 68.3855 36.3769C67.9835 36.3769 67.5815 36.8459 67.1796 37.7838L50.0965 84.6115C49.1586 86.8892 49.7615 88.0281 51.9053 88.0281H84.8656Z" fill="#1E2EDE"/>
</svg>
