<svg width="447" height="204" viewBox="0 0 447 204" fill="none" xmlns="http://www.w3.org/2000/svg">
<path d="M419.279 153.742C401.998 153.742 391.795 142.528 391.795 128.648C391.795 114.768 401.998 103.646 419.279 103.646C436.927 103.646 446.946 114.768 446.946 128.648C446.946 142.528 436.927 153.742 419.279 153.742ZM411.833 128.648C411.833 134.899 414.591 138.851 419.371 138.851C424.242 138.851 426.908 134.899 426.908 128.648C426.908 122.581 424.242 118.537 419.371 118.537C414.591 118.537 411.833 122.581 411.833 128.648Z" fill="#9C61CF"/>
<path d="M345.645 145.929C345.645 145.929 356.951 139.403 370.095 139.403H382.596V152.823H333.695V131.681L369.728 114.493V111.367C369.728 111.367 360.72 118.445 344.726 118.445H334.615V105.025H381.677V126.166L345.645 143.447V145.929Z" fill="#9C61CF"/>
<path d="M296.351 153.742C279.07 153.742 268.867 142.528 268.867 128.648C268.867 114.768 279.07 103.646 296.351 103.646C314 103.646 324.019 114.768 324.019 128.648C324.019 142.528 314 153.742 296.351 153.742ZM288.906 128.648C288.906 134.899 291.663 138.851 296.443 138.851C301.315 138.851 303.98 134.899 303.98 128.648C303.98 122.581 301.315 118.537 296.443 118.537C291.663 118.537 288.906 122.581 288.906 128.648Z" fill="#9C61CF"/>
<path d="M222.794 153.742C206.892 153.742 201.744 139.954 201.744 128.372C201.744 114.033 209.833 103.646 221.415 103.646C230.515 103.646 235.019 109.529 235.019 115.687C235.019 121.295 232.353 123.776 229.688 124.236C229.963 123.501 230.055 122.765 230.055 122.03C230.055 120.1 229.044 117.434 226.654 117.434C223.437 117.434 221.507 121.938 221.507 127.269C221.507 134.439 224.632 137.84 229.32 137.84C234.743 137.84 238.879 132.049 238.879 122.489V83.8834H258.183V152.823H241.086C238.604 152.823 238.42 152.179 238.42 150.984C238.42 147.859 245.773 143.355 245.773 132.325H243.567C243.567 138.943 237.501 153.742 222.794 153.742Z" fill="#9C61CF"/>
<path d="M193.912 123.225C193.912 123.225 189.408 121.57 183.618 121.57C175.345 121.57 172.311 125.247 172.311 133.704V152.823H152.549V105.025H169.278C171.668 105.025 172.128 105.668 172.128 106.404C172.128 109.437 164.682 114.86 164.682 126.902H166.888C166.888 118.353 172.955 104.106 186.283 104.106C188.949 104.106 192.442 104.29 193.912 104.565V123.225Z" fill="#9C61CF"/>
<path d="M103.367 153.742C87.4649 153.742 82.3174 140.138 82.3174 128.372C82.3174 114.033 90.4063 103.646 101.988 103.646C111.088 103.646 115.592 109.529 115.592 115.688C115.592 121.295 112.926 123.776 110.261 124.236C110.537 123.501 110.628 122.765 110.628 122.03C110.628 120.1 109.617 117.434 107.227 117.434C104.01 117.434 102.08 121.846 102.08 126.258C102.08 133.428 105.205 137.84 109.893 137.84C114.857 137.84 118.993 132.233 118.993 122.49V105.025H138.756V152.823H121.659C119.177 152.823 118.993 152.179 118.993 150.985C118.993 147.859 126.347 143.355 126.347 132.325H124.141C124.141 138.943 118.074 153.742 103.367 153.742Z" fill="#9C61CF"/>
<path d="M40.3524 137.472C47.614 137.472 53.1292 134.347 56.0706 129.108L75.8332 132.968C71.1453 143.539 60.115 154.202 40.0766 154.202C15.1665 154.202 1.5625 138.667 1.5625 118.445C1.5625 98.7743 15.9019 82.7804 40.0766 82.7804C56.8979 82.7804 68.7554 91.7885 74.3625 102.267L55.611 108.058C52.5777 102.543 47.2463 99.142 40.0766 99.142C30.7009 99.142 22.5201 105.668 22.5201 118.445C22.5201 131.773 31.9878 137.472 40.3524 137.472Z" fill="#9C61CF"/>
<path d="M409.548 71.5131C393.646 71.5131 388.498 57.909 388.498 46.1434C388.498 31.804 396.587 21.4171 408.169 21.4171C417.269 21.4171 421.773 27.2999 421.773 33.4585C421.773 39.0656 419.107 41.5474 416.441 42.007C416.717 41.2717 416.809 40.5363 416.809 39.801C416.809 37.8707 415.798 35.205 413.408 35.205C410.191 35.205 408.261 39.6171 408.261 44.0292C408.261 51.1989 411.386 55.6111 416.074 55.6111C421.037 55.6111 425.174 50.004 425.174 40.2606V22.7959H444.936V70.5939H427.839C425.358 70.5939 425.174 69.9504 425.174 68.7555C425.174 65.6302 432.527 61.1262 432.527 50.0959H430.321C430.321 56.7141 424.255 71.5131 409.548 71.5131Z" fill="#9C61CF"/>
<path d="M365.459 21.4171C379.798 21.4171 383.383 32.6313 383.383 45.0403V70.5939H363.621V49.8201C363.621 41.0878 361.874 37.3191 357.002 37.3191C352.498 37.3191 350.017 40.7201 350.017 49.1767V70.5939H330.254V22.7959H347.443C349.833 22.7959 350.017 23.4393 350.017 24.1747C350.017 27.208 342.663 32.0797 342.663 42.8343H344.869C344.869 35.4808 351.487 21.4171 365.459 21.4171Z" fill="#9C61CF"/>
<path d="M320.008 22.796V70.5939H300.246V22.796H320.008ZM299.143 8.91616C299.143 3.95252 303.922 0 310.081 0C316.148 0 321.019 3.95252 321.019 8.91616C321.019 13.8798 316.148 17.8323 310.081 17.8323C303.922 17.8323 299.143 13.8798 299.143 8.91616Z" fill="#9C61CF"/>
<path d="M264.814 70.5939V34.7454H255.162V22.7959H264.814V11.2141H284.576V22.7959H294.228V34.7454H284.576V70.5939H264.814Z" fill="#9C61CF"/>
<path d="M225.627 36.1242C225.627 41.4555 252.468 40.7201 252.468 56.2545C252.468 66.1818 243.643 71.5131 230.223 71.5131C220.112 71.5131 209.909 67.3767 204.118 63.4242L211.564 52.302C221.123 58.2767 233.348 60.207 233.348 56.6222C233.348 50.4636 207.243 51.4747 207.243 37.3191C207.243 27.3919 216.068 21.4171 228.477 21.4171C242.265 21.4171 251.089 27.7595 251.089 27.7595L246.217 39.9848C239.415 34.9292 225.627 31.9878 225.627 36.1242Z" fill="#9C61CF"/>
<path d="M164.977 71.1455C146.869 71.1455 145.857 56.2546 145.857 47.5223V22.796H165.62V42.7425C165.62 51.4748 167.367 55.2435 172.238 55.2435C176.742 55.2435 179.224 51.8425 179.224 43.3859V22.796H198.987V70.594H181.798C179.408 70.594 179.224 69.9506 179.224 69.2152C179.224 66.1819 186.578 60.9425 186.578 50.1879H184.372C184.372 57.5415 178.029 71.1455 164.977 71.1455Z" fill="#9C61CF"/>
<path d="M138.751 50.1878C138.751 85.8525 115.035 91.7353 105.108 91.7353C97.2032 91.7353 87.4597 89.0696 81.7607 83.7383L91.0446 71.7888C94.6294 74.2706 99.4092 76.8444 105.568 76.8444C116.782 76.8444 125.239 68.1121 125.882 46.7868H123.676C123.4 58.001 117.609 70.2262 105.016 70.3181C92.4234 70.41 82.3123 61.0343 82.3123 47.2464C82.3123 31.9878 90.3092 21.4171 102.902 21.4171C111.083 21.4171 115.587 27.208 115.587 33.3666C115.587 38.4222 112.921 41.5474 110.256 42.007C110.531 41.2717 110.623 40.5363 110.623 39.801C110.623 37.8707 109.796 35.205 106.855 35.205C103.086 35.205 101.431 40.6282 101.431 44.9484C101.431 49.8201 103.546 55.4272 110.256 55.4272C115.219 55.4272 119.448 51.3828 119.448 40.2606V22.7959H138.751V50.1878Z" fill="#9C61CF"/>
<path d="M0 70.5939L26.197 2.11414H54.0485L81.4404 70.5939H61.402L57.2657 60.4828H23.899L20.2222 70.5939H0ZM29.0465 46.6949H51.6586L45.8677 32.6313C42.4667 24.3586 40.1687 22.2444 41.8232 12.2252H38.1465C39.7091 22.2444 37.3192 24.1747 34.1939 32.6313L29.0465 46.6949Z" fill="#9C61CF"/>
<path d="M400.032 203.212V182.019H405.662L406.105 184.271C406.641 183.493 407.231 182.917 407.874 182.542C408.544 182.166 409.215 181.925 409.885 181.818C410.582 181.684 411.252 181.617 411.896 181.617C412.298 181.617 412.66 181.63 412.981 181.657C413.33 181.657 413.558 181.67 413.665 181.697V187.81H412.338C411.212 187.81 410.193 187.984 409.282 188.333C408.397 188.681 407.7 189.257 407.19 190.062C406.681 190.866 406.426 191.992 406.426 193.44V203.212H400.032Z" fill="#FFDE5B"/>
<path d="M386.053 203.534C383.935 203.534 382.045 203.105 380.382 202.247C378.747 201.389 377.46 200.156 376.522 198.547C375.583 196.912 375.114 194.955 375.114 192.676C375.114 190.343 375.583 188.359 376.522 186.724C377.487 185.062 378.787 183.802 380.423 182.944C382.058 182.059 383.908 181.617 385.972 181.617C388.063 181.617 389.913 182.072 391.522 182.984C393.13 183.869 394.404 185.142 395.342 186.804C396.281 188.44 396.75 190.424 396.75 192.756C396.75 195.035 396.294 196.979 395.382 198.587C394.498 200.196 393.251 201.429 391.642 202.287C390.034 203.118 388.171 203.534 386.053 203.534ZM385.932 197.622C387.058 197.622 387.956 197.381 388.626 196.898C389.297 196.416 389.766 195.799 390.034 195.048C390.329 194.298 390.476 193.52 390.476 192.716C390.476 191.912 390.329 191.107 390.034 190.303C389.766 189.499 389.297 188.842 388.626 188.333C387.983 187.796 387.085 187.528 385.932 187.528C384.806 187.528 383.908 187.796 383.238 188.333C382.567 188.842 382.085 189.499 381.79 190.303C381.495 191.081 381.348 191.885 381.348 192.716C381.348 193.52 381.495 194.311 381.79 195.089C382.112 195.839 382.594 196.456 383.238 196.938C383.908 197.394 384.806 197.622 385.932 197.622Z" fill="#FFDE5B"/>
<path d="M367.527 203.493C365.087 203.493 363.251 202.81 362.018 201.442C360.784 200.048 360.168 198.172 360.168 195.812V187.689H357.111V182.019H360.168V176.509H366.562V182.019H372.956V187.689H366.562V194.405C366.562 195.048 366.656 195.598 366.843 196.054C367.031 196.509 367.326 196.871 367.728 197.14C368.157 197.381 368.707 197.501 369.377 197.501C370.047 197.501 370.597 197.408 371.026 197.22C371.455 197.005 371.816 196.778 372.111 196.536L373.921 201.523C373.358 202.005 372.688 202.394 371.91 202.689C371.16 202.984 370.409 203.185 369.658 203.292C368.908 203.426 368.197 203.493 367.527 203.493Z" fill="#FFDE5B"/>
<path d="M342.341 203.534C341.349 203.534 340.411 203.4 339.526 203.131C338.641 202.863 337.85 202.461 337.153 201.925C336.456 201.389 335.907 200.719 335.505 199.914C335.102 199.11 334.901 198.172 334.901 197.099C334.901 195.571 335.21 194.365 335.826 193.48C336.47 192.568 337.328 191.898 338.4 191.469C339.499 191.013 340.746 190.719 342.14 190.585C343.534 190.45 344.982 190.383 346.483 190.383H348.494C348.494 189.713 348.36 189.137 348.092 188.654C347.85 188.145 347.475 187.743 346.966 187.448C346.456 187.153 345.826 187.005 345.076 187.005C344.539 187.005 344.03 187.086 343.548 187.247C343.092 187.381 342.703 187.582 342.381 187.85C342.086 188.091 341.885 188.4 341.778 188.775H335.384C335.572 187.515 335.96 186.442 336.55 185.558C337.167 184.646 337.917 183.909 338.802 183.346C339.714 182.783 340.732 182.367 341.858 182.099C342.984 181.804 344.137 181.657 345.317 181.657C348.427 181.657 350.746 182.528 352.274 184.271C353.802 186.013 354.566 188.534 354.566 191.831V203.212H348.735L348.695 200.437C348.025 201.456 347.261 202.18 346.403 202.609C345.545 203.038 344.741 203.292 343.99 203.373C343.239 203.48 342.69 203.534 342.341 203.534ZM343.95 198.587C344.754 198.587 345.505 198.413 346.202 198.064C346.899 197.689 347.462 197.22 347.891 196.657C348.346 196.067 348.574 195.437 348.574 194.767V194.445H344.633C344.204 194.445 343.775 194.472 343.346 194.526C342.944 194.579 342.582 194.686 342.261 194.847C341.939 194.981 341.684 195.182 341.497 195.45C341.309 195.719 341.215 196.067 341.215 196.496C341.215 196.952 341.336 197.341 341.577 197.662C341.818 197.957 342.14 198.185 342.542 198.346C342.971 198.507 343.44 198.587 343.95 198.587Z" fill="#FFDE5B"/>
<path d="M325.14 203.212V174.74H331.534V203.212H325.14Z" fill="#FFDE5B"/>
<path d="M312.968 203.534C311.949 203.534 310.903 203.413 309.831 203.172C308.785 202.93 307.807 202.542 306.895 202.006C305.984 201.469 305.22 200.732 304.603 199.794C303.986 198.855 303.571 197.676 303.356 196.255H309.791C309.952 196.684 310.193 197.059 310.515 197.381C310.863 197.676 311.279 197.904 311.761 198.064C312.271 198.199 312.78 198.266 313.289 198.266C313.638 198.266 313.973 198.239 314.295 198.185C314.617 198.132 314.898 198.038 315.139 197.904C315.407 197.77 315.609 197.609 315.743 197.421C315.877 197.207 315.944 196.952 315.944 196.657C315.944 196.228 315.796 195.92 315.501 195.732C315.233 195.518 314.844 195.357 314.335 195.249C313.852 195.115 313.289 194.981 312.646 194.847C311.6 194.633 310.474 194.365 309.268 194.043C308.088 193.721 307.083 193.292 306.252 192.756C305.85 192.488 305.501 192.193 305.206 191.871C304.911 191.523 304.67 191.161 304.482 190.786C304.322 190.383 304.188 189.968 304.08 189.539C304 189.083 303.96 188.601 303.96 188.091C303.96 186.912 304.214 185.906 304.724 185.075C305.26 184.244 305.944 183.574 306.775 183.064C307.633 182.555 308.584 182.193 309.63 181.979C310.676 181.737 311.721 181.617 312.767 181.617C314.241 181.617 315.609 181.858 316.869 182.341C318.129 182.796 319.174 183.547 320.005 184.593C320.863 185.611 321.399 186.952 321.614 188.614H315.461C315.381 188.078 315.072 187.649 314.536 187.327C314 187.005 313.33 186.845 312.525 186.845C312.23 186.845 311.936 186.885 311.641 186.965C311.346 187.019 311.078 187.099 310.836 187.207C310.622 187.287 310.434 187.421 310.273 187.609C310.139 187.796 310.072 188.024 310.072 188.292C310.072 188.48 310.126 188.668 310.233 188.855C310.367 189.043 310.555 189.217 310.796 189.378C311.064 189.512 311.399 189.646 311.802 189.78C312.713 189.968 313.598 190.156 314.456 190.343C315.314 190.504 316.131 190.665 316.909 190.826C317.767 191.014 318.598 191.322 319.402 191.751C320.206 192.153 320.863 192.729 321.373 193.48C321.909 194.231 322.177 195.249 322.177 196.536C322.177 197.877 321.895 199.003 321.332 199.914C320.796 200.826 320.072 201.536 319.161 202.046C318.249 202.555 317.257 202.93 316.185 203.172C315.113 203.413 314.04 203.534 312.968 203.534Z" fill="#FFDE5B"/>
<path d="M279.978 203.212V182.019H285.889L286.251 184.19C286.868 183.493 287.551 182.957 288.302 182.582C289.079 182.207 289.844 181.952 290.594 181.818C291.372 181.684 292.042 181.617 292.605 181.617C294.616 181.617 296.184 182.072 297.31 182.984C298.463 183.869 299.281 185.062 299.763 186.563C300.246 188.064 300.487 189.713 300.487 191.51V203.212H294.133V192.193C294.133 191.63 294.079 191.081 293.972 190.544C293.865 189.981 293.677 189.472 293.409 189.016C293.168 188.534 292.819 188.158 292.364 187.89C291.908 187.595 291.318 187.448 290.594 187.448C289.656 187.448 288.865 187.676 288.222 188.131C287.578 188.587 287.109 189.204 286.814 189.981C286.519 190.732 286.372 191.577 286.372 192.515V203.212H279.978Z" fill="#FFDE5B"/>
<path d="M263.68 203.534C262.688 203.534 261.75 203.4 260.865 203.131C259.98 202.863 259.189 202.461 258.492 201.925C257.795 201.389 257.246 200.719 256.843 199.914C256.441 199.11 256.24 198.172 256.24 197.099C256.24 195.571 256.549 194.365 257.165 193.48C257.809 192.568 258.667 191.898 259.739 191.469C260.838 191.013 262.085 190.719 263.479 190.585C264.873 190.45 266.321 190.383 267.822 190.383H269.833C269.833 189.713 269.699 189.137 269.431 188.654C269.189 188.145 268.814 187.743 268.305 187.448C267.795 187.153 267.165 187.005 266.415 187.005C265.878 187.005 265.369 187.086 264.886 187.247C264.431 187.381 264.042 187.582 263.72 187.85C263.425 188.091 263.224 188.4 263.117 188.775H256.723C256.91 187.515 257.299 186.442 257.889 185.558C258.506 184.646 259.256 183.909 260.141 183.346C261.053 182.783 262.071 182.367 263.197 182.099C264.323 181.804 265.476 181.657 266.656 181.657C269.766 181.657 272.085 182.528 273.613 184.271C275.141 186.013 275.905 188.534 275.905 191.831V203.212H270.074L270.034 200.437C269.364 201.456 268.6 202.18 267.742 202.609C266.884 203.038 266.079 203.292 265.329 203.373C264.578 203.48 264.028 203.534 263.68 203.534ZM265.289 198.587C266.093 198.587 266.843 198.413 267.541 198.064C268.238 197.689 268.801 197.22 269.23 196.657C269.685 196.067 269.913 195.437 269.913 194.767V194.445H265.972C265.543 194.445 265.114 194.472 264.685 194.526C264.283 194.579 263.921 194.686 263.599 194.847C263.278 194.981 263.023 195.182 262.835 195.45C262.648 195.719 262.554 196.067 262.554 196.496C262.554 196.952 262.675 197.341 262.916 197.662C263.157 197.957 263.479 198.185 263.881 198.346C264.31 198.507 264.779 198.587 265.289 198.587Z" fill="#FFDE5B"/>
<path d="M240.901 203.212V182.019H246.531L246.974 184.271C247.51 183.493 248.1 182.917 248.743 182.542C249.413 182.166 250.084 181.925 250.754 181.818C251.451 181.684 252.121 181.617 252.765 181.617C253.167 181.617 253.529 181.63 253.85 181.657C254.199 181.657 254.427 181.67 254.534 181.697V187.81H253.207C252.081 187.81 251.062 187.984 250.151 188.333C249.266 188.681 248.569 189.257 248.06 190.062C247.55 190.866 247.296 191.992 247.296 193.44V203.212H240.901Z" fill="#FFDE5B"/>
<path d="M224.252 203.212V180.772H215.687V174.74H239.413V180.772H230.767V203.212H224.252Z" fill="#FFDE5B"/>
<path d="M189.347 203.534C187.175 203.534 185.379 203.038 183.958 202.046C182.537 201.027 181.478 199.7 180.781 198.064C180.084 196.402 179.735 194.579 179.735 192.595C179.735 190.451 180.124 188.56 180.902 186.925C181.679 185.263 182.818 183.963 184.32 183.024C185.821 182.086 187.671 181.617 189.869 181.617C190.62 181.617 191.331 181.697 192.001 181.858C192.698 182.019 193.341 182.26 193.931 182.582C194.548 182.877 195.057 183.265 195.459 183.748V174.74H201.853V203.212H195.62V201.081C195.111 201.644 194.521 202.099 193.851 202.448C193.207 202.796 192.51 203.065 191.76 203.252C191.009 203.44 190.205 203.534 189.347 203.534ZM190.714 197.743C191.84 197.743 192.751 197.501 193.449 197.019C194.146 196.51 194.655 195.866 194.977 195.089C195.325 194.284 195.499 193.453 195.499 192.595C195.499 191.684 195.325 190.839 194.977 190.062C194.655 189.284 194.146 188.654 193.449 188.172C192.751 187.689 191.84 187.448 190.714 187.448C189.561 187.448 188.636 187.716 187.939 188.252C187.269 188.761 186.786 189.418 186.491 190.223C186.223 191.027 186.089 191.858 186.089 192.716C186.089 193.359 186.17 193.989 186.331 194.606C186.491 195.196 186.746 195.732 187.095 196.215C187.47 196.67 187.953 197.046 188.542 197.341C189.132 197.609 189.856 197.743 190.714 197.743Z" fill="#FFDE5B"/>
<path d="M167.261 203.534C165.063 203.534 163.159 203.091 161.551 202.207C159.969 201.322 158.749 200.075 157.891 198.467C157.033 196.831 156.604 194.914 156.604 192.716C156.604 190.518 157.047 188.587 157.932 186.925C158.816 185.263 160.05 183.963 161.631 183.024C163.24 182.086 165.13 181.617 167.302 181.617C168.883 181.617 170.277 181.871 171.484 182.381C172.717 182.89 173.763 183.614 174.621 184.552C175.505 185.491 176.162 186.603 176.591 187.89C177.047 189.177 177.275 190.585 177.275 192.113C177.248 192.515 177.221 192.917 177.194 193.319C177.168 193.694 177.101 194.083 176.993 194.485H162.918C162.999 195.156 163.2 195.772 163.521 196.335C163.843 196.898 164.299 197.341 164.889 197.662C165.479 197.984 166.229 198.145 167.141 198.145C167.784 198.145 168.361 198.078 168.87 197.944C169.406 197.783 169.849 197.569 170.197 197.3C170.546 197.006 170.773 196.684 170.881 196.335H177.154C176.806 198.024 176.135 199.405 175.143 200.477C174.151 201.523 172.972 202.3 171.605 202.81C170.237 203.292 168.79 203.534 167.261 203.534ZM163.039 190.182H171.202C171.202 189.619 171.055 189.07 170.76 188.534C170.492 187.997 170.063 187.568 169.473 187.247C168.883 186.898 168.119 186.724 167.181 186.724C166.269 186.724 165.505 186.898 164.889 187.247C164.272 187.595 163.816 188.038 163.521 188.574C163.227 189.11 163.066 189.646 163.039 190.182Z" fill="#FFDE5B"/>
<path d="M146.923 203.212V182.019H153.317V203.212H146.923ZM150.14 180.249C148.96 180.249 148.009 179.901 147.285 179.204C146.588 178.507 146.239 177.595 146.239 176.469C146.239 175.316 146.615 174.378 147.365 173.654C148.116 172.93 149.054 172.568 150.18 172.568C151.253 172.568 152.164 172.917 152.915 173.614C153.666 174.311 154.041 175.249 154.041 176.429C154.041 177.582 153.679 178.507 152.955 179.204C152.231 179.901 151.293 180.249 150.14 180.249Z" fill="#FFDE5B"/>
<path d="M132.942 203.212V187.689H129.846V182.019H132.942V180.209C132.942 178.574 133.21 177.233 133.747 176.188C134.283 175.142 135.114 174.378 136.24 173.895C137.393 173.413 138.827 173.172 140.543 173.172H144.403V178.842H141.347C140.838 178.842 140.436 178.922 140.141 179.083C139.846 179.217 139.631 179.445 139.497 179.767C139.39 180.062 139.336 180.437 139.336 180.893V182.019H144.403V187.689H139.336V203.212H132.942Z" fill="#FFDE5B"/>
<path d="M120.768 203.212V182.019H127.162V203.212H120.768ZM123.985 180.249C122.805 180.249 121.853 179.901 121.13 179.204C120.433 178.507 120.084 177.595 120.084 176.469C120.084 175.316 120.459 174.378 121.21 173.654C121.961 172.93 122.899 172.568 124.025 172.568C125.097 172.568 126.009 172.917 126.76 173.614C127.51 174.311 127.886 175.249 127.886 176.429C127.886 177.582 127.524 178.507 126.8 179.204C126.076 179.901 125.138 180.249 123.985 180.249Z" fill="#FFDE5B"/>
<path d="M116.013 203.212C114.19 203.212 112.649 203.011 111.389 202.609C110.129 202.18 109.163 201.456 108.493 200.437C107.85 199.391 107.528 197.93 107.528 196.054V187.689H104.472V182.019H107.528V176.55H113.922V182.019H118.145V187.689H113.922V195.129C113.922 195.826 114.043 196.402 114.284 196.858C114.525 197.287 115.142 197.501 116.134 197.501H117.944V203.212H116.013Z" fill="#FFDE5B"/>
<path d="M88.8008 203.212V182.019H94.4308L94.8732 184.271C95.4094 183.493 95.9992 182.917 96.6426 182.542C97.3129 182.166 97.9831 181.925 98.6534 181.818C99.3504 181.684 100.021 181.617 100.664 181.617C101.066 181.617 101.428 181.63 101.75 181.657C102.098 181.657 102.326 181.67 102.434 181.697V187.81H101.106C99.9805 187.81 98.9617 187.984 98.0502 188.333C97.1654 188.681 96.4684 189.257 95.959 190.062C95.4496 190.866 95.1949 191.992 95.1949 193.44V203.212H88.8008Z" fill="#FFDE5B"/>
<path d="M75.5216 203.534C73.3232 203.534 71.4197 203.091 69.8111 202.207C68.2294 201.322 67.0095 200.075 66.1516 198.467C65.2937 196.831 64.8647 194.914 64.8647 192.716C64.8647 190.518 65.3071 188.587 66.1918 186.925C67.0766 185.263 68.3098 183.963 69.8916 183.024C71.5002 182.086 73.3903 181.617 75.5618 181.617C77.1436 181.617 78.5377 181.871 79.7442 182.381C80.9774 182.89 82.023 183.614 82.8809 184.552C83.7656 185.491 84.4225 186.603 84.8514 187.89C85.3072 189.177 85.5351 190.585 85.5351 192.113C85.5083 192.515 85.4815 192.917 85.4546 193.319C85.4278 193.694 85.3608 194.083 85.2536 194.485H71.1784C71.2589 195.156 71.4599 195.772 71.7817 196.335C72.1034 196.898 72.5591 197.341 73.149 197.662C73.7388 197.984 74.4894 198.145 75.401 198.145C76.0444 198.145 76.6208 198.078 77.1302 197.944C77.6664 197.783 78.1088 197.569 78.4573 197.3C78.8058 197.006 79.0337 196.684 79.1409 196.335H85.4144C85.0659 198.024 84.3957 199.405 83.4037 200.477C82.4117 201.523 81.2321 202.3 79.8648 202.81C78.4975 203.292 77.0498 203.534 75.5216 203.534ZM71.2991 190.182H79.4627C79.4627 189.619 79.3152 189.07 79.0203 188.534C78.7522 187.997 78.3232 187.568 77.7334 187.247C77.1436 186.898 76.3795 186.724 75.4412 186.724C74.5297 186.724 73.7656 186.898 73.149 187.247C72.5323 187.595 72.0766 188.038 71.7817 188.574C71.4868 189.11 71.3259 189.646 71.2991 190.182Z" fill="#FFDE5B"/>
<path d="M49.9945 203.534C47.0454 203.534 44.5253 202.944 42.4342 201.764C40.343 200.585 38.7478 198.909 37.6486 196.737C36.5762 194.566 36.04 192.019 36.04 189.097C36.04 186.121 36.603 183.534 37.7291 181.335C38.8551 179.137 40.4502 177.434 42.5146 176.228C44.6058 174.995 47.0723 174.378 49.9141 174.378C52.1125 174.378 54.0964 174.767 55.8659 175.544C57.6353 176.322 59.0696 177.475 60.1688 179.003C61.2948 180.504 61.9785 182.408 62.2198 184.713H55.9865C55.6648 183.4 55.0079 182.381 54.016 181.657C53.0508 180.906 51.7372 180.531 50.075 180.531C48.2787 180.531 46.8444 180.946 45.772 181.778C44.6996 182.582 43.9221 183.614 43.4395 184.874C42.9838 186.134 42.7559 187.448 42.7559 188.815C42.7559 190.236 42.9972 191.603 43.4797 192.917C43.9891 194.231 44.78 195.303 45.8524 196.134C46.9516 196.965 48.3993 197.381 50.1956 197.381C51.268 197.381 52.2063 197.22 53.0106 196.898C53.8417 196.577 54.5254 196.107 55.0616 195.491C55.5978 194.874 55.9731 194.137 56.1876 193.279H62.5817C62.3672 195.504 61.6568 197.381 60.4503 198.909C59.2707 200.437 57.756 201.59 55.9061 202.367C54.083 203.145 52.1125 203.534 49.9945 203.534Z" fill="#FFDE5B"/>
</svg>
