<svg width="225" height="230" viewBox="0 0 225 230" fill="none" xmlns="http://www.w3.org/2000/svg">
<path d="M135.503 149.208C135.503 136.665 125.336 126.498 112.791 126.498H11.3761C4.13103 126.498 -1.31221 133.205 0.277607 140.268C11.7925 191.621 57.6626 230 112.504 230C116.864 230 121.172 229.758 125.404 229.281C131.158 228.637 135.503 223.778 135.503 217.987V149.2V149.208Z" fill="#FFDE5B"/>
<path d="M89.4966 80.7922C89.4966 93.3353 99.6639 103.502 112.208 103.502H213.624C220.869 103.502 226.312 96.7947 224.722 89.7321C213.207 38.3712 167.337 0 112.496 0C108.135 0 103.828 0.242233 99.5957 0.719129C93.8421 1.36256 89.4966 6.22235 89.4966 12.0132V80.7998V80.7922Z" fill="#FFDE5B"/>
<path d="M213.624 126.498H181.214C168.67 126.498 158.502 136.665 158.502 149.208V201.333C158.502 210.349 168.549 215.837 176.059 210.848C200.307 194.74 218.09 169.692 224.692 140.397C226.297 133.273 220.922 126.491 213.624 126.491V126.498Z" fill="#FFDE5B"/>
<path d="M66.4901 80.7921V28.6667C66.4901 19.6511 56.444 14.163 48.934 19.1515C24.693 35.2524 6.90972 60.3083 0.300612 89.5958C-1.30435 96.7189 4.07076 103.501 11.3688 103.501H43.7784C56.3229 103.501 66.4901 93.3352 66.4901 80.7921Z" fill="#FFDE5B"/>
</svg>
