<svg width="192" height="109" viewBox="0 0 192 109" fill="none" xmlns="http://www.w3.org/2000/svg">
<path d="M30.4183 105.187C24.1132 102.663 18.7276 99.1261 14.2427 94.5944C9.75787 90.0627 6.26755 84.6836 3.75302 78.4756C1.2385 72.2491 0 65.4884 0 58.1751V54.1039C0 45.63 1.38862 38.022 4.14709 31.3165C6.90556 24.6111 10.6023 18.9373 15.2373 14.2767C19.7972 9.67129 24.9764 6.15278 30.8311 3.6843C36.667 1.21582 42.6531 0 48.7893 0C56.5018 0 63.2572 1.30793 69.0181 3.9422C74.7978 6.55805 79.5829 10.1687 83.411 14.774C87.239 19.4347 90.0913 24.9059 91.9678 31.1876C93.8444 37.4693 94.7826 44.2669 94.7826 51.5802V59.6488H18.296V60.3304C18.7651 65.4516 19.7972 69.9464 21.411 73.8334C23.0248 77.7203 25.2578 81.1467 28.0914 84.131C31 87.2995 34.4903 89.8048 38.5811 91.6101C42.6719 93.4154 47.1943 94.3365 52.1295 94.3365C58.6598 94.3365 64.4582 93.047 69.5435 90.4496C74.6289 87.8521 78.851 84.4257 82.21 80.1519L93.394 88.6995C89.8286 94.0049 84.4993 98.7208 77.4061 102.829C70.3129 106.937 61.5496 109 51.1349 109C43.6101 109 36.7046 107.729 30.3995 105.205L30.4183 105.187ZM38.2996 16.7451C34.9969 18.0715 32.032 20.0057 29.3862 22.5295C26.7403 25.1269 24.526 28.277 22.7058 31.9981C20.8856 35.7193 19.6283 40.0115 18.8965 44.8748H76.4866V44.009C76.4866 40.7668 75.8674 37.2851 74.6101 33.564C73.3528 29.8428 71.6077 26.6191 69.3746 23.8927C67.1228 21.1663 64.3081 18.9741 60.9116 17.2794C57.5151 15.603 53.4806 14.7556 48.7893 14.7556C45.0926 14.7556 41.6023 15.4188 38.2996 16.7451Z" fill="#FCFAF9"/>
<path d="M184.919 92.9871H190.411L189.393 98.9727H183.901L182.142 109H174.953L176.712 98.9727H157.86L158.508 94.0978L182.327 64.0771H189.948L184.919 92.9871ZM166.253 92.9871H177.73L181.278 73.8886L180.137 75.5547L166.253 92.9871Z" fill="#FCFAF9"/>
<path d="M149.622 109H120.342L121.175 103.6L137.558 87.9265C138.34 87.1654 139.173 86.3529 140.057 85.489C140.962 84.6251 141.816 83.7098 142.618 82.7431C143.4 81.7763 144.068 80.7684 144.624 79.7194C145.2 78.6498 145.57 77.5391 145.734 76.3872C145.837 75.4616 145.796 74.5977 145.611 73.7955C145.446 72.9727 145.138 72.2528 144.685 71.6357C144.233 71.0186 143.647 70.525 142.927 70.1547C142.207 69.7845 141.363 69.5788 140.397 69.5377C139.101 69.4965 137.949 69.6816 136.941 70.093C135.933 70.4838 135.08 71.0495 134.38 71.79C133.64 72.5305 133.043 73.4149 132.591 74.4434C132.159 75.4513 131.861 76.5517 131.696 77.7448L124.507 77.7756C124.692 75.6364 125.258 73.6823 126.204 71.9134C127.15 70.1445 128.374 68.6223 129.876 67.3471C131.357 66.0923 133.054 65.1256 134.966 64.4468C136.879 63.7475 138.895 63.4183 141.014 63.4595C142.865 63.5006 144.562 63.8297 146.105 64.4468C147.647 65.0433 148.953 65.8866 150.023 66.9768C151.093 68.0875 151.885 69.4142 152.399 70.9569C152.934 72.4791 153.129 74.1863 152.985 76.0787C152.841 77.7859 152.399 79.3903 151.658 80.8918C150.918 82.3934 150.013 83.8126 148.943 85.1496C147.874 86.4866 146.711 87.7516 145.457 88.9447C144.202 90.1377 142.999 91.2792 141.847 92.3694L130.493 103.045H150.548L149.622 109Z" fill="#FCFAF9"/>
<path d="M189.64 28.6257C189.393 30.2095 189.043 31.7727 188.591 33.3154C188.138 34.8375 187.573 36.2671 186.894 37.6041C186.174 39.0439 185.3 40.3604 184.271 41.5534C183.243 42.7464 182.06 43.7337 180.723 44.5153C179.654 45.153 178.461 45.6466 177.144 45.9963C175.848 46.346 174.429 46.5003 172.886 46.4591C170.747 46.3974 168.937 45.9552 167.456 45.1324C165.975 44.3096 164.792 43.24 163.908 41.9236C163.229 41.0391 162.684 40.0621 162.273 38.9925C161.861 37.9023 161.563 36.7608 161.378 35.5678C161.193 34.4776 161.09 33.3566 161.069 32.2047C161.069 31.0323 161.152 29.8598 161.316 28.6874L162.982 18.0428C163.27 16.0682 163.733 14.145 164.371 12.2732C165.029 10.3808 165.893 8.6736 166.962 7.15148C167.559 6.2053 168.227 5.3414 168.968 4.55977C169.708 3.75758 170.531 3.04794 171.436 2.43087C172.567 1.71095 173.822 1.15558 175.2 0.764765C176.578 0.373951 178.09 0.199114 179.736 0.240252C181.649 0.28139 183.294 0.631066 184.672 1.28928C186.051 1.94749 187.192 2.82168 188.097 3.91184C188.961 4.87859 189.64 5.99961 190.134 7.2749C190.648 8.55019 191.008 9.86661 191.213 11.2242C191.399 12.2526 191.491 13.3634 191.491 14.5564C191.512 15.7288 191.45 16.891 191.306 18.0428L189.64 28.6257ZM179.211 6.22587C178.224 6.18473 177.34 6.29786 176.558 6.56526C175.776 6.83266 175.087 7.20291 174.491 7.676C174.018 8.06681 173.586 8.51933 173.195 9.03356C172.825 9.52722 172.495 10.062 172.208 10.638C171.714 11.5636 171.323 12.5509 171.035 13.5999C170.768 14.6489 170.562 15.6774 170.418 16.6853L169.246 23.8433C169.143 24.5427 169.071 24.9952 169.03 25.2009C169.009 25.386 168.978 25.5711 168.937 25.7563L184.487 15.1117C184.549 14.1244 184.539 13.1165 184.456 12.0881C184.374 11.0391 184.158 10.0826 183.809 9.21868C183.418 8.37535 182.862 7.676 182.142 7.12063C181.423 6.56526 180.445 6.26701 179.211 6.22587ZM173.38 40.5043C174.244 40.5455 175.025 40.4735 175.725 40.2884C176.445 40.1032 177.093 39.7947 177.669 39.3628C178.409 38.8485 179.047 38.2109 179.582 37.4498C180.137 36.6682 180.579 35.8454 180.908 34.9815C181.217 34.1793 181.474 33.3463 181.68 32.4824C181.885 31.6185 182.06 30.7751 182.204 29.9524L183.191 23.7816C183.274 23.288 183.335 22.8766 183.377 22.5475C183.438 22.2184 183.521 21.7659 183.623 21.1899L168.073 31.8036C168.011 32.7909 168.022 33.7988 168.104 34.8273C168.207 35.8352 168.454 36.7505 168.844 37.5732C169.215 38.4166 169.76 39.1056 170.48 39.6404C171.2 40.1752 172.166 40.4632 173.38 40.5043Z" fill="#FCFAF9"/>
<path d="M149.622 45.8111H120.342L121.175 40.4117L137.558 24.738C138.34 23.9769 139.173 23.1645 140.057 22.3006C140.962 21.4367 141.816 20.5213 142.618 19.5546C143.4 18.5878 144.068 17.5799 144.624 16.5309C145.2 15.4613 145.57 14.3506 145.734 13.1987C145.837 12.2731 145.796 11.4092 145.611 10.607C145.446 9.78423 145.138 9.06431 144.685 8.44724C144.233 7.83017 143.647 7.33651 142.927 6.96626C142.207 6.59602 141.363 6.39033 140.397 6.34919C139.101 6.30805 137.949 6.49317 136.941 6.90455C135.933 7.29537 135.08 7.86102 134.38 8.60151C133.64 9.342 133.043 10.2265 132.591 11.2549C132.159 12.2628 131.861 13.3633 131.696 14.5563L124.507 14.5871C124.692 12.4479 125.258 10.4939 126.204 8.72492C127.15 6.95598 128.374 5.43386 129.876 4.15857C131.357 2.90386 133.054 1.93711 134.966 1.25833C136.879 0.558974 138.895 0.229868 141.014 0.271006C142.865 0.312145 144.562 0.641251 146.105 1.25833C147.647 1.85483 148.953 2.69816 150.023 3.78833C151.093 4.89906 151.885 6.22577 152.399 7.76846C152.934 9.29058 153.129 10.9978 152.985 12.8902C152.841 14.5974 152.399 16.2018 151.658 17.7034C150.918 19.2049 150.013 20.6242 148.943 21.9612C147.874 23.2982 146.711 24.5632 145.457 25.7562C144.202 26.9492 142.999 28.0908 141.847 29.1809L130.493 39.8563H150.548L149.622 45.8111Z" fill="#FCFAF9"/>
</svg>
