<svg width="609" height="84" viewBox="0 0 609 84" fill="none" xmlns="http://www.w3.org/2000/svg">
<path d="M12.7492 82.4866H0V1.73193H31.7453C35.6212 1.77453 39.3835 2.32822 43.0039 3.39303C46.6384 4.45783 49.8612 6.03374 52.6723 8.10656C55.4976 10.2362 57.7549 12.8769 59.4728 16.0429C61.1765 19.2089 62.0426 22.9144 62.0426 27.1736C62.0426 31.4329 61.1907 35.3229 59.4728 38.4322C57.7691 41.5556 55.526 44.1111 52.7433 46.0988C49.918 48.129 46.6952 49.6339 43.0323 50.5993C39.3835 51.5647 35.6212 52.0759 31.7311 52.1184H12.7351V82.4866H12.7492ZM31.7453 41.584C34.0027 41.5414 36.2033 41.2433 38.3329 40.7179C40.4625 40.1926 42.3366 39.3408 43.9551 38.1908C45.531 37.0408 46.7946 35.5643 47.7742 33.7896C48.7396 32.015 49.2365 29.857 49.2365 27.3014C49.2365 24.7459 48.7538 22.6305 47.7742 20.7848C46.8088 18.9392 45.531 17.3916 43.9551 16.1423C42.3366 14.9355 40.4625 14.0127 38.3329 13.3738C36.2033 12.7207 34.0169 12.38 31.7453 12.3374H12.7492V41.5982H31.7453V41.584Z" fill="#071013"/>
<path d="M100.959 51.366V82.4866H88.1387V1.73193H117.669C121.545 1.77453 125.35 2.25724 129.07 3.19426C132.789 4.11709 136.112 5.57942 139.022 7.56706C141.89 9.55469 144.19 12.096 145.922 15.1911C147.654 18.2861 148.52 22.0342 148.52 26.4212C148.52 29.3316 148.108 31.9014 147.271 34.1162C146.433 36.331 145.283 38.3044 143.807 40.0081C142.33 41.7686 140.584 43.3019 138.568 44.6222C136.552 45.9426 134.394 47.1068 132.08 48.129L152.183 81.8194V82.515H138.383L120.353 51.3944H100.945L100.959 51.366ZM118.01 40.9025C120.182 40.8599 122.326 40.5618 124.427 40.0081C126.528 39.4544 128.417 38.6025 130.078 37.4383C131.696 36.331 133.031 34.9112 134.067 33.1791C135.104 31.4471 135.629 29.36 135.629 26.9039C135.629 24.32 135.132 22.1052 134.138 20.2879C133.144 18.4564 131.81 16.9657 130.149 15.8157C128.488 14.6657 126.571 13.7997 124.399 13.246C122.227 12.6923 119.983 12.3942 117.669 12.3516H100.959V40.9167H118.01V40.9025Z" fill="#071013"/>
<path d="M200.738 81.0671C195.967 79.122 191.893 76.3961 188.499 72.9036C185.106 69.411 182.466 65.2654 180.563 60.4809C178.661 55.6821 177.724 50.4717 177.724 44.8353V41.6977C177.724 35.1669 178.774 29.3034 180.861 24.1356C182.948 18.9677 185.745 14.5949 189.252 11.003C192.702 7.45363 196.62 4.74193 201.05 2.83948C205.465 0.937027 209.994 0 214.637 0C220.472 0 225.583 1.00801 229.942 3.03824C234.314 5.05427 237.935 7.83695 240.831 11.3863C243.727 14.9782 245.885 19.1949 247.305 24.0362C248.725 28.8775 249.435 34.1163 249.435 39.7527V45.9711H191.566V46.4964C191.921 50.4433 192.702 53.9075 193.923 56.9031C195.144 59.8988 196.833 62.5395 198.977 64.8395C201.178 67.2814 203.818 69.2122 206.913 70.6036C210.008 71.9949 213.43 72.7048 217.164 72.7048C222.105 72.7048 226.492 71.711 230.339 69.7092C234.187 67.7073 237.381 65.0666 239.922 61.7728L248.384 68.3604C245.687 72.4492 241.654 76.0838 236.288 79.2498C230.921 82.4158 224.291 84.0059 216.411 84.0059C210.718 84.0059 205.494 83.0263 200.723 81.0813L200.738 81.0671ZM206.7 12.9054C204.202 13.9276 201.959 15.4184 199.957 17.3634C197.955 19.3652 196.28 21.793 194.902 24.6609C193.525 27.5287 192.574 30.8367 192.02 34.5848H235.592V33.9175C235.592 31.4188 235.124 28.7355 234.172 25.8676C233.221 22.9998 231.901 20.5152 230.211 18.414C228.508 16.3128 226.378 14.6233 223.808 13.3171C221.239 12.0252 218.186 11.3721 214.637 11.3721C211.84 11.3721 209.199 11.8832 206.7 12.9054Z" fill="#071013"/>
<path d="M308.424 12.3374V82.4866H295.391V12.3374H266.073V1.73193H337.898V12.3374H308.438H308.424Z" fill="#071013"/>
<path d="M377.949 81.0671C373.178 79.122 369.104 76.3961 365.71 72.9036C362.317 69.411 359.676 65.2654 357.774 60.4809C355.872 55.6821 354.935 50.4717 354.935 44.8353V41.6977C354.935 35.1669 355.985 29.3034 358.072 24.1356C360.159 18.9677 362.956 14.5949 366.463 11.003C369.913 7.45363 373.831 4.74193 378.261 2.83948C382.676 0.937027 387.205 0 391.848 0C397.683 0 402.794 1.00801 407.153 3.03824C411.525 5.05427 415.146 7.83695 418.042 11.3863C420.938 14.9782 423.096 19.1949 424.516 24.0362C425.936 28.8775 426.646 34.1163 426.646 39.7527V45.9711H368.777V46.4964C369.132 50.4433 369.913 53.9075 371.134 56.9031C372.355 59.8988 374.044 62.5395 376.188 64.8395C378.389 67.2814 381.029 69.2122 384.124 70.6036C387.219 71.9949 390.641 72.7048 394.375 72.7048C399.316 72.7048 403.703 71.711 407.55 69.7092C411.398 67.7073 414.592 65.0666 417.133 61.7728L425.595 68.3604C422.897 72.4492 418.865 76.0838 413.499 79.2498C408.132 82.4158 401.502 84.0059 393.622 84.0059C387.929 84.0059 382.705 83.0263 377.934 81.0813L377.949 81.0671ZM383.911 12.9054C381.413 13.9276 379.17 15.4184 377.168 17.3634C375.166 19.3652 373.491 21.793 372.113 24.6609C370.736 27.5287 369.785 30.8367 369.231 34.5848H412.803V33.9175C412.803 31.4188 412.335 28.7355 411.383 25.8676C410.432 22.9998 409.112 20.5152 407.422 18.414C405.719 16.3128 403.589 14.6233 401.019 13.3171C398.45 12.0252 395.397 11.3721 391.848 11.3721C389.051 11.3721 386.41 11.8832 383.911 12.9054Z" fill="#071013"/>
<path d="M502.928 1.73193H518.105L490.932 41.797L519.142 82.4866H503.894L483.379 51.7777L462.991 82.4866H447.743L475.755 41.797L448.368 1.73193H463.545L483.166 31.8872L502.928 1.73193Z" fill="#071013"/>
<path d="M579.352 12.3374V82.4866H566.319V12.3374H537.001V1.73193H608.826V12.3374H579.366H579.352Z" fill="#071013"/>
</svg>
