<svg width="609" height="138" viewBox="0 0 609 138" fill="none" xmlns="http://www.w3.org/2000/svg">
<path d="M12.7492 82.4866H0V1.73193H31.7453C35.6212 1.77453 39.3835 2.32822 43.0039 3.39303C46.6384 4.45783 49.8612 6.03374 52.6723 8.10656C55.4976 10.2362 57.7549 12.8769 59.4728 16.0429C61.1765 19.2089 62.0426 22.9144 62.0426 27.1736C62.0426 31.4329 61.1907 35.3229 59.4728 38.4322C57.7691 41.5556 55.526 44.1111 52.7433 46.0988C49.918 48.129 46.6952 49.6339 43.0323 50.5993C39.3835 51.5647 35.6212 52.0759 31.7311 52.1184H12.7351V82.4866H12.7492ZM31.7453 41.584C34.0027 41.5414 36.2033 41.2433 38.3329 40.7179C40.4625 40.1926 42.3366 39.3408 43.9551 38.1908C45.531 37.0408 46.7946 35.5643 47.7742 33.7896C48.7396 32.015 49.2365 29.857 49.2365 27.3014C49.2365 24.7459 48.7538 22.6305 47.7742 20.7848C46.8088 18.9392 45.531 17.3916 43.9551 16.1423C42.3366 14.9355 40.4625 14.0127 38.3329 13.3738C36.2033 12.7207 34.0169 12.38 31.7453 12.3374H12.7492V41.5982H31.7453V41.584Z" fill="#FCFAF9"/>
<path d="M100.959 51.366V82.4866H88.1387V1.73193H117.669C121.545 1.77453 125.35 2.25724 129.07 3.19426C132.789 4.11709 136.112 5.57942 139.022 7.56706C141.89 9.55469 144.19 12.096 145.922 15.1911C147.654 18.2861 148.52 22.0342 148.52 26.4212C148.52 29.3316 148.108 31.9014 147.271 34.1162C146.433 36.331 145.283 38.3044 143.807 40.0081C142.33 41.7686 140.584 43.3019 138.568 44.6222C136.552 45.9426 134.394 47.1068 132.08 48.129L152.183 81.8194V82.515H138.383L120.353 51.3944H100.945L100.959 51.366ZM118.01 40.9025C120.182 40.8599 122.326 40.5618 124.427 40.0081C126.528 39.4544 128.417 38.6025 130.078 37.4383C131.696 36.331 133.031 34.9112 134.067 33.1791C135.104 31.4471 135.629 29.36 135.629 26.9039C135.629 24.32 135.132 22.1052 134.138 20.2879C133.144 18.4564 131.81 16.9657 130.149 15.8157C128.488 14.6657 126.571 13.7997 124.399 13.246C122.227 12.6923 119.983 12.3942 117.669 12.3516H100.959V40.9167H118.01V40.9025Z" fill="#FCFAF9"/>
<path d="M200.738 81.0671C195.967 79.122 191.893 76.3961 188.499 72.9036C185.106 69.411 182.466 65.2654 180.563 60.4809C178.661 55.6821 177.724 50.4717 177.724 44.8353V41.6977C177.724 35.1669 178.774 29.3034 180.861 24.1356C182.948 18.9677 185.745 14.5949 189.252 11.003C192.702 7.45363 196.62 4.74193 201.05 2.83948C205.465 0.937027 209.994 0 214.637 0C220.472 0 225.583 1.00801 229.942 3.03824C234.314 5.05427 237.935 7.83695 240.831 11.3863C243.727 14.9782 245.885 19.1949 247.305 24.0362C248.725 28.8775 249.435 34.1163 249.435 39.7527V45.9711H191.566V46.4964C191.921 50.4433 192.702 53.9075 193.923 56.9031C195.144 59.8988 196.833 62.5395 198.977 64.8395C201.178 67.2814 203.818 69.2122 206.913 70.6036C210.008 71.9949 213.43 72.7048 217.164 72.7048C222.105 72.7048 226.492 71.711 230.339 69.7092C234.187 67.7073 237.381 65.0666 239.922 61.7728L248.384 68.3604C245.687 72.4492 241.654 76.0838 236.288 79.2498C230.921 82.4158 224.291 84.0059 216.411 84.0059C210.718 84.0059 205.494 83.0263 200.723 81.0813L200.738 81.0671ZM206.7 12.9054C204.202 13.9276 201.959 15.4184 199.957 17.3634C197.955 19.3652 196.28 21.793 194.902 24.6609C193.525 27.5287 192.574 30.8367 192.02 34.5848H235.592V33.9175C235.592 31.4188 235.124 28.7355 234.172 25.8676C233.221 22.9998 231.901 20.5152 230.211 18.414C228.508 16.3128 226.378 14.6233 223.808 13.3171C221.239 12.0252 218.186 11.3721 214.637 11.3721C211.84 11.3721 209.199 11.8832 206.7 12.9054Z" fill="#FCFAF9"/>
<path d="M308.424 12.3374V82.4866H295.391V12.3374H266.073V1.73193H337.898V12.3374H308.438H308.424Z" fill="#FCFAF9"/>
<path d="M377.949 81.0671C373.178 79.122 369.104 76.3961 365.71 72.9036C362.317 69.411 359.676 65.2654 357.774 60.4809C355.872 55.6821 354.935 50.4717 354.935 44.8353V41.6977C354.935 35.1669 355.985 29.3034 358.072 24.1356C360.159 18.9677 362.956 14.5949 366.463 11.003C369.913 7.45363 373.831 4.74193 378.261 2.83948C382.676 0.937027 387.205 0 391.848 0C397.683 0 402.794 1.00801 407.153 3.03824C411.525 5.05427 415.146 7.83695 418.042 11.3863C420.938 14.9782 423.096 19.1949 424.516 24.0362C425.936 28.8775 426.646 34.1163 426.646 39.7527V45.9711H368.777V46.4964C369.132 50.4433 369.913 53.9075 371.134 56.9031C372.355 59.8988 374.044 62.5395 376.188 64.8395C378.389 67.2814 381.029 69.2122 384.124 70.6036C387.219 71.9949 390.641 72.7048 394.375 72.7048C399.316 72.7048 403.703 71.711 407.55 69.7092C411.398 67.7073 414.592 65.0666 417.133 61.7728L425.595 68.3604C422.897 72.4492 418.865 76.0838 413.499 79.2498C408.132 82.4158 401.502 84.0059 393.622 84.0059C387.929 84.0059 382.705 83.0263 377.934 81.0813L377.949 81.0671ZM383.911 12.9054C381.413 13.9276 379.17 15.4184 377.168 17.3634C375.166 19.3652 373.491 21.793 372.113 24.6609C370.736 27.5287 369.785 30.8367 369.231 34.5848H412.803V33.9175C412.803 31.4188 412.335 28.7355 411.383 25.8676C410.432 22.9998 409.112 20.5152 407.422 18.414C405.719 16.3128 403.589 14.6233 401.019 13.3171C398.45 12.0252 395.397 11.3721 391.848 11.3721C389.051 11.3721 386.41 11.8832 383.911 12.9054Z" fill="#FCFAF9"/>
<path d="M502.928 1.73193H518.105L490.932 41.797L519.142 82.4866H503.894L483.379 51.7777L462.991 82.4866H447.743L475.755 41.797L448.368 1.73193H463.545L483.166 31.8872L502.928 1.73193Z" fill="#FCFAF9"/>
<path d="M579.352 12.3374V82.4866H566.319V12.3374H537.001V1.73193H608.826V12.3374H579.366H579.352Z" fill="#FCFAF9"/>
<path d="M532.396 128.034C532.396 127.737 532.338 127.472 532.221 127.239C532.104 126.996 531.906 126.776 531.628 126.579C531.349 126.381 530.981 126.201 530.523 126.04C530.065 125.869 529.495 125.716 528.812 125.582C527.976 125.411 527.213 125.204 526.521 124.962C525.839 124.719 525.255 124.427 524.77 124.086C524.276 123.754 523.894 123.363 523.624 122.914C523.355 122.456 523.22 121.926 523.22 121.324C523.22 120.731 523.359 120.179 523.638 119.667C523.916 119.146 524.307 118.692 524.81 118.306C525.313 117.92 525.91 117.614 526.602 117.39C527.303 117.165 528.071 117.053 528.906 117.053C529.804 117.053 530.613 117.17 531.331 117.403C532.05 117.637 532.661 117.96 533.164 118.373C533.667 118.786 534.053 119.271 534.323 119.828C534.601 120.376 534.74 120.969 534.74 121.607H532.248C532.248 121.292 532.167 120.987 532.005 120.691C531.843 120.385 531.619 120.116 531.331 119.882C531.044 119.649 530.694 119.46 530.28 119.316C529.876 119.173 529.418 119.101 528.906 119.101C528.376 119.101 527.909 119.159 527.505 119.276C527.11 119.393 526.782 119.55 526.521 119.748C526.252 119.945 526.05 120.174 525.915 120.435C525.78 120.695 525.713 120.965 525.713 121.243C525.713 121.531 525.767 121.787 525.875 122.011C525.982 122.236 526.171 122.438 526.44 122.617C526.701 122.797 527.051 122.959 527.491 123.102C527.941 123.246 528.506 123.385 529.189 123.52C530.087 123.709 530.891 123.929 531.601 124.18C532.311 124.423 532.908 124.715 533.393 125.056C533.878 125.407 534.246 125.811 534.498 126.269C534.758 126.727 534.889 127.257 534.889 127.859C534.889 128.505 534.74 129.094 534.444 129.624C534.156 130.154 533.752 130.607 533.231 130.985C532.71 131.362 532.086 131.654 531.358 131.86C530.631 132.067 529.836 132.17 528.974 132.17C527.985 132.17 527.105 132.04 526.333 131.78C525.56 131.51 524.909 131.155 524.379 130.715C523.84 130.284 523.427 129.781 523.139 129.206C522.861 128.631 522.722 128.034 522.722 127.414H525.214C525.25 127.926 525.385 128.357 525.619 128.708C525.861 129.058 526.162 129.341 526.521 129.556C526.872 129.772 527.262 129.925 527.694 130.015C528.125 130.104 528.551 130.149 528.974 130.149C529.638 130.149 530.218 130.073 530.712 129.92C531.206 129.759 531.592 129.538 531.87 129.26C532.041 129.089 532.171 128.901 532.261 128.694C532.351 128.488 532.396 128.267 532.396 128.034Z" fill="#FCFAF9"/>
<path d="M515.715 131.901C515.616 131.712 515.535 131.479 515.472 131.2C515.419 130.913 515.378 130.616 515.351 130.311C515.1 130.562 514.817 130.801 514.502 131.025C514.197 131.25 513.86 131.447 513.492 131.618C513.115 131.789 512.715 131.923 512.293 132.022C511.87 132.121 511.421 132.17 510.945 132.17C510.173 132.17 509.472 132.058 508.843 131.834C508.224 131.609 507.698 131.304 507.267 130.917C506.827 130.54 506.485 130.091 506.243 129.57C506.009 129.04 505.893 128.47 505.893 127.859C505.893 127.059 506.05 126.359 506.364 125.757C506.688 125.155 507.141 124.652 507.725 124.248C508.309 123.853 509.01 123.556 509.827 123.358C510.653 123.161 511.574 123.062 512.589 123.062H515.311V121.917C515.311 121.477 515.23 121.081 515.068 120.731C514.907 120.381 514.678 120.08 514.381 119.828C514.085 119.586 513.721 119.397 513.29 119.262C512.868 119.128 512.391 119.06 511.861 119.06C511.367 119.06 510.923 119.123 510.528 119.249C510.141 119.375 509.813 119.541 509.544 119.748C509.275 119.954 509.063 120.201 508.911 120.489C508.767 120.767 508.695 121.059 508.695 121.364H506.189C506.198 120.834 506.333 120.313 506.593 119.801C506.863 119.289 507.249 118.827 507.752 118.414C508.246 118.009 508.848 117.682 509.557 117.43C510.276 117.178 511.089 117.053 511.996 117.053C512.823 117.053 513.591 117.156 514.3 117.363C515.01 117.56 515.625 117.861 516.146 118.265C516.658 118.679 517.062 119.191 517.359 119.801C517.655 120.412 517.803 121.126 517.803 121.944V128.721C517.803 129.206 517.848 129.723 517.938 130.271C518.028 130.81 518.154 131.281 518.315 131.685V131.901H515.715ZM511.309 130.001C511.794 130.001 512.248 129.938 512.67 129.812C513.092 129.687 513.478 129.521 513.829 129.314C514.17 129.107 514.466 128.874 514.718 128.613C514.969 128.344 515.167 128.065 515.311 127.778V124.827H512.993C512.131 124.827 511.376 124.903 510.73 125.056C510.092 125.2 509.584 125.424 509.207 125.73C508.938 125.945 508.731 126.201 508.587 126.498C508.453 126.794 508.385 127.131 508.385 127.508C508.385 127.868 508.444 128.2 508.56 128.505C508.686 128.811 508.87 129.071 509.113 129.287C509.355 129.512 509.661 129.687 510.029 129.812C510.397 129.938 510.824 130.001 511.309 130.001Z" fill="#FCFAF9"/>
<path d="M489.953 117.322H497.404V129.745H502.16V131.901H489.953V129.745H494.911V119.491H489.953V117.322ZM494.588 113.496C494.588 113.28 494.62 113.078 494.682 112.889C494.754 112.701 494.862 112.539 495.006 112.404C495.123 112.287 495.271 112.198 495.45 112.135C495.639 112.063 495.85 112.027 496.084 112.027C496.317 112.027 496.524 112.063 496.704 112.135C496.883 112.198 497.031 112.287 497.148 112.404C497.292 112.53 497.4 112.687 497.472 112.876C497.543 113.064 497.579 113.271 497.579 113.496C497.579 113.9 497.454 114.237 497.202 114.506C496.951 114.776 496.578 114.91 496.084 114.91C495.581 114.91 495.203 114.776 494.952 114.506C494.709 114.237 494.588 113.9 494.588 113.496Z" fill="#FCFAF9"/>
<path d="M482.543 117.053C483.001 117.053 483.477 117.084 483.971 117.147C484.474 117.21 484.851 117.295 485.103 117.403L484.766 119.842C484.281 119.734 483.818 119.658 483.378 119.613C482.947 119.559 482.493 119.532 482.017 119.532C481.406 119.532 480.854 119.608 480.36 119.761C479.866 119.905 479.435 120.12 479.066 120.408C478.734 120.659 478.442 120.969 478.191 121.337C477.948 121.697 477.746 122.101 477.584 122.55V131.901H475.078V117.322H477.45L477.557 119.276L477.571 119.64C478.164 118.84 478.873 118.211 479.7 117.753C480.535 117.286 481.483 117.053 482.543 117.053Z" fill="#FCFAF9"/>
<path d="M455.717 124.477C455.717 123.426 455.87 122.451 456.175 121.553C456.48 120.646 456.92 119.86 457.495 119.195C458.061 118.53 458.753 118.009 459.57 117.632C460.388 117.246 461.308 117.053 462.332 117.053C463.365 117.053 464.291 117.246 465.108 117.632C465.934 118.009 466.635 118.53 467.21 119.195C467.776 119.86 468.212 120.646 468.517 121.553C468.822 122.451 468.975 123.426 468.975 124.477V124.773C468.975 125.824 468.822 126.799 468.517 127.697C468.212 128.595 467.776 129.377 467.21 130.042C466.635 130.706 465.939 131.227 465.122 131.604C464.304 131.982 463.383 132.17 462.359 132.17C461.326 132.17 460.397 131.982 459.57 131.604C458.753 131.227 458.061 130.706 457.495 130.042C456.92 129.377 456.48 128.595 456.175 127.697C455.87 126.799 455.717 125.824 455.717 124.773V124.477ZM458.209 124.773C458.209 125.492 458.295 126.179 458.465 126.835C458.636 127.481 458.897 128.052 459.247 128.546C459.588 129.04 460.019 129.431 460.54 129.718C461.061 130.006 461.668 130.149 462.359 130.149C463.042 130.149 463.639 130.006 464.151 129.718C464.672 129.431 465.108 129.04 465.458 128.546C465.8 128.052 466.056 127.481 466.226 126.835C466.397 126.179 466.482 125.492 466.482 124.773V124.477C466.482 123.767 466.393 123.089 466.213 122.442C466.042 121.787 465.786 121.212 465.445 120.718C465.095 120.224 464.659 119.833 464.138 119.545C463.626 119.249 463.024 119.101 462.332 119.101C461.641 119.101 461.039 119.249 460.527 119.545C460.015 119.833 459.588 120.224 459.247 120.718C458.897 121.212 458.636 121.787 458.465 122.442C458.295 123.089 458.209 123.767 458.209 124.477V124.773Z" fill="#FCFAF9"/>
<path d="M445.746 113.792V117.322H451.297V119.249H445.746V127.172C445.746 127.737 445.818 128.204 445.961 128.573C446.105 128.941 446.303 129.233 446.554 129.449C446.806 129.673 447.093 129.83 447.417 129.92C447.749 130.01 448.099 130.055 448.467 130.055C448.737 130.055 449.015 130.041 449.303 130.014C449.59 129.979 449.873 129.938 450.152 129.893C450.421 129.848 450.673 129.803 450.906 129.758C451.149 129.705 451.346 129.66 451.499 129.624L451.849 131.389C451.643 131.515 451.391 131.627 451.095 131.726C450.798 131.815 450.475 131.892 450.125 131.955C449.774 132.027 449.402 132.08 449.006 132.116C448.62 132.152 448.234 132.17 447.848 132.17C447.201 132.17 446.595 132.08 446.029 131.901C445.472 131.712 444.987 131.416 444.574 131.012C444.16 130.616 443.833 130.104 443.59 129.476C443.356 128.838 443.24 128.07 443.24 127.172V119.249H439.413V117.322H443.24V113.792H445.746Z" fill="#FCFAF9"/>
<path d="M432.959 128.034C432.959 127.737 432.901 127.472 432.784 127.239C432.667 126.996 432.47 126.776 432.191 126.579C431.913 126.381 431.545 126.201 431.087 126.04C430.628 125.869 430.058 125.716 429.375 125.582C428.54 125.411 427.776 125.204 427.085 124.962C426.402 124.719 425.818 124.427 425.333 124.086C424.839 123.754 424.457 123.363 424.188 122.914C423.918 122.456 423.784 121.926 423.784 121.324C423.784 120.731 423.923 120.179 424.201 119.667C424.48 119.146 424.871 118.692 425.374 118.306C425.877 117.92 426.474 117.614 427.166 117.39C427.866 117.165 428.634 117.053 429.47 117.053C430.368 117.053 431.176 117.17 431.895 117.403C432.614 117.637 433.224 117.96 433.727 118.373C434.23 118.786 434.617 119.271 434.886 119.828C435.165 120.376 435.304 120.969 435.304 121.607H432.811C432.811 121.292 432.73 120.987 432.569 120.691C432.407 120.385 432.182 120.116 431.895 119.882C431.607 119.649 431.257 119.46 430.844 119.316C430.44 119.173 429.982 119.101 429.47 119.101C428.94 119.101 428.473 119.159 428.068 119.276C427.673 119.393 427.345 119.55 427.085 119.748C426.815 119.945 426.613 120.174 426.478 120.435C426.344 120.695 426.276 120.965 426.276 121.243C426.276 121.531 426.33 121.787 426.438 122.011C426.546 122.236 426.734 122.438 427.004 122.617C427.264 122.797 427.615 122.959 428.055 123.102C428.504 123.246 429.07 123.385 429.753 123.52C430.651 123.709 431.455 123.929 432.164 124.18C432.874 124.423 433.471 124.715 433.956 125.056C434.441 125.407 434.81 125.811 435.061 126.269C435.322 126.727 435.452 127.257 435.452 127.859C435.452 128.505 435.304 129.094 435.007 129.624C434.72 130.154 434.316 130.607 433.795 130.985C433.274 131.362 432.649 131.654 431.922 131.86C431.194 132.067 430.399 132.17 429.537 132.17C428.549 132.17 427.669 132.04 426.896 131.78C426.124 131.51 425.472 131.155 424.942 130.715C424.403 130.284 423.99 129.781 423.703 129.206C423.424 128.631 423.285 128.034 423.285 127.414H425.778C425.814 127.926 425.948 128.357 426.182 128.708C426.425 129.058 426.725 129.341 427.085 129.556C427.435 129.772 427.826 129.925 428.257 130.015C428.688 130.104 429.115 130.149 429.537 130.149C430.202 130.149 430.781 130.073 431.275 129.92C431.769 129.759 432.155 129.538 432.434 129.26C432.605 129.089 432.735 128.901 432.825 128.694C432.914 128.488 432.959 128.267 432.959 128.034Z" fill="#FCFAF9"/>
<path d="M407.091 117.322H414.542V129.745H419.298V131.901H407.091V129.745H412.049V119.491H407.091V117.322ZM411.726 113.496C411.726 113.28 411.757 113.078 411.82 112.889C411.892 112.701 412 112.539 412.144 112.404C412.26 112.287 412.408 112.198 412.588 112.135C412.777 112.063 412.988 112.027 413.221 112.027C413.455 112.027 413.662 112.063 413.841 112.135C414.021 112.198 414.169 112.287 414.286 112.404C414.43 112.53 414.537 112.687 414.609 112.876C414.681 113.064 414.717 113.271 414.717 113.496C414.717 113.9 414.591 114.237 414.34 114.506C414.088 114.776 413.715 114.91 413.221 114.91C412.718 114.91 412.341 114.776 412.09 114.506C411.847 114.237 411.726 113.9 411.726 113.496Z" fill="#FCFAF9"/>
<path d="M392.619 119.491C392.816 119.195 393.036 118.926 393.279 118.683C393.521 118.432 393.777 118.211 394.047 118.023C394.478 117.708 394.95 117.47 395.462 117.309C395.983 117.147 396.535 117.062 397.119 117.053C397.882 117.053 398.574 117.165 399.194 117.39C399.823 117.605 400.357 117.946 400.797 118.414C401.237 118.881 401.574 119.474 401.808 120.192C402.05 120.902 402.172 121.746 402.172 122.725V131.901H399.679V122.698C399.679 122.123 399.612 121.62 399.477 121.189C399.342 120.749 399.144 120.385 398.884 120.098C398.606 119.783 398.255 119.55 397.833 119.397C397.411 119.235 396.926 119.159 396.378 119.168C395.929 119.168 395.502 119.231 395.098 119.357C394.694 119.483 394.321 119.662 393.979 119.896C393.71 120.075 393.459 120.286 393.225 120.529C393 120.763 392.798 121.023 392.619 121.31V131.901H390.126V111.205H392.619V119.491Z" fill="#FCFAF9"/>
<path d="M356.98 131.901V117.322H359.217L359.392 119.478C359.608 119.173 359.841 118.894 360.093 118.643C360.353 118.382 360.627 118.158 360.915 117.969C361.346 117.682 361.813 117.461 362.316 117.309C362.828 117.147 363.367 117.062 363.933 117.053C364.696 117.053 365.388 117.161 366.008 117.376C366.637 117.592 367.171 117.929 367.611 118.387C368.051 118.845 368.388 119.429 368.622 120.138C368.864 120.839 368.986 121.674 368.986 122.644V131.901H366.493V122.698C366.493 122.052 366.421 121.504 366.277 121.054C366.134 120.605 365.923 120.242 365.644 119.963C365.357 119.685 365.006 119.483 364.593 119.357C364.189 119.231 363.722 119.168 363.192 119.168C362.734 119.168 362.307 119.235 361.912 119.37C361.517 119.496 361.153 119.671 360.821 119.896C360.551 120.093 360.3 120.322 360.066 120.583C359.841 120.843 359.644 121.131 359.473 121.445V131.901H356.98Z" fill="#FCFAF9"/>
<path d="M349.988 131.901C349.89 131.712 349.809 131.479 349.746 131.2C349.692 130.913 349.652 130.616 349.625 130.311C349.373 130.562 349.09 130.801 348.776 131.025C348.47 131.25 348.134 131.447 347.765 131.618C347.388 131.789 346.988 131.923 346.566 132.022C346.144 132.121 345.695 132.17 345.219 132.17C344.446 132.17 343.746 132.058 343.117 131.834C342.497 131.609 341.972 131.304 341.54 130.917C341.1 130.54 340.759 130.091 340.516 129.57C340.283 129.04 340.166 128.47 340.166 127.859C340.166 127.059 340.323 126.359 340.638 125.757C340.961 125.155 341.415 124.652 341.998 124.248C342.582 123.853 343.283 123.556 344.1 123.358C344.927 123.161 345.847 123.062 346.863 123.062H349.584V121.917C349.584 121.477 349.503 121.081 349.342 120.731C349.18 120.381 348.951 120.08 348.655 119.828C348.358 119.586 347.994 119.397 347.563 119.262C347.141 119.128 346.665 119.06 346.135 119.06C345.641 119.06 345.196 119.123 344.801 119.249C344.415 119.375 344.087 119.541 343.817 119.748C343.548 119.954 343.337 120.201 343.184 120.489C343.04 120.767 342.969 121.059 342.969 121.364H340.462C340.471 120.834 340.606 120.313 340.867 119.801C341.136 119.289 341.522 118.827 342.025 118.414C342.519 118.009 343.121 117.682 343.831 117.43C344.55 117.178 345.362 117.053 346.27 117.053C347.096 117.053 347.864 117.156 348.574 117.363C349.283 117.56 349.899 117.861 350.42 118.265C350.932 118.679 351.336 119.191 351.632 119.801C351.929 120.412 352.077 121.126 352.077 121.944V128.721C352.077 129.206 352.122 129.723 352.212 130.271C352.301 130.81 352.427 131.281 352.589 131.685V131.901H349.988ZM345.582 130.001C346.068 130.001 346.521 129.938 346.943 129.812C347.366 129.687 347.752 129.521 348.102 129.314C348.443 129.107 348.74 128.874 348.991 128.613C349.243 128.344 349.441 128.065 349.584 127.778V124.827H347.267C346.404 124.827 345.65 124.903 345.003 125.056C344.365 125.2 343.858 125.424 343.481 125.73C343.211 125.945 343.005 126.201 342.861 126.498C342.726 126.794 342.659 127.131 342.659 127.508C342.659 127.868 342.717 128.2 342.834 128.505C342.96 128.811 343.144 129.071 343.386 129.287C343.629 129.512 343.934 129.687 344.302 129.812C344.671 129.938 345.097 130.001 345.582 130.001Z" fill="#FCFAF9"/>
<path d="M329.736 113.792V117.322H335.287V119.249H329.736V127.172C329.736 127.737 329.808 128.204 329.952 128.573C330.095 128.941 330.293 129.233 330.544 129.449C330.796 129.673 331.083 129.83 331.407 129.92C331.739 130.01 332.089 130.055 332.458 130.055C332.727 130.055 333.006 130.041 333.293 130.014C333.581 129.979 333.864 129.938 334.142 129.893C334.411 129.848 334.663 129.803 334.896 129.758C335.139 129.705 335.337 129.66 335.489 129.624L335.84 131.389C335.633 131.515 335.382 131.627 335.085 131.726C334.789 131.815 334.465 131.892 334.115 131.955C333.765 132.027 333.392 132.08 332.997 132.116C332.61 132.152 332.224 132.17 331.838 132.17C331.191 132.17 330.585 132.08 330.019 131.901C329.462 131.712 328.977 131.416 328.564 131.012C328.151 130.616 327.823 130.104 327.58 129.476C327.347 128.838 327.23 128.07 327.23 127.172V119.249H323.403V117.322H327.23V113.792H329.736Z" fill="#FCFAF9"/>
<path d="M307.263 131.901V117.322H309.499L309.675 119.478C309.89 119.173 310.124 118.894 310.375 118.643C310.636 118.382 310.91 118.158 311.197 117.969C311.628 117.682 312.095 117.461 312.598 117.309C313.11 117.147 313.649 117.062 314.215 117.053C314.979 117.053 315.67 117.161 316.29 117.376C316.919 117.592 317.453 117.929 317.894 118.387C318.334 118.845 318.671 119.429 318.904 120.138C319.147 120.839 319.268 121.674 319.268 122.644V131.901H316.775V122.698C316.775 122.052 316.703 121.504 316.56 121.054C316.416 120.605 316.205 120.242 315.926 119.963C315.639 119.685 315.289 119.483 314.875 119.357C314.471 119.231 314.004 119.168 313.474 119.168C313.016 119.168 312.589 119.235 312.194 119.37C311.799 119.496 311.435 119.671 311.103 119.896C310.833 120.093 310.582 120.322 310.348 120.583C310.124 120.843 309.926 121.131 309.755 121.445V131.901H307.263Z" fill="#FCFAF9"/>
<path d="M297.129 132.17C296.105 132.17 295.162 131.995 294.3 131.645C293.446 131.295 292.714 130.805 292.103 130.176C291.493 129.547 291.016 128.802 290.675 127.94C290.334 127.077 290.163 126.139 290.163 125.124V124.558C290.163 123.381 290.352 122.33 290.729 121.405C291.106 120.471 291.609 119.68 292.238 119.033C292.858 118.396 293.563 117.906 294.353 117.565C295.153 117.223 295.97 117.053 296.806 117.053C297.857 117.053 298.773 117.237 299.554 117.605C300.345 117.964 301.001 118.463 301.522 119.101C302.043 119.748 302.429 120.507 302.68 121.378C302.941 122.249 303.071 123.192 303.071 124.207V125.326H292.656V125.42C292.719 126.13 292.858 126.754 293.073 127.293C293.298 127.832 293.603 128.308 293.99 128.721C294.385 129.161 294.861 129.507 295.418 129.759C295.975 130.01 296.59 130.136 297.264 130.136C298.153 130.136 298.944 129.956 299.635 129.597C300.327 129.238 300.902 128.761 301.36 128.169L302.882 129.354C302.397 130.091 301.67 130.747 300.7 131.322C299.738 131.887 298.548 132.17 297.129 132.17ZM296.806 119.101C296.303 119.101 295.827 119.195 295.377 119.384C294.928 119.563 294.524 119.828 294.165 120.179C293.806 120.538 293.5 120.978 293.249 121.499C293.006 122.011 292.835 122.604 292.737 123.278H300.578V123.156C300.578 122.707 300.493 122.227 300.322 121.715C300.152 121.194 299.914 120.745 299.608 120.367C299.303 119.99 298.917 119.685 298.449 119.451C297.991 119.218 297.443 119.101 296.806 119.101Z" fill="#FCFAF9"/>
<path d="M283.723 131.9L283.575 129.893C283.09 130.611 282.484 131.173 281.756 131.577C281.028 131.972 280.189 132.17 279.236 132.17C278.473 132.17 277.781 132.053 277.162 131.82C276.542 131.577 276.012 131.204 275.572 130.701C275.131 130.198 274.79 129.561 274.548 128.788C274.314 128.007 274.197 127.072 274.197 125.985V117.322H276.69V126.012C276.69 126.803 276.753 127.459 276.879 127.98C277.004 128.501 277.193 128.914 277.444 129.219C277.696 129.534 278.001 129.754 278.361 129.879C278.729 130.005 279.151 130.068 279.627 130.068C280.184 130.068 280.683 130.005 281.123 129.879C281.563 129.745 281.945 129.561 282.268 129.327C282.538 129.138 282.771 128.914 282.969 128.653C283.175 128.384 283.346 128.092 283.481 127.777V117.322H285.987V131.9H283.723Z" fill="#FCFAF9"/>
<path d="M263.755 130.149C264.204 130.149 264.64 130.077 265.062 129.934C265.493 129.79 265.875 129.588 266.207 129.327C266.54 129.076 266.805 128.779 267.002 128.438C267.209 128.088 267.317 127.711 267.326 127.306H269.684C269.675 127.953 269.504 128.573 269.172 129.166C268.848 129.75 268.413 130.262 267.865 130.702C267.317 131.151 266.688 131.51 265.978 131.78C265.269 132.04 264.528 132.17 263.755 132.17C262.65 132.17 261.685 131.973 260.858 131.578C260.032 131.182 259.345 130.648 258.797 129.974C258.24 129.309 257.822 128.541 257.544 127.67C257.265 126.79 257.126 125.865 257.126 124.895V124.329C257.126 123.367 257.265 122.447 257.544 121.566C257.822 120.686 258.24 119.909 258.797 119.235C259.345 118.571 260.032 118.041 260.858 117.646C261.685 117.25 262.65 117.053 263.755 117.053C264.617 117.053 265.408 117.192 266.126 117.47C266.854 117.74 267.483 118.108 268.013 118.575C268.534 119.051 268.943 119.613 269.239 120.26C269.535 120.906 269.684 121.598 269.684 122.334H267.326C267.317 121.894 267.218 121.481 267.029 121.095C266.85 120.7 266.603 120.354 266.288 120.057C265.974 119.761 265.597 119.527 265.156 119.357C264.725 119.186 264.258 119.101 263.755 119.101C262.983 119.101 262.331 119.258 261.801 119.572C261.28 119.878 260.858 120.277 260.535 120.772C260.211 121.275 259.978 121.836 259.834 122.456C259.699 123.076 259.632 123.7 259.632 124.329V124.895C259.632 125.532 259.699 126.166 259.834 126.794C259.978 127.414 260.211 127.971 260.535 128.465C260.849 128.968 261.267 129.377 261.788 129.691C262.318 129.997 262.974 130.149 263.755 130.149Z" fill="#FCFAF9"/>
<path d="M230.838 132.17C229.814 132.17 228.871 131.995 228.009 131.645C227.155 131.295 226.423 130.805 225.812 130.176C225.201 129.547 224.725 128.802 224.384 127.94C224.043 127.077 223.872 126.139 223.872 125.124V124.558C223.872 123.381 224.061 122.33 224.438 121.405C224.815 120.471 225.318 119.68 225.947 119.033C226.567 118.396 227.272 117.906 228.062 117.565C228.862 117.223 229.679 117.053 230.515 117.053C231.566 117.053 232.482 117.237 233.263 117.605C234.054 117.964 234.71 118.463 235.231 119.101C235.751 119.748 236.138 120.507 236.389 121.378C236.65 122.249 236.78 123.192 236.78 124.207V125.326H226.365V125.42C226.428 126.13 226.567 126.754 226.782 127.293C227.007 127.832 227.312 128.308 227.699 128.721C228.094 129.161 228.57 129.507 229.127 129.759C229.684 130.01 230.299 130.136 230.973 130.136C231.862 130.136 232.653 129.956 233.344 129.597C234.036 129.238 234.611 128.761 235.069 128.169L236.591 129.354C236.106 130.091 235.379 130.747 234.409 131.322C233.447 131.887 232.257 132.17 230.838 132.17ZM230.515 119.101C230.012 119.101 229.536 119.195 229.086 119.384C228.637 119.563 228.233 119.828 227.874 120.179C227.514 120.538 227.209 120.978 226.958 121.499C226.715 122.011 226.544 122.604 226.446 123.278H234.287V123.156C234.287 122.707 234.202 122.227 234.031 121.715C233.861 121.194 233.623 120.745 233.317 120.367C233.012 119.99 232.626 119.685 232.158 119.451C231.7 119.218 231.152 119.101 230.515 119.101Z" fill="#FCFAF9"/>
<path d="M217.432 131.9L217.284 129.893C216.799 130.611 216.193 131.173 215.465 131.577C214.737 131.972 213.898 132.17 212.945 132.17C212.182 132.17 211.49 132.053 210.87 131.82C210.251 131.577 209.721 131.204 209.281 130.701C208.84 130.198 208.499 129.561 208.257 128.788C208.023 128.007 207.906 127.072 207.906 125.985V117.322H210.399V126.012C210.399 126.803 210.462 127.459 210.588 127.98C210.713 128.501 210.902 128.914 211.153 129.219C211.405 129.534 211.71 129.754 212.07 129.879C212.438 130.005 212.86 130.068 213.336 130.068C213.893 130.068 214.392 130.005 214.832 129.879C215.272 129.745 215.654 129.561 215.977 129.327C216.247 129.138 216.48 128.914 216.678 128.653C216.884 128.384 217.055 128.092 217.19 127.777V117.322H219.696V131.9H217.432Z" fill="#FCFAF9"/>
<path d="M190.794 124.49C190.794 123.403 190.924 122.406 191.185 121.499C191.445 120.583 191.827 119.797 192.33 119.141C192.833 118.485 193.448 117.973 194.176 117.605C194.912 117.237 195.748 117.053 196.682 117.053C197.203 117.053 197.688 117.107 198.137 117.214C198.595 117.322 199.013 117.484 199.39 117.699C199.633 117.834 199.862 117.991 200.077 118.171C200.293 118.351 200.495 118.548 200.684 118.764L200.792 117.322H203.082V137.506H200.589V130.58C200.374 130.805 200.145 131.007 199.902 131.187C199.669 131.366 199.413 131.519 199.134 131.645C198.784 131.816 198.402 131.946 197.989 132.036C197.576 132.125 197.131 132.17 196.655 132.17C195.73 132.17 194.903 131.982 194.176 131.604C193.457 131.227 192.846 130.706 192.343 130.042C191.84 129.377 191.454 128.595 191.185 127.697C190.924 126.79 190.794 125.815 190.794 124.773V124.49ZM193.287 124.773C193.287 125.483 193.363 126.161 193.516 126.808C193.677 127.455 193.92 128.025 194.243 128.519C194.567 129.013 194.975 129.408 195.469 129.705C195.972 129.992 196.57 130.136 197.261 130.136C197.648 130.136 198.002 130.091 198.326 130.001C198.649 129.911 198.946 129.79 199.215 129.637C199.503 129.467 199.759 129.26 199.983 129.017C200.208 128.766 200.41 128.492 200.589 128.196V121.001C200.419 120.722 200.221 120.471 199.997 120.246C199.781 120.012 199.538 119.81 199.269 119.64C198.991 119.469 198.685 119.339 198.353 119.249C198.029 119.15 197.675 119.101 197.288 119.101C196.597 119.101 195.999 119.249 195.496 119.545C194.993 119.842 194.58 120.237 194.257 120.731C193.924 121.234 193.677 121.809 193.516 122.456C193.363 123.102 193.287 123.781 193.287 124.49V124.773Z" fill="#FCFAF9"/>
<path d="M167.794 128.034C167.794 127.737 167.736 127.472 167.619 127.239C167.502 126.996 167.305 126.776 167.026 126.579C166.748 126.381 166.38 126.201 165.921 126.04C165.463 125.869 164.893 125.716 164.21 125.582C163.375 125.411 162.611 125.204 161.92 124.962C161.237 124.719 160.653 124.427 160.168 124.086C159.674 123.754 159.292 123.363 159.023 122.914C158.753 122.456 158.619 121.926 158.619 121.324C158.619 120.731 158.758 120.179 159.036 119.667C159.315 119.146 159.706 118.692 160.209 118.306C160.712 117.92 161.309 117.614 162.001 117.39C162.701 117.165 163.469 117.053 164.305 117.053C165.203 117.053 166.011 117.17 166.73 117.403C167.448 117.637 168.059 117.96 168.562 118.373C169.065 118.786 169.452 119.271 169.721 119.828C170 120.376 170.139 120.969 170.139 121.607H167.646C167.646 121.292 167.565 120.987 167.404 120.691C167.242 120.385 167.017 120.116 166.73 119.882C166.442 119.649 166.092 119.46 165.679 119.316C165.275 119.173 164.817 119.101 164.305 119.101C163.775 119.101 163.308 119.159 162.903 119.276C162.508 119.393 162.18 119.55 161.92 119.748C161.65 119.945 161.448 120.174 161.313 120.435C161.179 120.695 161.111 120.965 161.111 121.243C161.111 121.531 161.165 121.787 161.273 122.011C161.381 122.236 161.569 122.438 161.839 122.617C162.099 122.797 162.45 122.959 162.89 123.102C163.339 123.246 163.905 123.385 164.588 123.52C165.486 123.709 166.29 123.929 166.999 124.18C167.709 124.423 168.306 124.715 168.791 125.056C169.276 125.407 169.645 125.811 169.896 126.269C170.157 126.727 170.287 127.257 170.287 127.859C170.287 128.505 170.139 129.094 169.842 129.624C169.555 130.154 169.151 130.607 168.63 130.985C168.109 131.362 167.484 131.654 166.757 131.86C166.029 132.067 165.234 132.17 164.372 132.17C163.384 132.17 162.504 132.04 161.731 131.78C160.959 131.51 160.307 131.155 159.777 130.715C159.238 130.284 158.825 129.781 158.538 129.206C158.259 128.631 158.12 128.034 158.12 127.414H160.613C160.649 127.926 160.783 128.357 161.017 128.708C161.26 129.058 161.56 129.341 161.92 129.556C162.27 129.772 162.661 129.925 163.092 130.015C163.523 130.104 163.95 130.149 164.372 130.149C165.037 130.149 165.616 130.073 166.11 129.92C166.604 129.759 166.99 129.538 167.269 129.26C167.44 129.089 167.57 128.901 167.66 128.694C167.749 128.488 167.794 128.267 167.794 128.034Z" fill="#FCFAF9"/>
<path d="M140.834 124.477C140.834 123.426 140.987 122.451 141.292 121.553C141.598 120.646 142.038 119.86 142.613 119.195C143.178 118.53 143.87 118.009 144.687 117.632C145.505 117.246 146.426 117.053 147.45 117.053C148.483 117.053 149.408 117.246 150.225 117.632C151.052 118.009 151.752 118.53 152.327 119.195C152.893 119.86 153.329 120.646 153.634 121.553C153.94 122.451 154.092 123.426 154.092 124.477V124.773C154.092 125.824 153.94 126.799 153.634 127.697C153.329 128.595 152.893 129.377 152.327 130.042C151.752 130.706 151.056 131.227 150.239 131.604C149.421 131.982 148.501 132.17 147.477 132.17C146.444 132.17 145.514 131.982 144.687 131.604C143.87 131.227 143.178 130.706 142.613 130.042C142.038 129.377 141.598 128.595 141.292 127.697C140.987 126.799 140.834 125.824 140.834 124.773V124.477ZM143.327 124.773C143.327 125.492 143.412 126.179 143.583 126.835C143.753 127.481 144.014 128.052 144.364 128.546C144.705 129.04 145.137 129.431 145.658 129.718C146.179 130.006 146.785 130.149 147.477 130.149C148.159 130.149 148.757 130.006 149.269 129.718C149.79 129.431 150.225 129.04 150.576 128.546C150.917 128.052 151.173 127.481 151.344 126.835C151.514 126.179 151.6 125.492 151.6 124.773V124.477C151.6 123.767 151.51 123.089 151.33 122.442C151.159 121.787 150.903 121.212 150.562 120.718C150.212 120.224 149.776 119.833 149.255 119.545C148.743 119.249 148.141 119.101 147.45 119.101C146.758 119.101 146.156 119.249 145.644 119.545C145.132 119.833 144.705 120.224 144.364 120.718C144.014 121.212 143.753 121.787 143.583 122.442C143.412 123.089 143.327 123.767 143.327 124.477V124.773Z" fill="#FCFAF9"/>
<path d="M131.173 130.149C131.622 130.149 132.058 130.077 132.48 129.934C132.911 129.79 133.293 129.588 133.625 129.327C133.958 129.076 134.223 128.779 134.42 128.438C134.627 128.088 134.735 127.711 134.744 127.306H137.102C137.093 127.953 136.922 128.573 136.59 129.166C136.266 129.75 135.831 130.262 135.283 130.702C134.735 131.151 134.106 131.51 133.396 131.78C132.687 132.04 131.946 132.17 131.173 132.17C130.068 132.17 129.103 131.973 128.276 131.578C127.45 131.182 126.763 130.648 126.215 129.974C125.658 129.309 125.24 128.541 124.962 127.67C124.683 126.79 124.544 125.865 124.544 124.895V124.329C124.544 123.367 124.683 122.447 124.962 121.566C125.24 120.686 125.658 119.909 126.215 119.235C126.763 118.571 127.45 118.041 128.276 117.646C129.103 117.25 130.068 117.053 131.173 117.053C132.035 117.053 132.826 117.192 133.544 117.47C134.272 117.74 134.901 118.108 135.431 118.575C135.952 119.051 136.36 119.613 136.657 120.26C136.953 120.906 137.102 121.598 137.102 122.334H134.744C134.735 121.894 134.636 121.481 134.447 121.095C134.268 120.7 134.021 120.354 133.706 120.057C133.392 119.761 133.014 119.527 132.574 119.357C132.143 119.186 131.676 119.101 131.173 119.101C130.401 119.101 129.749 119.258 129.219 119.572C128.698 119.878 128.276 120.277 127.953 120.772C127.629 121.275 127.396 121.836 127.252 122.456C127.117 123.076 127.05 123.7 127.05 124.329V124.895C127.05 125.532 127.117 126.166 127.252 126.794C127.396 127.414 127.629 127.971 127.953 128.465C128.267 128.968 128.685 129.377 129.206 129.691C129.736 129.997 130.392 130.149 131.173 130.149Z" fill="#FCFAF9"/>
<path d="M118.077 128.034C118.077 127.737 118.018 127.472 117.901 127.239C117.785 126.996 117.587 126.776 117.309 126.579C117.03 126.381 116.662 126.201 116.204 126.04C115.746 125.869 115.175 125.716 114.493 125.582C113.657 125.411 112.894 125.204 112.202 124.962C111.519 124.719 110.935 124.427 110.45 124.086C109.956 123.754 109.575 123.363 109.305 122.914C109.036 122.456 108.901 121.926 108.901 121.324C108.901 120.731 109.04 120.179 109.319 119.667C109.597 119.146 109.988 118.692 110.491 118.306C110.994 117.92 111.591 117.614 112.283 117.39C112.983 117.165 113.751 117.053 114.587 117.053C115.485 117.053 116.294 117.17 117.012 117.403C117.731 117.637 118.342 117.96 118.845 118.373C119.348 118.786 119.734 119.271 120.003 119.828C120.282 120.376 120.421 120.969 120.421 121.607H117.928C117.928 121.292 117.847 120.987 117.686 120.691C117.524 120.385 117.3 120.116 117.012 119.882C116.725 119.649 116.374 119.46 115.961 119.316C115.557 119.173 115.099 119.101 114.587 119.101C114.057 119.101 113.59 119.159 113.186 119.276C112.79 119.393 112.462 119.55 112.202 119.748C111.932 119.945 111.73 120.174 111.596 120.435C111.461 120.695 111.394 120.965 111.394 121.243C111.394 121.531 111.447 121.787 111.555 122.011C111.663 122.236 111.852 122.438 112.121 122.617C112.382 122.797 112.732 122.959 113.172 123.102C113.621 123.246 114.187 123.385 114.87 123.52C115.768 123.709 116.572 123.929 117.282 124.18C117.991 124.423 118.589 124.715 119.074 125.056C119.559 125.407 119.927 125.811 120.178 126.269C120.439 126.727 120.569 127.257 120.569 127.859C120.569 128.505 120.421 129.094 120.125 129.624C119.837 130.154 119.433 130.607 118.912 130.985C118.391 131.362 117.767 131.654 117.039 131.86C116.311 132.067 115.517 132.17 114.654 132.17C113.666 132.17 112.786 132.04 112.013 131.78C111.241 131.51 110.59 131.155 110.06 130.715C109.521 130.284 109.107 129.781 108.82 129.206C108.542 128.631 108.402 128.034 108.402 127.414H110.895C110.931 127.926 111.066 128.357 111.299 128.708C111.542 129.058 111.843 129.341 112.202 129.556C112.552 129.772 112.943 129.925 113.374 130.015C113.805 130.104 114.232 130.149 114.654 130.149C115.319 130.149 115.898 130.073 116.392 129.92C116.886 129.759 117.273 129.538 117.551 129.26C117.722 129.089 117.852 128.901 117.942 128.694C118.032 128.488 118.077 128.267 118.077 128.034Z" fill="#FCFAF9"/>
<path d="M101.396 131.901C101.297 131.712 101.216 131.479 101.153 131.2C101.099 130.913 101.059 130.616 101.032 130.311C100.78 130.562 100.497 130.801 100.183 131.025C99.8776 131.25 99.5408 131.447 99.1725 131.618C98.7952 131.789 98.3955 131.923 97.9733 132.022C97.5511 132.121 97.102 132.17 96.6259 132.17C95.8534 132.17 95.1528 132.058 94.524 131.834C93.9042 131.609 93.3787 131.304 92.9476 130.917C92.5074 130.54 92.1661 130.091 91.9236 129.57C91.69 129.04 91.5732 128.47 91.5732 127.859C91.5732 127.059 91.7304 126.359 92.0448 125.757C92.3682 125.155 92.8218 124.652 93.4057 124.248C93.9895 123.853 94.6902 123.556 95.5076 123.358C96.334 123.161 97.2547 123.062 98.2697 123.062H100.991V121.917C100.991 121.477 100.911 121.081 100.749 120.731C100.587 120.381 100.358 120.08 100.062 119.828C99.7653 119.586 99.4015 119.397 98.9704 119.262C98.5482 119.128 98.0721 119.06 97.5421 119.06C97.0481 119.06 96.6035 119.123 96.2082 119.249C95.822 119.375 95.4941 119.541 95.2246 119.748C94.9552 119.954 94.7441 120.201 94.5914 120.489C94.4477 120.767 94.3758 121.059 94.3758 121.364H91.8697C91.8786 120.834 92.0134 120.313 92.2739 119.801C92.5434 119.289 92.9296 118.827 93.4326 118.414C93.9267 118.009 94.5285 117.682 95.2381 117.43C95.9567 117.178 96.7696 117.053 97.6769 117.053C98.5033 117.053 99.2713 117.156 99.9809 117.363C100.691 117.56 101.306 117.861 101.827 118.265C102.339 118.679 102.743 119.191 103.039 119.801C103.336 120.412 103.484 121.126 103.484 121.944V128.721C103.484 129.206 103.529 129.723 103.619 130.271C103.709 130.81 103.834 131.281 103.996 131.685V131.901H101.396ZM96.9897 130.001C97.4748 130.001 97.9284 129.938 98.3506 129.812C98.7728 129.687 99.159 129.521 99.5093 129.314C99.8507 129.107 100.147 128.874 100.399 128.613C100.65 128.344 100.848 128.065 100.991 127.778V124.827H98.674C97.8116 124.827 97.0571 124.903 96.4103 125.056C95.7726 125.2 95.2651 125.424 94.8878 125.73C94.6183 125.945 94.4117 126.201 94.268 126.498C94.1333 126.794 94.0659 127.131 94.0659 127.508C94.0659 127.868 94.1243 128.2 94.2411 128.505C94.3668 128.811 94.551 129.071 94.7935 129.287C95.036 129.512 95.3414 129.687 95.7097 129.812C96.078 129.938 96.5047 130.001 96.9897 130.001Z" fill="#FCFAF9"/>
<path d="M87.9484 125.999C87.8316 126.906 87.5981 127.742 87.2478 128.505C86.8975 129.26 86.4438 129.906 85.8869 130.445C85.321 130.993 84.6518 131.42 83.8793 131.725C83.1158 132.022 82.2625 132.17 81.3193 132.17C80.5109 132.17 79.7743 132.058 79.1096 131.833C78.4539 131.6 77.87 131.281 77.358 130.877C76.837 130.472 76.3879 129.996 76.0106 129.448C75.6423 128.9 75.3369 128.303 75.0944 127.656C74.8429 127.01 74.6542 126.331 74.5285 125.622C74.4117 124.912 74.3488 124.194 74.3398 123.466V120.731C74.3488 120.003 74.4117 119.285 74.5285 118.575C74.6542 117.865 74.8429 117.187 75.0944 116.54C75.3369 115.894 75.6423 115.296 76.0106 114.748C76.3879 114.191 76.837 113.711 77.358 113.307C77.87 112.902 78.4539 112.588 79.1096 112.364C79.7653 112.13 80.5019 112.013 81.3193 112.013C82.2984 112.013 83.1742 112.166 83.9467 112.471C84.7192 112.768 85.3839 113.19 85.9408 113.738C86.4977 114.295 86.9424 114.959 87.2747 115.732C87.6161 116.504 87.8406 117.358 87.9484 118.292H85.4558C85.3749 117.699 85.2357 117.147 85.0381 116.635C84.8404 116.123 84.5755 115.674 84.2431 115.287C83.9108 114.901 83.502 114.6 83.017 114.385C82.5409 114.16 81.975 114.048 81.3193 114.048C80.7264 114.048 80.201 114.147 79.7428 114.344C79.2937 114.533 78.9075 114.793 78.5841 115.126C78.2517 115.458 77.9733 115.844 77.7487 116.284C77.5331 116.725 77.358 117.192 77.2232 117.686C77.0885 118.18 76.9897 118.687 76.9268 119.208C76.8729 119.72 76.846 120.219 76.846 120.704V123.466C76.846 123.951 76.8729 124.454 76.9268 124.975C76.9897 125.487 77.0885 125.99 77.2232 126.484C77.358 126.987 77.5331 127.459 77.7487 127.899C77.9643 128.339 78.2383 128.725 78.5706 129.058C78.903 129.399 79.2937 129.668 79.7428 129.866C80.192 130.055 80.7175 130.149 81.3193 130.149C81.975 130.149 82.5409 130.046 83.017 129.839C83.502 129.632 83.9108 129.341 84.2431 128.963C84.5755 128.595 84.8404 128.159 85.0381 127.656C85.2357 127.144 85.3749 126.592 85.4558 125.999H87.9484Z" fill="#FCFAF9"/>
</svg>
