<svg width="1219" height="138" viewBox="0 0 1219 138" fill="none" xmlns="http://www.w3.org/2000/svg">
<path d="M324.972 126.682C324.854 127.33 324.766 127.949 324.707 128.539C324.678 129.128 324.663 129.658 324.663 130.13C324.663 130.395 324.678 130.69 324.707 131.014C324.737 131.338 324.796 131.647 324.884 131.942C325.002 132.207 325.149 132.443 325.326 132.649C325.532 132.826 325.812 132.915 326.166 132.915C326.431 132.915 326.726 132.826 327.05 132.649C327.403 132.473 327.742 132.222 328.067 131.898C328.42 131.574 328.744 131.176 329.039 130.704C329.363 130.233 329.614 129.703 329.79 129.113H337.04L335.89 133.843C335.301 134.226 334.623 134.55 333.857 134.815C333.091 135.081 332.281 135.302 331.426 135.478C330.571 135.626 329.702 135.729 328.818 135.788C327.934 135.876 327.094 135.92 326.298 135.92C324.825 135.92 323.455 135.788 322.188 135.523C320.92 135.257 319.815 134.801 318.872 134.152C317.929 133.504 317.178 132.649 316.618 131.589C316.087 130.498 315.822 129.157 315.822 127.566C315.822 126.122 316.043 124.708 316.485 123.323C316.957 121.938 317.723 120.715 318.784 119.654C319.874 118.563 321.318 117.694 323.116 117.046C324.943 116.397 327.212 116.073 329.923 116.073C332.87 116.073 335.08 116.53 336.554 117.444C338.056 118.357 338.808 119.786 338.808 121.731C338.808 122.527 338.69 123.396 338.454 124.339C338.219 125.253 337.865 126.034 337.393 126.682H324.972ZM330.851 121.422C330.851 120.508 330.704 119.889 330.409 119.565C330.115 119.241 329.761 119.079 329.348 119.079C328.877 119.079 328.435 119.241 328.022 119.565C327.639 119.86 327.286 120.273 326.961 120.803C326.637 121.304 326.343 121.893 326.077 122.571C325.812 123.219 325.591 123.912 325.414 124.649H330.454C330.512 124.295 330.571 123.927 330.63 123.544C330.689 123.219 330.733 122.866 330.763 122.483C330.822 122.1 330.851 121.746 330.851 121.422Z" fill="#FFFBFF"/>
<path d="M301.281 119.388C301.9 118.799 302.592 118.254 303.358 117.753C304.036 117.34 304.832 116.957 305.745 116.604C306.659 116.25 307.675 116.073 308.795 116.073C310.328 116.073 311.595 116.471 312.597 117.267C313.599 118.033 314.1 119.094 314.1 120.449C314.1 120.832 314.055 121.304 313.967 121.864C313.879 122.394 313.775 122.954 313.658 123.544C313.54 124.133 313.407 124.737 313.26 125.356C313.142 125.945 313.039 126.476 312.95 126.947L311.094 135.567H302.121L304.552 124.03C304.611 123.647 304.684 123.264 304.773 122.881C304.861 122.468 304.905 122.1 304.905 121.775C304.905 121.333 304.787 120.98 304.552 120.715C304.345 120.42 304.021 120.273 303.579 120.273C303.049 120.273 302.533 120.464 302.032 120.847C301.561 121.23 301.192 121.554 300.927 121.82L298.01 135.567H288.992L293.015 116.559H300.22L301.015 119.388H301.281Z" fill="#FFFBFF"/>
<path d="M277.342 107.057C279.876 107.057 281.924 107.381 283.486 108.029C285.078 108.677 286.33 109.679 287.244 111.035C287.833 111.948 288.29 112.98 288.614 114.129C288.938 115.278 289.1 116.605 289.1 118.107C289.1 119.404 288.982 120.701 288.746 121.997C288.511 123.294 288.172 124.546 287.73 125.755C287.317 126.933 286.802 128.053 286.183 129.114C285.593 130.145 284.93 131.059 284.194 131.855C282.809 133.358 281.202 134.418 279.375 135.037C277.578 135.627 275.353 135.921 272.701 135.921C270.137 135.921 268.074 135.656 266.512 135.126C264.95 134.595 263.713 133.741 262.799 132.562C262.151 131.737 261.635 130.691 261.252 129.423C260.898 128.156 260.722 126.565 260.722 124.649C260.722 121.378 261.296 118.461 262.446 115.897C263.624 113.304 265.289 111.256 267.441 109.753C268.737 108.839 270.181 108.162 271.772 107.72C273.364 107.278 275.22 107.057 277.342 107.057ZM272.347 132.827C273.025 132.827 273.658 132.532 274.248 131.943C274.867 131.324 275.427 130.514 275.928 129.512C276.458 128.48 276.93 127.316 277.342 126.02C277.784 124.723 278.152 123.382 278.447 121.997C278.742 120.612 278.963 119.242 279.11 117.886C279.287 116.501 279.375 115.249 279.375 114.129C279.375 112.597 279.213 111.551 278.889 110.991C278.594 110.401 278.152 110.107 277.563 110.107C276.885 110.107 276.237 110.401 275.618 110.991C274.999 111.58 274.41 112.376 273.85 113.378C273.32 114.35 272.833 115.485 272.391 116.781C271.979 118.048 271.61 119.36 271.286 120.715C270.992 122.071 270.756 123.412 270.579 124.738C270.432 126.064 270.358 127.287 270.358 128.407C270.358 130.086 270.535 131.25 270.888 131.899C271.272 132.518 271.758 132.827 272.347 132.827Z" fill="#FFFBFF"/>
<path d="M348.978 84.1144C349.008 83.9671 349.037 83.8197 349.066 83.6724C349.096 83.5251 349.111 83.363 349.111 83.1862C349.111 82.6557 349.008 82.1695 348.801 81.7275C348.624 81.256 348.256 81.0202 347.696 81.0202C347.195 81.0202 346.694 81.2412 346.193 81.6832C345.692 82.0958 345.442 82.6557 345.442 83.363C345.442 83.8345 345.56 84.2176 345.795 84.5123C346.061 84.7775 346.4 84.9985 346.812 85.1753C347.225 85.3521 347.681 85.4995 348.182 85.6173C348.713 85.7352 349.229 85.8531 349.73 85.971C350.437 86.1478 351.1 86.3688 351.719 86.634C352.367 86.8698 352.942 87.1939 353.443 87.6065C353.944 88.019 354.341 88.5347 354.636 89.1536C354.931 89.743 355.078 90.4797 355.078 91.3637C355.078 92.6014 354.783 93.6476 354.194 94.5022C353.634 95.3273 352.838 96.0051 351.807 96.5355C350.805 97.0365 349.612 97.3901 348.227 97.5964C346.871 97.8027 345.412 97.9058 343.851 97.9058C341.464 97.9058 339.489 97.729 337.927 97.3754C336.365 97.0217 335.275 96.6829 334.656 96.3587L335.585 91.9384H341.552C341.522 92.0857 341.508 92.2331 341.508 92.3804C341.508 92.4983 341.508 92.6309 341.508 92.7782C341.508 93.456 341.655 94.0012 341.95 94.4138C342.274 94.7968 342.819 94.9884 343.585 94.9884C344.44 94.9884 345.044 94.7527 345.398 94.2812C345.781 93.7802 345.972 93.3234 345.972 92.9109C345.972 92.4983 345.81 92.1447 345.486 91.85C345.191 91.5258 344.808 91.2606 344.337 91.0543C343.865 90.8186 343.335 90.627 342.745 90.4797C342.186 90.3029 341.64 90.1408 341.11 89.9934C340.727 89.905 340.285 89.7577 339.784 89.5514C339.312 89.3451 338.856 89.0504 338.414 88.6673C337.971 88.2843 337.603 87.798 337.308 87.2086C337.014 86.5898 336.866 85.8236 336.866 84.9101C336.866 83.6135 337.176 82.5378 337.795 81.6832C338.443 80.7992 339.268 80.0919 340.27 79.5615C341.301 79.0311 342.451 78.648 343.718 78.4122C345.015 78.1765 346.311 78.0586 347.608 78.0586C349.229 78.0586 350.761 78.2059 352.205 78.5006C353.649 78.7953 354.828 79.1784 355.741 79.6499L354.724 84.1144H348.978Z" fill="#FFFBFF"/>
<path d="M321.354 81.3738C321.973 80.7845 322.665 80.2393 323.431 79.7383C324.109 79.3257 324.905 78.9427 325.818 78.589C326.732 78.2354 327.749 78.0586 328.868 78.0586C330.401 78.0586 331.668 78.4564 332.67 79.2521C333.672 80.0183 334.173 81.0791 334.173 82.4347C334.173 82.8178 334.129 83.2893 334.04 83.8492C333.952 84.3796 333.849 84.9396 333.731 85.5289C333.613 86.1183 333.48 86.7224 333.333 87.3413C333.215 87.9306 333.112 88.4611 333.024 88.9326L331.167 97.5522H322.194L324.625 86.0152C324.684 85.6321 324.758 85.249 324.846 84.8659C324.934 84.4533 324.979 84.085 324.979 83.7608C324.979 83.3188 324.861 82.9651 324.625 82.6999C324.419 82.4052 324.095 82.2579 323.652 82.2579C323.122 82.2579 322.606 82.4494 322.105 82.8325C321.634 83.2156 321.265 83.5398 321 83.805L318.083 97.5522H309.065L313.088 78.5448H320.293L321.089 81.3738H321.354Z" fill="#FFFBFF"/>
<path d="M288.301 80.1803C289.804 79.4436 291.336 78.9132 292.898 78.589C294.49 78.2354 296.258 78.0586 298.203 78.0586C300.089 78.0586 301.651 78.2059 302.888 78.5006C304.126 78.7953 305.113 79.2226 305.85 79.7825C306.587 80.3424 307.102 81.0055 307.397 81.7717C307.692 82.5378 307.839 83.4072 307.839 84.3796C307.839 84.9395 307.795 85.5437 307.706 86.192C307.647 86.8403 307.574 87.3855 307.485 87.8275L305.408 97.5522H298.291L297.495 94.7232H297.23C296.287 95.7546 295.182 96.5502 293.915 97.1102C292.677 97.6406 291.44 97.9058 290.202 97.9058C289.495 97.9058 288.802 97.8027 288.124 97.5964C287.447 97.3901 286.843 97.0807 286.312 96.6681C285.782 96.2261 285.354 95.6809 285.03 95.0326C284.706 94.3548 284.544 93.5444 284.544 92.6014C284.544 91.0691 284.957 89.8608 285.782 88.9768C286.636 88.0632 287.741 87.3855 289.097 86.9434C290.482 86.4719 292.029 86.1772 293.738 86.0594C295.477 85.9415 297.216 85.8826 298.954 85.8826C299.013 85.5879 299.087 85.1753 299.175 84.6449C299.264 84.085 299.308 83.5987 299.308 83.1862C299.308 82.6557 299.16 82.1695 298.866 81.7275C298.601 81.256 298.026 81.0202 297.142 81.0202C296.11 81.0202 295.344 81.3296 294.843 81.9485C294.372 82.5378 294.062 83.2598 293.915 84.1144H287.461L288.301 80.1803ZM298.468 87.9601H297.672C296.818 87.9601 296.081 88.078 295.462 88.3137C294.873 88.52 294.387 88.8 294.003 89.1536C293.65 89.5072 293.385 89.905 293.208 90.3471C293.031 90.7891 292.943 91.2311 292.943 91.6732C292.943 92.3804 293.119 92.9109 293.473 93.2645C293.856 93.6181 294.298 93.7949 294.799 93.7949C295.418 93.7949 296.022 93.5739 296.611 93.1319C297.23 92.6898 297.613 92.1005 297.761 91.3637L298.468 87.9601Z" fill="#FFFBFF"/>
<path d="M276.591 77.6174C276.679 77.1754 276.723 76.5713 276.723 75.8051C276.723 75.363 276.694 74.9357 276.635 74.5232C276.576 74.0812 276.473 73.6981 276.325 73.3739C276.178 73.0203 275.957 72.7551 275.662 72.5782C275.368 72.372 274.985 72.2688 274.513 72.2688C273.983 72.2688 273.496 72.3867 273.054 72.6225C272.612 72.8582 272.215 73.1676 271.861 73.5507C271.537 73.9043 271.272 74.3316 271.065 74.8326C270.888 75.3041 270.8 75.8051 270.8 76.3355C270.8 77.1017 270.992 77.6911 271.375 78.1036C271.787 78.5162 272.318 78.8551 272.966 79.1203C273.614 79.3855 274.351 79.6065 275.176 79.7834C276.001 79.9602 276.856 80.1665 277.74 80.4022C278.477 80.6085 279.213 80.8737 279.95 81.1979C280.687 81.522 281.335 81.964 281.895 82.524C282.484 83.0544 282.956 83.7616 283.31 84.6457C283.663 85.5003 283.84 86.5759 283.84 87.8725C283.84 89.7291 283.472 91.2909 282.735 92.5581C281.998 93.8252 280.982 94.8566 279.685 95.6523C278.388 96.4479 276.841 97.0226 275.044 97.3762C273.275 97.7298 271.345 97.9067 269.253 97.9067C267.131 97.9067 265.393 97.774 264.037 97.5088C262.711 97.2141 261.665 96.9047 260.899 96.5806C259.985 96.1975 259.307 95.7554 258.865 95.2545L260.368 89.1986H268.148C268.118 89.4639 268.089 89.8322 268.059 90.3037C268.03 90.7457 268.015 91.0994 268.015 91.3646C268.015 91.7182 268.059 92.0866 268.148 92.4697C268.236 92.8528 268.369 93.2064 268.546 93.5305C268.752 93.8547 269.032 94.1199 269.386 94.3262C269.739 94.5325 270.181 94.6356 270.712 94.6356C271.301 94.6356 271.817 94.503 272.259 94.2378C272.73 93.9726 273.113 93.6484 273.408 93.2653C273.732 92.8528 273.968 92.4107 274.115 91.9392C274.292 91.4383 274.381 90.952 274.381 90.4805C274.381 89.8322 274.218 89.287 273.894 88.845C273.6 88.403 273.187 88.0346 272.657 87.7399C272.126 87.4158 271.507 87.1506 270.8 86.9443C270.122 86.7085 269.415 86.4728 268.678 86.237C267.971 86.0307 267.22 85.7803 266.424 85.4856C265.658 85.1909 264.951 84.7783 264.302 84.2479C263.654 83.7174 263.109 83.0544 262.667 82.2587C262.254 81.4336 262.048 80.3875 262.048 79.1203C262.048 77.2343 262.519 75.6577 263.462 74.3906C264.435 73.094 265.643 72.0478 267.087 71.2522C268.56 70.4565 270.167 69.8966 271.905 69.5724C273.644 69.2188 275.294 69.042 276.856 69.042C278.919 69.042 280.687 69.2925 282.16 69.7934C283.663 70.2649 284.798 70.8249 285.564 71.4732L283.928 77.6174H276.591Z" fill="#FFFBFF"/>
<path d="M391.473 40.5302H398.634L395.009 57.7252C394.744 59.0513 394.302 60.2743 393.683 61.3941C393.064 62.5139 392.195 63.4864 391.075 64.3115C389.985 65.1366 388.6 65.7849 386.92 66.2564C385.27 66.7279 383.251 66.9637 380.864 66.9637C380.422 66.9637 379.892 66.9489 379.273 66.9195C378.654 66.9195 378.021 66.9047 377.372 66.8753C376.724 66.8753 376.105 66.8605 375.516 66.8311C374.926 66.8016 374.455 66.7721 374.101 66.7427L374.941 63.56C375.884 63.7074 376.842 63.781 377.814 63.781C378.816 63.8105 379.671 63.8252 380.378 63.8252C381.262 63.8252 381.999 63.7368 382.588 63.56C383.207 63.4127 383.708 63.1622 384.091 62.8086C384.504 62.4549 384.828 61.9834 385.064 61.3941C385.329 60.8047 385.535 60.0827 385.682 59.2281L386.213 56.3549H385.903C385.727 56.6201 385.461 56.9443 385.108 57.3274C384.784 57.681 384.356 58.0346 383.826 58.3883C383.295 58.7124 382.662 58.9924 381.925 59.2281C381.218 59.4344 380.407 59.5375 379.494 59.5375C378.463 59.5375 377.578 59.3902 376.842 59.0955C376.135 58.7713 375.56 58.344 375.118 57.8136C374.676 57.2537 374.352 56.6054 374.145 55.8687C373.939 55.1025 373.836 54.2774 373.836 53.3933C373.836 53.0102 373.865 52.4208 373.924 51.6252C373.983 50.8295 374.116 49.9307 374.322 48.9288C374.558 47.9268 374.882 46.9102 375.295 45.8788C375.737 44.8179 376.311 43.8602 377.019 43.0056C377.755 42.151 378.654 41.4437 379.715 40.8838C380.805 40.3239 382.117 40.0439 383.649 40.0439C384.121 40.0439 384.636 40.0881 385.196 40.1766C385.756 40.265 386.301 40.427 386.832 40.6628C387.362 40.8985 387.834 41.2374 388.246 41.6795C388.659 42.1215 388.983 42.6961 389.219 43.4034H389.484L391.473 40.5302ZM386.522 44.3759C385.815 44.3759 385.226 44.7589 384.754 45.5251C384.283 46.2619 383.9 47.1312 383.605 48.1331C383.31 49.1351 383.089 50.137 382.942 51.1389C382.824 52.1114 382.765 52.8334 382.765 53.3049C382.765 53.8943 382.853 54.3952 383.03 54.8078C383.236 55.1909 383.59 55.3824 384.091 55.3824C384.386 55.3824 384.666 55.3088 384.931 55.1614C385.226 55.0141 385.491 54.852 385.727 54.6752C385.992 54.4689 386.213 54.2626 386.39 54.0563C386.596 53.8501 386.743 53.688 386.832 53.5701L388.467 45.8346C388.231 45.5104 387.951 45.1862 387.627 44.8621C387.333 44.5379 386.964 44.3759 386.522 44.3759Z" fill="#FFFBFF"/>
<path d="M359.384 43.3592C360.003 42.7698 360.696 42.2246 361.462 41.7237C362.14 41.3111 362.935 40.928 363.849 40.5744C364.762 40.2208 365.779 40.0439 366.899 40.0439C368.431 40.0439 369.698 40.4418 370.7 41.2374C371.702 42.0036 372.203 43.0645 372.203 44.4201C372.203 44.8032 372.159 45.2747 372.07 45.8346C371.982 46.365 371.879 46.9249 371.761 47.5143C371.643 48.1037 371.511 48.7078 371.363 49.3266C371.245 49.916 371.142 50.4464 371.054 50.9179L369.197 59.5375H360.224L362.655 48.0005C362.714 47.6174 362.788 47.2343 362.876 46.8512C362.965 46.4387 363.009 46.0703 363.009 45.7462C363.009 45.3041 362.891 44.9505 362.655 44.6853C362.449 44.3906 362.125 44.2432 361.683 44.2432C361.152 44.2432 360.637 44.4348 360.136 44.8179C359.664 45.201 359.296 45.5251 359.031 45.7904L356.113 59.5375H347.096L351.118 40.5302H358.323L359.119 43.3592H359.384Z" fill="#FFFBFF"/>
<path d="M343.119 59.5378H334.146L338.168 40.5305H347.23L343.119 59.5378ZM348.379 34.7398C348.379 35.4176 348.232 36.007 347.937 36.508C347.672 37.0089 347.303 37.4362 346.832 37.7899C346.39 38.1435 345.874 38.4087 345.285 38.5855C344.695 38.7623 344.091 38.8507 343.472 38.8507C342.294 38.8507 341.306 38.5708 340.511 38.0109C339.715 37.451 339.317 36.5669 339.317 35.3587C339.317 34.7104 339.45 34.1357 339.715 33.6348C339.98 33.1043 340.334 32.677 340.776 32.3529C341.247 31.9992 341.778 31.734 342.367 31.5572C342.986 31.3804 343.62 31.292 344.268 31.292C345.417 31.292 346.39 31.5719 347.185 32.1319C347.981 32.6918 348.379 33.5611 348.379 34.7398Z" fill="#FFFBFF"/>
<path d="M331.163 58.4767C329.926 58.9776 328.614 59.3313 327.229 59.5375C325.874 59.7733 324.327 59.8912 322.588 59.8912C321.056 59.8912 319.641 59.7438 318.344 59.4491C317.077 59.125 315.972 58.624 315.029 57.9462C314.086 57.2684 313.35 56.3991 312.819 55.3382C312.289 54.2479 312.023 52.9365 312.023 51.4042C312.023 49.8128 312.289 48.3394 312.819 46.9838C313.379 45.5988 314.204 44.3906 315.294 43.3592C316.414 42.3278 317.829 41.5174 319.538 40.928C321.247 40.3386 323.281 40.0439 325.638 40.0439C327.553 40.0439 329.218 40.206 330.633 40.5302C332.047 40.8249 333.211 41.5174 334.125 42.6077L332.887 48.2657H326.876C326.905 47.7648 326.935 47.3227 326.964 46.9396C326.994 46.5565 327.008 46.1292 327.008 45.6577C327.008 44.7147 326.905 44.0517 326.699 43.6686C326.493 43.256 326.154 43.0498 325.682 43.0498C324.857 43.0498 324.135 43.4623 323.516 44.2874C322.897 45.0831 322.382 46.0556 321.969 47.2049C321.586 48.3247 321.291 49.5182 321.085 50.7853C320.908 52.023 320.82 53.0839 320.82 53.9679C320.82 54.2921 320.835 54.631 320.864 54.9846C320.894 55.3088 320.952 55.6182 321.041 55.9129C321.159 56.2076 321.306 56.4433 321.483 56.6201C321.66 56.7969 321.91 56.8853 322.234 56.8853C322.529 56.8853 322.868 56.7969 323.251 56.6201C323.634 56.4433 324.002 56.1781 324.356 55.8245C324.71 55.4414 325.049 54.9551 325.373 54.3658C325.697 53.7764 325.947 53.0691 326.124 52.244H332.445L331.163 58.4767Z" fill="#FFFBFF"/>
<path d="M290.33 42.1657C291.832 41.429 293.365 40.8985 294.927 40.5744C296.518 40.2208 298.286 40.0439 300.231 40.0439C302.117 40.0439 303.679 40.1913 304.917 40.486C306.154 40.7807 307.141 41.208 307.878 41.7679C308.615 42.3278 309.131 42.9908 309.425 43.757C309.72 44.5232 309.867 45.3925 309.867 46.365C309.867 46.9249 309.823 47.529 309.735 48.1773C309.676 48.8256 309.602 49.3708 309.514 49.8128L307.436 59.5375H300.319L299.524 56.7085H299.259C298.316 57.7399 297.21 58.5356 295.943 59.0955C294.706 59.6259 293.468 59.8912 292.23 59.8912C291.523 59.8912 290.831 59.788 290.153 59.5817C289.475 59.3755 288.871 59.066 288.34 58.6535C287.81 58.2114 287.383 57.6663 287.058 57.018C286.734 56.3402 286.572 55.5298 286.572 54.5868C286.572 53.0544 286.985 51.8462 287.81 50.9621C288.665 50.0486 289.77 49.3708 291.125 48.9288C292.51 48.4573 294.057 48.1626 295.767 48.0447C297.505 47.9268 299.244 47.8679 300.982 47.8679C301.041 47.5732 301.115 47.1607 301.204 46.6302C301.292 46.0703 301.336 45.5841 301.336 45.1715C301.336 44.6411 301.189 44.1548 300.894 43.7128C300.629 43.2413 300.054 43.0056 299.17 43.0056C298.139 43.0056 297.373 43.315 296.872 43.9338C296.4 44.5232 296.091 45.2452 295.943 46.0998H289.49L290.33 42.1657ZM300.496 49.9455H299.701C298.846 49.9455 298.109 50.0633 297.49 50.2991C296.901 50.5054 296.415 50.7853 296.032 51.1389C295.678 51.4926 295.413 51.8904 295.236 52.3324C295.059 52.7745 294.971 53.2165 294.971 53.6585C294.971 54.3658 295.148 54.8962 295.501 55.2498C295.884 55.6035 296.326 55.7803 296.827 55.7803C297.446 55.7803 298.05 55.5593 298.64 55.1172C299.259 54.6752 299.642 54.0858 299.789 53.3491L300.496 49.9455Z" fill="#FFFBFF"/>
<path d="M286.713 38.1434C286.713 39.8821 286.227 41.4881 285.255 42.9616C284.282 44.435 282.676 45.5548 280.437 46.321L285.564 59.5378H275.707L271.817 47.2935H271.331L268.723 59.5378H259.175L265.142 31.4688H276.768C278.123 31.4688 279.405 31.5572 280.613 31.734C281.822 31.8813 282.868 32.2055 283.752 32.7064C284.665 33.1779 285.387 33.8557 285.918 34.7398C286.448 35.5944 286.713 36.7289 286.713 38.1434ZM273.983 44.4645C274.749 44.4645 275.397 44.214 275.928 43.713C276.488 43.1826 276.93 42.549 277.254 41.8123C277.608 41.0756 277.858 40.2946 278.005 39.4695C278.153 38.6149 278.226 37.8782 278.226 37.2594C278.226 36.4932 278.094 35.8449 277.829 35.3144C277.563 34.7545 276.989 34.4746 276.105 34.4746H274.115L271.905 44.4645H273.983Z" fill="#FFFBFF"/>
<path d="M153.059 52.5366C160.242 49.0154 167.566 46.4801 175.031 44.9308C182.637 43.2406 191.088 42.3955 200.384 42.3955C209.398 42.3955 216.863 43.0997 222.779 44.5082C228.695 45.9167 233.413 47.959 236.934 50.6352C240.455 53.3113 242.92 56.4804 244.329 60.1425C245.737 63.8045 246.442 67.9596 246.442 72.6076C246.442 75.2837 246.23 78.1711 245.808 81.2698C245.526 84.3684 245.174 86.9742 244.751 89.0869L234.822 135.567H200.807L197.004 122.045H195.736C191.229 126.975 185.947 130.778 179.891 133.454C173.975 135.99 168.059 137.257 162.144 137.257C158.763 137.257 155.453 136.764 152.214 135.778C148.974 134.792 146.087 133.313 143.552 131.342C141.016 129.229 138.974 126.623 137.425 123.524C135.875 120.285 135.101 116.412 135.101 111.904C135.101 104.58 137.072 98.8054 141.016 94.58C145.101 90.2137 150.383 86.9741 156.862 84.8614C163.482 82.6078 170.876 81.1993 179.045 80.6359C187.355 80.0726 195.666 79.7909 203.976 79.7909C204.257 78.3824 204.609 76.4105 205.032 73.8752C205.455 71.1991 205.666 68.8751 205.666 66.9032C205.666 64.3679 204.962 62.0439 203.553 59.9312C202.285 57.6776 199.539 56.5508 195.313 56.5508C190.384 56.5508 186.722 58.0297 184.327 60.9875C182.074 63.8045 180.595 67.2553 179.891 71.3399H149.045L153.059 52.5366ZM201.652 89.7207H197.849C193.764 89.7207 190.243 90.2841 187.285 91.4109C184.468 92.3968 182.144 93.7349 180.313 95.4251C178.623 97.1153 177.355 99.0167 176.51 101.129C175.665 103.242 175.242 105.355 175.242 107.468C175.242 110.848 176.088 113.383 177.778 115.073C179.609 116.764 181.722 117.609 184.116 117.609C187.074 117.609 189.961 116.552 192.778 114.44C195.736 112.327 197.567 109.51 198.271 105.989L201.652 89.7207Z" fill="#FFFBFF"/>
<path d="M127.798 135.567H78.3605L75.4027 101.974H36.3171L21.3167 135.567H0.823242L63.1488 1.4082H113.221L127.798 135.567ZM43.2892 86.5513H73.9238L69.0645 29.085L43.2892 86.5513Z" fill="#FFFBFF"/>
<path d="M745.568 112.245C748.662 112.245 750.917 113.099 752.331 114.809C753.775 116.488 754.497 119.509 754.497 123.87C754.497 128.232 753.672 131.252 752.022 132.932C750.372 134.582 747.528 135.407 743.491 135.407C742.224 135.407 739.91 135.26 736.551 134.965L734.871 134.788V103.935H740.794V113.438C742.68 112.643 744.272 112.245 745.568 112.245ZM743.491 130.103C745.465 130.103 746.791 129.631 747.469 128.688C748.147 127.716 748.486 125.992 748.486 123.517C748.486 119.538 747.248 117.549 744.773 117.549C743.594 117.549 742.474 117.696 741.413 117.991L740.794 118.124V129.926C742.15 130.044 743.049 130.103 743.491 130.103Z" fill="#FFFBFF"/>
<path d="M717.2 126.345C717.229 127.701 717.583 128.688 718.261 129.307C718.968 129.896 719.97 130.191 721.267 130.191C724.007 130.191 726.453 130.102 728.604 129.925L729.842 129.793L729.93 134.169C726.541 134.994 723.477 135.407 720.736 135.407C717.406 135.407 714.99 134.523 713.487 132.754C711.984 130.986 711.232 128.113 711.232 124.135C711.232 116.208 714.489 112.244 721.001 112.244C727.426 112.244 730.638 115.574 730.638 122.234L730.196 126.345H717.2ZM724.803 121.836C724.803 120.068 724.523 118.845 723.963 118.167C723.403 117.46 722.416 117.106 721.001 117.106C719.616 117.106 718.629 117.475 718.04 118.212C717.48 118.919 717.185 120.127 717.156 121.836H724.803Z" fill="#FFFBFF"/>
<path d="M670.161 104.818H676.571L680.284 129.661H680.947L686.339 104.818H693.412L698.805 129.661H699.468L703.181 104.818H709.59L703.844 134.877H694.605L689.876 112.023L685.146 134.877H675.908L670.161 104.818Z" fill="#FFFBFF"/>
<path d="M787.889 95.0939H781.966V72.9924H787.845V74.23C789.878 73.0513 791.617 72.4619 793.061 72.4619C795.448 72.4619 797.29 73.1544 798.586 74.5395C801.297 73.1544 803.773 72.4619 806.012 72.4619C808.93 72.4619 810.948 73.3165 812.068 75.0257C813.217 76.7054 813.792 79.4018 813.792 83.1149V95.0939H807.869V83.2917C807.869 81.4057 807.663 80.0207 807.25 79.1366C806.837 78.2231 806.012 77.7663 804.775 77.7663C803.832 77.7663 802.682 77.9726 801.327 78.3851L800.664 78.6062C800.782 80.8163 800.841 82.496 800.841 83.6453V95.0939H794.917V83.7337C794.917 81.553 794.726 80.0207 794.343 79.1366C793.96 78.2231 793.12 77.7663 791.823 77.7663C790.674 77.7663 789.539 77.9726 788.419 78.3851L787.889 78.5619V95.0939Z" fill="#FFFBFF"/>
<path d="M770.573 72.9922H776.497V95.0938H770.618V93.8561C768.496 95.0348 766.654 95.6242 765.092 95.6242C762.028 95.6242 759.965 94.7843 758.904 93.1046C757.843 91.3954 757.312 88.5517 757.312 84.5734V72.9922H763.236V84.6618C763.236 86.8425 763.413 88.3307 763.766 89.1263C764.12 89.922 764.974 90.3198 766.33 90.3198C767.627 90.3198 768.85 90.1135 769.999 89.701L770.573 89.5242V72.9922Z" fill="#FFFBFF"/>
<path d="M746.138 95.0936V72.992H752.061V95.0936H746.138ZM746.138 70.163V64.1514H752.061V70.163H746.138Z" fill="#FFFBFF"/>
<path d="M734.488 95.0936V64.1514H740.412V95.0936H734.488Z" fill="#FFFBFF"/>
<path d="M722.827 95.0936V72.992H728.75V95.0936H722.827ZM722.827 70.163V64.1514H728.75V70.163H722.827Z" fill="#FFFBFF"/>
<path d="M718.97 78.0311H713.533V87.0927C713.533 87.9768 713.548 88.6103 713.577 88.9934C713.636 89.3471 713.798 89.6565 714.064 89.9217C714.358 90.1869 714.8 90.3195 715.39 90.3195L718.749 90.2311L719.014 94.9609C717.04 95.4029 715.537 95.6239 714.506 95.6239C711.853 95.6239 710.041 95.0345 709.069 93.8558C708.096 92.6476 707.61 90.4374 707.61 87.2253V78.0311H705.002V72.9919H707.61V66.8477H713.533V72.9919H718.97V78.0311Z" fill="#FFFBFF"/>
<path d="M695.33 95.0936V72.992H701.253V95.0936H695.33ZM695.33 70.163V64.1514H701.253V70.163H695.33Z" fill="#FFFBFF"/>
<path d="M669.896 70.4279V65.0352H691.998V70.4279H684.041V95.0933H677.941V70.4279H669.896Z" fill="#FFFBFF"/>
<path d="M647.048 66.6446V107.901C647.312 111.074 647.841 113.322 648.634 114.645C649.428 115.835 651.081 116.694 653.593 117.223L652.8 137.256C646.056 137.256 640.634 136.794 636.535 135.868C632.568 134.942 628.535 133.091 624.436 130.314C614.915 134.942 605.196 137.256 595.279 137.256C574.783 137.256 564.535 126.413 564.535 104.727C564.535 94.1488 567.378 86.6777 573.064 82.3141C578.75 77.8182 587.477 75.1736 599.246 74.3802L620.469 72.7934V66.6446C620.469 62.5455 619.544 59.7686 617.692 58.314C615.841 56.7273 612.866 55.9339 608.767 55.9339L571.477 57.5207L570.684 39.0743C584.833 35.2396 598.254 33.3223 610.948 33.3223C623.775 33.3223 632.965 35.9669 638.519 41.2562C644.205 46.5454 647.048 55.0083 647.048 66.6446ZM602.42 92.8265C595.015 93.4877 591.312 97.4546 591.312 104.727C591.312 112 594.552 115.636 601.031 115.636C606.056 115.636 611.544 114.843 617.494 113.256L620.469 112.463V91.2397L602.42 92.8265Z" fill="#E30613"/>
<path d="M442.837 134.876L473.184 0H525.151L555.498 134.876H528.126L522.771 110.48H475.564L470.209 134.876H442.837ZM494.407 22.6116L480.721 86.6779H517.614L503.928 22.6116H494.407Z" fill="#E30613"/>
<path d="M1212.56 135.715C1209.76 135.715 1207.73 135.008 1206.46 133.593C1205.2 132.179 1204.56 130.263 1204.56 127.847V120.465H1201.82V114.321H1204.56V110.033L1212.87 108.044V114.321H1217.69L1217.38 120.465H1212.87V127.228C1212.87 128.112 1213.09 128.746 1213.54 129.129C1213.98 129.482 1214.65 129.659 1215.57 129.659C1216.42 129.659 1217.29 129.512 1218.18 129.217V134.743C1216.61 135.391 1214.74 135.715 1212.56 135.715Z" fill="#FFFBFF"/>
<path d="M1190.63 111.536V105.524H1199.6V111.536H1190.63ZM1191.29 135.273V120.377H1188.24L1188.95 114.321H1199.6V135.273H1191.29Z" fill="#FFFBFF"/>
<path d="M1162.49 135.273V114.321H1170.27L1170.49 115.912C1171.29 115.382 1172.34 114.91 1173.63 114.498C1174.96 114.085 1176.37 113.879 1177.88 113.879C1180.5 113.879 1182.42 114.527 1183.62 115.824C1184.83 117.12 1185.44 119.124 1185.44 121.835V135.273H1177.13V122.675C1177.13 121.732 1176.92 121.055 1176.51 120.642C1176.09 120.229 1175.37 120.023 1174.34 120.023C1173.72 120.023 1173.07 120.17 1172.4 120.465C1171.75 120.76 1171.22 121.113 1170.8 121.526V135.273H1162.49Z" fill="#FFFBFF"/>
<path d="M1143.91 135.715C1142.59 135.715 1141.35 135.48 1140.2 135.008C1139.08 134.537 1138.18 133.8 1137.5 132.798C1136.83 131.796 1136.49 130.529 1136.49 128.996C1136.49 126.786 1137.22 125.077 1138.7 123.869C1140.17 122.631 1142.39 122.012 1145.37 122.012H1150.81V121.614C1150.81 120.789 1150.47 120.185 1149.79 119.802C1149.11 119.419 1147.92 119.227 1146.21 119.227C1143.79 119.227 1141.41 119.596 1139.05 120.333V115.338C1140.11 114.925 1141.44 114.586 1143.03 114.321C1144.62 114.026 1146.24 113.879 1147.89 113.879C1151.22 113.879 1153.86 114.557 1155.8 115.912C1157.75 117.268 1158.72 119.419 1158.72 122.366V135.273H1151.47L1151.07 133.594C1150.34 134.242 1149.38 134.758 1148.2 135.141C1147.05 135.524 1145.62 135.715 1143.91 135.715ZM1146.74 130.853C1147.68 130.853 1148.48 130.691 1149.13 130.367C1149.81 130.043 1150.37 129.645 1150.81 129.173V126.565H1146.79C1144.96 126.565 1144.05 127.287 1144.05 128.731C1144.05 130.146 1144.94 130.853 1146.74 130.853Z" fill="#FFFBFF"/>
<path d="M1108.75 135.273V106.807H1117.06V116.841L1125.68 106.807H1135.14L1125.11 118.476L1135.85 135.273H1127.01L1119.98 123.781L1117.06 127.052V135.273H1108.75Z" fill="#FFFBFF"/>
<path d="M1031.75 137.256C1025.8 137.256 1020.24 136.198 1015.09 134.083C1010.06 131.967 1006.03 128.661 1002.99 124.165C999.946 119.669 998.426 113.983 998.426 107.107C998.426 97.1899 1001.73 89.5205 1008.34 84.099C1014.95 78.5453 1024.94 75.7684 1038.29 75.7684H1062.69V73.9833C1062.69 70.2808 1061.17 67.57 1058.13 65.851C1055.09 64.132 1049.73 63.2725 1042.06 63.2725C1031.22 63.2725 1020.51 64.9254 1009.93 68.2312V45.8179C1014.69 43.9667 1020.64 42.446 1027.78 41.2559C1034.92 39.9336 1042.19 39.2725 1049.6 39.2725C1064.54 39.2725 1076.38 42.3138 1085.1 48.3964C1093.83 54.4791 1098.19 64.132 1098.19 77.3552V135.273H1065.67L1063.88 127.735C1060.57 130.645 1056.28 132.959 1050.99 134.678C1045.83 136.397 1039.42 137.256 1031.75 137.256ZM1044.44 115.438C1048.67 115.438 1052.24 114.711 1055.15 113.256C1058.19 111.802 1060.71 110.016 1062.69 107.901V96.1982H1044.64C1036.44 96.1982 1032.34 99.4379 1032.34 105.917C1032.34 112.264 1036.38 115.438 1044.44 115.438Z" fill="#F29422"/>
<path d="M857.994 135.273L906.986 7.53711H946.457L995.449 135.273H956.573L945.862 108.099H907.383L896.87 135.273H857.994ZM912.341 81.3224H940.903L926.622 43.8347L912.341 81.3224Z" fill="#F29422"/>
</svg>
