<svg width="721" height="155" viewBox="0 0 721 155" fill="none" xmlns="http://www.w3.org/2000/svg">
<path fill-rule="evenodd" clip-rule="evenodd" d="M54.9179 1.7334L72.0819 20.4578L75.26 29.9921L69.7882 44.0627L54.9179 50.3238L40.0476 44.0627L34.5757 29.9921L37.7538 20.4578L54.9179 1.7334ZM42.4945 23.2473L40.293 29.8516L44.2354 39.989L54.9179 44.4869L65.6004 39.989L69.5427 29.8516L67.3412 23.2473L54.9179 9.69453L42.4945 23.2473ZM44.2968 30.1L49.4003 28.3989L51.0424 33.3253L54.9179 35.0477L59.8774 32.8435L62.0623 37.7594L54.9179 40.9346L46.6893 37.2775L44.2968 30.1Z" fill="#F7F7F2"/>
<path fill-rule="evenodd" clip-rule="evenodd" d="M132.545 7.97882L126.29 19.0448L121.607 16.3978L130.349 0.931641L135.096 1.05226L141.335 13.53L142.195 10.3039L147.393 11.69L144.704 21.7766L141.366 23.6698L131.951 20.98L133.429 15.8075L136.964 16.8175L132.545 7.97882ZM114.759 29.456L111.193 30.4069L109.807 25.209L119.893 22.5192L123.217 24.5546L125.234 33.9688L119.974 35.096L119.362 32.2404L114.641 39.9119H127.311V45.2914H109.827L107.537 41.192L114.759 29.456ZM150.84 39.9119L144.496 29.1763L149.127 26.4396L157.869 41.2333L155.553 45.2914H142.092L144.104 47.5267L140.105 51.1255L134.053 44.401V40.8023L140.105 34.0779L144.104 37.6766L142.092 39.9119H150.84Z" fill="#F7F7F2"/>
<path fill-rule="evenodd" clip-rule="evenodd" d="M204.498 1.14746H226.227L240.579 15.4995V36.5561L226.227 50.9082H204.498L190.146 36.5561V15.4995L204.498 1.14746ZM206.726 6.527H223.999L235.2 17.7278V34.3279L223.999 45.5286H218.389V40.2912L227.803 26.1698V20.3328L221.762 19.4698L216.234 13.2514H205.612V7.64113L206.726 6.527ZM205.612 18.4001V18.4002L200.233 13.0207L195.526 17.7278V34.3279L206.726 45.5286H213.009V37.4593H213.009V28.4739L208.665 26.6122L207.191 19.9791L205.612 18.4001Z" fill="#F7F7F2"/>
<path fill-rule="evenodd" clip-rule="evenodd" d="M319.927 0.640625V42.905L304.563 50.183L289.068 44.1197L272.856 51.4148V9.20381L288.922 1.97417L304.36 8.01484L319.927 0.640625ZM301.771 12.7788L291.685 8.83188V39.367L301.771 43.314V12.7788ZM307.151 43.0045L314.548 39.5007V9.14137L307.151 12.6451V43.0045ZM286.305 39.4637V9.05095L278.236 12.6821V43.0949L286.305 39.4637Z" fill="#F7F7F2"/>
<path fill-rule="evenodd" clip-rule="evenodd" d="M381.398 5.70241L369.179 0L356.959 5.70241L352.205 18.3816L354.7 25.8689L369.179 41.956L383.657 25.8689L386.153 18.3816L381.398 5.70241ZM357.91 18.4872L361.225 9.64825L369.179 5.93648L377.133 9.64825L380.447 18.4872L378.908 23.1038L369.179 33.9144L359.449 23.1038L357.91 18.4872ZM354.385 52.0565H384.645V46.677H354.385V52.0565ZM365.144 17.7619L369.179 21.7966L373.213 17.7619L369.179 13.7273L365.144 17.7619Z" fill="#F7F7F2"/>
<path fill-rule="evenodd" clip-rule="evenodd" d="M444.224 4.79883L467.048 17.7323V37.4556H461.668V23.7826L458.306 25.5758V38.994L444.257 47.2579L428.719 39.0795V24.3862L418.43 18.5558L444.224 4.79883ZM434.098 27.4346V35.8317L444.112 41.1022L452.927 35.9172V28.4449L444.145 33.1281L434.098 27.4346ZM458.776 19.2283L444.224 26.9894L429.593 18.6987L444.145 10.9375L458.776 19.2283Z" fill="#F7F7F2"/>
<path fill-rule="evenodd" clip-rule="evenodd" d="M499.326 1.14746H510.869L519.384 6.56669L526.224 16.4458V20.8782L526.4 20.6515L536.865 13.9239H549.087V26.2989L542.872 34.0673L533.116 40.8215H526.224V50.9082H520.844V30.7042L513.537 28.4558L503.921 21.0588L499.326 11.8691V1.14746ZM520.844 25.0757L516.047 23.5998L508.18 17.548L504.706 10.5991V6.527H509.302L515.58 10.522L520.844 18.1263V25.0757ZM526.224 29.6405V35.442H531.436L539.163 30.0923L543.707 24.4119V19.3034H538.445L530.082 24.6797L526.224 29.6405Z" fill="#F7F7F2"/>
<path fill-rule="evenodd" clip-rule="evenodd" d="M588.761 4.03418H598.777L603.555 9.87317L608.332 4.03418H618.349L625.745 13.8967V23.5484L621.167 31.9424L603.555 48.023L585.943 31.9424L581.364 23.5484V13.8967L588.761 4.03418ZM591.451 9.41372L586.744 15.6898V22.1767L590.235 28.5764L603.555 40.7384L616.875 28.5764L620.366 22.1767V15.6898L615.659 9.41372H610.881L603.555 18.3685L596.228 9.41372H591.451Z" fill="#F7F7F2"/>
<path fill-rule="evenodd" clip-rule="evenodd" d="M677.594 0.875977L686.937 7.41611V13.5236H696.352V51.1804H658.022V13.5236H667.437V7.34001L677.594 0.875977ZM667.437 18.9032V24.9552H672.816V18.9032H681.558V24.9552H686.937V18.9032H690.972V45.8009H663.402V18.9032H667.437ZM681.558 13.5236H672.816V10.2931L677.452 7.34294L681.558 10.217V13.5236Z" fill="#F7F7F2"/>
<path fill-rule="evenodd" clip-rule="evenodd" d="M8.55273 103.684H22.0962V109.063H11.4318L6.53566 116.407L11.3765 123.184H22.0962V128.564H8.60804L0 116.513L8.55273 103.684ZM27.4757 103.684H41.7751L49.4703 116.509L41.7206 128.564H27.4757V123.184H38.7837L43.138 116.411L38.7292 109.063H27.4757V103.684ZM33.5277 119.15H15.3718V113.77H33.5277V119.15Z" fill="#F7F7F2"/>
<path fill-rule="evenodd" clip-rule="evenodd" d="M104.99 91.916H126.508V111.417H121.129V101.099L103.645 118.583V140.332H76.7476V114.779H99.8413L117.325 97.2956H104.99V91.916ZM98.2657 120.159H82.1271V134.952H98.2657V120.159Z" fill="#F7F7F2"/>
<path fill-rule="evenodd" clip-rule="evenodd" d="M178.056 87.9971L197.326 107.267L180.745 123.847V131.475H188.142V136.855H180.745V144.251H175.366V136.855H167.969V131.475H175.366V123.847L158.786 107.267L178.056 87.9971ZM178.056 118.929L189.718 107.267L178.056 95.6049L166.393 107.267L178.056 118.929Z" fill="#F7F7F2"/>
<path fill-rule="evenodd" clip-rule="evenodd" d="M229.604 96.623H279.364V135.625H229.604V96.623ZM240.053 102.003L254.484 113.372L268.914 102.003H240.053ZM273.985 104.856L254.484 120.221L234.983 104.856V130.245H273.985V104.856Z" fill="#F7F7F2"/>
<path fill-rule="evenodd" clip-rule="evenodd" d="M311.642 92.4795H351.988V122.067H322.688L311.642 131.105V92.4795ZM317.021 116.687H346.609V97.859H317.021V116.687ZM356.023 126.102V101.221H361.402V139.767L351.045 131.481H325.09V126.102H356.023Z" fill="#F7F7F2"/>
<path fill-rule="evenodd" clip-rule="evenodd" d="M410.498 91.916H430.671V112.089H410.498V91.916ZM415.877 97.2956V106.71H425.291V97.2956H415.877ZM420.592 116.758L442.31 120.503L446.817 140.332H393.679L398.188 120.492L420.592 116.758ZM402.634 125.205L400.419 134.952H440.078L437.86 125.194L420.577 122.214L402.634 125.205Z" fill="#F7F7F2"/>
<path fill-rule="evenodd" clip-rule="evenodd" d="M479.094 91.1416H496.917L498.84 103.642L490.056 111.172L496.552 121.458L508.682 128.967L515.827 121.172L530.249 123.876V141.106L507.633 134.644L492.666 125.379L484.028 111.703L479.094 91.1416ZM514.187 130.922L524.869 133.974V128.341L517.773 127.01L514.187 130.922ZM488.129 105.738L485.917 96.5211H492.302L493.068 101.504L488.129 105.738Z" fill="#F7F7F2"/>
<path fill-rule="evenodd" clip-rule="evenodd" d="M576.316 102.335L587.252 91.3986L601.041 105.188L614.83 91.3986L625.766 102.335L611.977 116.124L625.766 129.913L614.83 140.849L601.041 127.06L587.252 140.849L576.316 129.913L590.105 116.124L576.316 102.335ZM583.923 102.335L597.712 116.124L583.923 129.913L587.252 133.242L601.041 119.452L614.83 133.242L618.158 129.913L604.369 116.124L618.158 102.335L614.83 99.0064L601.041 112.796L587.252 99.0064L583.923 102.335Z" fill="#F7F7F2"/>
<path fill-rule="evenodd" clip-rule="evenodd" d="M709.725 91.1387L720.925 102.339L682.155 141.11L656.833 115.788L668.033 104.588L682.155 118.709L709.725 91.1387ZM709.725 98.7465L682.155 126.317L668.033 112.195L664.44 115.788L682.155 133.503L713.318 102.339L709.725 98.7465Z" fill="#F7F7F2"/>
</svg>
