<svg width="1063" height="180" viewBox="0 0 1063 180" fill="none" xmlns="http://www.w3.org/2000/svg">
<path d="M249.293 156.634L182.907 178.605L163.534 113.164L220.47 90.0111L227.322 107.257L187.159 123.322L196.609 153.562L245.04 138.206L230.157 71.8199L170.385 83.3961L165.897 64.7324L246.222 49.8486L274.099 172.935L254.018 178.605L249.293 156.634Z" fill="#004A26"/>
<path d="M121.432 119.07L59.0625 126.158L57.1725 106.076L113.636 100.17L75.6 7.08751L94.0275 0L166.793 170.336L145.53 178.369L121.432 119.07ZM59.535 27.6413L79.1438 33.5475L20.0813 179.314L0 173.88L59.535 27.6413Z" fill="#004A26"/>
<path d="M443.77 174.375L436.81 174.615L435.29 111.655L442.25 111.415L443.21 152.215L461.13 131.255L466.25 136.055L451.69 152.215L470.17 169.655L465.05 174.855L443.29 153.015L443.77 174.375Z" fill="#2F2C2D"/>
<path d="M392.63 133.015L425.51 130.775L417.03 152.455L410.31 150.295L415.19 137.815L399.83 139.015L401.27 167.975L425.75 164.135L426.39 170.695L394.55 175.255L392.63 133.015Z" fill="#2F2C2D"/>
<path d="M372.005 115.575H381.285V124.855H372.005V115.575ZM373.125 132.135H380.085V174.615H373.125V132.135Z" fill="#2F2C2D"/>
<path d="M347.745 140.214L338.865 141.014L338.305 134.534L347.745 133.654V117.814H354.705V133.094L365.345 132.134L365.905 138.614L354.705 139.574V167.654L364.545 166.294L365.105 172.934L347.745 175.014V140.214Z" fill="#2F2C2D"/>
<path d="M289.588 167.655L324.308 163.015L323.828 152.855L288.228 128.215L290.868 122.215L332.228 114.615L333.348 121.575L298.948 127.575L331.028 149.015L331.748 169.015L290.628 174.455L289.588 167.655Z" fill="#2F2C2D"/>
<path d="M775.914 172.935L774.497 149.547V99.9342C774.497 90.9567 771.977 84.0267 766.937 79.1442C762.054 74.2617 754.731 71.8205 744.966 71.8205C738.666 71.8205 732.759 73.1592 727.247 75.8367C721.734 78.3567 716.379 82.688 711.182 88.8305L696.771 76.5455C703.228 68.9855 710.631 63.473 718.978 60.008C727.326 56.3855 736.461 54.5742 746.383 54.5742C761.661 54.5742 773.473 58.5117 781.821 66.3867C790.168 74.2617 794.342 85.4442 794.342 99.9342V172.935H775.914ZM737.406 174.825C728.586 174.825 720.868 173.329 714.253 170.337C707.796 167.187 702.756 162.855 699.133 157.343C695.668 151.83 693.936 145.452 693.936 138.207C693.936 131.749 695.196 126.315 697.716 121.905C700.393 117.338 703.779 113.794 707.874 111.274C711.969 108.597 716.616 106.785 721.813 105.84C727.168 104.738 732.759 104.187 738.587 104.187H776.387V119.307H741.422C737.957 119.307 734.334 119.622 730.554 120.252C726.774 120.882 723.467 122.22 720.632 124.268C718.584 125.843 716.931 127.812 715.671 130.174C714.568 132.537 714.017 135.293 714.017 138.443C714.017 144.585 716.301 149.468 720.868 153.09C725.436 156.713 731.578 158.524 739.296 158.524C745.753 158.524 751.581 157.028 756.778 154.035C762.133 151.043 766.386 146.948 769.536 141.75C772.843 136.395 774.497 130.41 774.497 123.795L782.766 132.3C781.821 140.648 779.301 148.05 775.206 154.508C771.111 160.965 765.834 166.005 759.377 169.628C753.077 173.093 745.753 174.825 737.406 174.825Z" fill="#004A26"/>
<path d="M547.764 172.936L610.606 8.26953H627.144L689.986 172.936H667.306L619.111 38.037L570.68 172.936H547.764ZM582.729 134.191L589.107 115.527H648.642L655.494 134.191H582.729Z" fill="#004A26"/>
<path d="M1055.88 172.935L1044.4 155.155L1037.61 162.435V154.805L1053.5 138.425H1061.13L1048.74 151.165L1062.95 172.935H1055.88ZM1032.36 172.935V124.145H1038.31V172.935H1032.36Z" fill="#2F2C2D"/>
<path d="M1010.89 173.495C1008.56 173.495 1006.46 173.145 1004.59 172.445C1002.72 171.745 1001.11 170.812 999.758 169.645C998.452 168.479 997.402 167.242 996.608 165.935L1000.74 162.435C1001.63 164.209 1002.93 165.679 1004.66 166.845C1006.43 167.965 1008.53 168.525 1010.96 168.525C1013.15 168.525 1014.9 168.059 1016.21 167.125C1017.52 166.192 1018.17 164.932 1018.17 163.345C1018.17 162.039 1017.77 161.012 1016.98 160.265C1016.19 159.519 1015.14 158.912 1013.83 158.445C1012.52 157.979 1011.1 157.559 1009.56 157.185C1008.25 156.859 1006.92 156.462 1005.57 155.995C1004.26 155.529 1003.07 154.945 1002 154.245C1000.93 153.545 1000.06 152.635 999.408 151.515C998.755 150.395 998.428 149.019 998.428 147.385C998.428 144.539 999.525 142.252 1001.72 140.525C1003.96 138.752 1006.88 137.865 1010.47 137.865C1013.08 137.865 1015.46 138.425 1017.61 139.545C1019.8 140.619 1021.51 142.252 1022.72 144.445L1018.94 147.245C1018.01 145.612 1016.77 144.445 1015.23 143.745C1013.74 142.999 1012.08 142.625 1010.26 142.625C1008.44 142.625 1006.92 142.999 1005.71 143.745C1004.5 144.492 1003.89 145.519 1003.89 146.825C1003.89 147.805 1004.17 148.599 1004.73 149.205C1005.29 149.812 1006.11 150.325 1007.18 150.745C1008.3 151.165 1009.65 151.562 1011.24 151.935C1012.69 152.262 1014.16 152.659 1015.65 153.125C1017.14 153.592 1018.52 154.199 1019.78 154.945C1021.04 155.692 1022.04 156.695 1022.79 157.955C1023.58 159.169 1023.98 160.755 1023.98 162.715C1023.98 164.862 1023.44 166.752 1022.37 168.385C1021.3 170.019 1019.78 171.279 1017.82 172.165C1015.86 173.052 1013.55 173.495 1010.89 173.495Z" fill="#2F2C2D"/>
<path d="M976.235 173.495C973.529 173.495 971.149 173.052 969.095 172.165C967.089 171.232 965.409 169.949 964.055 168.315C962.749 166.682 961.745 164.815 961.045 162.715C960.392 160.569 960.065 158.305 960.065 155.925C960.065 153.545 960.392 151.282 961.045 149.135C961.699 146.942 962.655 145.005 963.915 143.325C965.222 141.645 966.855 140.315 968.815 139.335C970.775 138.355 973.062 137.865 975.675 137.865C978.335 137.865 980.622 138.332 982.535 139.265C984.495 140.152 986.082 141.389 987.295 142.975C988.555 144.562 989.489 146.335 990.095 148.295C990.702 150.255 991.005 152.285 991.005 154.385C991.005 154.572 990.982 155.015 990.935 155.715C990.935 156.369 990.889 156.952 990.795 157.465H965.945C966.085 160.825 967.065 163.439 968.885 165.305C970.705 167.172 973.179 168.105 976.305 168.105C978.312 168.105 980.062 167.779 981.555 167.125C983.049 166.472 984.449 165.422 985.755 163.975L989.885 167.615C988.625 168.969 987.295 170.089 985.895 170.975C984.495 171.815 983.002 172.445 981.415 172.865C979.875 173.285 978.149 173.495 976.235 173.495ZM985.125 154.455C985.219 154.082 985.265 153.709 985.265 153.335C985.312 152.962 985.335 152.589 985.335 152.215C985.335 151.095 985.125 149.975 984.705 148.855C984.332 147.735 983.749 146.732 982.955 145.845C982.209 144.912 981.229 144.189 980.015 143.675C978.849 143.115 977.449 142.835 975.815 142.835C973.809 142.835 972.082 143.302 970.635 144.235C969.189 145.169 968.069 146.405 967.275 147.945C966.482 149.485 966.015 151.189 965.875 153.055H987.085L985.125 154.455Z" fill="#2F2C2D"/>
<path d="M949.64 173.494C948.007 173.494 946.514 173.191 945.16 172.584C943.854 171.931 942.827 170.904 942.08 169.504C941.334 168.104 940.96 166.308 940.96 164.114V129.184L946.98 125.824V162.574C946.98 164.488 947.284 165.981 947.89 167.054C948.497 168.081 949.594 168.594 951.18 168.594C951.647 168.594 952.207 168.548 952.86 168.454C953.514 168.314 954.214 168.151 954.96 167.964V172.584C954.074 172.911 953.164 173.144 952.23 173.284C951.344 173.424 950.48 173.494 949.64 173.494ZM933.82 143.044V138.424H954.96V143.044H933.82Z" fill="#2F2C2D"/>
<path d="M913.701 173.495C910.481 173.495 907.588 172.749 905.021 171.255C902.501 169.715 900.518 167.592 899.071 164.885C897.625 162.179 896.901 159.099 896.901 155.645C896.901 152.192 897.601 149.135 899.001 146.475C900.448 143.769 902.431 141.669 904.951 140.175C907.518 138.635 910.435 137.865 913.701 137.865C916.968 137.865 919.838 138.635 922.311 140.175C924.831 141.669 926.815 143.769 928.261 146.475C929.708 149.135 930.431 152.192 930.431 155.645C930.431 159.099 929.708 162.179 928.261 164.885C926.815 167.545 924.831 169.645 922.311 171.185C919.791 172.725 916.921 173.495 913.701 173.495ZM913.701 168.245C915.895 168.245 917.785 167.732 919.371 166.705C921.005 165.632 922.265 164.162 923.151 162.295C924.038 160.382 924.481 158.165 924.481 155.645C924.481 153.079 924.038 150.862 923.151 148.995C922.265 147.082 921.005 145.612 919.371 144.585C917.785 143.559 915.895 143.045 913.701 143.045C911.461 143.045 909.525 143.582 907.891 144.655C906.258 145.682 904.998 147.129 904.111 148.995C903.225 150.862 902.781 153.079 902.781 155.645C902.781 158.165 903.225 160.382 904.111 162.295C904.998 164.162 906.258 165.632 907.891 166.705C909.525 167.732 911.461 168.245 913.701 168.245Z" fill="#2F2C2D"/>
<path d="M871.988 172.935V138.425H877.938V147.665L876.398 148.015C876.725 145.962 877.495 144.189 878.708 142.695C879.968 141.155 881.415 139.965 883.048 139.125C884.728 138.285 886.362 137.865 887.948 137.865C889.022 137.865 890.048 137.982 891.028 138.215C892.008 138.449 893.012 138.845 894.038 139.405L891.098 144.725C890.538 144.445 889.862 144.212 889.068 144.025C888.322 143.839 887.598 143.745 886.898 143.745C885.778 143.745 884.658 143.955 883.538 144.375C882.465 144.795 881.485 145.449 880.598 146.335C879.712 147.222 879.035 148.412 878.568 149.905C878.382 150.559 878.218 151.422 878.078 152.495C877.985 153.522 877.938 154.945 877.938 156.765V172.935H871.988Z" fill="#2F2C2D"/>
<path d="M841.437 173.775C837.05 173.775 833.177 172.725 829.817 170.625C826.504 168.525 823.914 165.585 822.047 161.805C820.18 157.978 819.247 153.545 819.247 148.505C819.247 143.465 820.18 139.055 822.047 135.275C823.96 131.495 826.597 128.555 829.957 126.455C833.364 124.355 837.307 123.305 841.787 123.305C846.687 123.305 850.934 124.518 854.527 126.945C858.12 129.371 860.71 132.731 862.297 137.025L856.557 139.195C855.344 136.021 853.477 133.571 850.957 131.845C848.437 130.071 845.38 129.185 841.787 129.185C838.474 129.185 835.58 129.978 833.107 131.565C830.634 133.151 828.72 135.391 827.367 138.285C826.06 141.131 825.407 144.538 825.407 148.505C825.407 152.471 826.06 155.901 827.367 158.795C828.72 161.688 830.634 163.928 833.107 165.515C835.58 167.101 838.474 167.895 841.787 167.895C843.467 167.895 845.194 167.661 846.967 167.195C848.74 166.728 850.374 165.911 851.867 164.745C853.36 163.578 854.55 161.991 855.437 159.985C856.37 157.931 856.837 155.341 856.837 152.215V148.645L858.237 152.845H844.517V147.315H862.297V172.935H856.837L855.997 163.415L857.047 164.185C856.207 166.425 854.994 168.245 853.407 169.645C851.82 171.045 849.977 172.095 847.877 172.795C845.824 173.448 843.677 173.775 841.437 173.775Z" fill="#2F2C2D"/>
<path d="M1017.53 109.935V75.4252H1023.48V82.7752L1022.08 83.2652C1022.73 81.4919 1023.62 79.9986 1024.74 78.7852C1025.86 77.5252 1027.21 76.5686 1028.8 75.9152C1030.38 75.2152 1032.13 74.8652 1034.05 74.8652C1037.83 74.8652 1040.79 75.9852 1042.94 78.2252C1045.08 80.4186 1046.16 83.6852 1046.16 88.0252V109.935H1040.21V90.1952C1040.21 86.6952 1039.55 84.1286 1038.25 82.4952C1036.99 80.8152 1035.05 79.9752 1032.44 79.9752C1030.52 79.9752 1028.89 80.4186 1027.54 81.3052C1026.23 82.1919 1025.23 83.5919 1024.53 85.5052C1023.83 87.3719 1023.48 89.7752 1023.48 92.7152V109.935H1017.53Z" fill="#2F2C2D"/>
<path d="M994.282 110.495C991.576 110.495 989.196 110.052 987.142 109.165C985.136 108.232 983.456 106.949 982.102 105.315C980.796 103.682 979.792 101.815 979.092 99.7152C978.439 97.5686 978.112 95.3052 978.112 92.9252C978.112 90.5452 978.439 88.2819 979.092 86.1352C979.746 83.9419 980.702 82.0052 981.962 80.3252C983.269 78.6452 984.902 77.3152 986.862 76.3352C988.822 75.3552 991.109 74.8652 993.722 74.8652C996.382 74.8652 998.669 75.3319 1000.58 76.2652C1002.54 77.1519 1004.13 78.3886 1005.34 79.9752C1006.6 81.5619 1007.54 83.3352 1008.14 85.2952C1008.75 87.2552 1009.05 89.2852 1009.05 91.3852C1009.05 91.5719 1009.03 92.0152 1008.98 92.7152C1008.98 93.3686 1008.94 93.9519 1008.84 94.4652H983.992C984.132 97.8252 985.112 100.439 986.932 102.305C988.752 104.172 991.226 105.105 994.352 105.105C996.359 105.105 998.109 104.779 999.602 104.125C1001.1 103.472 1002.5 102.422 1003.8 100.975L1007.93 104.615C1006.67 105.969 1005.34 107.089 1003.94 107.975C1002.54 108.815 1001.05 109.445 999.462 109.865C997.922 110.285 996.196 110.495 994.282 110.495ZM1003.17 91.4552C1003.27 91.0819 1003.31 90.7086 1003.31 90.3352C1003.36 89.9619 1003.38 89.5886 1003.38 89.2152C1003.38 88.0952 1003.17 86.9752 1002.75 85.8552C1002.38 84.7352 1001.8 83.7319 1001 82.8452C1000.26 81.9119 999.276 81.1886 998.062 80.6752C996.896 80.1152 995.496 79.8352 993.862 79.8352C991.856 79.8352 990.129 80.3019 988.682 81.2352C987.236 82.1686 986.116 83.4052 985.322 84.9452C984.529 86.4852 984.062 88.1886 983.922 90.0552H1005.13L1003.17 91.4552Z" fill="#2F2C2D"/>
<path d="M967.833 109.935L956.353 92.1545L949.562 99.4345V91.8045L965.453 75.4245H973.083L960.693 88.1645L974.903 109.935H967.833ZM944.312 109.935V61.1445H950.263V109.935H944.312Z" fill="#2F2C2D"/>
<path d="M906.031 109.935V75.4252H911.981V82.7752L910.581 83.2652C911.235 81.4919 912.121 79.9986 913.241 78.7852C914.361 77.5252 915.715 76.5686 917.301 75.9152C918.888 75.2152 920.638 74.8652 922.551 74.8652C926.331 74.8652 929.295 75.9852 931.441 78.2252C933.588 80.4186 934.661 83.6852 934.661 88.0252V109.935H928.711V90.1952C928.711 86.6952 928.058 84.1286 926.751 82.4952C925.491 80.8152 923.555 79.9752 920.941 79.9752C919.028 79.9752 917.395 80.4186 916.041 81.3052C914.735 82.1919 913.731 83.5919 913.031 85.5052C912.331 87.3719 911.981 89.7752 911.981 92.7152V109.935H906.031Z" fill="#2F2C2D"/>
<path d="M890.908 109.935L890.488 103.005V88.3052C890.488 85.6452 889.741 83.5919 888.248 82.1452C886.801 80.6986 884.632 79.9752 881.738 79.9752C879.871 79.9752 878.121 80.3719 876.488 81.1652C874.855 81.9119 873.268 83.1952 871.728 85.0152L867.458 81.3752C869.371 79.1352 871.565 77.5019 874.038 76.4752C876.511 75.4019 879.218 74.8652 882.158 74.8652C886.685 74.8652 890.185 76.0319 892.658 78.3652C895.131 80.6986 896.368 84.0119 896.368 88.3052V109.935H890.908ZM879.498 110.495C876.885 110.495 874.598 110.052 872.638 109.165C870.725 108.232 869.231 106.949 868.158 105.315C867.131 103.682 866.618 101.792 866.618 99.6452C866.618 97.7319 866.991 96.1219 867.738 94.8152C868.531 93.4619 869.535 92.4119 870.748 91.6652C871.961 90.8719 873.338 90.3352 874.878 90.0552C876.465 89.7286 878.122 89.5652 879.848 89.5652H891.048V94.0452H880.688C879.661 94.0452 878.588 94.1386 877.468 94.3252C876.348 94.5119 875.368 94.9086 874.528 95.5152C873.921 95.9819 873.431 96.5652 873.058 97.2652C872.731 97.9652 872.568 98.7819 872.568 99.7152C872.568 101.535 873.245 102.982 874.598 104.055C875.951 105.129 877.771 105.665 880.058 105.665C881.971 105.665 883.698 105.222 885.238 104.335C886.825 103.449 888.085 102.235 889.018 100.695C889.998 99.1086 890.488 97.3352 890.488 95.3752L892.938 97.8952C892.658 100.369 891.912 102.562 890.698 104.475C889.485 106.389 887.921 107.882 886.008 108.955C884.141 109.982 881.971 110.495 879.498 110.495Z" fill="#2F2C2D"/>
<path d="M821.277 109.935V61.1445H827.437V82.0745H851.517V61.1445H857.677V109.935H851.517V87.8145H827.437V109.935H821.277Z" fill="#2F2C2D"/>
</svg>
