<svg width="523" height="165" viewBox="0 0 523 165" fill="none" xmlns="http://www.w3.org/2000/svg">
<path d="M0 32.4327L16.3095 31.3877L26.7347 146.798L80.6768 139.446L82.3687 154.624L11.8309 164.128L0 32.4327Z" fill="#004A26"/>
<path d="M90.1191 127.541L35.9655 134.832L31.2754 80.8147L89.5966 81.8755L90.4032 95.6211L46.7009 94.4258L49.5008 118.111L89.5966 113.173L87.1583 61.5817L43.6288 62.5271L42.9322 48.0712L102.274 47.4492L107.312 143.179L91.4751 144.572L90.1191 127.541Z" fill="#004A26"/>
<path d="M187.889 51.7285L258.439 69.0582L246.073 118.596L188.937 103.988L193.718 89.6446L234.79 99.6992L238.957 79.9685L200.703 70.7874L183.734 132.915L240.276 143.216L236.419 159.078L162.672 144.821L187.889 51.7285Z" fill="#004A26"/>
<path fill-rule="evenodd" clip-rule="evenodd" d="M247.423 160.727L270.965 64.0781L286.57 67.8792L281.63 88.1595L311.698 82.9669L314.709 98.53L277.488 105.162L263.027 164.528L247.423 160.727Z" fill="#004A26"/>
<path d="M319.933 70.5139L295.488 75.0422L293.933 59.2925L317.731 55.3613L312.693 20.7517L328.157 18.5L333.095 52.4502L367.568 46.429L368.227 61.1213L334.8 66.881L347.875 129.358L369.646 123.05L370.069 138.439L334.8 147.956L319.933 70.5139Z" fill="#004A26"/>
<path d="M394.671 14.5422L375.407 15.0635L375.929 34.3392L395.192 33.818L394.671 14.5422Z" fill="#004A26"/>
<path d="M377.968 45.1232L393.581 44.7002L396.479 151.49L380.842 151.452L377.968 45.1232Z" fill="#004A26"/>
<path d="M462.68 -0.000299456L443.41 0.191406L443.602 19.4733L462.871 19.2816L462.68 -0.000299456Z" fill="#004A26"/>
<path d="M445.446 30.2936L461.072 30.1318L462.838 95.2083L447.213 95.3575L445.446 30.2936Z" fill="#004A26"/>
<path d="M417.355 9.48047L433.179 9.90345L420.614 162.872L404.877 161.367L417.355 9.48047Z" fill="#004A26"/>
<path d="M504.564 153.592L451.53 157.212L449.639 105.36L507.476 108.52L506.517 122.515L464.447 119.527L466.346 141.363L504.912 139.223L506.517 87.533L472.853 85.5051L472.467 70.9746L522.503 74.3958L519.903 164.129H504.128L504.564 153.592Z" fill="#004A26"/>
<path d="M158.38 121.631L132.628 125.836L128.996 60.8469L175.909 56.8908L179.803 42.4971L112.761 47.4733L117.637 142.27L154.275 136.796L158.38 121.631Z" fill="#004A26"/>
</svg>
