<svg width="214" height="219" viewBox="0 0 214 219" fill="none" xmlns="http://www.w3.org/2000/svg">
<path d="M182.13 59.045H169.693V46.6084L179.907 49.0792L182.13 59.045Z" fill="#EF7D17"/>
<path d="M99.8297 131.984L123.292 179.714L167.89 161.028L162.377 147.862L130.174 161.352L120.47 141.62L181.407 126.685L195.186 178.73L95.4731 201.655L73.6902 104.269L138.674 99.3617V99.231L213.356 92.1352L202.433 29.9386L120.491 0L121.234 18.9611L73.4494 2.49144L3.33798 46.7937L0 126.857L84.6746 218.786L212.757 189.343L191.621 109.5L99.8228 131.991L99.8297 131.984ZM189.797 40.5169L196.624 79.3889L138.11 84.9499L135.591 20.7093L189.804 40.5169H189.797ZM123.877 86.1681L72.9469 90.0085L80.5039 20.0141L121.84 34.2608L123.877 86.1681ZM22.2853 51.7077L65.686 24.2812L59.2922 83.5115L22.2922 51.7009L22.2853 51.7077ZM51.9486 96.0306L14.8317 113.65L16.8276 65.8443L51.9486 96.0375V96.0306ZM19.7457 127.119L59.9116 108.054L78.2258 189.948L19.7457 127.119Z" fill="#EF7D17"/>
</svg>
