<svg width="915" height="186" viewBox="0 0 915 186" fill="none" xmlns="http://www.w3.org/2000/svg">
<path d="M120 0V142.028L153.89 186H915V0H120Z" fill="#F29422"/>
<path d="M0 0V142.028L5.11541 186H120V0H0Z" fill="#FFFBFF"/>
<path d="M284.202 37.5415H311.668L311.109 42.07H300.439V76.018H295.136V42.07H284.187V37.5415H284.202Z" fill="#071013"/>
<path d="M320.648 32.4551C321.733 32.4551 322.602 32.7963 323.269 33.4631C323.936 34.13 324.277 34.9675 324.277 35.9755C324.277 36.9836 323.936 37.759 323.269 38.4258C322.602 39.0927 321.718 39.4339 320.648 39.4339C319.578 39.4339 318.756 39.0927 318.073 38.4258C317.407 37.759 317.065 36.937 317.065 35.9755C317.065 35.014 317.407 34.13 318.073 33.4631C318.74 32.7963 319.593 32.4551 320.648 32.4551ZM318.136 46.5833H323.269V76.0029H318.136V46.5833Z" fill="#071013"/>
<path d="M333.891 46.5839H338.296L338.792 51.5L339.009 53.6712V87.2781L333.876 87.8984V46.5839H333.891ZM347.399 45.917C350.005 45.917 352.114 46.5528 353.711 47.809C355.309 49.0807 356.472 50.8642 357.201 53.175C357.93 55.4857 358.286 58.1842 358.286 61.2704C358.286 64.3566 357.852 66.9 356.968 69.2262C356.1 71.5525 354.797 73.3825 353.091 74.7007C351.385 76.0189 349.26 76.6858 346.732 76.6858C344.98 76.6858 343.414 76.3446 342.018 75.6778C340.622 75.0109 339.444 73.9873 338.466 72.6071L338.529 68.0786C339.273 69.4589 340.25 70.5289 341.46 71.3199C342.669 72.0953 344.019 72.4985 345.507 72.4985C347.849 72.4985 349.648 71.5835 350.889 69.769C352.129 67.939 352.765 65.1165 352.765 61.2859C352.765 58.7115 352.517 56.6023 352.005 54.9429C351.509 53.2835 350.765 52.0428 349.803 51.2364C348.842 50.4144 347.601 50.0112 346.112 50.0112C344.406 50.0112 342.902 50.5695 341.615 51.6861C340.327 52.8028 339.319 54.0124 338.575 55.3151L338.125 51.469C339.211 49.6856 340.56 48.3208 342.204 47.3593C343.832 46.4133 345.569 45.9325 347.399 45.9325V45.917Z" fill="#071013"/>
<path d="M378.107 45.917C382.31 45.917 385.536 47.3128 387.8 50.1043C390.049 52.8958 391.181 56.6178 391.181 61.2704C391.181 64.279 390.669 66.962 389.645 69.2883C388.622 71.6145 387.133 73.429 385.179 74.7317C383.225 76.0344 380.852 76.6858 378.061 76.6858C373.889 76.6858 370.663 75.29 368.368 72.4985C366.073 69.707 364.94 65.985 364.94 61.3324C364.94 58.2772 365.468 55.5943 366.507 53.299C367.546 50.9883 369.05 49.1893 371.004 47.8866C372.958 46.5839 375.331 45.9325 378.123 45.9325L378.107 45.917ZM378.107 50.0422C375.657 50.0422 373.765 50.9572 372.447 52.7717C371.128 54.6017 370.461 57.4398 370.461 61.3169C370.461 65.194 371.113 67.9856 372.416 69.8C373.718 71.63 375.595 72.5295 378.061 72.5295C380.526 72.5295 382.387 71.6145 383.706 69.769C385.008 67.9235 385.66 65.0855 385.66 61.2549C385.66 57.4243 385.008 54.5862 383.706 52.7717C382.403 50.9417 380.542 50.0422 378.123 50.0422H378.107Z" fill="#071013"/>
<path d="M421.871 43.2797L423.375 47.9167C422.15 48.2889 420.832 48.537 419.405 48.6456C417.994 48.7542 416.443 48.8162 414.768 48.8162C416.521 49.5916 417.823 50.5997 418.676 51.8248C419.529 53.05 419.963 54.5233 419.963 56.2292C419.963 58.1678 419.514 59.8892 418.63 61.3936C417.746 62.8979 416.458 64.0765 414.784 64.945C413.109 65.798 411.093 66.2322 408.751 66.2322C408.084 66.2322 407.448 66.1857 406.859 66.0926C406.269 65.9996 405.649 65.86 405.013 65.6739C404.61 65.9686 404.253 66.3718 403.974 66.8681C403.695 67.3643 403.555 67.8761 403.555 68.4034C403.555 69.0703 403.819 69.6441 404.362 70.1093C404.905 70.5746 405.913 70.8072 407.402 70.8072H412.085C415.094 70.8072 417.529 71.5826 419.374 73.118C421.22 74.6688 422.135 76.6074 422.135 78.9492C422.135 81.7717 420.971 83.9739 418.645 85.5403C416.319 87.1066 412.892 87.882 408.348 87.882C405.153 87.882 402.625 87.5564 400.779 86.905C398.934 86.2536 397.631 85.2611 396.871 83.9119C396.111 82.5781 395.724 80.9187 395.724 78.9492H400.361C400.361 80.0658 400.578 80.9808 400.997 81.7097C401.431 82.4386 402.222 82.9814 403.369 83.3226C404.517 83.6792 406.176 83.8498 408.332 83.8498C410.488 83.8498 412.147 83.6792 413.419 83.3226C414.675 82.9659 415.59 82.4541 416.133 81.7562C416.676 81.0738 416.939 80.2364 416.939 79.2748C416.939 77.8636 416.412 76.809 415.373 76.1266C414.334 75.4442 412.876 75.0875 411.015 75.0875H406.378C403.773 75.0875 401.849 74.5292 400.624 73.4126C399.399 72.296 398.779 70.9933 398.779 69.5045C398.779 68.543 399.058 67.6125 399.616 66.713C400.175 65.8135 400.981 65.0225 402.02 64.3092C400.314 63.4097 399.058 62.3086 398.252 60.9903C397.445 59.6721 397.057 58.0592 397.057 56.1672C397.057 54.1511 397.554 52.3831 398.531 50.8323C399.508 49.2814 400.872 48.0718 402.578 47.2033C404.284 46.3348 406.223 45.8851 408.379 45.8851C410.209 45.9161 411.775 45.8851 413.093 45.7765C414.411 45.668 415.574 45.4819 416.552 45.2492C417.544 45.0011 418.444 44.7064 419.281 44.3498C420.118 43.9931 420.971 43.6364 421.824 43.2642L421.871 43.2797ZM408.425 49.5916C407.122 49.5916 406.021 49.8708 405.106 50.4291C404.191 50.9874 403.509 51.7628 403.044 52.7398C402.578 53.7324 402.346 54.8645 402.346 56.1672C402.346 57.4699 402.594 58.6175 403.075 59.6256C403.555 60.6336 404.253 61.4091 405.168 61.9674C406.083 62.5257 407.2 62.8048 408.549 62.8048C410.55 62.8048 412.101 62.2155 413.155 61.0524C414.21 59.8737 414.753 58.2298 414.753 56.1052C414.753 54.6474 414.52 53.4532 414.055 52.4762C413.589 51.5147 412.892 50.7858 411.961 50.305C411.03 49.8242 409.852 49.5761 408.441 49.5761L408.425 49.5916Z" fill="#071013"/>
<path d="M428.68 46.5839H433.084L433.642 53.1129L433.813 58.4168V76.0034H428.68V46.5839ZM441.474 45.917C441.955 45.917 442.451 45.948 442.948 45.9945C443.444 46.0566 443.925 46.1341 444.374 46.2427L443.428 51.2674C442.979 51.1589 442.575 51.0658 442.203 51.0193C441.831 50.9728 441.381 50.9417 440.869 50.9417C439.567 50.9417 438.435 51.2829 437.489 51.9808C436.542 52.6632 435.752 53.7333 435.116 55.16C434.48 56.5868 433.968 58.4323 433.549 60.6656L433.379 53.299C434.123 50.8487 435.193 49.0032 436.589 47.778C437.985 46.5528 439.613 45.9325 441.474 45.9325V45.917Z" fill="#071013"/>
<path d="M459.278 58.0756H464.644V61.4875H459.945C457.231 61.4875 455.183 61.9838 453.834 62.9918C452.469 63.9999 451.803 65.5042 451.803 67.5203C451.803 69.2262 452.237 70.5444 453.09 71.4594C453.943 72.3744 455.214 72.8242 456.889 72.8242C458.564 72.8242 460.007 72.3589 461.216 71.4284C462.426 70.4979 463.465 69.1022 464.318 67.2411L464.985 71.4284C463.977 73.2584 462.674 74.5767 461.077 75.4141C459.479 76.2516 457.696 76.6703 455.711 76.6703C452.764 76.6703 450.469 75.8483 448.809 74.1889C447.15 72.5295 446.328 70.4049 446.328 67.7994C446.328 64.6357 447.46 62.2319 449.74 60.5725C452.004 58.9131 455.199 58.0911 459.293 58.0911L459.278 58.0756ZM458.611 45.917C462.147 45.917 464.752 46.77 466.427 48.4914C468.102 50.1973 468.939 52.6011 468.939 55.6873V69.1487C468.939 70.4204 469.157 71.3199 469.606 71.8627C470.056 72.4055 470.645 72.8242 471.39 73.1189L470.211 76.6858C468.567 76.4997 467.249 76.0034 466.241 75.1815C465.233 74.3595 464.551 73.0413 464.178 71.2113L463.791 69.1487V55.92C463.791 53.7953 463.279 52.3065 462.255 51.4225C461.232 50.554 459.696 50.1043 457.649 50.1043C456.564 50.1043 455.354 50.2283 454.02 50.492C452.687 50.7556 451.244 51.1433 449.724 51.6706L448.437 47.9331C450.267 47.2662 452.004 46.7544 453.664 46.4288C455.323 46.0876 456.967 45.9325 458.611 45.9325V45.917Z" fill="#071013"/>
<path d="M474.74 46.5826H492.265L491.706 50.5528H474.74V46.5826ZM489.21 34.1293C490.621 34.1293 491.862 34.2533 492.916 34.486C493.971 34.7341 495.087 35.1063 496.235 35.6336L494.622 39.3711C493.692 38.9679 492.792 38.6733 491.908 38.5027C491.04 38.3321 490.218 38.2545 489.473 38.2545C487.876 38.2545 486.744 38.6112 486.092 39.3091C485.441 40.0225 485.115 41.0771 485.115 42.4883V75.9867H479.982V42.5504C479.982 40.9065 480.339 39.4642 481.037 38.1925C481.75 36.9208 482.789 35.9283 484.169 35.1994C485.55 34.4705 487.225 34.1138 489.194 34.1138L489.21 34.1293Z" fill="#071013"/>
<path d="M494.948 37.65L506.052 31.2915L508.348 35.5874L496.515 40.395L494.948 37.6655V37.65ZM499.089 46.5829H504.222V76.0024H499.089V46.5829Z" fill="#071013"/>
<path d="M524.987 58.0756H530.353V61.4875H525.654C522.94 61.4875 520.892 61.9838 519.543 62.9918C518.178 63.9999 517.512 65.5042 517.512 67.5203C517.512 69.2262 517.946 70.5444 518.799 71.4594C519.652 72.3744 520.923 72.8242 522.598 72.8242C524.273 72.8242 525.716 72.3589 526.925 71.4284C528.135 70.4979 529.174 69.1022 530.027 67.2411L530.694 71.4284C529.686 73.2584 528.383 74.5767 526.786 75.4141C525.188 76.2516 523.405 76.6703 521.42 76.6703C518.473 76.6703 516.178 75.8483 514.518 74.1889C512.859 72.5295 512.037 70.4049 512.037 67.7994C512.037 64.6357 513.169 62.2319 515.449 60.5725C517.713 58.9131 520.908 58.0911 525.002 58.0911L524.987 58.0756ZM524.32 45.917C527.856 45.917 530.461 46.77 532.136 48.4914C533.811 50.1973 534.648 52.6011 534.648 55.6873V69.1487C534.648 70.4204 534.866 71.3199 535.315 71.8627C535.765 72.4055 536.354 72.8242 537.099 73.1189L535.92 76.6858C534.276 76.4997 532.958 76.0034 531.95 75.1815C530.942 74.3595 530.26 73.0413 529.887 71.2113L529.5 69.1487V55.92C529.5 53.7953 528.988 52.3065 527.964 51.4225C526.941 50.554 525.405 50.1043 523.358 50.1043C522.273 50.1043 521.063 50.2283 519.729 50.492C518.396 50.7556 516.953 51.1433 515.433 51.6706L514.146 47.9331C515.976 47.2662 517.713 46.7544 519.373 46.4288C521.032 46.0876 522.676 45.9325 524.32 45.9325V45.917Z" fill="#071013"/>
<path d="M546.544 68.9146C547.661 68.9146 548.591 69.2868 549.336 70.0312C550.08 70.7756 550.452 71.6906 550.452 72.7607C550.452 73.35 550.375 73.9548 550.235 74.5751C550.08 75.1955 549.832 75.9089 549.46 76.7308L545.722 85.276H542.031L544.264 76.0019C543.225 75.2265 542.698 74.1409 542.698 72.7607C542.698 71.6751 543.07 70.7756 543.815 70.0312C544.559 69.2868 545.474 68.9146 546.544 68.9146Z" fill="#071013"/>
<path d="M299.715 120.325C303.917 120.325 307.143 121.721 309.407 124.512C311.656 127.304 312.788 131.026 312.788 135.679C312.788 138.687 312.276 141.37 311.253 143.696C310.229 146.023 308.74 147.837 306.786 149.14C304.832 150.443 302.46 151.094 299.668 151.094C295.496 151.094 292.27 149.698 289.975 146.907C287.68 144.115 286.548 140.393 286.548 135.741C286.548 132.685 287.075 130.002 288.114 127.707C289.153 125.396 290.658 123.597 292.612 122.295C294.566 120.992 296.939 120.341 299.73 120.341L299.715 120.325ZM299.715 124.466C297.264 124.466 295.372 125.381 294.054 127.195C292.736 129.01 292.069 131.863 292.069 135.741C292.069 139.618 292.72 142.409 294.023 144.224C295.326 146.054 297.202 146.953 299.668 146.953C302.134 146.953 303.995 146.038 305.298 144.193C306.6 142.347 307.252 139.509 307.252 135.679C307.252 131.848 306.6 129.01 305.298 127.195C303.995 125.381 302.134 124.466 299.715 124.466Z" fill="#071013"/>
<path d="M321.271 121.008H325.675L326.233 127.537L326.404 132.841V150.427H321.271V121.008ZM334.049 120.325C334.53 120.325 335.027 120.356 335.523 120.403C336.019 120.465 336.5 120.542 336.95 120.651L336.004 125.676C335.554 125.567 335.151 125.474 334.778 125.427C334.406 125.381 333.956 125.35 333.445 125.35C332.142 125.35 331.01 125.691 330.064 126.389C329.118 127.071 328.327 128.141 327.691 129.568C327.055 130.995 326.543 132.841 326.125 135.074L325.954 127.707C326.698 125.257 327.769 123.411 329.164 122.186C330.56 120.961 332.188 120.341 334.049 120.341V120.325Z" fill="#071013"/>
<path d="M352.04 120.326C353.296 120.326 354.444 120.527 355.468 120.915C356.491 121.303 357.422 121.814 358.259 122.45C359.097 123.086 359.856 123.784 360.523 124.575L360.461 128.933C359.825 128.002 359.143 127.196 358.43 126.529C357.701 125.862 356.91 125.335 356.057 124.963C355.204 124.59 354.227 124.404 353.157 124.404C351.699 124.404 350.443 124.808 349.357 125.63C348.272 126.451 347.45 127.692 346.876 129.367C346.302 131.042 346.007 133.167 346.007 135.726C346.007 138.284 346.271 140.409 346.783 142.084C347.295 143.759 348.07 145 349.078 145.791C350.086 146.597 351.296 146.985 352.707 146.985C354.459 146.985 355.917 146.55 357.096 145.666C358.275 144.798 359.376 143.557 360.415 141.96L360.585 145.48C359.655 147.186 358.414 148.551 356.879 149.559C355.343 150.567 353.575 151.063 351.606 151.063C349.218 151.063 347.201 150.428 345.542 149.171C343.883 147.9 342.627 146.132 341.774 143.836C340.921 141.541 340.486 138.874 340.486 135.819C340.486 132.763 340.952 130.127 341.882 127.801C342.813 125.474 344.146 123.644 345.868 122.295C347.605 120.961 349.652 120.279 352.04 120.279V120.326ZM359.965 143.557V108.555L365.098 109.175V150.428H360.57L359.949 145.465V143.573L359.965 143.557Z" fill="#071013"/>
<path d="M385.817 120.325C388.454 120.325 390.687 120.915 392.486 122.078C394.285 123.257 395.65 124.916 396.565 127.072C397.48 129.227 397.929 131.817 397.929 134.826C397.929 135.307 397.929 135.787 397.898 136.253C397.883 136.718 397.852 137.121 397.821 137.447H378.172V133.647H392.858V133.306C392.858 131.367 392.61 129.739 392.098 128.421C391.602 127.103 390.827 126.095 389.803 125.412C388.779 124.73 387.492 124.373 385.926 124.373C384.515 124.373 383.289 124.761 382.235 125.521C381.196 126.281 380.389 127.49 379.831 129.15C379.273 130.809 378.994 132.949 378.994 135.601C378.994 138.253 379.335 140.502 380.033 142.161C380.715 143.821 381.661 145.015 382.855 145.759C384.049 146.504 385.43 146.876 386.98 146.876C388.438 146.876 389.757 146.674 390.951 146.256C392.145 145.852 393.37 145.201 394.642 144.302L396.875 147.372C395.417 148.52 393.866 149.435 392.191 150.086C390.516 150.738 388.655 151.063 386.608 151.063C383.894 151.063 381.553 150.458 379.598 149.249C377.644 148.039 376.156 146.302 375.132 144.022C374.108 141.743 373.597 139.075 373.597 135.989C373.597 132.903 374.093 130.235 375.07 127.863C376.063 125.505 377.458 123.644 379.288 122.311C381.118 120.977 383.289 120.294 385.817 120.294V120.325Z" fill="#071013"/>
<path d="M406.134 121.008H410.538L411.267 128.204V150.427H406.134V121.008ZM419.983 120.325C422.697 120.325 424.806 121.132 426.295 122.729C427.784 124.326 428.528 126.529 428.528 129.32V150.427H423.395V130.049C423.395 127.847 422.976 126.358 422.139 125.552C421.301 124.745 420.169 124.357 418.758 124.357C417.114 124.357 415.703 124.838 414.508 125.784C413.314 126.73 412.244 127.986 411.267 129.553L410.368 126.311C411.376 124.559 412.694 123.132 414.338 122.016C415.982 120.899 417.858 120.341 419.983 120.341V120.325Z" fill="#071013"/>
<path d="M469.951 121.007H475.255L465.423 150.597C464.756 152.675 463.872 154.552 462.771 156.211C461.67 157.87 460.243 159.22 458.475 160.29C456.707 161.344 454.458 162.027 451.744 162.321L451.186 158.305C453.202 157.964 454.784 157.483 455.931 156.831C457.079 156.18 457.994 155.327 458.661 154.288C459.328 153.249 459.948 151.962 460.506 150.442H458.77L448.891 121.022H454.365L462.243 146.704L469.951 121.022V121.007Z" fill="#071013"/>
<path d="M495.912 121.008H500.316L500.813 125.924L501.03 128.095V161.702L495.896 162.322V121.008H495.912ZM509.42 120.325C512.025 120.325 514.134 120.961 515.732 122.217C517.329 123.489 518.492 125.272 519.221 127.583C519.95 129.894 520.307 132.592 520.307 135.679C520.307 138.765 519.873 141.308 518.989 143.634C518.105 145.961 516.817 147.791 515.111 149.109C513.406 150.427 511.281 151.094 508.753 151.094C507.001 151.094 505.434 150.753 504.038 150.086C502.643 149.419 501.464 148.396 500.487 147.015L500.549 142.487C501.293 143.867 502.27 144.937 503.48 145.728C504.69 146.503 506.039 146.907 507.528 146.907C509.87 146.907 511.669 145.992 512.909 144.177C514.15 142.347 514.786 139.525 514.786 135.694C514.786 133.12 514.538 131.011 514.026 129.351C513.53 127.692 512.785 126.451 511.824 125.645C510.862 124.823 509.621 124.419 508.133 124.419C506.427 124.419 504.922 124.978 503.635 126.094C502.348 127.211 501.34 128.421 500.596 129.723L500.146 125.877C501.231 124.094 502.581 122.729 504.225 121.767C505.868 120.821 507.59 120.341 509.42 120.341V120.325Z" fill="#071013"/>
<path d="M529.069 121.008H533.474L534.032 127.537L534.203 132.841V150.427H529.069V121.008ZM541.848 120.325C542.329 120.325 542.825 120.356 543.322 120.403C543.818 120.465 544.299 120.542 544.748 120.651L543.802 125.676C543.353 125.567 542.949 125.474 542.577 125.427C542.205 125.365 541.755 125.35 541.243 125.35C539.941 125.35 538.809 125.691 537.863 126.389C536.917 127.071 536.126 128.141 535.49 129.568C534.854 130.995 534.342 132.841 533.923 135.074L533.753 127.707C534.497 125.257 535.567 123.411 536.963 122.186C538.359 120.961 539.987 120.341 541.848 120.341V120.325Z" fill="#071013"/>
<path d="M561.172 120.325C565.374 120.325 568.6 121.721 570.864 124.512C573.113 127.304 574.245 131.026 574.245 135.679C574.245 138.687 573.733 141.37 572.71 143.696C571.686 146.023 570.197 147.837 568.243 149.14C566.289 150.443 563.917 151.094 561.125 151.094C556.953 151.094 553.727 149.698 551.432 146.907C549.137 144.115 548.005 140.393 548.005 135.741C548.005 132.685 548.532 130.002 549.571 127.707C550.61 125.396 552.115 123.597 554.069 122.295C556.023 120.992 558.396 120.341 561.187 120.341L561.172 120.325ZM561.172 124.466C558.721 124.466 556.829 125.381 555.511 127.195C554.193 129.01 553.526 131.863 553.526 135.741C553.526 139.618 554.177 142.409 555.48 144.224C556.783 146.054 558.659 146.953 561.125 146.953C563.591 146.953 565.452 146.038 566.755 144.193C568.057 142.347 568.709 139.509 568.709 135.679C568.709 131.848 568.057 129.01 566.755 127.195C565.452 125.381 563.591 124.466 561.172 124.466Z" fill="#071013"/>
<path d="M604.937 117.704L606.442 122.342C605.217 122.714 603.898 122.962 602.472 123.07C601.06 123.179 599.509 123.241 597.834 123.241C599.587 124.016 600.89 125.024 601.743 126.25C602.596 127.475 603.03 128.948 603.03 130.654C603.03 132.593 602.58 134.314 601.696 135.818C600.797 137.323 599.525 138.501 597.85 139.37C596.175 140.223 594.159 140.657 591.817 140.657C591.15 140.657 590.514 140.61 589.925 140.517C589.336 140.424 588.715 140.285 588.08 140.099C587.676 140.393 587.32 140.797 587.041 141.293C586.761 141.789 586.622 142.301 586.622 142.828C586.622 143.495 586.885 144.069 587.428 144.534C587.971 144.999 588.979 145.232 590.468 145.232H595.152C598.16 145.232 600.595 146.007 602.44 147.543C604.286 149.078 605.201 151.032 605.201 153.374C605.201 156.197 604.038 158.399 601.712 159.965C599.385 161.531 595.958 162.307 591.414 162.307C588.219 162.307 585.691 161.981 583.846 161.33C582 160.678 580.698 159.686 579.938 158.337C579.178 157.003 578.79 155.344 578.79 153.374H583.427C583.427 154.491 583.644 155.406 584.063 156.134C584.497 156.863 585.288 157.406 586.436 157.747C587.583 158.104 589.243 158.275 591.398 158.275C593.554 158.275 595.214 158.104 596.485 157.747C597.757 157.391 598.656 156.879 599.199 156.181C599.742 155.499 600.006 154.661 600.006 153.7C600.006 152.288 599.478 151.234 598.439 150.551C597.4 149.869 595.942 149.512 594.081 149.512H589.444C586.839 149.512 584.916 148.954 583.691 147.837C582.466 146.721 581.845 145.418 581.845 143.929C581.845 142.968 582.124 142.037 582.683 141.138C583.241 140.238 584.047 139.447 585.087 138.734C583.381 137.834 582.124 136.733 581.318 135.415C580.511 134.097 580.124 132.484 580.124 130.592C580.124 128.576 580.62 126.808 581.597 125.257C582.59 123.706 583.939 122.497 585.645 121.628C587.351 120.76 589.289 120.31 591.445 120.31C593.275 120.341 594.841 120.31 596.16 120.201C597.478 120.093 598.641 119.907 599.618 119.674C600.595 119.426 601.51 119.131 602.347 118.775C603.185 118.418 604.038 118.061 604.891 117.689L604.937 117.704ZM591.491 124.016C590.189 124.016 589.088 124.296 588.173 124.854C587.258 125.412 586.575 126.188 586.11 127.165C585.645 128.157 585.412 129.289 585.412 130.592C585.412 131.895 585.66 133.042 586.141 134.05C586.622 135.058 587.32 135.834 588.235 136.392C589.15 136.95 590.266 137.23 591.616 137.23C593.632 137.23 595.167 136.64 596.222 135.477C597.276 134.314 597.819 132.655 597.819 130.53C597.819 129.072 597.586 127.878 597.121 126.901C596.656 125.939 595.958 125.211 595.027 124.73C594.097 124.249 592.918 124.001 591.507 124.001L591.491 124.016Z" fill="#071013"/>
<path d="M611.746 121.008H616.151L616.709 127.537L616.879 132.841V150.427H611.746V121.008ZM624.541 120.325C625.021 120.325 625.518 120.356 626.029 120.403C626.526 120.465 627.006 120.542 627.456 120.651L626.51 125.676C626.06 125.567 625.657 125.474 625.285 125.427C624.913 125.365 624.463 125.35 623.951 125.35C622.649 125.35 621.516 125.691 620.57 126.389C619.624 127.071 618.833 128.141 618.198 129.568C617.562 130.995 617.05 132.841 616.631 135.074L616.461 127.707C617.205 125.257 618.275 123.411 619.671 122.186C621.067 120.961 622.695 120.341 624.556 120.341L624.541 120.325Z" fill="#071013"/>
<path d="M642.902 120.325C645.539 120.325 647.772 120.915 649.571 122.078C651.37 123.257 652.735 124.916 653.65 127.072C654.565 129.227 655.014 131.817 655.014 134.826C655.014 135.307 655.014 135.787 654.983 136.253C654.968 136.718 654.937 137.121 654.906 137.447H635.257V133.647H649.943V133.306C649.943 131.367 649.695 129.739 649.183 128.421C648.687 127.103 647.912 126.095 646.888 125.412C645.864 124.73 644.577 124.373 643.011 124.373C641.6 124.373 640.359 124.761 639.32 125.521C638.281 126.281 637.474 127.49 636.916 129.15C636.358 130.809 636.079 132.949 636.079 135.601C636.079 138.253 636.42 140.502 637.118 142.161C637.8 143.821 638.746 145.015 639.94 145.759C641.134 146.504 642.515 146.876 644.065 146.876C645.523 146.876 646.841 146.674 648.036 146.256C649.23 145.852 650.455 145.201 651.727 144.302L653.96 147.372C652.502 148.52 650.951 149.435 649.276 150.086C647.601 150.738 645.74 151.063 643.693 151.063C640.979 151.063 638.637 150.458 636.683 149.249C634.729 148.039 633.241 146.302 632.217 144.022C631.193 141.743 630.682 139.075 630.682 135.989C630.682 132.903 631.178 130.235 632.17 127.863C633.147 125.505 634.559 123.644 636.389 122.311C638.203 120.977 640.39 120.294 642.918 120.294L642.902 120.325Z" fill="#071013"/>
<path d="M671.206 120.326C673.284 120.326 675.129 120.62 676.727 121.194C678.324 121.768 679.813 122.605 681.193 123.675L679.022 126.917C677.719 126.064 676.463 125.428 675.253 125.025C674.044 124.621 672.756 124.404 671.376 124.404C670.26 124.404 669.298 124.559 668.476 124.885C667.654 125.195 667.034 125.645 666.6 126.219C666.165 126.793 665.964 127.475 665.964 128.25C665.964 129.026 666.165 129.708 666.553 130.266C666.941 130.825 667.608 131.321 668.538 131.74C669.469 132.174 670.709 132.593 672.276 132.996C674.354 133.523 676.122 134.159 677.58 134.919C679.037 135.679 680.139 136.656 680.898 137.819C681.658 138.982 682.046 140.44 682.046 142.146C682.046 144.193 681.503 145.884 680.402 147.202C679.301 148.52 677.874 149.497 676.106 150.133C674.338 150.769 672.446 151.079 670.446 151.079C667.949 151.079 665.809 150.722 663.994 149.993C662.195 149.264 660.629 148.349 659.326 147.233L662.056 144.1C663.25 145 664.521 145.697 665.886 146.194C667.251 146.69 668.724 146.954 670.322 146.954C672.26 146.954 673.796 146.55 674.928 145.759C676.06 144.953 676.634 143.867 676.634 142.487C676.634 141.526 676.432 140.719 676.044 140.083C675.657 139.448 674.943 138.889 673.889 138.408C672.85 137.928 671.376 137.447 669.484 136.951C666.32 136.098 664.056 134.966 662.676 133.57C661.296 132.174 660.613 130.453 660.613 128.405C660.613 126.839 661.079 125.443 662.009 124.218C662.94 122.993 664.211 122.031 665.809 121.349C667.406 120.667 669.221 120.31 671.221 120.31L671.206 120.326Z" fill="#071013"/>
<path d="M700.361 120.325C704.564 120.325 707.79 121.721 710.054 124.512C712.318 127.304 713.435 131.026 713.435 135.679C713.435 138.687 712.923 141.37 711.899 143.696C710.876 146.023 709.387 147.837 707.433 149.14C705.479 150.443 703.106 151.094 700.314 151.094C696.143 151.094 692.917 149.698 690.622 146.907C688.326 144.115 687.194 140.393 687.194 135.741C687.194 132.685 687.722 130.002 688.761 127.707C689.8 125.396 691.304 123.597 693.258 122.295C695.212 120.992 697.585 120.341 700.377 120.341L700.361 120.325ZM700.361 124.466C697.911 124.466 696.019 125.381 694.7 127.195C693.382 129.025 692.715 131.863 692.715 135.741C692.715 139.618 693.367 142.409 694.669 144.224C695.972 146.054 697.849 146.953 700.314 146.953C702.78 146.953 704.657 146.038 705.96 144.193C707.262 142.347 707.914 139.509 707.914 135.679C707.914 131.848 707.262 129.01 705.96 127.195C704.657 125.365 702.796 124.466 700.377 124.466H700.361Z" fill="#071013"/>
</svg>
