<svg width="409" height="155" viewBox="0 0 409 155" fill="none" xmlns="http://www.w3.org/2000/svg">
<path d="M176.493 33C190.426 33 200.693 36.3733 207.293 43.12C213.893 49.8667 217.193 59.3267 217.193 71.5V124.52C217.193 129.507 218.073 133.1 219.833 135.3C221.593 137.353 223.939 138.967 226.873 140.14L222.253 154.22C215.799 153.487 210.593 151.507 206.633 148.28C202.673 145.053 199.959 139.847 198.493 132.66L196.953 124.52V72.38C196.953 64.02 194.899 58.1533 190.793 54.78C186.833 51.26 180.819 49.5 172.753 49.5C168.499 49.5 163.733 50.0133 158.453 51.04C153.173 52.0667 147.526 53.6067 141.513 55.66L136.453 40.92C143.639 38.28 150.459 36.3 156.913 34.98C163.513 33.66 170.039 33 176.493 33ZM179.133 80.96H200.253V94.38H181.773C171.066 94.38 162.999 96.36 157.573 100.32C152.293 104.28 149.653 110.22 149.653 118.14C149.653 124.887 151.339 130.093 154.713 133.76C158.086 137.28 163.073 139.04 169.673 139.04C176.273 139.04 181.919 137.207 186.613 133.54C191.453 129.873 195.559 124.373 198.933 117.04L201.573 133.54C197.613 140.727 192.479 146.007 186.173 149.38C179.866 152.607 172.826 154.22 165.053 154.22C153.466 154.22 144.373 150.993 137.773 144.54C131.319 137.94 128.093 129.507 128.093 119.24C128.093 106.773 132.566 97.3133 141.513 90.86C150.459 84.26 162.999 80.96 179.133 80.96Z" fill="#F29422"/>
<path d="M48.62 0H75.02L123.42 151.58H101.42L61.38 17.38L21.12 151.58H0L48.62 0ZM34.32 96.58H88.22L93.28 113.52H29.26L34.32 96.58Z" fill="#F29422"/>
<path d="M397.138 126.078C399.473 126.078 401.466 126.576 403.116 127.572C404.798 128.569 406.074 130.001 406.946 131.869C407.849 133.738 408.301 135.995 408.301 138.642C408.301 139.047 408.285 139.498 408.254 139.997C408.223 140.464 408.192 140.869 408.161 141.211H391.953L391.906 137.054H401.715C401.715 136.992 401.715 136.945 401.715 136.914C401.715 136.852 401.715 136.805 401.715 136.774C401.715 135.497 401.559 134.407 401.248 133.504C400.968 132.601 400.501 131.901 399.847 131.402C399.224 130.873 398.368 130.608 397.278 130.608C396.281 130.608 395.425 130.889 394.709 131.449C394.024 132.01 393.494 132.928 393.121 134.205C392.778 135.45 392.607 137.132 392.607 139.249C392.607 141.336 392.856 142.986 393.354 144.2C393.852 145.384 394.553 146.209 395.456 146.676C396.359 147.143 397.402 147.377 398.585 147.377C399.644 147.377 400.641 147.205 401.575 146.863C402.54 146.52 403.552 145.975 404.611 145.228L407.367 148.965C406.152 149.93 404.767 150.74 403.21 151.393C401.653 152.016 399.909 152.328 397.978 152.328C395.331 152.328 393.105 151.798 391.299 150.74C389.493 149.65 388.138 148.124 387.235 146.162C386.332 144.2 385.881 141.927 385.881 139.343C385.881 136.852 386.317 134.61 387.189 132.617C388.061 130.593 389.337 129.005 391.019 127.853C392.7 126.669 394.74 126.078 397.138 126.078Z" fill="#071013"/>
<path d="M380.176 152.328C378.183 152.328 376.611 151.751 375.459 150.599C374.338 149.416 373.777 147.75 373.777 145.602V116.969L380.41 116.222V145.415C380.41 145.944 380.519 146.349 380.737 146.629C380.955 146.909 381.297 147.05 381.764 147.05C382.014 147.05 382.247 147.034 382.465 147.003C382.683 146.941 382.885 146.863 383.072 146.769L384.427 151.487C383.897 151.705 383.259 151.892 382.512 152.047C381.796 152.234 381.017 152.328 380.176 152.328Z" fill="#071013"/>
<path d="M359.592 126.078C362.488 126.078 364.73 127.23 366.318 129.534C367.937 131.838 368.747 135.061 368.747 139.203C368.747 141.756 368.357 144.029 367.579 146.022C366.8 147.984 365.679 149.525 364.216 150.646C362.752 151.767 360.993 152.328 358.938 152.328C357.412 152.328 356.058 151.969 354.874 151.253C353.691 150.537 352.695 149.587 351.885 148.404L352.399 144.013C352.897 145.072 353.551 145.913 354.36 146.536C355.17 147.127 356.073 147.423 357.07 147.423C358.502 147.423 359.654 146.816 360.526 145.602C361.398 144.356 361.834 142.223 361.834 139.203C361.834 137.054 361.647 135.388 361.273 134.205C360.9 132.99 360.37 132.15 359.685 131.683C359.031 131.215 358.268 130.982 357.396 130.982C356.307 130.982 355.341 131.356 354.501 132.103C353.66 132.85 352.959 133.8 352.399 134.952V130.141C353.146 128.896 354.142 127.915 355.388 127.199C356.665 126.451 358.066 126.078 359.592 126.078ZM352.819 146.489L352.072 151.58H346.187V116.969L352.819 116.222V146.489Z" fill="#071013"/>
<path d="M329.751 126.078C333.176 126.078 335.667 126.825 337.224 128.32C338.781 129.783 339.56 131.916 339.56 134.719V144.714C339.56 145.711 339.715 146.427 340.027 146.863C340.338 147.299 340.79 147.626 341.381 147.844L339.98 152.234C338.454 152.078 337.193 151.689 336.197 151.066C335.231 150.444 334.5 149.385 334.001 147.89L333.067 145.508V135.092C333.067 133.535 332.709 132.477 331.993 131.916C331.308 131.325 330.187 131.029 328.63 131.029C327.82 131.029 326.84 131.138 325.687 131.356C324.566 131.574 323.368 131.901 322.091 132.337L320.596 127.899C322.122 127.308 323.679 126.856 325.267 126.545C326.855 126.233 328.35 126.078 329.751 126.078ZM330.218 136.307H334.001V140.09H330.872C329.066 140.09 327.711 140.417 326.808 141.071C325.936 141.725 325.501 142.737 325.501 144.107C325.501 145.197 325.765 146.053 326.295 146.676C326.855 147.268 327.649 147.563 328.677 147.563C329.767 147.563 330.701 147.268 331.479 146.676C332.289 146.053 332.943 145.197 333.441 144.107L334.702 147.89C333.861 149.51 332.74 150.662 331.339 151.347C329.938 152.001 328.443 152.328 326.855 152.328C324.364 152.328 322.402 151.611 320.97 150.179C319.537 148.715 318.821 146.878 318.821 144.667C318.821 141.958 319.802 139.888 321.764 138.455C323.757 137.023 326.575 136.307 330.218 136.307Z" fill="#071013"/>
<path d="M307.46 126.825H314.093V151.58H307.46V126.825ZM310.73 114.073C311.944 114.073 312.925 114.447 313.672 115.194C314.42 115.942 314.793 116.86 314.793 117.95C314.793 119.04 314.42 119.958 313.672 120.706C312.925 121.453 311.944 121.827 310.73 121.827C309.547 121.827 308.581 121.453 307.834 120.706C307.087 119.958 306.713 119.04 306.713 117.95C306.713 116.86 307.087 115.942 307.834 115.194C308.581 114.447 309.547 114.073 310.73 114.073Z" fill="#071013"/>
<path d="M301.694 126.124C302.129 126.124 302.55 126.155 302.955 126.217C303.359 126.28 303.764 126.373 304.169 126.498L303.048 132.897C302.674 132.803 302.316 132.725 301.974 132.663C301.631 132.601 301.258 132.57 300.853 132.57C299.763 132.57 298.86 132.866 298.144 133.457C297.428 134.018 296.851 134.843 296.416 135.933C295.98 136.991 295.606 138.315 295.295 139.903L295.061 132.336C295.559 130.406 296.4 128.895 297.583 127.806C298.798 126.685 300.168 126.124 301.694 126.124ZM288.896 126.825H294.641L295.341 132.243L295.528 138.081V151.58H288.896V126.825Z" fill="#071013"/>
<path d="M272.461 126.078C275.886 126.078 278.377 126.825 279.934 128.32C281.491 129.783 282.27 131.916 282.27 134.719V144.714C282.27 145.711 282.425 146.427 282.737 146.863C283.048 147.299 283.5 147.626 284.091 147.844L282.69 152.234C281.164 152.078 279.903 151.689 278.907 151.066C277.941 150.444 277.21 149.385 276.711 147.89L275.777 145.508V135.092C275.777 133.535 275.419 132.477 274.703 131.916C274.018 131.325 272.897 131.029 271.34 131.029C270.53 131.029 269.549 131.138 268.397 131.356C267.276 131.574 266.078 131.901 264.801 132.337L263.306 127.899C264.832 127.308 266.389 126.856 267.977 126.545C269.565 126.233 271.06 126.078 272.461 126.078ZM272.928 136.307H276.711V140.09H273.582C271.776 140.09 270.421 140.417 269.518 141.071C268.646 141.725 268.211 142.737 268.211 144.107C268.211 145.197 268.475 146.053 269.005 146.676C269.565 147.268 270.359 147.563 271.387 147.563C272.477 147.563 273.411 147.268 274.189 146.676C274.999 146.053 275.653 145.197 276.151 144.107L277.412 147.89C276.571 149.51 275.45 150.662 274.049 151.347C272.648 152.001 271.153 152.328 269.565 152.328C267.074 152.328 265.112 151.611 263.68 150.179C262.247 148.715 261.531 146.878 261.531 144.667C261.531 141.958 262.512 139.888 264.474 138.455C266.467 137.023 269.285 136.307 272.928 136.307Z" fill="#071013"/>
<path d="M255.531 119.258H262.537L253.242 151.58H244.882L235.26 119.258H242.593L249.179 145.882L255.531 119.258Z" fill="#071013"/>
<path d="M326.173 86.0776C327.979 86.0776 329.629 86.3423 331.124 86.8717C332.65 87.401 333.989 88.1328 335.141 89.067L332.618 92.8503C331.622 92.2275 330.61 91.7449 329.582 91.4024C328.555 91.0598 327.512 90.8886 326.453 90.8886C325.706 90.8886 325.083 90.982 324.585 91.1688C324.086 91.3557 323.697 91.6203 323.417 91.9629C323.168 92.2742 323.043 92.6635 323.043 93.1306C323.043 93.5976 323.168 94.018 323.417 94.3917C323.697 94.7342 324.211 95.0612 324.958 95.3726C325.706 95.6839 326.795 96.0576 328.228 96.4935C329.878 96.9295 331.279 97.4744 332.432 98.1283C333.584 98.7822 334.456 99.6074 335.047 100.604C335.67 101.6 335.981 102.83 335.981 104.294C335.981 106.006 335.499 107.47 334.533 108.684C333.568 109.868 332.276 110.771 330.657 111.393C329.037 112.016 327.247 112.328 325.285 112.328C323.137 112.328 321.206 112.001 319.493 111.347C317.812 110.662 316.38 109.79 315.196 108.731L318.466 105.088C319.431 105.804 320.459 106.396 321.549 106.863C322.67 107.299 323.853 107.517 325.098 107.517C326.344 107.517 327.325 107.283 328.041 106.816C328.788 106.318 329.162 105.648 329.162 104.808C329.162 104.185 329.022 103.671 328.742 103.266C328.461 102.861 327.932 102.503 327.154 102.192C326.375 101.849 325.223 101.476 323.697 101.071C321.206 100.355 319.353 99.3739 318.139 98.1283C316.956 96.8516 316.364 95.2947 316.364 93.4575C316.364 92.0563 316.769 90.7952 317.578 89.6742C318.388 88.5532 319.525 87.6813 320.988 87.0585C322.483 86.4046 324.211 86.0776 326.173 86.0776Z" fill="#071013"/>
<path d="M304.729 86.0776C306.909 86.0776 308.606 86.7471 309.82 88.0861C311.035 89.3939 311.642 91.2155 311.642 93.5509V111.58H305.009V94.6719C305.009 93.2395 304.76 92.2742 304.262 91.776C303.795 91.2778 303.141 91.0287 302.3 91.0287C301.366 91.0287 300.51 91.3401 299.731 91.9629C298.953 92.5545 298.221 93.3952 297.536 94.4851L296.602 90.7017C297.66 89.2382 298.844 88.1017 300.152 87.292C301.49 86.4824 303.016 86.0776 304.729 86.0776ZM290.903 86.825H296.648L297.536 92.1964V111.58H290.903V86.825Z" fill="#071013"/>
<path d="M274.468 86.0776C277.893 86.0776 280.384 86.825 281.941 88.3196C283.498 89.7831 284.276 91.9161 284.276 94.7186V104.714C284.276 105.711 284.432 106.427 284.744 106.863C285.055 107.299 285.506 107.626 286.098 107.844L284.697 112.234C283.171 112.078 281.91 111.689 280.914 111.066C279.948 110.444 279.216 109.385 278.718 107.89L277.784 105.508V95.0923C277.784 93.5354 277.426 92.4766 276.71 91.9161C276.025 91.3245 274.904 91.0287 273.347 91.0287C272.537 91.0287 271.556 91.1377 270.404 91.3557C269.283 91.5736 268.084 91.9006 266.808 92.3365L265.313 87.8993C266.839 87.3076 268.396 86.8561 269.984 86.5447C271.572 86.2333 273.067 86.0776 274.468 86.0776ZM274.935 96.3067H278.718V100.09H275.589C273.783 100.09 272.428 100.417 271.525 101.071C270.653 101.725 270.217 102.737 270.217 104.107C270.217 105.197 270.482 106.053 271.011 106.676C271.572 107.268 272.366 107.563 273.393 107.563C274.483 107.563 275.418 107.268 276.196 106.676C277.006 106.053 277.66 105.197 278.158 104.107L279.419 107.89C278.578 109.51 277.457 110.662 276.056 111.347C274.655 112.001 273.16 112.328 271.572 112.328C269.081 112.328 267.119 111.611 265.687 110.179C264.254 108.715 263.538 106.878 263.538 104.667C263.538 101.958 264.519 99.8877 266.481 98.4553C268.474 97.0229 271.292 96.3067 274.935 96.3067Z" fill="#071013"/>
<path d="M248.945 78.5107C251.343 78.5107 253.413 78.8688 255.157 79.585C256.901 80.2701 258.458 81.2665 259.828 82.5743L256.558 86.3577C255.406 85.4235 254.254 84.7385 253.102 84.3025C251.95 83.8666 250.72 83.6486 249.412 83.6486C248.478 83.6486 247.653 83.7888 246.937 84.069C246.22 84.3181 245.66 84.7073 245.255 85.2367C244.881 85.7349 244.695 86.3733 244.695 87.1517C244.695 87.8991 244.866 88.5374 245.208 89.0668C245.582 89.565 246.236 90.0476 247.17 90.5147C248.104 90.9507 249.443 91.4333 251.187 91.9627C253.149 92.5854 254.846 93.3172 256.278 94.158C257.711 94.9987 258.816 96.0574 259.594 97.3341C260.373 98.6108 260.762 100.246 260.762 102.238C260.762 104.231 260.264 105.991 259.267 107.516C258.271 109.011 256.839 110.194 254.97 111.066C253.133 111.907 250.891 112.327 248.244 112.327C245.566 112.327 243.231 111.907 241.238 111.066C239.276 110.194 237.626 109.105 236.287 107.797L239.79 103.92C241.005 104.916 242.266 105.71 243.574 106.302C244.913 106.863 246.407 107.143 248.058 107.143C249.147 107.143 250.113 106.972 250.953 106.629C251.794 106.286 252.448 105.788 252.915 105.134C253.382 104.449 253.616 103.64 253.616 102.706C253.616 101.834 253.429 101.117 253.055 100.557C252.713 99.9653 252.106 99.436 251.234 98.9689C250.362 98.5018 249.101 98.0192 247.45 97.5209C245.115 96.7736 243.215 95.9484 241.752 95.0454C240.32 94.1424 239.276 93.0837 238.623 91.8693C237.969 90.6548 237.642 89.238 237.642 87.6188C237.642 85.7816 238.124 84.178 239.09 82.8079C240.086 81.4378 241.425 80.3791 243.106 79.6317C244.819 78.8844 246.765 78.5107 248.945 78.5107Z" fill="#071013"/>
<path d="M303.112 46.0776C306.538 46.0776 309.029 46.825 310.586 48.3196C312.143 49.7831 312.921 51.9161 312.921 54.7186V64.7142C312.921 65.7106 313.077 66.4268 313.388 66.8627C313.699 67.2987 314.151 67.6256 314.743 67.8436L313.341 72.2342C311.816 72.0785 310.554 71.6892 309.558 71.0665C308.593 70.4437 307.861 69.385 307.363 67.8903L306.429 65.5082V55.0923C306.429 53.5354 306.07 52.4766 305.354 51.9161C304.669 51.3245 303.548 51.0287 301.991 51.0287C301.182 51.0287 300.201 51.1377 299.049 51.3557C297.928 51.5736 296.729 51.9006 295.452 52.3365L293.958 47.8993C295.483 47.3076 297.04 46.8561 298.628 46.5447C300.216 46.2333 301.711 46.0776 303.112 46.0776ZM303.579 56.3067H307.363V60.0901H304.233C302.427 60.0901 301.073 60.417 300.17 61.0709C299.298 61.7249 298.862 62.7369 298.862 64.107C298.862 65.1968 299.127 66.0531 299.656 66.6759C300.216 67.2675 301.01 67.5634 302.038 67.5634C303.128 67.5634 304.062 67.2675 304.841 66.6759C305.65 66.0531 306.304 65.1968 306.802 64.107L308.063 67.8903C307.223 69.5095 306.102 70.6617 304.7 71.3467C303.299 72.0006 301.804 72.3276 300.216 72.3276C297.725 72.3276 295.764 71.6114 294.331 70.179C292.899 68.7155 292.183 66.8783 292.183 64.6675C292.183 61.9584 293.163 59.8877 295.125 58.4553C297.118 57.0229 299.936 56.3067 303.579 56.3067Z" fill="#071013"/>
<path d="M289.151 46.124C289.587 46.124 290.007 46.1552 290.412 46.2174C290.816 46.2797 291.221 46.3731 291.626 46.4977L290.505 52.8967C290.131 52.8033 289.773 52.7254 289.431 52.6632C289.088 52.6009 288.715 52.5697 288.31 52.5697C287.22 52.5697 286.317 52.8656 285.601 53.4572C284.885 54.0177 284.308 54.8429 283.873 55.9327C283.437 56.9914 283.063 58.3148 282.752 59.9029L282.518 52.3362C283.016 50.4056 283.857 48.8954 285.04 47.8055C286.255 46.6845 287.625 46.124 289.151 46.124ZM276.353 46.8246H282.098L282.798 52.2428L282.985 58.0813V71.5799H276.353V46.8246Z" fill="#071013"/>
<path d="M263.17 46.8246H269.803V71.5798H263.17V46.8246ZM266.44 34.0732C267.654 34.0732 268.635 34.4469 269.382 35.1942C270.13 35.9416 270.503 36.8602 270.503 37.95C270.503 39.0399 270.13 39.9585 269.382 40.7058C268.635 41.4531 267.654 41.8268 266.44 41.8268C265.256 41.8268 264.291 41.4531 263.544 40.7058C262.797 39.9585 262.423 39.0399 262.423 37.95C262.423 36.8602 262.797 35.9416 263.544 35.1942C264.291 34.4469 265.256 34.0732 266.44 34.0732Z" fill="#071013"/>
<path d="M245.956 71.5803H239.09V39.2583H257.867L257.119 44.2561H245.956V53.4109H255.671V58.4086H245.956V71.5803Z" fill="#071013"/>
</svg>
