<svg width="1227" height="204" viewBox="0 0 1227 204" fill="none" xmlns="http://www.w3.org/2000/svg">
<path d="M65.41 65.41L0 0H65.41V65.41Z" fill="#F29422"/>
<path d="M180.53 65.41L115.12 0H180.53V65.41Z" fill="#F29422"/>
<path d="M295.65 65.41L230.24 0H295.65V65.41Z" fill="#F29422"/>
<path d="M410.77 65.41L345.36 0H410.77V65.41Z" fill="#F29422"/>
<path d="M345.36 43.6201L410.77 109.04H345.36V43.6201Z" fill="#F29422"/>
<path d="M230.24 43.6201L295.65 109.04H230.24V43.6201Z" fill="#F29422"/>
<path d="M115.12 43.6201L180.53 109.04H115.12V43.6201Z" fill="#F29422"/>
<path d="M0 43.6201L65.41 109.04H0V43.6201Z" fill="#F29422"/>
<path d="M65.41 203.5L0 138.09H65.41V203.5Z" fill="#F29422"/>
<path d="M180.53 203.5L115.12 138.09H180.53V203.5Z" fill="#F29422"/>
<path d="M295.65 203.5L230.24 138.09H295.65V203.5Z" fill="#F29422"/>
<path d="M345.359 138.09L410.769 203.5H345.359V138.09Z" fill="#F29422"/>
<path d="M503 46.1323H517.94C521.494 46.1323 524.943 46.4843 528.269 47.1705C531.595 47.8744 534.586 49.1766 537.243 51.077C539.9 52.9951 541.994 55.6874 543.508 59.1715C545.039 62.6557 545.795 67.1604 545.795 72.6858C545.795 78.2112 545.056 82.5752 543.596 86.0769C542.118 89.5787 540.129 92.3414 537.595 94.365C535.061 96.371 532.211 97.7788 529.043 98.5882C525.876 99.3977 522.55 99.7848 519.101 99.7848H503V46.1323ZM519.717 55.353H515.687V90.5817H519.875C521.776 90.5817 523.535 90.3177 525.102 89.8074C526.668 89.2971 528.023 88.3645 529.131 87.0272C530.24 85.6898 531.102 83.8597 531.718 81.537C532.334 79.2142 532.651 76.2755 532.651 72.7034C532.651 69.1313 532.334 66.2102 531.683 63.9226C531.032 61.6351 530.152 59.8578 529.008 58.626C527.864 57.3942 526.509 56.532 524.908 56.0745C523.307 55.617 521.582 55.3706 519.717 55.3706V55.353Z" fill="#071013"/>
<path d="M559.203 37C561.367 37 563.127 37.6687 564.464 39.006C565.802 40.3434 566.47 41.9975 566.47 43.9683C566.47 45.9391 565.802 47.5756 564.464 48.9306C563.127 50.2855 561.367 50.9366 559.203 50.9366C557.039 50.9366 555.349 50.2679 554.012 48.9306C552.675 47.5932 552.006 45.9391 552.006 43.9683C552.006 41.9975 552.675 40.361 554.012 39.006C555.349 37.6511 557.091 37 559.203 37ZM553.167 58.6792H565.397V99.7852H553.167V58.6792Z" fill="#071013"/>
<path d="M592.814 57.3589C595.7 57.3589 598.287 57.7812 600.557 58.6435C602.827 59.4881 604.938 60.7551 606.909 62.3916L601.648 69.6766C600.363 68.6384 599.079 67.8994 597.812 67.4243C596.545 66.9667 595.225 66.7204 593.817 66.7204C591.231 66.7204 589.207 67.6882 587.746 69.6239C586.268 71.5595 585.547 74.8501 585.547 79.4956C585.547 82.5399 585.881 84.933 586.55 86.6927C587.218 88.4524 588.169 89.6665 589.418 90.3704C590.667 91.0743 592.075 91.4086 593.676 91.4086C595.119 91.4086 596.422 91.1799 597.583 90.7048C598.744 90.2296 600.082 89.5434 601.577 88.6107L606.927 96.1949C605.009 97.6907 602.932 98.8872 600.698 99.7495C598.445 100.629 595.911 101.069 593.078 101.069C588.89 101.069 585.283 100.172 582.239 98.3945C579.194 96.6173 576.836 94.1009 575.2 90.8455C573.546 87.5901 572.719 83.8244 572.719 79.5484C572.719 75.2724 573.546 71.2955 575.2 67.9698C576.854 64.644 579.194 62.0397 582.203 60.1568C585.23 58.274 588.767 57.3237 592.849 57.3237L592.814 57.3589Z" fill="#071013"/>
<path d="M607.437 58.6798H634.923L633.603 67.1967H607.437V58.6798ZM613.243 49.7759L625.473 48.3857V86.0956C625.473 88.0664 625.79 89.4389 626.441 90.2308C627.092 91.0226 628.06 91.4274 629.344 91.4274C630.013 91.4274 630.717 91.3042 631.474 91.0754C632.213 90.8467 632.987 90.5299 633.761 90.1076L637.861 97.8502C636.313 98.9412 634.553 99.7506 632.565 100.296C630.576 100.842 628.623 101.106 626.723 101.106C622.235 101.053 618.857 99.7858 616.622 97.2695C614.37 94.7708 613.261 91.093 613.261 86.2363V49.7759H613.243Z" fill="#071013"/>
<path d="M658.467 74.3931H664.344V81.1326H659.628C656.848 81.1326 654.771 81.6253 653.399 82.6108C652.026 83.5962 651.34 85.1095 651.34 87.1859C651.34 88.7872 651.762 90.0542 652.625 90.9868C653.469 91.9194 654.648 92.3769 656.144 92.3769C657.798 92.3769 659.206 91.9194 660.402 91.022C661.581 90.1246 662.514 88.8928 663.183 87.3443L665.664 93.7671C664.274 96.4594 662.391 98.3422 660.05 99.4508C657.71 100.559 655.211 101.123 652.572 101.123C648.489 101.123 645.234 99.926 642.823 97.5328C640.395 95.122 639.181 92.0426 639.181 88.2769C639.181 83.7897 640.852 80.3584 644.178 77.9828C647.504 75.6073 652.273 74.4283 658.467 74.4283V74.3931ZM657.622 57.3594C663.605 57.3594 667.951 58.5912 670.626 61.0371C673.318 63.4831 674.656 67.108 674.656 71.9119V87.8546C674.656 89.4031 674.867 90.5469 675.307 91.2684C675.747 91.9898 676.451 92.5353 677.436 92.8873L674.884 100.859C672.245 100.647 670.098 100.032 668.426 98.9933C666.755 97.9551 665.453 96.2306 664.52 93.8023L662.655 89.5439V72.5806C662.655 70.1523 662.109 68.4982 661.036 67.5831C659.962 66.6681 658.168 66.2282 655.686 66.2282C654.402 66.2282 652.801 66.4042 650.883 66.7737C648.964 67.1432 646.994 67.6711 644.917 68.3926L642.137 60.3333C644.724 59.3479 647.363 58.6088 650.073 58.0809C652.783 57.5706 655.299 57.3066 657.622 57.3066V57.3594Z" fill="#071013"/>
<path d="M699.275 57.3596C700.77 57.3596 702.16 57.5531 703.463 57.9403C704.747 58.3274 705.926 58.8905 706.982 59.6119C708.038 60.3334 708.988 61.1605 709.815 62.0931L709.885 70.8387C709.164 69.8532 708.46 69.0262 707.756 68.3575C707.052 67.6889 706.278 67.1785 705.433 66.809C704.589 66.4571 703.639 66.2635 702.6 66.2635C701.157 66.2635 699.873 66.6858 698.764 67.5305C697.656 68.3751 696.776 69.7653 696.125 71.6657C695.474 73.5838 695.157 76.0825 695.157 79.1795C695.157 82.5933 695.439 85.2152 696.002 87.0805C696.565 88.9281 697.357 90.2479 698.36 90.9869C699.363 91.7436 700.542 92.1131 701.879 92.1131C703.533 92.1131 704.994 91.6204 706.261 90.635C707.527 89.6496 708.671 88.2067 709.709 86.3062L710.413 94.0488C709.27 95.914 707.703 97.5505 705.697 98.9583C703.691 100.384 701.157 101.087 698.113 101.087C694.594 101.087 691.708 100.172 689.403 98.3424C687.098 96.5123 685.373 93.9608 684.212 90.6702C683.05 87.3972 682.47 83.5435 682.47 79.0915C682.47 74.6396 683.174 71.1026 684.564 67.8296C685.954 64.5566 687.925 61.9875 690.441 60.1223C692.975 58.257 695.914 57.342 699.275 57.342V57.3596ZM709.023 88.6466V41.0298L721.253 42.3495V99.8029H710.413L709.639 93.9256L709.023 88.6642V88.6466Z" fill="#071013"/>
<path d="M753.312 58.6787H765.542V99.7847H754.931L754.386 94.5937C752.89 96.7581 751.113 98.3946 749.089 99.468C747.048 100.559 744.655 101.087 741.927 101.087C738.109 101.087 735.24 99.9255 733.34 97.6027C731.439 95.2799 730.472 92.1301 730.472 88.1533V58.6787H742.701V86.6223C742.701 88.6812 743.036 90.1065 743.704 90.8808C744.373 91.655 745.359 92.0421 746.643 92.0421C747.928 92.0421 749.142 91.6374 750.286 90.8104C751.412 89.9833 752.432 88.8043 753.312 87.2558V58.6787Z" fill="#071013"/>
<path d="M775.151 58.6795H785.833L786.994 67.5834L787.381 78.1063V99.7854H775.151V58.6795ZM797.446 57.5181C798.221 57.5181 798.925 57.5533 799.576 57.6412C800.227 57.7116 800.878 57.8524 801.546 58.0636L799.611 69.9062C798.942 69.7478 798.326 69.6246 797.746 69.519C797.182 69.4135 796.549 69.3607 795.88 69.3607C794.068 69.3607 792.607 69.8182 791.464 70.7508C790.32 71.6834 789.422 73.0032 788.754 74.7453C788.085 76.4698 787.522 78.5462 787.047 80.9745L786.501 67.8122C787.328 64.6096 788.718 62.0932 790.689 60.2632C792.643 58.4331 794.895 57.5181 797.429 57.5181H797.446Z" fill="#071013"/>
<path d="M821.132 74.3931H827.009V81.1326H822.293C819.513 81.1326 817.436 81.6253 816.064 82.6108C814.691 83.5962 814.005 85.1095 814.005 87.1859C814.005 88.7872 814.427 90.0542 815.29 90.9868C816.134 91.9194 817.313 92.3769 818.809 92.3769C820.463 92.3769 821.871 91.9194 823.067 91.022C824.246 90.1246 825.179 88.8928 825.848 87.3443L828.329 93.7671C826.939 96.4594 825.056 98.3422 822.715 99.4508C820.375 100.559 817.876 101.123 815.237 101.123C811.154 101.123 807.899 99.926 805.488 97.5328C803.06 95.122 801.846 92.0426 801.846 88.2769C801.846 83.7897 803.517 80.3584 806.843 77.9828C810.169 75.6073 814.938 74.4283 821.132 74.4283V74.3931ZM820.287 57.3594C826.27 57.3594 830.616 58.5912 833.291 61.0371C835.983 63.4831 837.321 67.108 837.321 71.9119V87.8546C837.321 89.4031 837.532 90.5469 837.972 91.2684C838.412 91.9898 839.116 92.5353 840.101 92.8873L837.549 100.859C834.91 100.647 832.763 100.032 831.091 98.9933C829.42 97.9551 828.118 96.2306 827.185 93.8023L825.32 89.5439V72.5806C825.32 70.1523 824.774 68.4982 823.701 67.5831C822.627 66.6681 820.833 66.2282 818.351 66.2282C817.067 66.2282 815.466 66.4042 813.548 66.7737C811.629 67.1432 809.659 67.6711 807.582 68.3926L804.802 60.3333C807.389 59.3479 810.028 58.6088 812.738 58.0809C815.448 57.5706 817.964 57.3066 820.287 57.3066V57.3594Z" fill="#071013"/>
<path d="M880.292 57.3596C881.788 57.3596 883.178 57.5531 884.48 57.9403C885.765 58.3274 886.944 58.8905 888 59.6119C889.055 60.3334 890.006 61.1605 890.833 62.0931L890.903 70.8387C890.182 69.8532 889.478 69.0262 888.774 68.3575C888.07 67.6889 887.296 67.1785 886.451 66.809C885.606 66.4571 884.656 66.2635 883.618 66.2635C882.175 66.2635 880.89 66.6858 879.782 67.5305C878.673 68.3751 877.793 69.7653 877.142 71.6657C876.491 73.5838 876.175 76.0825 876.175 79.1795C876.175 82.5933 876.456 85.2152 877.019 87.0805C877.582 88.9281 878.374 90.2479 879.377 90.9869C880.38 91.7436 881.559 92.1131 882.897 92.1131C884.551 92.1131 886.011 91.6204 887.278 90.635C888.545 89.6496 889.689 88.2067 890.727 86.3062L891.431 94.0488C890.287 95.914 888.721 97.5505 886.715 98.9583C884.709 100.384 882.175 101.087 879.131 101.087C875.611 101.087 872.726 100.172 870.42 98.3424C868.115 96.5123 866.391 93.9608 865.229 90.6702C864.068 87.3972 863.487 83.5435 863.487 79.0915C863.487 74.6396 864.191 71.1026 865.581 67.8296C866.971 64.5566 868.942 61.9875 871.459 60.1223C873.993 58.257 876.931 57.342 880.292 57.342V57.3596ZM890.041 88.6466V41.0298L902.271 42.3495V99.8029H891.431L890.657 93.9256L890.041 88.6642V88.6466Z" fill="#071013"/>
<path d="M928.753 57.3589C932.677 57.3589 936.055 58.1859 938.888 59.84C941.722 61.4941 943.903 63.8873 945.434 67.0371C946.965 70.1869 947.722 73.9878 947.722 78.4222C947.722 79.0909 947.722 79.8475 947.687 80.6746C947.652 81.5016 947.599 82.2231 947.493 82.839H920.852L920.693 75.4835H935.721V74.938C935.721 73.0728 935.51 71.4363 935.07 70.0285C934.63 68.6032 933.926 67.4946 932.976 66.7028C932.026 65.9109 930.724 65.5062 929.069 65.5062C927.521 65.5062 926.201 65.9461 925.128 66.8259C924.037 67.7058 923.227 69.1487 922.682 71.1547C922.136 73.1608 921.872 75.9059 921.872 79.3548C921.872 82.8038 922.277 85.3905 923.069 87.2558C923.861 89.121 924.969 90.4056 926.395 91.127C927.82 91.8485 929.474 92.218 931.392 92.218C933.099 92.218 934.718 91.9189 936.267 91.3206C937.815 90.7223 939.469 89.8073 941.229 88.5755L946.261 95.3854C944.203 97.0395 941.845 98.4121 939.223 99.4855C936.583 100.576 933.592 101.104 930.248 101.104C925.708 101.104 921.89 100.189 918.793 98.3593C915.696 96.5292 913.391 93.9777 911.86 90.6871C910.329 87.4141 909.572 83.6484 909.572 79.4252C909.572 75.202 910.311 71.6298 911.772 68.2689C913.25 64.9079 915.414 62.2508 918.283 60.2975C921.151 58.3443 924.635 57.3589 928.77 57.3589H928.753Z" fill="#071013"/>
<path d="M965.53 101.105C961.975 101.105 959.195 100.084 957.206 98.0432C955.218 96.002 954.232 93.0985 954.232 89.3328V42.3495L966.462 41.0298V88.8753C966.462 89.7024 966.621 90.3359 966.972 90.7758C967.307 91.2157 967.835 91.4269 968.556 91.4269C969.014 91.4269 969.401 91.3917 969.718 91.3037C970.034 91.2333 970.316 91.1453 970.562 91.0397L972.955 99.7149C972.076 100.067 970.985 100.401 969.7 100.683C968.415 100.964 967.008 101.105 965.512 101.105H965.53Z" fill="#071013"/>
<path d="M1010.82 57.3596C1012.32 57.3596 1013.71 57.5531 1015.01 57.9403C1016.3 58.3274 1017.48 58.8905 1018.53 59.6119C1019.59 60.3334 1020.54 61.1605 1021.36 62.0931L1021.44 70.8387C1020.71 69.8532 1020.01 69.0262 1019.31 68.3575C1018.6 67.6889 1017.83 67.1785 1016.98 66.809C1016.14 66.4571 1015.19 66.2635 1014.15 66.2635C1012.71 66.2635 1011.42 66.6858 1010.31 67.5305C1009.21 68.3751 1008.33 69.7653 1007.67 71.6657C1007.02 73.5838 1006.71 76.0825 1006.71 79.1795C1006.71 82.5933 1006.99 85.2152 1007.55 87.0805C1008.11 88.9281 1008.91 90.2479 1009.91 90.9869C1010.91 91.7436 1012.09 92.1131 1013.43 92.1131C1015.08 92.1131 1016.54 91.6204 1017.81 90.635C1019.08 89.6496 1020.22 88.2067 1021.26 86.3062L1021.96 94.0488C1020.82 95.914 1019.25 97.5505 1017.25 98.9583C1015.24 100.384 1012.71 101.087 1009.66 101.087C1006.14 101.087 1003.26 100.172 1000.95 98.3424C998.647 96.5123 996.923 93.9608 995.762 90.6702C994.6 87.3972 994.02 83.5435 994.02 79.0915C994.02 74.6396 994.723 71.1026 996.114 67.8296C997.504 64.5566 999.475 61.9875 1001.99 60.1223C1004.52 58.257 1007.46 57.342 1010.82 57.342V57.3596ZM1020.57 88.6466V41.0298L1032.8 42.3495V99.8029H1021.96L1021.19 93.9256L1020.57 88.6642V88.6466Z" fill="#071013"/>
<path d="M1048.45 37C1050.61 37 1052.37 37.6687 1053.71 39.006C1055.04 40.3434 1055.71 41.9975 1055.71 43.9683C1055.71 45.9391 1055.04 47.5756 1053.71 48.9306C1052.37 50.2855 1050.61 50.9366 1048.45 50.9366C1046.28 50.9366 1044.59 50.2679 1043.26 48.9306C1041.92 47.5932 1041.25 45.9391 1041.25 43.9683C1041.25 41.9975 1041.92 40.361 1043.26 39.006C1044.59 37.6511 1046.33 37 1048.45 37ZM1042.41 58.6792H1054.64V99.7852H1042.41V58.6792Z" fill="#071013"/>
<path d="M1078.73 57.3589C1081.72 57.3589 1084.52 57.7988 1087.09 58.6786C1089.68 59.5585 1091.91 60.7903 1093.83 62.3916L1089.34 69.2895C1087.74 68.2513 1086.09 67.477 1084.38 66.9315C1082.67 66.386 1080.95 66.1221 1079.19 66.1221C1078.1 66.1221 1077.18 66.2452 1076.44 66.5092C1075.69 66.7731 1075.14 67.1251 1074.77 67.6002C1074.4 68.0577 1074.23 68.6032 1074.23 69.2191C1074.23 69.9406 1074.4 70.5564 1074.77 71.0668C1075.14 71.5771 1075.93 72.105 1077.16 72.6153C1078.4 73.1256 1080.24 73.759 1082.65 74.4805C1085.38 75.2548 1087.71 76.1874 1089.59 77.2608C1091.47 78.3518 1092.9 79.7067 1093.88 81.3608C1094.87 83.0149 1095.36 85.0738 1095.36 87.5549C1095.36 90.388 1094.55 92.8339 1092.91 94.8751C1091.29 96.9164 1089.1 98.4649 1086.33 99.5207C1083.57 100.576 1080.49 101.104 1077.08 101.104C1073.66 101.104 1070.27 100.559 1067.33 99.4327C1064.39 98.3065 1061.91 96.846 1059.9 94.9807L1065.87 88.3292C1067.42 89.5257 1069.12 90.476 1070.97 91.2326C1072.84 91.9893 1074.77 92.3588 1076.78 92.3588C1078.64 92.3588 1080.09 92.0245 1081.16 91.3558C1082.23 90.6871 1082.74 89.7369 1082.74 88.4875C1082.74 87.5549 1082.53 86.7982 1082.13 86.1999C1081.72 85.6017 1080.9 85.0562 1079.65 84.5283C1078.41 84.018 1076.55 83.4197 1074.07 82.751C1069.99 81.572 1066.94 79.9179 1064.93 77.7887C1062.93 75.6771 1061.91 73.0376 1061.91 69.8878C1061.91 67.5122 1062.59 65.3654 1063.97 63.465C1065.34 61.5645 1067.28 60.0512 1069.77 58.9778C1072.27 57.9044 1075.26 57.3589 1078.71 57.3589H1078.73Z" fill="#071013"/>
<path d="M1118.52 57.3589C1122.44 57.3589 1125.82 58.1859 1128.65 59.84C1131.49 61.4941 1133.67 63.8873 1135.2 67.0371C1136.73 70.1869 1137.49 73.9878 1137.49 78.4222C1137.49 79.0909 1137.49 79.8475 1137.45 80.6746C1137.42 81.5016 1137.36 82.2231 1137.26 82.839H1110.62L1110.46 75.4835H1125.48V74.938C1125.48 73.0728 1125.27 71.4363 1124.83 70.0285C1124.39 68.6032 1123.69 67.4946 1122.74 66.7028C1121.79 65.9109 1120.49 65.5062 1118.83 65.5062C1117.28 65.5062 1115.96 65.9461 1114.89 66.8259C1113.8 67.7058 1112.99 69.1487 1112.45 71.1547C1111.9 73.1608 1111.64 75.9059 1111.64 79.3548C1111.64 82.8038 1112.04 85.3905 1112.83 87.2558C1113.62 89.121 1114.73 90.4056 1116.16 91.127C1117.58 91.8485 1119.24 92.218 1121.16 92.218C1122.86 92.218 1124.48 91.9189 1126.03 91.3206C1127.58 90.7223 1129.23 89.8073 1130.99 88.5755L1136.03 95.3854C1133.97 97.0395 1131.61 98.4121 1128.99 99.4855C1126.35 100.576 1123.36 101.104 1120.01 101.104C1115.47 101.104 1111.65 100.189 1108.56 98.3593C1105.46 96.5292 1103.15 93.9777 1101.62 90.6871C1100.09 87.4141 1099.34 83.6484 1099.34 79.4252C1099.34 75.202 1100.08 71.6298 1101.54 68.2689C1103.01 64.9079 1105.18 62.2508 1108.05 60.2975C1110.91 58.3443 1114.4 57.3589 1118.53 57.3589H1118.52Z" fill="#071013"/>
<path d="M1144.38 58.6791H1155.07L1156.61 67.1959V99.7851H1144.38V58.6791ZM1166.77 50.6198C1165.32 50.6198 1164.09 50.3206 1163.09 49.7223C1162.09 49.1241 1161.19 48.5434 1160.41 47.9803C1159.64 47.4172 1158.81 47.1356 1157.93 47.1356C1157 47.1356 1156.24 47.4348 1155.65 48.0331C1155.05 48.6313 1154.45 49.4584 1153.83 50.5494L1147.71 47.6107C1148.7 45.1296 1150.01 43.0004 1151.7 41.1879C1153.38 39.3755 1155.38 38.478 1157.7 38.478C1159.25 38.478 1160.54 38.7596 1161.58 39.3227C1162.61 39.8858 1163.51 40.4665 1164.29 41.0647C1165.06 41.663 1165.85 41.9622 1166.68 41.9622C1167.56 41.9622 1168.3 41.6806 1168.88 41.1175C1169.48 40.5544 1170.08 39.6922 1170.69 38.566L1176.81 41.5927C1175.83 44.2322 1174.49 46.3966 1172.78 48.1034C1171.08 49.8103 1169.07 50.655 1166.75 50.655L1166.77 50.6198ZM1168.46 57.3593C1172.01 57.3593 1174.81 58.4503 1176.81 60.6147C1178.82 62.7791 1179.84 65.8234 1179.84 69.7474V99.7851H1167.61V71.8414C1167.61 69.677 1167.26 68.2165 1166.57 67.4599C1165.87 66.7032 1164.94 66.3337 1163.74 66.3337C1162.4 66.3337 1161.14 66.7912 1159.94 67.7238C1158.74 68.6564 1157.63 69.9762 1156.61 71.6655L1154.99 64.7676C1156.86 62.3392 1158.87 60.4916 1161.03 59.2246C1163.19 57.9576 1165.68 57.3241 1168.46 57.3241V57.3593Z" fill="#071013"/>
<path d="M1206.87 57.3589C1213.12 57.3589 1218.03 59.2769 1221.62 63.0954C1225.2 66.9139 1227 72.3161 1227 79.2844C1227 83.6132 1226.19 87.4317 1224.55 90.7047C1222.93 93.9777 1220.61 96.5468 1217.62 98.3769C1214.63 100.207 1211.04 101.122 1206.85 101.122C1200.6 101.122 1195.7 99.2039 1192.11 95.3503C1188.52 91.4966 1186.72 86.1296 1186.72 79.214C1186.72 74.8325 1187.53 70.9964 1189.17 67.7234C1190.8 64.4504 1193.11 61.8988 1196.1 60.104C1199.09 58.2915 1202.68 57.3941 1206.87 57.3941V57.3589ZM1206.87 66.3508C1204.39 66.3508 1202.54 67.3714 1201.29 69.4127C1200.06 71.4539 1199.43 74.7093 1199.43 79.214C1199.43 83.7188 1200.04 87.0446 1201.29 89.0858C1202.52 91.127 1204.39 92.1476 1206.87 92.1476C1209.35 92.1476 1211.27 91.1094 1212.48 89.0506C1213.7 86.9918 1214.29 83.7364 1214.29 79.302C1214.29 74.8676 1213.68 71.4011 1212.48 69.3951C1211.27 67.389 1209.4 66.3684 1206.87 66.3684V66.3508Z" fill="#071013"/>
<path d="M527.582 124.474H534.568V157.397H524.643L515.141 131.882C515.264 132.867 515.405 134.011 515.563 135.331C515.722 136.651 515.863 138.129 515.968 139.8C516.074 141.472 516.126 143.302 516.126 145.343V157.415H509.193V124.491H518.889L528.638 150.059C528.515 149.179 528.374 148.106 528.215 146.857C528.057 145.607 527.916 144.217 527.793 142.704C527.67 141.191 527.6 139.554 527.6 137.812V124.509L527.582 124.474Z" fill="#071013"/>
<path d="M551.479 131.371C555.315 131.371 558.324 132.55 560.524 134.89C562.723 137.231 563.832 140.539 563.832 144.815C563.832 147.472 563.339 149.812 562.336 151.819C561.333 153.825 559.925 155.391 558.078 156.517C556.23 157.643 554.048 158.206 551.479 158.206C547.643 158.206 544.634 157.027 542.434 154.669C540.235 152.311 539.126 149.003 539.126 144.762C539.126 142.07 539.619 139.712 540.622 137.706C541.625 135.7 543.032 134.134 544.88 133.025C546.71 131.917 548.91 131.371 551.479 131.371ZM551.479 136.879C549.966 136.879 548.822 137.512 548.065 138.762C547.308 140.011 546.921 142.017 546.921 144.78C546.921 147.542 547.308 149.584 548.065 150.833C548.822 152.082 549.966 152.716 551.479 152.716C552.992 152.716 554.171 152.082 554.928 150.815C555.667 149.549 556.036 147.56 556.036 144.833C556.036 142.105 555.667 139.993 554.928 138.744C554.189 137.512 553.027 136.896 551.479 136.896V136.879Z" fill="#071013"/>
<path d="M565.45 132.181H582.308L581.498 137.407H565.433V132.181H565.45ZM569.005 126.708L576.519 125.846V148.985C576.519 150.182 576.712 151.044 577.117 151.519C577.504 152.012 578.102 152.258 578.894 152.258C579.299 152.258 579.739 152.188 580.196 152.047C580.654 151.906 581.129 151.713 581.604 151.449L584.12 156.2C583.17 156.869 582.079 157.361 580.865 157.696C579.651 158.03 578.454 158.189 577.275 158.189C574.513 158.153 572.454 157.379 571.081 155.831C569.709 154.3 569.022 152.03 569.022 149.056V126.673L569.005 126.708Z" fill="#071013"/>
<path d="M596.755 141.824H600.362V145.959H597.459C595.752 145.959 594.467 146.258 593.64 146.856C592.813 147.455 592.391 148.387 592.391 149.654C592.391 150.64 592.655 151.414 593.183 151.977C593.71 152.54 594.432 152.839 595.347 152.839C596.368 152.839 597.23 152.558 597.951 152.012C598.673 151.449 599.253 150.71 599.658 149.76L601.172 153.701C600.309 155.355 599.165 156.517 597.723 157.186C596.28 157.872 594.749 158.206 593.13 158.206C590.631 158.206 588.625 157.467 587.147 155.989C585.669 154.511 584.912 152.628 584.912 150.305C584.912 147.542 585.933 145.448 587.974 143.988C590.015 142.527 592.936 141.806 596.737 141.806L596.755 141.824ZM596.244 131.371C599.922 131.371 602.579 132.128 604.233 133.623C605.887 135.137 606.697 137.354 606.697 140.293V150.076C606.697 151.027 606.838 151.731 607.102 152.17C607.366 152.61 607.805 152.945 608.404 153.173L606.838 158.065C605.219 157.942 603.899 157.555 602.878 156.922C601.858 156.288 601.048 155.232 600.485 153.737L599.341 151.115V140.715C599.341 139.219 599.007 138.199 598.338 137.653C597.67 137.108 596.579 136.826 595.065 136.826C594.274 136.826 593.288 136.932 592.127 137.16C590.948 137.389 589.734 137.706 588.467 138.163L586.76 133.219C588.343 132.62 589.962 132.163 591.634 131.846C593.306 131.529 594.837 131.371 596.262 131.371H596.244Z" fill="#071013"/>
<path d="M621.566 131.371C623.396 131.371 625.12 131.635 626.704 132.181C628.288 132.726 629.66 133.483 630.839 134.468L628.077 138.691C627.091 138.058 626.088 137.583 625.032 137.248C623.994 136.914 622.921 136.756 621.847 136.756C621.179 136.756 620.616 136.826 620.158 136.984C619.701 137.143 619.349 137.372 619.138 137.653C618.926 137.935 618.803 138.269 618.803 138.656C618.803 139.096 618.909 139.483 619.138 139.8C619.366 140.117 619.859 140.433 620.616 140.75C621.372 141.067 622.499 141.454 623.994 141.894C625.666 142.369 627.091 142.932 628.253 143.601C629.414 144.27 630.294 145.114 630.892 146.117C631.49 147.12 631.79 148.405 631.79 149.918C631.79 151.66 631.297 153.156 630.294 154.405C629.291 155.655 627.954 156.605 626.264 157.256C624.575 157.907 622.674 158.224 620.58 158.224C618.486 158.224 616.392 157.889 614.598 157.203C612.803 156.517 611.272 155.619 610.04 154.476L613.7 150.393C614.65 151.115 615.689 151.713 616.832 152.17C617.976 152.628 619.155 152.857 620.387 152.857C621.531 152.857 622.428 152.646 623.079 152.241C623.73 151.836 624.047 151.238 624.047 150.481C624.047 149.918 623.924 149.443 623.66 149.073C623.414 148.704 622.903 148.37 622.147 148.053C621.39 147.736 620.246 147.367 618.733 146.962C616.234 146.24 614.369 145.22 613.119 143.918C611.87 142.615 611.272 140.997 611.272 139.078C611.272 137.618 611.694 136.298 612.521 135.137C613.366 133.958 614.545 133.043 616.093 132.374C617.642 131.705 619.454 131.371 621.583 131.371H621.566Z" fill="#071013"/>
<path d="M646.889 132.181H653.487L653.963 135.735L654.385 139.061V167.145L646.871 167.955V132.181H646.889ZM661.142 131.371C663.324 131.371 665.101 131.917 666.491 132.99C667.882 134.063 668.885 135.612 669.553 137.618C670.222 139.624 670.556 142 670.556 144.727C670.556 147.455 670.152 149.637 669.342 151.66C668.533 153.684 667.389 155.285 665.893 156.464C664.397 157.643 662.62 158.224 660.526 158.224C659.136 158.224 657.887 157.96 656.778 157.414C655.669 156.869 654.702 156.059 653.875 154.951V149.637C654.438 150.675 655.089 151.467 655.793 151.959C656.514 152.47 657.324 152.716 658.239 152.716C659.629 152.716 660.737 152.1 661.547 150.886C662.356 149.672 662.761 147.648 662.761 144.833C662.761 142.703 662.603 141.084 662.268 139.941C661.934 138.797 661.476 138.005 660.896 137.565C660.315 137.125 659.611 136.896 658.784 136.896C657.763 136.896 656.848 137.231 656.021 137.917C655.194 138.603 654.508 139.518 653.927 140.697L653.311 135.753C654.385 134.169 655.617 133.043 657.024 132.374C658.432 131.705 659.805 131.371 661.16 131.371H661.142Z" fill="#071013"/>
<path d="M685.372 141.824H688.979V145.959H686.076C684.369 145.959 683.084 146.258 682.257 146.856C681.43 147.455 681.008 148.387 681.008 149.654C681.008 150.64 681.272 151.414 681.8 151.977C682.328 152.54 683.049 152.839 683.964 152.839C684.985 152.839 685.847 152.558 686.568 152.012C687.29 151.449 687.871 150.71 688.275 149.76L689.789 153.701C688.926 155.355 687.783 156.517 686.34 157.186C684.897 157.872 683.366 158.206 681.747 158.206C679.248 158.206 677.242 157.467 675.764 155.989C674.286 154.511 673.529 152.628 673.529 150.305C673.529 147.542 674.55 145.448 676.591 143.988C678.632 142.527 681.553 141.806 685.354 141.806L685.372 141.824ZM684.844 131.371C688.522 131.371 691.179 132.128 692.833 133.623C694.487 135.137 695.296 137.354 695.296 140.293V150.076C695.296 151.027 695.437 151.731 695.701 152.17C695.965 152.61 696.405 152.945 697.003 153.173L695.437 158.065C693.818 157.942 692.499 157.555 691.478 156.922C690.457 156.288 689.648 155.232 689.085 153.737L687.941 151.115V140.715C687.941 139.219 687.607 138.199 686.938 137.653C686.269 137.108 685.178 136.826 683.665 136.826C682.873 136.826 681.888 136.932 680.726 137.16C679.547 137.389 678.333 137.706 677.066 138.163L675.359 133.219C676.943 132.62 678.562 132.163 680.234 131.846C681.905 131.529 683.436 131.371 684.862 131.371H684.844Z" fill="#071013"/>
<path d="M701.279 132.18H707.843L708.547 137.635L708.793 144.093V157.397H701.279V132.163V132.18ZM714.97 131.459C715.445 131.459 715.885 131.477 716.272 131.529C716.659 131.582 717.064 131.67 717.486 131.793L716.307 139.061C715.902 138.973 715.515 138.885 715.163 138.814C714.811 138.744 714.442 138.726 714.019 138.726C712.911 138.726 712.013 139.008 711.309 139.589C710.606 140.152 710.06 140.979 709.638 142.035C709.233 143.09 708.881 144.375 708.6 145.853L708.265 137.776C708.776 135.805 709.62 134.274 710.834 133.148C712.031 132.022 713.421 131.459 714.97 131.459Z" fill="#071013"/>
<path d="M729.505 141.824H733.112V145.959H730.209C728.502 145.959 727.217 146.258 726.39 146.856C725.563 147.455 725.141 148.387 725.141 149.654C725.141 150.64 725.405 151.414 725.933 151.977C726.46 152.54 727.182 152.839 728.097 152.839C729.118 152.839 729.98 152.558 730.701 152.012C731.423 151.449 732.003 150.71 732.408 149.76L733.921 153.701C733.059 155.355 731.915 156.517 730.473 157.186C729.03 157.872 727.499 158.206 725.88 158.206C723.381 158.206 721.375 157.467 719.897 155.989C718.419 154.511 717.662 152.628 717.662 150.305C717.662 147.542 718.683 145.448 720.724 143.988C722.765 142.527 725.686 141.806 729.487 141.806L729.505 141.824ZM728.977 131.371C732.655 131.371 735.312 132.128 736.966 133.623C738.62 135.137 739.429 137.354 739.429 140.293V150.076C739.429 151.027 739.57 151.731 739.834 152.17C740.098 152.61 740.538 152.945 741.136 153.173L739.57 158.065C737.951 157.942 736.631 157.555 735.611 156.922C734.59 156.288 733.781 155.232 733.218 153.737L732.074 151.115V140.715C732.074 139.219 731.74 138.199 731.071 137.653C730.402 137.108 729.311 136.826 727.798 136.826C727.006 136.826 726.021 136.932 724.859 137.16C723.68 137.389 722.466 137.706 721.199 138.163L719.492 133.219C721.076 132.62 722.695 132.163 724.366 131.846C726.038 131.529 727.569 131.371 728.994 131.371H728.977Z" fill="#071013"/>
<path d="M767.038 131.371C769.449 131.371 771.525 131.881 773.267 132.884C775.009 133.905 776.347 135.366 777.279 137.301C778.212 139.237 778.687 141.56 778.687 144.287C778.687 144.692 778.687 145.167 778.669 145.66C778.652 146.152 778.617 146.61 778.546 146.997H762.199L762.111 142.475H771.331V142.14C771.331 140.997 771.191 139.994 770.927 139.131C770.663 138.251 770.223 137.583 769.642 137.09C769.061 136.597 768.252 136.351 767.249 136.351C766.299 136.351 765.489 136.615 764.821 137.16C764.152 137.706 763.659 138.586 763.325 139.818C762.991 141.049 762.832 142.739 762.832 144.85C762.832 146.962 763.079 148.563 763.571 149.689C764.064 150.833 764.75 151.625 765.613 152.065C766.492 152.505 767.513 152.734 768.674 152.734C769.713 152.734 770.716 152.558 771.666 152.188C772.616 151.819 773.637 151.255 774.71 150.499L777.789 154.687C776.523 155.707 775.08 156.534 773.461 157.203C771.842 157.872 770.012 158.206 767.953 158.206C765.173 158.206 762.815 157.643 760.914 156.517C759.014 155.391 757.588 153.825 756.656 151.819C755.723 149.812 755.248 147.507 755.248 144.903C755.248 142.299 755.706 140.117 756.603 138.058C757.5 135.999 758.838 134.363 760.597 133.166C762.357 131.969 764.504 131.354 767.038 131.354V131.371Z" fill="#071013"/>
<path d="M791.779 131.371C793.609 131.371 795.333 131.635 796.917 132.181C798.501 132.726 799.873 133.483 801.052 134.468L798.29 138.691C797.304 138.058 796.301 137.583 795.245 137.248C794.207 136.914 793.134 136.756 792.06 136.756C791.392 136.756 790.829 136.826 790.371 136.984C789.914 137.143 789.562 137.372 789.35 137.653C789.139 137.935 789.016 138.269 789.016 138.656C789.016 139.096 789.122 139.483 789.35 139.8C789.579 140.117 790.072 140.433 790.829 140.75C791.585 141.067 792.711 141.454 794.207 141.894C795.879 142.369 797.304 142.932 798.466 143.601C799.627 144.27 800.507 145.114 801.105 146.117C801.703 147.12 802.003 148.405 802.003 149.918C802.003 151.66 801.51 153.156 800.507 154.405C799.504 155.655 798.166 156.605 796.477 157.256C794.788 157.907 792.887 158.224 790.793 158.224C788.699 158.224 786.605 157.889 784.81 157.203C783.016 156.517 781.485 155.619 780.253 154.476L783.913 150.393C784.863 151.115 785.901 151.713 787.045 152.17C788.189 152.628 789.368 152.857 790.6 152.857C791.744 152.857 792.641 152.646 793.292 152.241C793.943 151.836 794.26 151.238 794.26 150.481C794.26 149.918 794.137 149.443 793.873 149.073C793.626 148.704 793.116 148.37 792.359 148.053C791.603 147.736 790.459 147.367 788.946 146.962C786.447 146.24 784.582 145.22 783.332 143.918C782.083 142.615 781.485 140.997 781.485 139.078C781.485 137.618 781.907 136.298 782.734 135.137C783.579 133.958 784.758 133.043 786.306 132.374C787.855 131.705 789.667 131.371 791.796 131.371H791.779Z" fill="#071013"/>
<path d="M803.007 132.181H819.865L819.055 137.407H802.989V132.181H803.007ZM806.561 126.708L814.075 125.846V148.985C814.075 150.182 814.269 151.044 814.673 151.519C815.061 152.012 815.659 152.258 816.451 152.258C816.856 152.258 817.295 152.188 817.753 152.047C818.21 151.906 818.686 151.713 819.161 151.449L821.677 156.2C820.727 156.869 819.636 157.361 818.422 157.696C817.207 158.03 816.011 158.189 814.832 158.189C812.069 158.153 810.01 157.379 808.638 155.831C807.265 154.3 806.579 152.03 806.579 149.056V126.673L806.561 126.708Z" fill="#071013"/>
<path d="M837.971 132.181H845.485V157.415H838.974L838.64 154.23C837.725 155.567 836.634 156.553 835.384 157.221C834.135 157.89 832.674 158.224 830.985 158.224C828.645 158.224 826.885 157.503 825.706 156.095C824.527 154.67 823.946 152.734 823.946 150.306V132.199H831.46V149.356C831.46 150.623 831.671 151.485 832.076 151.96C832.481 152.435 833.097 152.681 833.888 152.681C834.68 152.681 835.419 152.435 836.123 151.925C836.827 151.414 837.443 150.693 837.971 149.743V132.216V132.181Z" fill="#071013"/>
<path d="M860.494 131.371C861.409 131.371 862.272 131.495 863.063 131.723C863.855 131.952 864.577 132.304 865.228 132.744C865.879 133.184 866.46 133.694 866.97 134.257L867.023 139.624C866.583 139.026 866.143 138.516 865.721 138.111C865.298 137.706 864.823 137.39 864.295 137.161C863.767 136.932 863.187 136.826 862.553 136.826C861.673 136.826 860.881 137.09 860.195 137.618C859.509 138.146 858.981 138.991 858.576 140.17C858.172 141.349 857.978 142.88 857.978 144.78C857.978 146.874 858.154 148.493 858.506 149.619C858.858 150.763 859.333 151.555 859.949 152.012C860.565 152.47 861.286 152.699 862.113 152.699C863.134 152.699 864.014 152.4 864.806 151.801C865.58 151.203 866.284 150.306 866.917 149.144L867.339 153.895C866.636 155.039 865.668 156.042 864.436 156.904C863.204 157.784 861.656 158.206 859.773 158.206C857.626 158.206 855.831 157.643 854.423 156.517C853.016 155.391 851.96 153.825 851.238 151.819C850.517 149.813 850.165 147.437 850.165 144.71C850.165 141.982 850.587 139.8 851.45 137.794C852.312 135.788 853.508 134.205 855.057 133.061C856.605 131.917 858.418 131.354 860.477 131.354L860.494 131.371ZM866.477 150.569V121.359L873.991 122.168V157.415H867.339L866.864 153.807L866.477 150.569Z" fill="#071013"/>
<path d="M883.581 118.877C884.918 118.877 885.992 119.282 886.819 120.109C887.646 120.936 888.05 121.939 888.05 123.153C888.05 124.368 887.646 125.371 886.819 126.198C885.992 127.025 884.918 127.429 883.581 127.429C882.243 127.429 881.223 127.025 880.396 126.198C879.569 125.371 879.164 124.368 879.164 123.153C879.164 121.939 879.569 120.936 880.396 120.109C881.223 119.282 882.279 118.877 883.581 118.877ZM879.868 132.181H887.382V157.414H879.868V132.181Z" fill="#071013"/>
<path d="M903.396 141.824H907.004V145.959H904.1C902.393 145.959 901.109 146.258 900.282 146.856C899.455 147.455 899.032 148.387 899.032 149.654C899.032 150.64 899.296 151.414 899.824 151.977C900.352 152.54 901.074 152.839 901.989 152.839C903.009 152.839 903.871 152.558 904.593 152.012C905.314 151.449 905.895 150.71 906.3 149.76L907.813 153.701C906.951 155.355 905.807 156.517 904.364 157.186C902.921 157.872 901.39 158.206 899.771 158.206C897.273 158.206 895.267 157.467 893.789 155.989C892.31 154.511 891.554 152.628 891.554 150.305C891.554 147.542 892.574 145.448 894.616 143.988C896.657 142.527 899.578 141.806 903.379 141.806L903.396 141.824ZM902.868 131.371C906.546 131.371 909.203 132.128 910.857 133.623C912.511 135.137 913.321 137.354 913.321 140.293V150.076C913.321 151.027 913.462 151.731 913.726 152.17C913.99 152.61 914.429 152.945 915.028 153.173L913.462 158.065C911.843 157.942 910.523 157.555 909.502 156.922C908.482 156.288 907.672 155.232 907.109 153.737L905.965 151.115V140.715C905.965 139.219 905.631 138.199 904.962 137.653C904.294 137.108 903.203 136.826 901.689 136.826C900.898 136.826 899.912 136.932 898.751 137.16C897.572 137.389 896.358 137.706 895.091 138.163L893.384 133.219C894.967 132.62 896.586 132.163 898.258 131.846C899.93 131.529 901.461 131.371 902.886 131.371H902.868Z" fill="#071013"/>
<path d="M919.303 132.181H925.866L926.817 137.407V157.414H919.303V132.181ZM934.084 131.371C936.266 131.371 937.973 132.04 939.222 133.36C940.472 134.679 941.07 136.562 941.07 138.973V157.414H933.556V140.257C933.556 138.92 933.345 138.04 932.905 137.565C932.465 137.09 931.902 136.879 931.163 136.879C930.336 136.879 929.562 137.16 928.84 137.741C928.119 138.304 927.432 139.114 926.799 140.169L925.796 135.946C926.94 134.451 928.171 133.324 929.509 132.55C930.846 131.776 932.36 131.389 934.066 131.389L934.084 131.371Z" fill="#071013"/>
<path d="M943.867 132.181H960.725L959.915 137.407H943.85V132.181H943.867ZM947.439 126.708L954.953 125.846V148.985C954.953 150.182 955.147 151.044 955.551 151.519C955.939 152.012 956.537 152.258 957.329 152.258C957.733 152.258 958.173 152.188 958.631 152.047C959.088 151.906 959.564 151.713 960.039 151.449L962.555 156.2C961.605 156.869 960.514 157.361 959.3 157.696C958.085 158.03 956.889 158.189 955.71 158.189C952.947 158.153 950.888 157.379 949.516 155.831C948.143 154.3 947.457 152.03 947.457 149.056V126.673L947.439 126.708Z" fill="#071013"/>
<path d="M974.945 131.371C977.356 131.371 979.432 131.881 981.174 132.884C982.916 133.905 984.254 135.366 985.186 137.301C986.119 139.237 986.594 141.56 986.594 144.287C986.594 144.692 986.594 145.167 986.577 145.66C986.559 146.152 986.524 146.61 986.453 146.997H970.106L970.018 142.475H979.239V142.14C979.239 140.997 979.098 139.994 978.834 139.131C978.57 138.251 978.13 137.583 977.549 137.09C976.969 136.597 976.159 136.351 975.156 136.351C974.206 136.351 973.397 136.615 972.728 137.16C972.059 137.706 971.567 138.586 971.232 139.818C970.898 141.049 970.739 142.739 970.739 144.85C970.739 146.962 970.986 148.563 971.479 149.689C971.971 150.833 972.658 151.625 973.52 152.065C974.4 152.505 975.42 152.734 976.582 152.734C977.62 152.734 978.623 152.558 979.573 152.188C980.523 151.819 981.544 151.255 982.617 150.499L985.697 154.687C984.43 155.707 982.987 156.534 981.368 157.203C979.749 157.872 977.919 158.206 975.86 158.206C973.08 158.206 970.722 157.643 968.821 156.517C966.921 155.391 965.496 153.825 964.563 151.819C963.63 149.812 963.155 147.507 963.155 144.903C963.155 142.299 963.613 140.117 964.51 138.058C965.408 135.999 966.745 134.363 968.505 133.166C970.264 131.969 972.411 131.354 974.945 131.354V131.371Z" fill="#071013"/>
<path d="M999.685 131.371C1001.52 131.371 1003.24 131.635 1004.82 132.181C1006.41 132.726 1007.78 133.483 1008.96 134.468L1006.2 138.691C1005.21 138.058 1004.21 137.583 1003.15 137.248C1002.11 136.914 1001.04 136.756 999.967 136.756C999.298 136.756 998.735 136.826 998.277 136.984C997.82 137.143 997.468 137.372 997.257 137.653C997.046 137.935 996.922 138.269 996.922 138.656C996.922 139.096 997.028 139.483 997.257 139.8C997.485 140.117 997.978 140.433 998.735 140.75C999.491 141.067 1000.62 141.454 1002.11 141.894C1003.79 142.369 1005.21 142.932 1006.37 143.601C1007.53 144.27 1008.41 145.114 1009.01 146.117C1009.61 147.12 1009.91 148.405 1009.91 149.918C1009.91 151.66 1009.42 153.156 1008.41 154.405C1007.41 155.655 1006.07 156.605 1004.38 157.256C1002.69 157.907 1000.79 158.224 998.7 158.224C996.606 158.224 994.512 157.889 992.717 157.203C990.922 156.517 989.391 155.619 988.159 154.476L991.819 150.393C992.77 151.115 993.808 151.713 994.952 152.17C996.095 152.628 997.274 152.857 998.506 152.857C999.65 152.857 1000.55 152.646 1001.2 152.241C1001.85 151.836 1002.17 151.238 1002.17 150.481C1002.17 149.918 1002.04 149.443 1001.78 149.073C1001.53 148.704 1001.02 148.37 1000.27 148.053C999.509 147.736 998.365 147.367 996.852 146.962C994.353 146.24 992.488 145.22 991.239 143.918C989.989 142.615 989.391 140.997 989.391 139.078C989.391 137.618 989.813 136.298 990.64 135.137C991.485 133.958 992.664 133.043 994.212 132.374C995.761 131.705 997.573 131.371 999.703 131.371H999.685Z" fill="#071013"/>
<path d="M1025.02 132.181H1031.59L1032.54 137.407V157.414H1025.02V132.181ZM1039.42 131.371C1041.09 131.371 1042.5 131.846 1043.62 132.796C1044.75 133.747 1045.47 135.102 1045.79 136.879L1046.03 138.973V157.414H1038.52V140.257C1038.52 138.92 1038.31 138.04 1037.89 137.565C1037.46 137.09 1036.95 136.879 1036.39 136.879C1035.6 136.879 1034.9 137.16 1034.28 137.741C1033.66 138.304 1033.08 139.114 1032.54 140.169L1031.53 135.946C1032.55 134.451 1033.68 133.324 1034.95 132.55C1036.21 131.776 1037.71 131.389 1039.42 131.389V131.371ZM1052.9 131.371C1054.87 131.371 1056.45 132.04 1057.67 133.36C1058.88 134.679 1059.5 136.562 1059.5 138.973V157.414H1051.98V140.257C1051.98 138.92 1051.77 138.04 1051.35 137.565C1050.93 137.09 1050.42 136.879 1049.85 136.879C1049.06 136.879 1048.36 137.16 1047.74 137.741C1047.12 138.304 1046.54 139.114 1046 140.169L1044.96 135.893C1046 134.398 1047.16 133.289 1048.43 132.515C1049.69 131.758 1051.19 131.371 1052.9 131.371Z" fill="#071013"/>
<path d="M1076.09 131.371C1079.93 131.371 1082.93 132.55 1085.13 134.89C1087.33 137.231 1088.44 140.539 1088.44 144.815C1088.44 147.472 1087.95 149.812 1086.95 151.819C1085.94 153.825 1084.54 155.391 1082.69 156.517C1080.84 157.643 1078.66 158.206 1076.09 158.206C1072.25 158.206 1069.24 157.027 1067.04 154.669C1064.84 152.311 1063.74 149.003 1063.74 144.762C1063.74 142.07 1064.23 139.712 1065.23 137.706C1066.24 135.7 1067.64 134.134 1069.49 133.025C1071.32 131.917 1073.52 131.371 1076.09 131.371ZM1076.09 136.879C1074.58 136.879 1073.43 137.512 1072.68 138.762C1071.92 140.011 1071.53 142.017 1071.53 144.78C1071.53 147.542 1071.92 149.584 1072.68 150.833C1073.43 152.082 1074.58 152.716 1076.09 152.716C1077.6 152.716 1078.78 152.082 1079.54 150.815C1080.28 149.549 1080.65 147.56 1080.65 144.833C1080.65 142.105 1080.28 139.993 1079.54 138.744C1078.8 137.512 1077.64 136.896 1076.09 136.896V136.879Z" fill="#071013"/>
<path d="M1099.6 158.206C1097.42 158.206 1095.71 157.573 1094.5 156.324C1093.28 155.074 1092.67 153.297 1092.67 150.974V122.133L1100.18 121.324V150.693C1100.18 151.203 1100.29 151.59 1100.5 151.854C1100.71 152.118 1101.02 152.259 1101.46 152.259C1101.75 152.259 1101.99 152.241 1102.19 152.188C1102.38 152.136 1102.56 152.083 1102.71 152.03L1104.19 157.344C1103.65 157.573 1103 157.767 1102.2 157.943C1101.41 158.119 1100.55 158.206 1099.63 158.206H1099.6Z" fill="#071013"/>
<path d="M1116.9 131.371C1119.31 131.371 1121.39 131.881 1123.13 132.884C1124.87 133.905 1126.21 135.366 1127.14 137.301C1128.07 139.237 1128.55 141.56 1128.55 144.287C1128.55 144.692 1128.55 145.167 1128.53 145.66C1128.51 146.152 1128.48 146.61 1128.41 146.997H1112.06L1111.97 142.475H1121.19V142.14C1121.19 140.997 1121.05 139.994 1120.79 139.131C1120.52 138.251 1120.08 137.583 1119.5 137.09C1118.92 136.597 1118.11 136.351 1117.11 136.351C1116.16 136.351 1115.35 136.615 1114.68 137.16C1114.01 137.706 1113.52 138.586 1113.19 139.818C1112.85 141.049 1112.69 142.739 1112.69 144.85C1112.69 146.962 1112.94 148.563 1113.43 149.689C1113.92 150.833 1114.61 151.625 1115.47 152.065C1116.35 152.505 1117.37 152.734 1118.53 152.734C1119.57 152.734 1120.58 152.558 1121.53 152.188C1122.48 151.819 1123.5 151.255 1124.57 150.499L1127.65 154.687C1126.38 155.707 1124.94 156.534 1123.32 157.203C1121.7 157.872 1119.87 158.206 1117.81 158.206C1115.03 158.206 1112.67 157.643 1110.77 156.517C1108.87 155.391 1107.45 153.825 1106.52 151.819C1105.58 149.812 1105.11 147.507 1105.11 144.903C1105.11 142.299 1105.57 140.117 1106.46 138.058C1107.36 135.999 1108.7 134.363 1110.46 133.166C1112.22 131.969 1114.36 131.354 1116.9 131.354V131.371Z" fill="#071013"/>
<path d="M1141.65 131.371C1143.48 131.371 1145.21 131.635 1146.79 132.181C1148.38 132.726 1149.75 133.483 1150.93 134.468L1148.17 138.691C1147.18 138.058 1146.18 137.583 1145.12 137.248C1144.08 136.914 1143.01 136.756 1141.94 136.756C1141.27 136.756 1140.7 136.826 1140.25 136.984C1139.79 137.143 1139.44 137.372 1139.23 137.653C1139.02 137.935 1138.89 138.269 1138.89 138.656C1138.89 139.096 1139 139.483 1139.23 139.8C1139.46 140.117 1139.95 140.433 1140.7 140.75C1141.46 141.067 1142.59 141.454 1144.08 141.894C1145.75 142.369 1147.18 142.932 1148.34 143.601C1149.5 144.27 1150.38 145.114 1150.98 146.117C1151.58 147.12 1151.88 148.405 1151.88 149.918C1151.88 151.66 1151.39 153.156 1150.38 154.405C1149.38 155.655 1148.04 156.605 1146.35 157.256C1144.66 157.907 1142.76 158.224 1140.67 158.224C1138.58 158.224 1136.48 157.889 1134.69 157.203C1132.89 156.517 1131.36 155.619 1130.13 154.476L1133.79 150.393C1134.74 151.115 1135.78 151.713 1136.92 152.17C1138.07 152.628 1139.24 152.857 1140.48 152.857C1141.62 152.857 1142.52 152.646 1143.17 152.241C1143.82 151.836 1144.14 151.238 1144.14 150.481C1144.14 149.918 1144.01 149.443 1143.75 149.073C1143.5 148.704 1142.99 148.37 1142.24 148.053C1141.48 147.736 1140.33 147.367 1138.82 146.962C1136.32 146.24 1134.46 145.22 1133.21 143.918C1131.96 142.615 1131.36 140.997 1131.36 139.078C1131.36 137.618 1131.78 136.298 1132.61 135.137C1133.45 133.958 1134.63 133.043 1136.18 132.374C1137.73 131.705 1139.54 131.371 1141.67 131.371H1141.65Z" fill="#071013"/>
<path d="M1152.87 132.181H1169.72L1168.91 137.407H1152.85V132.181H1152.87ZM1156.44 126.708L1163.95 125.846V148.985C1163.95 150.182 1164.14 151.044 1164.55 151.519C1164.94 152.012 1165.53 152.258 1166.33 152.258C1166.73 152.258 1167.17 152.188 1167.63 152.047C1168.09 151.906 1168.56 151.713 1169.04 151.449L1171.55 156.2C1170.6 156.869 1169.51 157.361 1168.3 157.696C1167.08 158.03 1165.89 158.189 1164.71 158.189C1161.95 158.153 1159.89 157.379 1158.51 155.831C1157.14 154.3 1156.46 152.03 1156.46 149.056V126.673L1156.44 126.708Z" fill="#071013"/>
<path d="M1184.5 131.371C1188.34 131.371 1191.35 132.55 1193.55 134.89C1195.75 137.231 1196.86 140.539 1196.86 144.815C1196.86 147.472 1196.36 149.812 1195.36 151.819C1194.36 153.825 1192.95 155.391 1191.1 156.517C1189.25 157.643 1187.07 158.206 1184.5 158.206C1180.67 158.206 1177.66 157.027 1175.46 154.669C1173.26 152.311 1172.15 149.003 1172.15 144.762C1172.15 142.07 1172.64 139.712 1173.65 137.706C1174.65 135.7 1176.06 134.134 1177.9 133.025C1179.73 131.917 1181.93 131.371 1184.5 131.371ZM1184.5 136.879C1182.99 136.879 1181.85 137.512 1181.09 138.762C1180.33 140.011 1179.95 142.017 1179.95 144.78C1179.95 147.542 1180.33 149.584 1181.09 150.833C1181.85 152.082 1182.99 152.716 1184.5 152.716C1186.02 152.716 1187.2 152.082 1187.95 150.815C1188.69 149.549 1189.06 147.56 1189.06 144.833C1189.06 142.105 1188.69 139.993 1187.95 138.744C1187.21 137.512 1186.05 136.896 1184.5 136.896V136.879Z" fill="#071013"/>
<path d="M1210.21 131.371C1212.04 131.371 1213.77 131.635 1215.35 132.181C1216.93 132.726 1218.31 133.483 1219.49 134.468L1216.72 138.691C1215.74 138.058 1214.73 137.583 1213.68 137.248C1212.64 136.914 1211.57 136.756 1210.49 136.756C1209.83 136.756 1209.26 136.826 1208.8 136.984C1208.35 137.143 1208 137.372 1207.78 137.653C1207.57 137.935 1207.45 138.269 1207.45 138.656C1207.45 139.096 1207.56 139.483 1207.78 139.8C1208.01 140.117 1208.51 140.433 1209.26 140.75C1210.02 141.067 1211.15 141.454 1212.64 141.894C1214.31 142.369 1215.74 142.932 1216.9 143.601C1218.06 144.27 1218.94 145.114 1219.54 146.117C1220.14 147.12 1220.44 148.405 1220.44 149.918C1220.44 151.66 1219.94 153.156 1218.94 154.405C1217.94 155.655 1216.6 156.605 1214.91 157.256C1213.22 157.907 1211.32 158.224 1209.23 158.224C1207.13 158.224 1205.04 157.889 1203.24 157.203C1201.45 156.517 1199.92 155.619 1198.69 154.476L1202.35 150.393C1203.3 151.115 1204.34 151.713 1205.48 152.17C1206.62 152.628 1207.8 152.857 1209.03 152.857C1210.18 152.857 1211.07 152.646 1211.73 152.241C1212.38 151.836 1212.69 151.238 1212.69 150.481C1212.69 149.918 1212.57 149.443 1212.31 149.073C1212.06 148.704 1211.55 148.37 1210.79 148.053C1210.04 147.736 1208.89 147.367 1207.38 146.962C1204.88 146.24 1203.02 145.22 1201.77 143.918C1200.52 142.615 1199.92 140.997 1199.92 139.078C1199.92 137.618 1200.34 136.298 1201.17 135.137C1202.01 133.958 1203.19 133.043 1204.74 132.374C1206.29 131.705 1208.1 131.371 1210.23 131.371H1210.21Z" fill="#071013"/>
</svg>
